<svg width="304" height="286" viewBox="0 0 304 286" fill="none" xmlns="http://www.w3.org/2000/svg">
<path d="M78.2562 66.7537H27.5107V80.1784H78.2562V66.7537Z" fill="#EBEBEB"/>
<path d="M56.7958 94.3191C56.7958 94.3191 56.7958 94.2296 56.7958 94.0698C56.7958 93.91 56.7958 93.6671 56.7958 93.3858C56.7958 92.7508 56.783 91.8686 56.7574 90.7392C56.7574 88.425 56.7127 85.0944 56.6743 80.8944L56.8278 81.0478L6.08867 81.1501L6.34438 80.8944V87.741C6.34438 89.9784 6.34438 92.1839 6.34438 94.3383L6.09507 94.089L42.2523 94.204L52.9282 94.2744H55.8177H56.572H56.8341H56.604H55.8752H53.0496L42.4313 94.3447L6.09507 94.4597H5.83936V94.204C5.83936 92.0497 5.83936 89.8442 5.83936 87.6067V80.9008L6.10146 80.6387L56.8405 80.741H57.0004V80.9008C56.962 85.1392 56.9364 88.5017 56.9109 90.8415C56.9109 91.9538 56.9109 92.8232 56.8789 93.4497C56.8789 93.7182 56.8789 93.9355 56.8789 94.089C56.8616 94.169 56.8336 94.2464 56.7958 94.3191Z" fill="#E0E0E0"/>
<path d="M279.141 123.988H238.918V137.413H279.141V123.988Z" fill="#EBEBEB"/>
<path d="M280.337 244.536C280.33 244.455 280.33 244.374 280.337 244.293C280.337 244.114 280.337 243.884 280.337 243.602C280.337 242.963 280.337 242.094 280.298 240.962C280.298 238.642 280.247 235.311 280.209 231.111L280.369 231.271L229.623 231.367L229.879 231.111V237.919C229.879 240.161 229.879 242.362 229.879 244.523L229.63 244.267L265.793 244.382L276.463 244.459L279.352 244.491H280.107H280.375C280.297 244.5 280.217 244.5 280.139 244.491H279.416L276.584 244.523L265.966 244.6L229.63 244.715H229.374V237.932C229.374 236.813 229.374 235.682 229.374 234.544V231.124C229.892 230.606 229.521 230.983 229.636 230.868L280.382 230.964H280.535V231.117C280.497 235.356 280.471 238.725 280.452 241.064C280.452 242.177 280.42 243.046 280.414 243.666C280.414 243.941 280.414 244.158 280.414 244.305C280.414 244.453 280.337 244.542 280.337 244.536Z" fill="#E0E0E0"/>
<path d="M291.39 151.029C291.381 150.946 291.381 150.862 291.39 150.78C291.39 150.601 291.39 150.377 291.39 150.096C291.39 149.456 291.39 148.58 291.351 147.455C291.351 145.135 291.3 141.804 291.262 137.604L291.422 137.758L240.682 137.86L240.938 137.604V141.031C240.938 142.169 240.938 143.294 240.938 144.419V151.029L240.682 150.773L276.846 150.888L287.522 150.959L290.405 150.997H291.159H291.428C291.349 151.004 291.27 151.004 291.191 150.997H290.469L287.637 151.029L277.025 151.099L240.682 151.214H240.433V151.029C240.433 148.868 240.433 146.663 240.433 144.425V137.604L240.695 137.342L291.434 137.444H291.594V137.604C291.556 141.843 291.524 145.205 291.505 147.545C291.505 148.657 291.492 149.527 291.466 150.153C291.466 150.422 291.466 150.639 291.466 150.792C291.451 150.874 291.426 150.954 291.39 151.029Z" fill="#E0E0E0"/>
<path d="M282.906 52.5298C282.898 52.449 282.898 52.3676 282.906 52.2868C282.906 52.1078 282.906 51.8841 282.906 51.6028C282.906 50.9721 282.893 50.0899 282.868 48.9562C282.868 46.6421 282.817 43.3114 282.778 39.1114L282.938 39.2648L232.193 39.3671C232.308 39.2521 231.931 39.6228 232.448 39.1114V45.9325C232.448 48.1699 232.448 50.4074 232.448 52.5298L232.199 52.2804L268.363 52.3955L279.032 52.4658L281.922 52.4978H282.676H282.945C282.866 52.5064 282.787 52.5064 282.708 52.4978H281.986L279.147 52.5809L268.529 52.6512L232.193 52.7663H231.937V45.9325C231.937 44.8073 231.937 43.6822 231.937 42.5443V39.1178L232.199 38.8557L282.945 38.958H283.098V39.1178C283.06 43.3562 283.034 46.7188 283.015 49.0585C283.015 50.1708 283.002 51.0403 282.977 51.6667C282.977 51.9352 282.977 52.1526 282.977 52.306C282.977 52.4594 282.906 52.5361 282.906 52.5298Z" fill="#E0E0E0"/>
<path d="M289.785 39.1113C289.778 39.0262 289.778 38.9407 289.785 38.8556C289.785 38.6574 289.785 38.4273 289.785 38.1396C289.785 37.5003 289.753 36.5798 289.734 35.4483C289.734 33.0957 289.676 29.7715 289.638 25.6866L289.823 25.872L259.33 25.9423L259.586 25.6866V29.1834C259.586 30.3341 259.586 31.4784 259.586 32.5971C259.586 34.8474 259.586 37.0209 259.586 39.1113L259.343 38.862L281.148 38.9771L287.503 39.0474H289.216C289.43 39.0398 289.643 39.0505 289.855 39.0793C289.67 39.0913 289.484 39.0913 289.299 39.0793H287.637L281.34 39.1497L259.33 39.3542H259.081V39.1113C259.081 37.0209 259.081 34.8474 259.081 32.5971C259.081 31.4784 259.081 30.3341 259.081 29.1834V25.693C259.023 25.7441 259.573 25.2007 259.343 25.4309L289.83 25.5076H290.015V25.693C289.97 29.8227 289.938 33.1852 289.913 35.5697C289.913 36.6821 289.913 37.5707 289.868 38.2163C289.858 38.516 289.83 38.8149 289.785 39.1113Z" fill="#E0E0E0"/>
<path d="M56.7958 218.35C56.7958 218.35 56.7958 218.261 56.7958 218.107C56.7958 217.954 56.7958 217.698 56.7958 217.417C56.7958 216.778 56.7958 215.902 56.7574 214.777C56.7574 212.456 56.7127 209.126 56.6743 204.926L56.8278 205.079L6.08867 205.181L6.34438 204.926V211.759C6.34438 213.997 6.34438 216.202 6.34438 218.363L6.09507 218.107L42.2523 218.222L52.9282 218.293L55.8177 218.331H56.572H56.8341H56.604H55.8752L53.0496 218.363L42.4313 218.433L6.09507 218.549H5.83936V218.299C5.83936 216.138 5.83936 213.933 5.83936 211.696V204.932L6.10146 204.67L56.8405 204.772H57.0004V204.932C56.962 209.17 56.9364 212.533 56.9109 214.873C56.9109 215.985 56.9109 216.854 56.8789 217.481C56.8789 217.749 56.8789 217.967 56.8789 218.12C56.8616 218.2 56.8336 218.278 56.7958 218.35Z" fill="#E0E0E0"/>
<path d="M63.7127 204.926C63.7056 204.841 63.7056 204.755 63.7127 204.67C63.7127 204.478 63.7127 204.242 63.7127 203.954C63.7127 203.315 63.7127 202.401 63.6616 201.263C63.6616 198.91 63.6041 195.586 63.5657 191.501L63.7511 191.687L33.2642 191.757L33.5199 191.501V194.985C33.5199 196.136 33.5199 197.28 33.5199 198.399C33.5199 200.649 33.5199 202.823 33.5199 204.913L33.2706 204.664L55.0826 204.779L61.4369 204.849L63.1502 204.881C63.3637 204.878 63.5772 204.889 63.7895 204.913C63.6043 204.925 63.4185 204.925 63.2333 204.913H61.5712L55.2743 204.984L33.2961 205.099H33.0532V204.856C33.0532 202.765 33.0532 200.592 33.0532 198.341V191.514L33.3153 191.252L63.7127 191.303H63.8981V191.488C63.8534 195.625 63.8214 198.987 63.7958 201.365C63.7958 202.484 63.7958 203.366 63.7511 204.018C63.7567 204.321 63.7438 204.624 63.7127 204.926Z" fill="#E0E0E0"/>
<path d="M239.736 5.198H72.5411C67.1816 5.198 62.8369 9.5427 62.8369 14.9022V275.387C62.8369 280.746 67.1816 285.091 72.5411 285.091H239.736C245.096 285.091 249.441 280.746 249.441 275.387V14.9022C249.441 9.5427 245.096 5.198 239.736 5.198Z" fill="#EBEBEB"/>
<path d="M237.09 0.166992H59.4805C56.7654 0.166992 54.5645 2.36796 54.5645 5.083V274.773C54.5645 277.488 56.7654 279.689 59.4805 279.689H237.09C239.805 279.689 242.006 277.488 242.006 274.773V5.083C242.006 2.36796 239.805 0.166992 237.09 0.166992Z" fill="#FAFAFA"/>
<path d="M237.09 279.689H237.243C237.393 279.685 237.542 279.672 237.691 279.651C238.282 279.578 238.854 279.395 239.378 279.114C240.246 278.65 240.956 277.938 241.418 277.068C241.711 276.512 241.893 275.904 241.955 275.278C241.999 274.6 241.955 273.872 241.955 273.104C241.955 266.935 241.955 257.845 241.923 246.14C241.923 222.723 241.923 188.836 241.872 146.97C241.872 126.033 241.872 103.103 241.872 78.4843C241.872 66.1804 241.872 53.4632 241.872 40.3325C241.872 33.7821 241.872 27.1315 241.872 20.3808V10.1908C241.872 8.47755 241.872 6.7643 241.872 5.07662C241.865 4.2365 241.636 3.41306 241.21 2.6892C240.783 1.96534 240.174 1.36661 239.442 0.953309C237.966 0.06472 236.144 0.416321 234.418 0.346001H59.5062C58.5344 0.342625 57.5848 0.636635 56.7849 1.18857C55.985 1.7405 55.3731 2.52393 55.0313 3.43369C54.7589 4.36446 54.6677 5.33888 54.7628 6.30402V90.6113C54.7628 120.74 54.7628 149.802 54.7628 177.482C54.7628 205.163 54.7628 231.475 54.7628 256.113C54.7628 262.267 54.7628 268.314 54.7628 274.255C54.7014 274.977 54.7971 275.703 55.0432 276.384C55.2893 277.065 55.68 277.684 56.1884 278.199C56.7026 278.7 57.3201 279.082 57.9975 279.318C58.6804 279.537 59.398 279.626 60.1135 279.58H68.7693H101.628L200.798 279.631H227.756H234.788H237.173H234.788H227.756L200.798 279.663L101.628 279.721H60.0496C59.3033 279.767 58.5549 279.672 57.8441 279.44C57.143 279.202 56.5032 278.812 55.9705 278.298C55.4378 277.785 55.0254 277.159 54.7628 276.467C54.521 275.749 54.419 274.992 54.4623 274.236V256.093C54.4623 231.475 54.4623 205.169 54.4623 177.463C54.4623 149.757 54.4623 120.721 54.4623 90.5921C54.4623 75.5309 54.4623 60.2139 54.4623 44.6412V6.28484C54.4623 5.78621 54.4623 5.30036 54.4623 4.78895C54.4856 4.27256 54.5914 3.76323 54.7756 3.28026C55.1423 2.30967 55.7956 1.47357 56.6487 0.882989C57.0538 0.605358 57.4946 0.383863 57.9592 0.224539C58.4557 0.0800824 58.9699 0.00479128 59.487 0.000792835H237.007C237.676 -0.0110598 238.342 0.110088 238.964 0.357217C239.587 0.604347 240.154 0.972546 240.633 1.44049C241.113 1.90843 241.494 2.46681 241.756 3.08328C242.018 3.69976 242.155 4.36208 242.159 5.03187V20.3744C242.159 27.1209 242.159 33.7714 242.159 40.3261C242.159 53.444 242.159 66.1613 242.159 78.4779C242.159 103.096 242.159 126.027 242.159 146.963C242.159 188.829 242.121 222.717 242.108 246.134C242.108 257.839 242.108 266.929 242.076 273.098C242.076 273.872 242.076 274.594 242.076 275.272C242.014 275.907 241.828 276.524 241.526 277.087C241.058 277.962 240.339 278.676 239.461 279.139C238.93 279.417 238.351 279.595 237.755 279.663C237.534 279.686 237.312 279.694 237.09 279.689Z" fill="#263238"/>
<path d="M233.919 276.243H234.06C234.207 276.24 234.355 276.227 234.501 276.205C235.073 276.127 235.623 275.933 236.118 275.636C236.94 275.144 237.577 274.396 237.934 273.507C238.394 272.452 238.196 271.091 238.234 269.601C238.234 263.611 238.234 254.777 238.202 243.391C238.202 220.639 238.202 187.717 238.151 147.034C238.151 126.692 238.151 104.413 238.151 80.498C238.151 68.5394 238.151 56.1801 238.151 43.4202C238.151 37.053 238.151 30.5921 238.151 24.0374V9.15518C238.042 7.53142 238.554 5.63279 237.262 4.49488C236.966 4.21694 236.615 4.00266 236.233 3.86523C235.85 3.72781 235.443 3.67014 235.038 3.69579H62.5619C62.0907 3.6709 61.6182 3.70526 61.1555 3.79807C60.6936 3.89789 60.258 4.09393 59.877 4.37342C59.5023 4.64545 59.1859 4.98983 58.9465 5.38621C58.7071 5.78258 58.5497 6.22292 58.4834 6.68119C58.4392 7.15502 58.4243 7.63111 58.4386 8.10677V91.4871C58.4386 120.759 58.4386 148.99 58.4386 175.871C58.4386 202.753 58.4386 228.33 58.4386 252.245C58.4386 258.212 58.4386 264.089 58.4386 269.876V272.037C58.3745 272.735 58.4395 273.44 58.6304 274.115C58.8693 274.758 59.3202 275.302 59.9089 275.655C60.1992 275.832 60.5168 275.959 60.8487 276.032C61.191 276.087 61.538 276.106 61.8843 276.09H70.2971H102.222L198.574 276.141L224.784 276.173H231.592H233.919H231.592H224.784L198.599 276.326L102.248 276.378H70.3227H61.8971C61.5336 276.394 61.1694 276.373 60.8103 276.314C60.4472 276.234 60.0995 276.096 59.7811 275.905C59.1386 275.522 58.6466 274.931 58.3875 274.23C58.2501 273.881 58.1786 273.511 58.1765 273.136V269.902C58.1765 264.131 58.1765 258.254 58.1765 252.271C58.1765 228.355 58.1765 202.791 58.1765 175.897C58.1765 149.002 58.1765 120.766 58.1765 91.5127C58.1765 76.8733 58.1765 61.9889 58.1765 46.8595V8.11956C58.1599 7.629 58.1748 7.13787 58.2213 6.64923C58.2925 6.14266 58.4644 5.65546 58.7268 5.21631C58.9892 4.77716 59.3368 4.39494 59.7491 4.09214C60.1573 3.78886 60.6227 3.57139 61.1172 3.45286C61.593 3.36158 62.0782 3.32937 62.5619 3.35697H235.038C235.48 3.33404 235.922 3.40096 236.337 3.55369C236.752 3.70642 237.132 3.94179 237.454 4.24556C237.772 4.5506 238.024 4.91821 238.194 5.32526C238.363 5.73232 238.447 6.17003 238.439 6.61087C238.439 7.44832 238.439 8.28577 238.439 9.12321V24.0438C238.439 30.5985 238.439 37.0594 238.439 43.4266C238.439 56.1652 238.439 68.5244 238.439 80.5044C238.439 104.42 238.439 126.698 238.439 147.04C238.439 187.723 238.4 220.646 238.387 243.397C238.387 254.77 238.387 263.605 238.355 269.608C238.355 270.362 238.355 271.065 238.355 271.724C238.373 272.342 238.264 272.958 238.036 273.533C237.674 274.428 237.027 275.179 236.195 275.668C235.697 275.972 235.138 276.162 234.558 276.224C234.346 276.246 234.132 276.252 233.919 276.243Z" fill="#263238"/>
<path d="M226.484 228H71.1473C67.3731 228 64.3135 231.621 64.3135 236.089V261.966C64.3135 266.434 67.3731 270.055 71.1473 270.055H226.484C230.258 270.055 233.318 266.434 233.318 261.966V236.089C233.318 231.621 230.258 228 226.484 228Z" fill="#124B92"/>
<path d="M92.7949 250.6L87.3949 243H84.9949V257H88.1949V249.4L93.5949 257H95.9949V243H92.7949V250.6ZM110.233 255.18C111.653 253.78 112.353 252.06 112.353 250C112.353 247.94 111.653 246.22 110.233 244.82C108.813 243.42 107.093 242.72 105.073 242.72C103.053 242.72 101.333 243.42 99.9134 244.82C98.4934 246.22 97.7934 247.94 97.7934 250C97.7934 252.06 98.4934 253.78 99.9134 255.18C101.333 256.58 103.053 257.28 105.073 257.28C107.093 257.28 108.813 256.58 110.233 255.18ZM102.153 253C101.373 252.22 100.993 251.22 100.993 250C100.993 248.78 101.373 247.78 102.153 247C102.933 246.22 103.913 245.84 105.073 245.84C106.233 245.84 107.193 246.22 107.973 247C108.753 247.78 109.153 248.78 109.153 250C109.153 251.22 108.753 252.22 107.973 253C107.193 253.78 106.233 254.16 105.073 254.16C103.913 254.16 102.933 253.78 102.153 253ZM125.835 257.28C128.375 257.28 130.635 256.04 131.835 254.04L129.075 252.44C128.495 253.5 127.255 254.16 125.835 254.16C124.595 254.16 123.595 253.78 122.855 253.02C122.115 252.26 121.755 251.26 121.755 250C121.755 248.74 122.115 247.74 122.855 246.98C123.595 246.22 124.595 245.84 125.835 245.84C127.255 245.84 128.455 246.46 129.075 247.56L131.835 245.96C130.615 243.96 128.335 242.72 125.835 242.72C123.735 242.72 121.995 243.42 120.615 244.82C119.235 246.2 118.555 247.94 118.555 250C118.555 252.06 119.235 253.8 120.615 255.2C121.995 256.58 123.735 257.28 125.835 257.28ZM140.935 248.36H136.535V243H133.335V257H136.535V251.44H140.935V257H144.135V243H140.935V248.36ZM149.738 251.44H154.738V248.4H149.738V246.08H155.238V243H146.538V257H155.338V253.92H149.738V251.44ZM169.739 257L164.979 243H160.899L156.139 257H159.639L160.339 254.8H165.539L166.239 257H169.739ZM162.939 246.66L164.579 251.8H161.299L162.939 246.66ZM168.936 243V246.08H172.536V257H175.736V246.08H179.336V243H168.936ZM180.737 257H183.937V243H180.737V257ZM194.143 250.6L188.743 243H186.343V257H189.543V249.4L194.943 257H197.343V243H194.143V250.6ZM206.581 249.2V252H210.321C209.781 253.44 208.601 254.16 206.741 254.16C205.401 254.16 204.341 253.78 203.541 253.02C202.741 252.24 202.341 251.26 202.341 250.04C202.341 248.82 202.721 247.8 203.501 247.02C204.281 246.24 205.281 245.84 206.461 245.84C207.981 245.84 209.261 246.52 209.881 247.48L212.601 245.92C211.401 244 209.101 242.72 206.481 242.72C204.421 242.72 202.681 243.42 201.261 244.84C199.841 246.26 199.141 247.98 199.141 250.02C199.141 252.06 199.861 253.78 201.281 255.18C202.721 256.58 204.521 257.28 206.701 257.28C208.701 257.28 210.341 256.66 211.641 255.42C212.941 254.16 213.601 252.5 213.601 250.4V249.2H206.581Z" fill="white"/>
<g opacity="0.3">
<path opacity="0.3" d="M75.476 11.4308C75.1313 10.7596 74.6528 10.1661 74.0702 9.68677C73.4875 9.20744 72.8129 8.85241 72.0878 8.64355L64.1673 15.1577C63.9435 16.2956 65.823 19.134 66.8458 19.7349C67.9879 20.4671 69.3255 20.835 70.6814 20.7897C72.0315 20.773 73.3327 20.2819 74.3573 19.4025C74.8798 18.9562 75.3071 18.4092 75.6135 17.7941C75.92 17.1791 76.0993 16.5085 76.1408 15.8226C76.382 14.3251 76.1496 12.7897 75.476 11.4308Z" fill="#3A3A3A"/>
</g>
<path d="M69.5495 18.5843C72.6211 18.5843 75.1111 16.0942 75.1111 13.0226C75.1111 9.95098 72.6211 7.46094 69.5495 7.46094C66.4778 7.46094 63.9878 9.95098 63.9878 13.0226C63.9878 16.0942 66.4778 18.5843 69.5495 18.5843Z" fill="#E0E0E0"/>
<path d="M75.1178 13.0226C75.073 13.0226 75.1178 12.524 74.8813 11.6802C74.5542 10.4868 73.8389 9.43637 72.8484 8.69477C72.1725 8.18523 71.3864 7.84146 70.5534 7.69111C69.5997 7.52158 68.6182 7.6076 67.7086 7.94043C67.2175 8.11638 66.7561 8.36646 66.3406 8.68198C65.9014 8.99875 65.517 9.3853 65.2027 9.82628C64.5204 10.7524 64.1524 11.8724 64.1524 13.0226C64.1524 14.1729 64.5204 15.2929 65.2027 16.219C65.829 17.0929 66.7014 17.7605 67.7086 18.1368C68.5565 18.4469 69.4683 18.5403 70.3614 18.4085C71.2545 18.2768 72.1006 17.9241 72.8228 17.3825C73.8119 16.6395 74.5268 15.5896 74.8557 14.3971C75.0794 13.5468 75.0475 13.0482 75.0922 13.0546C75.102 13.1737 75.102 13.2935 75.0922 13.4126C75.0916 13.7554 75.0487 14.0968 74.9644 14.429C74.7151 15.4817 74.1677 16.4402 73.3876 17.1896C72.6076 17.9391 71.6279 18.4477 70.5662 18.6546C69.564 18.8451 68.5293 18.7656 67.568 18.4245C67.047 18.2437 66.5574 17.9828 66.1168 17.651C65.6464 17.3175 65.2357 16.9068 64.9022 16.4364C64.1761 15.4572 63.7842 14.2704 63.7842 13.0514C63.7842 11.8324 64.1761 10.6457 64.9022 9.66646C65.2373 9.19915 65.6478 8.79083 66.1168 8.45824C66.5557 8.12381 67.0457 7.86259 67.568 7.68472C68.4643 7.3624 69.4274 7.27134 70.3683 7.41995C71.3091 7.56857 72.1973 7.95206 72.9507 8.53495C73.9786 9.30829 74.7043 10.4161 75.0027 11.6674C75.0874 11.9996 75.1303 12.341 75.1306 12.6838C75.1351 12.7969 75.1308 12.9102 75.1178 13.0226Z" fill="#263238"/>
<path d="M72.5477 14.0071C72.4774 14.0902 71.2691 13.0802 69.5495 12.3003C67.8298 11.5203 66.27 11.2646 66.27 11.1624C67.4509 11.1705 68.6134 11.4552 69.6646 11.9934C70.7686 12.4323 71.7555 13.1217 72.5477 14.0071Z" fill="#263238"/>
<path d="M71.6524 10.1267C71.383 10.3358 71.0964 10.5218 70.7958 10.6829C70.1325 11.1421 69.5585 11.7183 69.1017 12.3833C68.6454 13.0504 68.316 13.7959 68.13 14.5824C68.0873 14.9206 68.0145 15.2544 67.9127 15.5797C67.8266 15.2377 67.8266 14.8797 67.9127 14.5377C68.0435 13.6979 68.3605 12.8981 68.8406 12.1968C69.3207 11.4955 69.9516 10.9105 70.6871 10.4847C70.9739 10.2865 71.3058 10.1634 71.6524 10.1267Z" fill="#263238"/>
<g opacity="0.3">
<path opacity="0.3" d="M236.253 14.2245C236.235 13.4651 236.061 12.7173 235.742 12.0278C235.423 11.3383 234.966 10.7217 234.399 10.2163L224.708 12.2492C224.011 13.1697 224.19 16.9415 224.855 17.9259C225.566 19.0911 226.62 20.0085 227.872 20.5533C229.094 21.1259 230.479 21.2503 231.784 20.9049C232.448 20.7297 233.07 20.4226 233.612 20.0019C234.155 19.5813 234.607 19.0557 234.942 18.4565C235.814 17.2191 236.273 15.738 236.253 14.2245Z" fill="#3A3A3A"/>
</g>
<path d="M235.236 15.5028C234.755 16.4925 233.991 17.3172 233.041 17.8724C232.09 18.4275 230.997 18.6883 229.898 18.6217C228.8 18.5551 227.746 18.164 226.869 17.498C225.993 16.8321 225.334 15.9211 224.976 14.8805C224.618 13.8399 224.577 12.7164 224.857 11.6522C225.138 10.588 225.728 9.631 226.553 8.9023C227.377 8.17361 228.4 7.70599 229.49 7.55863C230.581 7.41127 231.691 7.5908 232.679 8.07449C234.002 8.72179 235.014 9.86737 235.494 11.26C235.973 12.6525 235.881 14.1784 235.236 15.5028Z" fill="#E0E0E0"/>
<path d="M235.236 15.5031C235.386 15.0736 235.512 14.6361 235.613 14.1926C235.838 12.9756 235.651 11.7185 235.083 10.6191C234.666 9.81285 234.054 9.12376 233.302 8.6146C232.551 8.10545 231.684 7.79241 230.78 7.704C230.262 7.64812 229.738 7.67184 229.227 7.77432C228.694 7.87165 228.18 8.05518 227.706 8.31771C226.689 8.85465 225.871 9.70266 225.37 10.7378C224.87 11.7729 224.714 12.9409 224.925 14.0712C225.018 14.5946 225.195 15.0997 225.449 15.5671C225.685 16.0368 225.991 16.4679 226.357 16.8456C226.988 17.4961 227.772 17.9793 228.637 18.2516C229.502 18.5239 230.421 18.5768 231.311 18.4054C232.527 18.1678 233.63 17.5311 234.444 16.5963C234.727 16.2464 234.992 15.8815 235.236 15.5031C235.205 15.62 235.158 15.732 235.096 15.8356C234.946 16.143 234.76 16.4308 234.539 16.6922C233.735 17.6972 232.604 18.3892 231.343 18.6484C230.41 18.8468 229.442 18.8062 228.529 18.5301C227.616 18.254 226.787 17.7515 226.12 17.0694C225.324 16.2639 224.789 15.2367 224.586 14.1223C224.358 12.925 224.522 11.6862 225.052 10.589C225.583 9.49183 226.453 8.59461 227.533 8.03003C228.037 7.75416 228.584 7.56405 229.15 7.46747C229.691 7.35859 230.245 7.33486 230.793 7.39715C231.812 7.49801 232.785 7.86875 233.612 8.47113C234.322 9.00053 234.896 9.69065 235.287 10.4848C235.865 11.6307 236.023 12.9423 235.735 14.1926C235.664 14.5279 235.554 14.854 235.409 15.1643C235.369 15.2855 235.311 15.3998 235.236 15.5031Z" fill="#263238"/>
<path d="M232.481 15.2474C232.391 15.2922 231.752 13.8602 230.563 12.4027C229.374 10.9451 228.063 10.0501 228.121 9.96704C229.183 10.4858 230.107 11.2481 230.819 12.1917C231.605 13.0659 232.174 14.1127 232.481 15.2474Z" fill="#263238"/>
<path d="M233.382 11.3607C233.048 11.4356 232.708 11.4805 232.366 11.4949C230.758 11.7452 229.298 12.5807 228.268 13.841C227.878 14.3269 227.693 14.6721 227.629 14.6465C227.696 14.2997 227.847 13.9747 228.07 13.7004C228.554 13.0018 229.188 12.4204 229.926 11.9989C230.664 11.5774 231.486 11.3266 232.334 11.2648C232.686 11.2119 233.046 11.2448 233.382 11.3607Z" fill="#263238"/>
<path d="M147.713 196.425C132.54 196.425 117.709 191.926 105.093 183.497C92.4781 175.068 82.6457 163.087 76.8394 149.069C71.0332 135.052 69.5141 119.628 72.474 104.747C75.434 89.866 82.7402 76.1971 93.4687 65.4687C104.197 54.7402 117.866 47.434 132.747 44.474C147.628 41.5141 163.052 43.0332 177.069 48.8394C191.087 54.6456 203.068 64.4781 211.497 77.0934C219.926 89.7088 224.425 104.54 224.425 119.713C224.395 140.049 216.303 159.543 201.923 173.923C187.543 188.303 168.049 196.395 147.713 196.425ZM147.713 43.5882C132.667 43.5882 117.959 48.0498 105.449 56.4089C92.9384 64.7679 83.1879 76.649 77.4301 90.5496C71.6722 104.45 70.1657 119.746 73.101 134.503C76.0363 149.26 83.2816 162.815 93.9207 173.454C104.56 184.093 118.115 191.338 132.872 194.273C147.628 197.209 162.924 195.702 176.825 189.944C190.725 184.186 202.606 174.436 210.966 161.926C219.325 149.416 223.786 134.708 223.786 119.662C223.757 99.4945 215.733 80.1616 201.473 65.9013C187.213 51.641 167.88 43.6169 147.713 43.5882Z" fill="#E0E0E0"/>
<path d="M198.453 171.453C226.519 143.387 226.519 97.8834 198.453 69.8176C170.387 41.7518 124.883 41.7518 96.8177 69.8176C68.7518 97.8834 68.7518 143.387 96.8177 171.453C124.883 199.519 170.387 199.519 198.453 171.453Z" fill="#EBEBEB"/>
<path d="M171.782 61.7288C177.235 62.4767 180.994 71.1325 179.658 75.6138C179.018 77.7937 177.74 80.2229 179.319 82.0768C180.898 83.9307 184.67 84.1992 186.178 86.0723C186.178 86.0723 188.096 88.4823 187.546 91.2632C186.997 94.044 187.016 97.8221 189.132 99.0751L177.586 101.811C176.57 100.533 176.308 98.6468 175.311 97.3362C176.48 98.6979 177.228 103.179 171.264 102.987L167.946 99.3116C157.552 100.75 146.582 102.77 139.013 97.4577" fill="#263238"/>
<path d="M117.546 84.001C118.345 81.9106 119.604 79.9992 120.18 77.832C121.413 73.1845 119.38 67.7827 121.867 63.6657C123.638 60.7315 127.167 59.4274 130.485 58.5516C133.802 57.6758 136.96 57.241 139.518 54.9588C141.391 53.2903 142.522 50.9122 144.395 49.2054C147.055 46.8081 150.845 46.1433 154.425 46.0985C158.005 46.0538 161.873 46.5844 165.088 48.3615C168.304 50.1387 170.893 53.3159 171.302 56.9662C171.507 58.7433 171.2 60.5844 171.673 62.3169C172.191 64.2347 173.591 65.7434 174.409 67.5333C175.255 69.4648 175.43 71.6245 174.903 73.6666C174.377 75.7087 173.181 77.5153 171.507 78.7973L144.766 110.064C139.383 111.803 133.796 104.86 129.896 100.756C125.997 96.6522 115.526 89.2878 117.546 84.001Z" fill="#263238"/>
<path d="M171.04 74.6037C170.369 67.1753 165.178 58.1808 157.788 59.1717L137.74 64.842C135.496 65.1425 134.269 69.1123 134.378 71.3754L137.127 125.937C137.069 125.937 137.127 125.937 137.063 125.937C136.999 125.937 140.579 141.619 155.755 136.415C158.766 135.379 160.083 136.466 160.594 133.033C161.234 132.797 160.594 133.033 160.594 132.63C160.665 128.43 160.594 119.775 160.594 119.775C160.518 115.3 160.466 113.42 160.473 113.459C160.479 113.497 169.934 111.618 171.558 99.1582C172.389 92.9636 171.794 82.8567 171.04 74.6037Z" fill="#FFBF9D"/>
<path d="M150.833 85.5481C150.848 85.963 150.702 86.3676 150.423 86.6757C150.145 86.9838 149.757 87.1711 149.343 87.1974C149.141 87.2232 148.935 87.2079 148.739 87.1526C148.542 87.0973 148.359 87.003 148.2 86.8753C148.04 86.7477 147.908 86.5893 147.812 86.4096C147.715 86.2299 147.655 86.0326 147.636 85.8294C147.619 85.4151 147.764 85.0105 148.041 84.7022C148.319 84.3939 148.706 84.2064 149.119 84.1801C149.322 84.1525 149.529 84.1663 149.727 84.2209C149.924 84.2754 150.109 84.3695 150.269 84.4974C150.429 84.6253 150.561 84.7844 150.658 84.965C150.755 85.1456 150.815 85.3439 150.833 85.5481Z" fill="#263238"/>
<path d="M166.994 85.075C167.01 85.4847 166.867 85.8849 166.596 86.1921C166.324 86.4994 165.945 86.69 165.536 86.7243C165.334 86.7463 165.13 86.7277 164.935 86.6695C164.74 86.6112 164.559 86.5146 164.403 86.3853C164.246 86.2561 164.117 86.0967 164.023 85.9166C163.929 85.7366 163.871 85.5395 163.855 85.3371C163.839 84.9222 163.986 84.5176 164.264 84.2094C164.542 83.9013 164.93 83.7141 165.344 83.6877C165.544 83.6702 165.745 83.6922 165.935 83.7525C166.126 83.8127 166.304 83.9101 166.457 84.039C166.61 84.1679 166.736 84.3257 166.828 84.5035C166.921 84.6813 166.977 84.8755 166.994 85.075Z" fill="#263238"/>
<path d="M169.41 80.2163C169.225 80.4976 167.793 79.4939 165.933 79.6729C164.072 79.8519 162.832 81.0602 162.602 80.8172C162.487 80.7086 162.653 80.2163 163.196 79.6538C163.902 78.9461 164.835 78.5093 165.83 78.42C166.824 78.3317 167.817 78.6015 168.63 79.1807C169.257 79.6346 169.5 80.0757 169.41 80.2163Z" fill="#263238"/>
<path d="M152.424 81.2586C152.194 81.5143 150.794 80.3955 148.806 80.3828C146.818 80.37 145.354 81.4248 145.137 81.1563C145.028 81.0412 145.265 80.5809 145.904 80.0887C146.752 79.4602 147.783 79.1277 148.838 79.1426C149.886 79.1538 150.901 79.5137 151.721 80.1654C152.329 80.6768 152.533 81.1435 152.424 81.2586Z" fill="#263238"/>
<path d="M158.747 93.2384C158.747 93.1426 159.795 92.9252 161.515 92.6567C161.95 92.5992 162.359 92.5033 162.423 92.2028C162.448 91.7533 162.334 91.3069 162.097 90.9243L160.709 87.632C158.792 82.9462 157.372 79.085 157.564 79.0082C157.756 78.9315 159.482 82.6713 161.4 87.3635L162.73 90.675C163.017 91.1947 163.114 91.7982 163.004 92.3818C162.943 92.5347 162.848 92.6717 162.726 92.7824C162.605 92.8931 162.459 92.9748 162.301 93.0211C162.063 93.096 161.816 93.139 161.566 93.1489C159.834 93.296 158.753 93.3343 158.747 93.2384Z" fill="#263238"/>
<path d="M160.498 113.459C154.66 113.712 148.866 112.34 143.762 109.495C143.762 109.495 148.186 118.445 160.569 116.949L160.498 113.459Z" fill="#FF9A6C"/>
<path d="M153.205 97.3968C153.451 97.2603 154.386 98.8397 156.429 99.1608C158.471 99.4819 160.069 98.3028 160.213 98.5226C160.297 98.6077 160.018 99.0547 159.296 99.5065C158.368 100.074 157.269 100.296 156.193 100.132C155.16 99.9735 154.228 99.4223 153.591 98.5935C153.149 97.9544 153.09 97.4533 153.205 97.3968Z" fill="#263238"/>
<path d="M152.546 75.441C152.386 75.9141 150.673 75.7415 148.672 76.0355C146.671 76.3296 145.06 76.9305 144.785 76.515C144.657 76.3232 144.926 75.8757 145.571 75.409C146.421 74.8187 147.402 74.4436 148.429 74.3159C149.454 74.1623 150.502 74.2544 151.485 74.5844C152.226 74.8657 152.61 75.2173 152.546 75.441Z" fill="#263238"/>
<path d="M169.071 74.0345C168.732 74.4373 167.377 74.0345 165.753 74.0984C164.129 74.1624 162.768 74.4373 162.442 74.0409C162.301 73.8491 162.506 73.4528 163.081 73.0692C163.889 72.5896 164.814 72.3419 165.753 72.3532C166.691 72.3351 167.614 72.581 168.419 73.0628C169.013 73.4464 169.218 73.8427 169.071 74.0345Z" fill="#263238"/>
<path d="M110.29 81.4056C111.53 79.2833 109.344 76.8029 111.204 74.8595C112.898 73.0951 117.213 73.1654 118.805 71.3563C120.052 69.9435 120.084 69.5663 120.199 68.211C120.301 66.5106 121.285 59.3891 131.757 58.2576L133.035 64.7973C133.674 64.5097 134.378 64.2667 135.055 64.043C143.652 61.2022 152.555 59.3911 161.579 58.6475C162.602 60.5653 161.451 62.9946 159.699 64.2476C157.948 65.5005 155.761 65.9288 153.709 66.5873C151.657 67.2457 149.541 68.3005 148.595 70.2439C147.611 72.3088 148.231 74.8467 147.355 76.9563C145.84 80.5938 140.617 81.5399 139.121 85.1837C137.99 87.939 139.473 91.0075 139.76 93.9737C139.895 95.6622 139.634 97.3588 138.997 98.9283C138.36 100.498 137.365 101.897 136.091 103.013C134.071 104.752 130.632 107.91 130.427 107.245L103.047 88.9299C101.532 84.9664 108.596 84.3143 110.29 81.4056Z" fill="#263238"/>
<path d="M115.839 97.157C115.839 97.157 115.839 97.0867 115.775 96.9653C115.7 96.7809 115.64 96.5906 115.596 96.3963C115.424 95.654 115.424 94.882 115.596 94.1397C115.845 92.9605 116.469 91.8934 117.373 91.0967C117.938 90.6092 118.611 90.263 119.336 90.0867C120.103 89.8949 120.959 89.8501 121.829 89.5817C122.275 89.4538 122.691 89.2363 123.05 88.9424C123.415 88.6125 123.703 88.2066 123.894 87.7533C124.253 86.79 124.408 85.7624 124.348 84.736C124.263 83.6712 124.282 82.6007 124.405 81.5396C124.493 80.9939 124.686 80.4705 124.974 79.999C125.289 79.5307 125.704 79.1378 126.189 78.8483C127.248 78.2986 128.391 77.9271 129.57 77.7487C130.83 77.555 132.048 77.1463 133.17 76.5405C133.735 76.1868 134.212 75.7078 134.563 75.1405C134.9 74.5613 135.14 73.9307 135.273 73.2738C135.567 71.9953 135.605 70.608 135.912 69.2975C136.204 68.0239 136.814 66.8453 137.687 65.8725C138.559 64.8996 139.664 64.1644 140.898 63.7359C142.101 63.3964 143.344 63.2264 144.593 63.2308C145.211 63.2012 145.824 63.1069 146.422 62.9496C147.016 62.785 147.564 62.4827 148.02 62.0674C148.915 61.2107 149.254 60.0409 149.663 59.0308C150.034 58.0251 150.608 57.1067 151.35 56.3331C152.712 54.9439 154.527 54.0888 156.465 53.923C158.058 53.7941 159.649 54.1892 160.997 55.0481C162.02 55.6902 162.892 56.5449 163.554 57.5541C163.97 58.1916 164.289 58.8875 164.5 59.6189C164.583 59.8683 164.609 60.0664 164.647 60.2007C164.659 60.2659 164.676 60.33 164.699 60.3925C164.666 60.1276 164.617 59.8649 164.551 59.6062C164.357 58.862 164.049 58.1525 163.637 57.503C162.98 56.4757 162.107 55.6033 161.08 54.9459C159.709 54.0607 158.086 53.6456 156.458 53.7632C154.481 53.9296 152.628 54.7981 151.235 56.2116C150.467 56.9974 149.872 57.9362 149.49 58.9669C149.075 59.9897 148.729 61.1276 147.892 61.9203C147.055 62.713 145.814 62.9368 144.606 63.0135C143.338 63.0068 142.075 63.1768 140.854 63.5185C139.577 63.9618 138.435 64.7225 137.533 65.729C136.632 66.7355 136.001 67.9547 135.701 69.272C135.407 70.6144 135.369 71.9633 135.062 73.2418C134.936 73.8738 134.707 74.4807 134.384 75.0382C134.053 75.5734 133.603 76.0243 133.067 76.3551C130.894 77.672 128.196 77.4227 126.099 78.6757C125.588 78.9853 125.151 79.4045 124.821 79.9031C124.513 80.3982 124.308 80.9506 124.22 81.5268C124.098 82.6094 124.081 83.7012 124.169 84.7871C124.238 85.7841 124.094 86.7844 123.747 87.7214C123.573 88.1508 123.304 88.5353 122.96 88.8465C122.625 89.14 122.23 89.358 121.803 89.4858C120.972 89.7543 120.116 89.8054 119.329 90.01C118.583 90.1967 117.892 90.5607 117.316 91.0712C116.385 91.8657 115.74 92.9437 115.481 94.1397C115.323 94.8974 115.347 95.6817 115.551 96.4283C115.598 96.6219 115.665 96.8104 115.749 96.9908C115.773 97.0493 115.803 97.105 115.839 97.157Z" fill="#455A64"/>
<path d="M160.729 118.132L172.772 121.929L184.279 156.52L182.157 184.277C176.949 187.059 171.366 189.07 165.581 190.248C158.455 191.878 151.152 192.604 143.845 192.409C137.12 192.179 129.072 190.664 124.45 188.688L117.987 156.674L105.323 137.815C105.323 137.815 113.851 123.227 116.58 120.753C119.31 118.279 136.634 116.617 136.634 116.617C136.634 116.617 141.288 129.894 154.265 127.651C161.496 126.398 160.729 118.132 160.729 118.132Z" fill="#124B92"/>
<path d="M91.732 134.842C90.7987 135.987 91.3165 149.661 92.6206 155.12C93.9248 160.58 107.324 154.212 107.324 154.212L109.657 146.087C109.657 146.087 106.346 139.055 106.186 137.137C106.026 135.22 100.068 133.404 100.068 133.404L91.732 134.842Z" fill="#FFBF9D"/>
<path d="M94.9603 97.8734C94.9603 97.8734 93.6818 95.067 91.3996 96.9784C90.0827 98.0716 89.258 104.995 89.1302 106.459C89.0023 107.923 88.0562 114.073 87.9283 117.154C87.8005 120.235 89.1302 134.114 91.7959 136.645C94.4617 139.177 95.1329 136.645 102.612 137.719C110.092 138.793 113.563 125.957 114.497 122.907C115.43 119.858 117.565 114.763 117.565 114.763L119.227 109.348C119.277 109.084 119.271 108.812 119.21 108.551C119.148 108.289 119.032 108.043 118.87 107.829C118.707 107.615 118.501 107.438 118.265 107.309C118.029 107.179 117.769 107.101 117.501 107.079C116.223 107.009 114.707 107.488 113.608 109.764C111.466 114.168 110.092 117.263 110.092 117.263C110.092 117.263 109.024 112.896 109.421 110.493C109.817 108.089 111.16 87.2615 108.353 87.2615C105.547 87.2615 105.157 90.7327 105.157 90.7327C105.157 90.7327 105.419 85.561 103.814 85.2541C103.175 85.1327 101.148 85.2541 100.349 90.4642C100.05 90.2505 99.7071 90.1041 99.3455 90.0349C98.9838 89.9658 98.6115 89.9756 98.254 90.0636C97.8965 90.1516 97.5622 90.3158 97.274 90.5449C96.9858 90.774 96.7505 91.0627 96.5841 91.3912C96.3783 91.8178 96.2135 92.2631 96.0918 92.7208C95.5817 94.4064 95.2034 96.1291 94.9603 97.8734Z" fill="#FFBF9D"/>
<path d="M94.3527 110.122C93.6874 110.804 92.9807 111.444 92.2367 112.039C91.5665 112.723 90.8533 113.364 90.1016 113.957C90.6165 113.139 91.2647 112.413 92.0194 111.809C92.6989 111.122 93.4873 110.552 94.3527 110.122Z" fill="#FF9A6C"/>
<path d="M94.1164 109.483C94.0117 108.922 93.9688 108.352 93.9885 107.782C93.9885 106.734 93.9885 105.289 94.0589 103.691C94.1292 102.093 94.2954 100.648 94.436 99.6058C94.4744 99.0397 94.5774 98.4799 94.7429 97.9373C94.7645 98.5031 94.7389 99.0698 94.6662 99.6313C94.5895 100.673 94.4808 102.112 94.3913 103.703C94.3018 105.295 94.257 106.74 94.2251 107.788C94.2387 108.355 94.2024 108.922 94.1164 109.483Z" fill="#FF9A6C"/>
<path d="M100.452 90.3042C100.526 90.5104 100.573 90.7252 100.593 90.9435C100.641 91.2008 100.669 91.4616 100.676 91.7234C100.707 92.0677 100.717 92.4135 100.708 92.759C100.686 93.6592 100.598 94.5565 100.446 95.4439C100.273 96.4412 100.036 97.5344 99.7743 98.6403C99.5122 99.7463 99.2693 100.852 99.0839 101.837C98.928 102.71 98.8256 103.591 98.777 104.477C98.7131 105.992 98.8921 106.925 98.8218 106.932C98.7447 106.726 98.6952 106.511 98.6747 106.292C98.6211 106.036 98.589 105.775 98.5788 105.512C98.5486 105.168 98.5358 104.823 98.5405 104.477C98.5553 103.577 98.6365 102.68 98.7834 101.792C98.9496 100.788 99.1862 99.7015 99.4227 98.5636C99.6592 97.4257 99.9341 96.3517 100.119 95.3672C100.28 94.4944 100.389 93.6128 100.446 92.727C100.548 91.2247 100.388 90.3042 100.452 90.3042Z" fill="#FF9A6C"/>
<path d="M103.488 107.341C103.399 107.341 103.718 103.384 104.211 98.5317C104.703 93.6796 105.176 89.7417 105.272 89.7481C105.368 89.7544 105.035 93.7051 104.543 98.5636C104.051 103.422 103.578 107.354 103.488 107.341Z" fill="#FF9A6C"/>
<path d="M104.441 107.89C104.441 107.98 103.936 108.005 103.328 107.948C102.721 107.89 102.229 107.762 102.241 107.673C102.254 107.583 102.753 107.558 103.36 107.615C103.967 107.673 104.453 107.801 104.441 107.89Z" fill="#FF9A6C"/>
<path d="M99.806 107.673C99.806 107.769 99.3074 107.839 98.7384 108.044C98.1695 108.249 97.7348 108.511 97.6772 108.44C97.6197 108.37 97.9905 107.961 98.6234 107.731C99.2562 107.501 99.8124 107.565 99.806 107.673Z" fill="#FF9A6C"/>
<path d="M104.805 116.195C104.365 116.519 103.899 116.806 103.411 117.051C102.542 117.556 101.353 118.272 100.081 119.123C98.8085 119.973 97.6962 120.81 96.8843 121.424C96.4747 121.784 96.034 122.107 95.5674 122.389C95.9129 121.965 96.3054 121.581 96.7373 121.245C98.7381 119.524 100.935 118.046 103.283 116.84C103.763 116.565 104.274 116.348 104.805 116.195Z" fill="#FF9A6C"/>
<path d="M108.149 119.954C107.583 120.289 107.001 120.594 106.403 120.868C105.008 121.6 103.67 122.438 102.401 123.374C101.138 124.317 99.9491 125.358 98.8471 126.487C98.4141 126.98 97.9531 127.447 97.4663 127.887C97.5425 127.726 97.6392 127.576 97.754 127.439C97.9585 127.165 98.2718 126.8 98.6745 126.327C100.809 123.943 103.403 122.014 106.301 120.657C106.857 120.401 107.311 120.216 107.637 120.101C107.799 120.026 107.972 119.976 108.149 119.954Z" fill="#FF9A6C"/>
<path d="M110.418 116.623C110.282 117.31 110.008 117.963 109.613 118.541C109.305 119.168 108.87 119.723 108.334 120.171C108.583 119.535 108.904 118.93 109.293 118.368C109.595 117.743 109.973 117.157 110.418 116.623Z" fill="#FF9A6C"/>
<path d="M168.042 120.631C170.322 120.996 172.534 121.699 174.607 122.715C179.191 124.921 185.168 128.469 187.354 138.422C191.005 155.043 191.113 174.222 191.113 174.222L191.209 177.904C188.301 180.013 185.379 182.698 182.151 184.297C182.151 184.297 174.914 138.569 175.119 136.85C175.323 135.13 168.042 120.631 168.042 120.631Z" fill="#124B92"/>
<path d="M108.353 135.501C108.353 135.501 108.321 135.565 108.238 135.667C108.119 135.813 107.991 135.952 107.854 136.083C107.345 136.563 106.757 136.952 106.116 137.233C105.153 137.647 104.103 137.814 103.06 137.719C101.858 137.649 100.701 136.952 99.4288 136.875C98.1566 136.799 97.0251 137.553 95.8808 137.822C94.8526 138.087 93.7645 137.989 92.7995 137.547C92.1538 137.248 91.6143 136.759 91.2525 136.147C91.1598 135.982 91.0827 135.808 91.0223 135.629C90.9934 135.566 90.9761 135.499 90.9712 135.431C90.9712 135.431 91.099 135.68 91.3611 136.07C91.7422 136.632 92.274 137.075 92.8954 137.348C93.8173 137.731 94.8399 137.799 95.8041 137.54C96.3475 137.4 96.8972 137.157 97.4918 136.939C98.1114 136.681 98.7767 136.551 99.4479 136.556C100.104 136.621 100.749 136.771 101.366 137.003C101.921 137.209 102.498 137.351 103.085 137.425C104.081 137.531 105.088 137.395 106.02 137.029C106.873 136.645 107.66 136.129 108.353 135.501Z" fill="#FF9A6C"/>
<path d="M176.666 135.923C176.676 135.984 176.676 136.047 176.666 136.108L176.544 136.632C176.416 137.125 176.25 137.802 176.026 138.665V138.608C177.056 140.379 178.737 143.083 180.61 146.477C181.629 148.337 182.468 150.289 183.116 152.307C183.82 154.596 184.143 156.984 184.075 159.378C183.915 165.035 182.311 170.06 180.974 173.972V173.908C181.352 177.034 181.658 179.617 181.882 181.452C181.978 182.328 182.055 183.024 182.112 183.536C182.112 183.76 182.151 183.939 182.163 184.086C182.176 184.233 182.163 184.271 182.163 184.271C182.142 184.214 182.129 184.153 182.125 184.092L182.036 183.549C181.959 183.037 181.857 182.34 181.729 181.471C181.479 179.636 181.128 177.066 180.706 173.947V173.915C181.984 170.002 183.576 164.965 183.73 159.403C183.8 157.033 183.485 154.666 182.796 152.397C182.161 150.395 181.341 148.456 180.348 146.605C178.513 143.191 176.864 140.481 175.873 138.685C176.122 137.828 176.314 137.157 176.455 136.671L176.615 136.153C176.621 136.074 176.638 135.997 176.666 135.923Z" fill="#263238"/>
<path d="M148.135 175.526C148.463 175.391 148.804 175.286 149.151 175.212C149.552 175.126 149.944 175.002 150.321 174.841L151.037 174.554L151.427 174.394L151.811 174.183C152.397 173.884 152.955 173.533 153.479 173.135C153.778 172.926 154.064 172.7 154.336 172.457L155.173 171.652C156.346 170.376 157.318 168.929 158.056 167.362C158.772 165.782 159.317 164.129 159.68 162.433C159.827 161.647 159.987 160.899 160.057 160.189C160.128 159.48 160.211 158.821 160.255 158.214C160.3 157.607 160.307 157.063 160.319 156.577C160.332 156.092 160.319 155.682 160.319 155.344C160.292 154.99 160.292 154.636 160.319 154.282C160.39 154.63 160.43 154.983 160.441 155.337C160.48 155.749 160.497 156.163 160.492 156.577C160.492 157.063 160.492 157.619 160.492 158.227C160.492 158.834 160.434 159.505 160.338 160.221C160.243 160.937 160.128 161.698 159.987 162.491C159.636 164.217 159.091 165.898 158.363 167.503C157.609 169.101 156.61 170.572 155.403 171.862L154.534 172.674C154.253 172.921 153.956 173.15 153.645 173.358C153.104 173.755 152.529 174.101 151.926 174.394L151.523 174.599L151.127 174.746L150.391 175.014C150.003 175.164 149.6 175.273 149.19 175.34C148.843 175.429 148.491 175.491 148.135 175.526Z" fill="#263238"/>
<path d="M121.746 144.329C121.356 145.243 119.272 154.474 119.272 154.474C119.272 154.474 125.064 155.842 121.746 163.744L119.879 168.295C118.243 171.677 113.346 178.345 107.004 177.539C105.355 177.328 99.6655 176.843 97.4664 174.343C94.3787 170.833 92.2307 165.125 91.7129 162.031C91.4189 160.202 91.4572 145.991 91.4572 145.991C91.4572 145.991 91.2335 153.023 96.6801 154.244C97.5662 154.51 98.4971 154.593 99.4162 154.487C101.634 153.878 103.607 152.595 105.064 150.815C106.521 149.036 107.389 146.847 107.548 144.553V144.483L106.64 139.023L109.619 135.769L121.746 144.329Z" fill="#124B92"/>
<path d="M121.861 140.167C121.957 140.167 121.714 144.348 121.318 149.494C120.921 154.64 120.538 158.808 120.442 158.802C120.346 158.796 120.595 154.621 120.985 149.469C121.375 144.316 121.772 140.167 121.861 140.167Z" fill="#263238"/>
<path d="M120.435 161.033C120.495 161.556 120.495 162.083 120.435 162.606C120.352 163.869 120.194 165.126 119.962 166.371C119.739 167.624 119.366 168.845 118.85 170.009C118.662 170.506 118.38 170.962 118.019 171.351C117.974 171.351 118.287 170.814 118.658 169.919C119.096 168.747 119.427 167.538 119.649 166.307C120.148 163.418 120.32 161.02 120.435 161.033Z" fill="#263238"/>
<path d="M111.69 155.005C111.77 154.781 111.875 154.566 112.003 154.366C112.268 153.773 112.461 153.151 112.578 152.512C112.895 150.387 112.76 148.22 112.182 146.151C111.89 145.004 111.5 143.883 111.019 142.801C110.691 141.904 110.17 141.089 109.491 140.417C109.015 139.987 108.392 139.758 107.752 139.778C107.52 139.812 107.291 139.865 107.068 139.937C107.068 139.937 107.106 139.886 107.215 139.822C107.38 139.738 107.556 139.68 107.739 139.65C108.081 139.611 108.426 139.641 108.756 139.739C109.085 139.837 109.392 140 109.657 140.219C110.387 140.897 110.953 141.732 111.313 142.661C111.818 143.752 112.22 144.889 112.514 146.055C113.108 148.169 113.213 150.39 112.821 152.55C112.68 153.2 112.448 153.826 112.131 154.411C112.011 154.628 111.863 154.828 111.69 155.005Z" fill="#263238"/>
<g opacity="0.3">
<path opacity="0.3" d="M124.13 186.758C125.268 182.174 125.115 177.047 124.616 172.349C123.555 162.395 122.749 152.435 121.688 142.475C121.688 142.475 120.026 168.104 118.204 171.032C119.097 170.027 119.753 168.834 120.122 167.541L124.13 186.758Z" fill="#3A3A3A"/>
</g>
<g opacity="0.3">
<path opacity="0.3" d="M160.32 156.789C160.812 164.537 157.302 172.63 149.542 175.417C151.64 175.223 153.661 174.528 155.435 173.392C157.21 172.256 158.687 170.711 159.742 168.887C160.798 167.063 161.401 165.013 161.501 162.908C161.602 160.803 161.196 158.705 160.32 156.789Z" fill="#3A3A3A"/>
</g>
<g opacity="0.3">
<path opacity="0.3" d="M114.208 154.116C113.997 152.199 114.208 150.281 114.004 148.408C113.799 146.535 113.064 144.534 111.447 143.498C113.102 147.097 114.355 152.403 110.2 158.201C112.527 159.787 112.444 163.482 110.2 166.959C110.021 167.228 109.849 167.599 110.066 167.829C110.283 168.059 110.66 167.912 110.923 167.739C112.23 166.859 113.297 165.665 114.026 164.267C114.755 162.87 115.123 161.312 115.097 159.736C115.033 157.856 114.394 156.009 114.208 154.116Z" fill="#3A3A3A"/>
</g>
</svg>
