<svg width="338" height="315" viewBox="0 0 338 315" fill="none" xmlns="http://www.w3.org/2000/svg">
<path d="M232.32 25.9959C234.139 15.1459 226.489 4.92867 215.234 3.17513C203.979 1.42159 193.381 8.79575 191.562 19.6458C189.743 30.4958 197.392 40.713 208.647 42.4666C219.902 44.2201 230.501 36.846 232.32 25.9959Z" fill="#EBEBEB"/>
<path d="M232.414 27.1248C234.165 16.8035 226.905 7.0678 216.199 5.37947C205.492 3.69114 195.393 10.6895 193.642 21.0108C191.89 31.3322 199.15 41.0679 209.857 42.7562C220.563 44.4445 230.662 37.4461 232.414 27.1248Z" fill="#DBDBDB"/>
<path d="M221.124 40.1559C230.575 36.433 235.106 26.0288 231.244 16.9175C227.383 7.8062 216.59 3.43803 207.139 7.16094C197.687 10.8838 193.156 21.288 197.018 30.3994C200.88 39.5107 211.672 43.8789 221.124 40.1559Z" fill="white"/>
<path d="M213.273 7.61377H212.803V10.3063H213.273V7.61377Z" fill="#EBEBEB"/>
<path d="M204.716 9.72659L204.309 9.95337L205.705 12.2854L206.112 12.0586L204.716 9.72659Z" fill="#EBEBEB"/>
<path d="M198.603 14.8062L198.368 15.2009L200.798 16.5472L201.033 16.1525L198.603 14.8062Z" fill="#EBEBEB"/>
<path d="M198.768 23.8428H195.975V24.2965H198.768V23.8428Z" fill="#EBEBEB"/>
<path d="M200.567 30.7642L198.148 32.1108L198.384 32.5037L200.802 31.1571L200.567 30.7642Z" fill="#EBEBEB"/>
<path d="M205.699 35.8672L204.304 38.1997L204.712 38.4264L206.107 36.0939L205.699 35.8672Z" fill="#EBEBEB"/>
<path d="M213.273 37.8335H212.803V40.526H213.273V37.8335Z" fill="#EBEBEB"/>
<path d="M220.388 35.894L219.98 36.1208L221.377 38.4526L221.785 38.2258L220.388 35.894Z" fill="#EBEBEB"/>
<path d="M225.513 30.7553L225.278 31.1482L227.69 32.4907L227.925 32.0978L225.513 30.7553Z" fill="#EBEBEB"/>
<path d="M230.108 23.8428H227.315V24.2965H230.108V23.8428Z" fill="#EBEBEB"/>
<path d="M227.694 15.6421L225.281 16.9846L225.517 17.3775L227.929 16.035L227.694 15.6421Z" fill="#EBEBEB"/>
<path d="M221.384 9.71684L219.989 12.0493L220.397 12.276L221.792 9.94349L221.384 9.71684Z" fill="#EBEBEB"/>
<path d="M215.764 18.3766L207.691 33.6775L208.111 33.8832L216.184 18.5823L215.764 18.3766Z" fill="#EBEBEB"/>
<path d="M212.097 17.9704L211.484 18.0886L214.926 34.6659L215.539 34.5477L212.097 17.9704Z" fill="#DBDBDB"/>
<path d="M152.575 152.101H20.1162V4.63818H152.575V152.101ZM23.1947 149.126H149.489V7.61332H23.2024L23.1947 149.126Z" fill="#EBEBEB"/>
<path d="M86.6858 8.39453H83.5996V150.614H86.6858V8.39453Z" fill="#EBEBEB"/>
<path d="M155.384 10.6558H17.3159V14.7986H155.384V10.6558Z" fill="#EBEBEB"/>
<path d="M155.384 15.3191H17.3159V19.462H155.384V15.3191Z" fill="#EBEBEB"/>
<path d="M155.384 19.9751H17.3159V24.118H155.384V19.9751Z" fill="#EBEBEB"/>
<path d="M155.384 24.6389H17.3159V28.7818H155.384V24.6389Z" fill="#EBEBEB"/>
<path d="M155.384 29.3025H17.3159V33.4454H155.384V29.3025Z" fill="#EBEBEB"/>
<path d="M155.384 33.9583H17.3159V38.1011H155.384V33.9583Z" fill="#EBEBEB"/>
<path d="M155.384 38.6221H17.3159V42.7649H155.384V38.6221Z" fill="#EBEBEB"/>
<path d="M155.384 43.2854H17.3159V47.4283H155.384V43.2854Z" fill="#EBEBEB"/>
<path d="M155.384 47.9414H17.3159V52.0843H155.384V47.9414Z" fill="#EBEBEB"/>
<path d="M146.218 9.81519H145.447V105.31H146.218V9.81519Z" fill="#263238"/>
<path d="M147.197 108.776H144.458L145.145 104.982H146.511L147.197 108.776Z" fill="#263238"/>
<path d="M148.996 9.81519H148.224V147.958H148.996V9.81519Z" fill="#263238"/>
<path d="M149.975 150.747H147.244L147.923 146.954H149.296L149.975 150.747Z" fill="#263238"/>
<path d="M160.168 4.05835H12.5244V12.7234H160.168V4.05835Z" fill="#DBDBDB"/>
<path d="M331.945 38.1831H248.71V139.226H331.945V38.1831Z" fill="#EBEBEB"/>
<path d="M321.351 59.061H259.018V60.9726H321.351V59.061Z" fill="#DBDBDB"/>
<path d="M311.8 63.0627H259.018V64.9743H311.8V63.0627Z" fill="#DBDBDB"/>
<path d="M299.27 67.0569H259.018V68.9684H299.27V67.0569Z" fill="#DBDBDB"/>
<path d="M319.176 71.0583H259.018V72.9699H319.176V71.0583Z" fill="#DBDBDB"/>
<path d="M314.06 75.0525H259.018V76.964H314.06V75.0525Z" fill="#DBDBDB"/>
<path d="M316.136 83.0479H259.018V84.9594H316.136V83.0479Z" fill="#DBDBDB"/>
<path d="M280.899 87.0496H259.018V88.9611H280.899V87.0496Z" fill="#DBDBDB"/>
<path d="M303.143 91.0439H259.018V92.9555H303.143V91.0439Z" fill="#DBDBDB"/>
<path d="M319.176 95.0452H259.018V96.9567H319.176V95.0452Z" fill="#DBDBDB"/>
<path d="M310.889 99.0396H259.018V100.951H310.889V99.0396Z" fill="#DBDBDB"/>
<path d="M315.225 107.035H259.018V108.947H315.225V107.035Z" fill="#DBDBDB"/>
<path d="M293.043 111.037H259.018V112.948H293.043V111.037Z" fill="#DBDBDB"/>
<path d="M293.043 123.138H259.018V125.05H293.043V123.138Z" fill="#DBDBDB"/>
<path d="M316.097 131.126C319.578 131.126 322.401 128.406 322.401 125.05C322.401 121.694 319.578 118.973 316.097 118.973C312.616 118.973 309.793 121.694 309.793 125.05C309.793 128.406 312.616 131.126 316.097 131.126Z" fill="#124B92"/>
<path d="M268.307 45.9705C269.065 45.9708 269.8 46.2142 270.398 46.6622C270.423 46.6797 270.444 46.7018 270.459 46.7273C270.474 46.7528 270.484 46.7811 270.488 46.8103C270.491 46.8396 270.489 46.8693 270.48 46.8975C270.471 46.9258 270.457 46.952 270.437 46.9746C270.419 46.9978 270.397 47.0174 270.372 47.0322C270.346 47.047 270.318 47.0568 270.288 47.061C270.259 47.0651 270.229 47.0636 270.2 47.0564C270.171 47.0492 270.144 47.0366 270.121 47.0192C269.605 46.6239 268.966 46.4089 268.307 46.4093C267.556 46.4093 266.836 46.6969 266.305 47.2088C265.774 47.7207 265.476 48.415 265.476 49.139C265.476 49.8629 265.774 50.5572 266.305 51.0692C266.836 51.5811 267.556 51.8687 268.307 51.8687C268.962 51.8782 269.598 51.6649 270.105 51.2662C270.129 51.2468 270.157 51.2327 270.187 51.2248C270.217 51.2168 270.249 51.2153 270.28 51.2202C270.31 51.2252 270.34 51.2365 270.366 51.2534C270.391 51.2704 270.413 51.2925 270.429 51.3183C270.452 51.3378 270.471 51.3618 270.483 51.3888C270.496 51.4157 270.502 51.4449 270.502 51.4745C270.502 51.504 270.496 51.5332 270.483 51.5602C270.471 51.5871 270.452 51.6111 270.429 51.6307C269.828 52.0713 269.093 52.3092 268.338 52.3075C267.907 52.3075 267.479 52.2255 267.08 52.0663C266.682 51.9071 266.319 51.6737 266.014 51.3795C265.709 51.0852 265.467 50.7359 265.302 50.3515C265.137 49.9671 265.052 49.5551 265.052 49.139C265.052 48.7229 265.137 48.3109 265.302 47.9264C265.467 47.542 265.709 47.1927 266.014 46.8985C266.319 46.6043 266.682 46.3709 267.08 46.2116C267.479 46.0524 267.907 45.9705 268.338 45.9705H268.307Z" fill="#A6A6A6"/>
<path d="M274.997 45.9705C275.655 45.9378 276.308 46.0961 276.872 46.4249C277.436 46.7537 277.884 47.238 278.16 47.8151C278.435 48.3923 278.525 49.0357 278.417 49.6624C278.309 50.2891 278.008 50.8702 277.554 51.3306C277.1 51.791 276.514 52.1095 275.87 52.2451C275.226 52.3806 274.555 52.327 273.943 52.091C273.331 51.855 272.807 51.4476 272.438 50.9214C272.068 50.3952 271.872 49.7743 271.872 49.1391C271.859 48.7326 271.929 48.3275 272.08 47.9475C272.23 47.5675 272.457 47.22 272.748 46.9253C273.038 46.6305 273.387 46.3943 273.773 46.2304C274.159 46.0666 274.575 45.9782 274.997 45.9705ZM274.997 51.8687C275.563 51.9 276.125 51.7669 276.612 51.4866C277.098 51.2062 277.486 50.7917 277.726 50.2964C277.965 49.8012 278.045 49.2481 277.954 48.7088C277.864 48.1694 277.608 47.6685 277.219 47.271C276.831 46.8735 276.327 46.5976 275.774 46.4789C275.221 46.3603 274.643 46.4045 274.116 46.6057C273.589 46.8069 273.137 47.1559 272.818 47.6075C272.499 48.0592 272.328 48.5927 272.327 49.1391C272.307 49.8421 272.576 50.5244 273.077 51.0362C273.577 51.5479 274.268 51.8474 274.997 51.8687V51.8687Z" fill="#A6A6A6"/>
<path d="M280.259 46.9818V52.0916C280.265 52.1228 280.264 52.1548 280.256 52.1855C280.247 52.2162 280.232 52.2448 280.211 52.2692C280.19 52.2936 280.164 52.3132 280.134 52.3267C280.104 52.3402 280.072 52.3472 280.039 52.3472C280.006 52.3472 279.974 52.3402 279.944 52.3267C279.914 52.3132 279.888 52.2936 279.867 52.2692C279.846 52.2448 279.831 52.2162 279.822 52.1855C279.814 52.1548 279.813 52.1228 279.819 52.0916V46.3645C279.804 46.3221 279.803 46.276 279.817 46.2331C279.831 46.1902 279.859 46.1528 279.896 46.1265C279.946 46.0941 280.006 46.0814 280.065 46.0911C280.124 46.1008 280.177 46.1321 280.213 46.1785L284.14 51.385V46.305C284.14 46.249 284.162 46.1953 284.203 46.155C284.243 46.1148 284.298 46.0912 284.356 46.0893C284.386 46.0883 284.416 46.0931 284.444 46.1035C284.472 46.1139 284.497 46.1296 284.519 46.1498C284.541 46.1699 284.558 46.194 284.57 46.2207C284.581 46.2473 284.587 46.276 284.587 46.305V52.0544C284.587 52.0834 284.581 52.1121 284.57 52.1387C284.558 52.1654 284.541 52.1895 284.519 52.2096C284.497 52.2298 284.472 52.2455 284.444 52.2559C284.416 52.2663 284.386 52.2711 284.356 52.2701C284.323 52.2698 284.291 52.2623 284.261 52.2481C284.232 52.234 284.206 52.2135 284.186 52.1883C284.177 52.1854 284.169 52.1805 284.162 52.1741C284.156 52.1676 284.151 52.1598 284.148 52.1511L280.259 46.9818Z" fill="#A6A6A6"/>
<path d="M288.507 46.4986H286.555C286.495 46.4967 286.438 46.4724 286.396 46.4307C286.354 46.3891 286.331 46.3334 286.331 46.2755C286.333 46.2189 286.357 46.1651 286.398 46.125C286.44 46.085 286.496 46.0617 286.555 46.0598H290.906C290.965 46.0617 291.021 46.085 291.062 46.125C291.104 46.1651 291.128 46.2189 291.13 46.2755C291.13 46.3334 291.107 46.3891 291.065 46.4307C291.023 46.4724 290.966 46.4967 290.906 46.4986H288.954V52.0919C288.954 52.1491 288.93 52.204 288.889 52.2444C288.847 52.2849 288.79 52.3076 288.73 52.3076C288.671 52.3076 288.614 52.2849 288.572 52.2444C288.53 52.204 288.507 52.1491 288.507 52.0919V46.4986Z" fill="#A6A6A6"/>
<path d="M296.083 50.8944C296.084 50.7074 296.036 50.5233 295.944 50.3584C295.853 50.1936 295.72 50.0532 295.559 49.9498C295.324 49.8 295.062 49.694 294.787 49.6374H294.741H293.198V52.1068C293.188 52.1581 293.16 52.2044 293.118 52.2378C293.077 52.2711 293.024 52.2894 292.97 52.2894C292.916 52.2894 292.864 52.2711 292.822 52.2378C292.78 52.2044 292.752 52.1581 292.742 52.1068V46.2904C292.745 46.2378 292.767 46.1876 292.803 46.1484C292.84 46.1091 292.889 46.0831 292.943 46.0747H294.795C295.214 46.0789 295.619 46.22 295.944 46.4749C296.269 46.7298 296.495 47.0835 296.584 47.4781C296.674 47.8727 296.622 48.285 296.437 48.6475C296.252 49.01 295.945 49.3013 295.566 49.4738C295.595 49.4931 295.626 49.5081 295.659 49.5184C295.92 49.654 296.138 49.8545 296.292 50.0992C296.445 50.3438 296.528 50.6235 296.531 50.9093C296.517 51.1596 296.543 51.4104 296.608 51.6531C296.625 51.7095 296.657 51.7608 296.7 51.8019C296.753 51.796 296.806 51.8066 296.852 51.832C296.898 51.8575 296.934 51.8964 296.955 51.9432C296.97 52.0004 296.963 52.0607 296.936 52.1137C296.909 52.1666 296.864 52.2089 296.808 52.2332H296.677C296.587 52.2249 296.501 52.1936 296.428 52.1426C296.355 52.0916 296.297 52.0228 296.261 51.9432C296.11 51.6137 296.049 51.2529 296.083 50.8944V50.8944ZM294.787 46.4987H293.19V49.1912H294.826C295.196 49.1862 295.549 49.0397 295.807 48.7837C296.066 48.5278 296.208 48.1834 296.203 47.8263C296.198 47.4693 296.046 47.1288 295.78 46.8798C295.515 46.6308 295.157 46.4937 294.787 46.4987V46.4987Z" fill="#A6A6A6"/>
<path d="M302.163 50.6936H299.208L298.637 52.1811C298.621 52.2223 298.593 52.2579 298.556 52.2832C298.518 52.3084 298.474 52.3221 298.429 52.3224H298.344C298.288 52.2993 298.243 52.2564 298.218 52.2025C298.194 52.1486 298.192 52.0877 298.213 52.0324L300.458 46.2457C300.478 46.2053 300.51 46.1713 300.55 46.1476C300.589 46.1239 300.635 46.1115 300.682 46.1118C300.729 46.1096 300.775 46.1212 300.815 46.1451C300.855 46.169 300.887 46.2041 300.905 46.2457L303.15 52.0324C303.172 52.0859 303.172 52.1454 303.151 52.199C303.13 52.2527 303.088 52.2967 303.035 52.3224H302.95C302.904 52.3216 302.858 52.3078 302.82 52.2827C302.782 52.2576 302.752 52.2223 302.734 52.1811L302.163 50.6936ZM299.378 50.2547H302.001L300.689 46.9003L299.378 50.2547Z" fill="#A6A6A6"/>
<path d="M307.309 45.9705C308.066 45.9708 308.802 46.2142 309.4 46.6622C309.424 46.6797 309.445 46.7018 309.46 46.7273C309.476 46.7528 309.486 46.7811 309.489 46.8103C309.493 46.8396 309.49 46.8693 309.481 46.8975C309.473 46.9258 309.458 46.952 309.438 46.9746C309.421 46.9978 309.399 47.0174 309.373 47.0322C309.348 47.047 309.319 47.0568 309.29 47.061C309.26 47.0651 309.23 47.0636 309.202 47.0564C309.173 47.0492 309.146 47.0366 309.122 47.0192C308.607 46.6239 307.967 46.4089 307.309 46.4093C306.558 46.4093 305.838 46.6969 305.307 47.2088C304.776 47.7207 304.477 48.415 304.477 49.139C304.477 49.8629 304.776 50.5572 305.307 51.0692C305.838 51.5811 306.558 51.8687 307.309 51.8687C307.963 51.8782 308.6 51.6649 309.107 51.2662C309.131 51.2468 309.159 51.2327 309.189 51.2248C309.219 51.2168 309.25 51.2153 309.281 51.2202C309.312 51.2252 309.341 51.2365 309.367 51.2534C309.393 51.2704 309.415 51.2925 309.431 51.3183C309.454 51.3378 309.472 51.3618 309.485 51.3888C309.497 51.4157 309.504 51.4449 309.504 51.4745C309.504 51.504 309.497 51.5332 309.485 51.5602C309.472 51.5871 309.454 51.6111 309.431 51.6307C308.83 52.0713 308.095 52.3092 307.34 52.3075C306.908 52.3075 306.481 52.2255 306.082 52.0663C305.683 51.9071 305.321 51.6737 305.016 51.3795C304.71 51.0852 304.468 50.7359 304.303 50.3515C304.138 49.9671 304.053 49.5551 304.053 49.139C304.053 48.7229 304.138 48.3109 304.303 47.9264C304.468 47.542 304.71 47.1927 305.016 46.8985C305.321 46.6043 305.683 46.3709 306.082 46.2116C306.481 46.0524 306.908 45.9705 307.34 45.9705H307.309Z" fill="#A6A6A6"/>
<path d="M313.057 46.4986H311.105C311.045 46.4967 310.988 46.4724 310.947 46.4307C310.905 46.3891 310.882 46.3334 310.882 46.2755C310.884 46.2189 310.908 46.1651 310.949 46.125C310.991 46.085 311.047 46.0617 311.105 46.0598H315.457C315.516 46.0617 315.571 46.085 315.613 46.125C315.654 46.1651 315.679 46.2189 315.681 46.2755C315.682 46.3045 315.677 46.3333 315.666 46.3603C315.655 46.3874 315.639 46.412 315.618 46.4329C315.597 46.4537 315.572 46.4702 315.544 46.4815C315.517 46.4928 315.487 46.4987 315.457 46.4986H313.505V52.0919C313.505 52.1491 313.481 52.204 313.439 52.2444C313.397 52.2849 313.34 52.3076 313.281 52.3076C313.222 52.3076 313.165 52.2849 313.123 52.2444C313.081 52.204 313.057 52.1491 313.057 52.0919V46.4986Z" fill="#A6A6A6"/>
<path d="M175.714 234.899H328.565L331.744 174.444H172.535L175.714 234.899Z" fill="#EBEBEB"/>
<path d="M321.32 202.121H257.413L256.217 181.131H322.717L321.32 202.121ZM258.146 201.377H320.595L321.891 181.875H257.035L258.146 201.377Z" fill="#DBDBDB"/>
<path d="M320.14 226.264H259.921L258.941 207.32H321.366L320.14 226.264ZM260.654 225.52H319.414L320.549 208.063H259.751L260.654 225.52Z" fill="#DBDBDB"/>
<path d="M295.52 193.887H284.78L284.109 188.822H296.199L295.52 193.887ZM285.49 193.143H294.872L295.35 189.566H285.012L285.49 193.143Z" fill="#DBDBDB"/>
<path d="M295.52 219.324H284.78L284.109 214.259H296.199L295.52 219.324ZM285.49 218.581H294.872L295.35 215.003H285.012L285.49 218.581Z" fill="#DBDBDB"/>
<path d="M246.156 202.121H182.249L181.053 181.131H247.553L246.156 202.121ZM182.982 201.377H245.431L246.704 181.875H181.894L182.982 201.377Z" fill="#DBDBDB"/>
<path d="M244.976 226.264H184.757L183.777 207.32H246.203L244.976 226.264ZM185.49 225.52H244.251L245.385 208.063H184.587L185.49 225.52Z" fill="#DBDBDB"/>
<path d="M220.356 193.887H209.616L208.945 188.822H221.035L220.356 193.887ZM210.326 193.143H219.7L220.178 189.566H209.84L210.326 193.143Z" fill="#DBDBDB"/>
<path d="M220.356 219.324H209.616L208.945 214.259H221.035L220.356 219.324ZM210.326 218.581H219.7L220.178 215.003H209.84L210.326 218.581Z" fill="#DBDBDB"/>
<path d="M189.424 234.899L188.46 241.489L186.531 254.721H182.758V234.899H189.424Z" fill="#EBEBEB"/>
<path d="M189.424 234.899L188.46 241.489H182.758V234.899H189.424Z" fill="#DBDBDB"/>
<path d="M314.855 234.899L315.811 241.489L317.748 254.721H321.521V234.899H314.855Z" fill="#EBEBEB"/>
<path d="M314.855 234.899L315.811 241.489H321.521V234.899H314.855Z" fill="#DBDBDB"/>
<path d="M170.321 314.313C247.209 314.313 309.539 306.484 309.539 296.826C309.539 287.169 247.209 279.34 170.321 279.34C93.433 279.34 31.103 287.169 31.103 296.826C31.103 306.484 93.433 314.313 170.321 314.313Z" fill="#EBEBEB"/>
<path d="M42.614 277.689C65.6326 277.689 84.2929 273.38 84.2929 268.064C84.2929 262.749 65.6326 258.44 42.614 258.44C19.5954 258.44 0.935059 262.749 0.935059 268.064C0.935059 273.38 19.5954 277.689 42.614 277.689Z" fill="#EBEBEB"/>
<path d="M3.20361 254.721L44.9828 254.542L86.7621 254.475L170.321 254.356L253.879 254.475L295.658 254.542L337.437 254.721L295.658 254.907L253.879 254.974L170.321 255.093L86.7621 254.974L44.9828 254.907L3.20361 254.721Z" fill="#263238"/>
<path d="M43.8421 125.912C43.8421 125.912 23.0952 123.116 27.9405 98.9648C27.9405 98.9648 51.1255 103.985 43.8421 125.912Z" fill="#124B92"/>
<path opacity="0.1" d="M43.8421 125.912C43.8421 125.912 23.0952 123.116 27.9405 98.9648C27.9405 98.9648 51.1255 103.985 43.8421 125.912Z" fill="#3A3A3A"/>
<path d="M42.7928 120.869C42.3875 119.649 41.9162 118.45 41.3808 117.277C41.3808 117.121 41.3808 116.965 41.3268 116.816C41.3268 116.481 41.2651 116.154 41.242 115.819C41.1802 115.075 41.1339 114.376 41.0876 113.655C41.0028 112.212 40.9102 110.769 40.887 109.326C40.887 109.244 40.7559 109.252 40.7559 109.326C40.7559 110.776 40.7559 112.219 40.7559 113.662C40.7559 114.406 40.833 115.105 40.8793 115.827C40.8793 115.99 40.8793 116.146 40.8793 116.31C39.7132 113.905 38.3185 111.609 36.713 109.452C36.0365 108.491 35.3076 107.565 34.5295 106.678C33.7039 105.763 32.8321 104.893 31.9911 103.993C31.9371 103.933 31.8522 103.993 31.9062 104.082C33.3961 105.671 34.7337 107.386 35.9029 109.207C36.5355 110.122 37.1296 111.066 37.7006 112.026L37.5077 111.959L36.7361 111.669L35.0387 111.051C33.9277 110.65 32.8167 110.263 31.7056 109.854C31.6362 109.854 31.5899 109.943 31.6594 109.966C32.7627 110.389 33.8505 110.836 34.9461 111.289L36.551 111.959L37.3611 112.279C37.5349 112.363 37.7189 112.425 37.9089 112.465C38.3255 113.208 38.7421 113.915 39.1279 114.659C40.0901 116.53 40.9352 118.455 41.6586 120.423C41.7126 120.557 41.7589 120.698 41.8129 120.84C41.2649 120.536 40.6951 120.27 40.1078 120.044L37.9629 119.107C36.5047 118.46 35.0619 117.805 33.6654 117.046C33.651 117.038 33.6341 117.036 33.6181 117.041C33.6022 117.045 33.5887 117.055 33.5805 117.069C33.5723 117.082 33.5702 117.099 33.5745 117.114C33.5788 117.13 33.5893 117.143 33.6036 117.15C35.031 117.894 36.4275 118.705 37.8549 119.449C38.5724 119.821 39.2899 120.193 40.0229 120.527C40.6261 120.873 41.2824 121.124 41.9672 121.271C42.6633 123.101 43.122 125.007 43.3328 126.946C43.5643 129.676 43.5412 132.428 43.6106 135.165H43.68C43.8884 132.681 44.0041 130.174 44.0195 127.682C43.9892 125.363 43.5751 123.063 42.7928 120.869Z" fill="#263238"/>
<path d="M39.5987 106.67C39.3984 108.082 39.3287 109.508 39.3904 110.932C39.3904 110.969 39.4521 110.969 39.4521 110.932C39.537 109.519 39.5524 108.106 39.7222 106.7C39.7299 106.626 39.6064 106.596 39.5987 106.67Z" fill="#263238"/>
<path d="M33.665 107.883C32.7374 107.54 31.8439 107.117 30.9955 106.618C30.926 106.574 30.8643 106.685 30.9338 106.722C31.765 107.263 32.6751 107.682 33.6342 107.965C33.6805 107.979 33.7576 107.905 33.665 107.883Z" fill="#263238"/>
<path d="M44.5057 164.247C44.5057 162.015 44.4439 159.829 44.4208 157.62C44.3745 150.278 44.3128 142.937 44.1739 135.596C44.0659 129.765 43.9244 123.939 43.7495 118.117C43.749 118.102 43.7445 118.087 43.7364 118.074C43.7283 118.061 43.7169 118.05 43.7033 118.043C43.7033 116.451 43.7033 114.859 43.7033 113.268C43.7033 113.223 43.657 113.208 43.603 113.208C43.5489 113.208 43.5027 113.208 43.5104 113.268C43.5104 114.864 43.5104 116.459 43.5104 118.05C43.5104 118.05 43.4564 118.087 43.4564 118.117C43.1555 128.53 42.8854 138.861 42.816 149.237C42.816 151.35 42.816 153.454 42.816 155.567C42.7388 162.325 42.7105 169.089 42.7311 175.857C42.7311 176.928 42.7311 178.007 42.7311 179.085C42.7311 185.274 42.8005 191.462 42.8005 197.68C42.8005 198.007 43.1863 198.178 43.5721 198.193C43.9579 198.208 44.5365 198.029 44.5365 197.65C44.5365 190.83 44.5828 184.002 44.5828 177.181C44.5597 172.852 44.5597 168.546 44.5057 164.247Z" fill="#263238"/>
<path d="M35.8411 157.53C35.8411 157.53 25.8573 150.405 16.3904 155.21C6.92356 160.015 5.42676 178.594 5.42676 178.594C5.42676 178.594 19.3146 180.513 28.0948 172.473C36.5355 164.738 35.8411 157.53 35.8411 157.53Z" fill="#124B92"/>
<path d="M38.5567 157.969C36.7237 157.265 34.7383 157.009 32.7778 157.225C32.3752 157.156 31.9677 157.116 31.5588 157.106L30.1469 157.002L27.2381 156.809C25.2707 156.667 23.2955 156.548 21.3281 156.355C21.3145 156.36 21.3027 156.368 21.2943 156.379C21.286 156.391 21.2815 156.404 21.2815 156.418C21.2815 156.432 21.286 156.446 21.2943 156.457C21.3027 156.468 21.3145 156.477 21.3281 156.481C23.2724 156.719 25.1858 156.987 27.1533 157.173C28.1563 157.27 29.1593 157.374 30.17 157.441L30.8953 157.508C30.6021 157.575 30.3012 157.642 30.008 157.724C28.4421 158.163 26.9271 158.756 25.4867 159.494C24.7152 159.628 23.9436 159.843 23.1721 160.014C21.9376 160.297 20.7109 160.602 19.4841 160.914C17.0614 161.524 14.6619 162.216 12.2547 162.893C12.1776 162.893 12.2161 163.027 12.2547 163.004C14.6542 162.439 17.0769 161.918 19.4841 161.368L22.9869 160.557L23.9051 160.349C21.2271 161.955 18.8333 163.964 16.8146 166.299C14.8718 168.605 13.2194 171.124 11.8921 173.804C11.8921 173.871 11.9538 173.938 12.0001 173.871C13.6431 171.131 15.6479 168.609 17.9642 166.366C17.9179 166.493 17.8793 166.627 17.833 166.753L17.2775 168.449C16.9071 169.587 16.5059 170.717 16.1819 171.855C16.1819 171.93 16.2822 171.952 16.3053 171.855C16.7297 170.755 17.1309 169.624 17.5321 168.546C17.725 168.003 17.9256 167.467 18.1185 166.924C18.2265 166.642 18.3268 166.359 18.4194 166.076C18.4194 165.994 18.4888 165.905 18.5197 165.816C19.632 164.775 20.8123 163.803 22.0534 162.908C23.7013 161.745 25.4792 160.765 27.3539 159.985C27.3539 160.148 27.2922 160.319 27.2536 160.476C27.1533 160.914 27.053 161.353 26.9604 161.792C26.7675 162.699 26.5823 163.614 26.3972 164.529C26.0191 166.389 25.7876 168.248 25.425 170.137C25.425 170.219 25.533 170.249 25.5485 170.137C25.996 168.263 26.5746 166.418 27.0067 164.544C27.2227 163.607 27.4387 162.67 27.6471 161.733L27.9248 160.409C27.9711 160.163 28.0328 159.918 28.0637 159.665L28.6038 159.449C31.2193 158.512 34.1126 157.835 36.9056 158.356C38.2267 158.592 39.4669 159.139 40.5155 159.949C41.5641 160.758 42.3888 161.806 42.916 162.997C43.0086 163.205 43.348 163.071 43.294 162.856C42.7539 160.58 40.7556 158.862 38.5567 157.969Z" fill="#263238"/>
<path d="M23.2805 165.898C23.0027 167.118 22.7173 168.338 22.4395 169.558C22.1242 170.726 21.8922 171.914 21.7451 173.113C21.7451 173.165 21.8068 173.165 21.8223 173.113C22.1897 171.94 22.4733 170.745 22.671 169.535C22.9179 168.33 23.1648 167.125 23.4039 165.92C23.4194 165.853 23.2959 165.824 23.2805 165.898Z" fill="#263238"/>
<path d="M13.6284 169C12.3553 169.617 11.1285 170.324 9.77062 170.837C9.76302 170.84 9.7561 170.844 9.75024 170.85C9.74438 170.855 9.73971 170.862 9.73648 170.869C9.73326 170.876 9.73155 170.884 9.73145 170.892C9.73135 170.9 9.73286 170.908 9.7359 170.915C9.73894 170.922 9.74345 170.929 9.74917 170.935C9.75488 170.94 9.76169 170.945 9.76922 170.948C9.77674 170.951 9.78482 170.953 9.79301 170.953C9.80119 170.953 9.80932 170.951 9.81692 170.948C11.1451 170.381 12.4406 169.746 13.6978 169.044C13.6978 169.044 13.6978 168.985 13.6284 169Z" fill="#263238"/>
<path d="M38.0863 144.44C38.0863 144.44 25.8881 145.184 20.2096 137.441C14.531 129.698 15.8118 118.608 15.8118 118.608C15.8118 118.608 28.6271 120.096 33.7116 125.682C38.7961 131.267 38.0863 144.44 38.0863 144.44Z" fill="#124B92"/>
<path d="M43.7878 156.043C43.3634 154.786 42.8388 153.544 42.345 152.324C41.8512 151.104 41.3651 149.959 40.8019 148.798C39.7155 146.428 38.4973 144.117 37.1525 141.874C36.2884 140.446 35.3625 139.055 34.4135 137.686C34.4135 137.478 34.3518 137.27 34.3209 137.061C34.2669 136.697 34.2129 136.318 34.1512 135.968C34.0277 135.224 33.8966 134.48 33.7654 133.737C33.4876 132.108 33.1405 130.494 32.8704 128.872C32.8704 128.798 32.7315 128.798 32.747 128.872C32.9861 130.479 33.1559 132.093 33.3873 133.699C33.5031 134.488 33.6111 135.276 33.7345 136.065L33.8734 136.92C32.013 134.295 29.9985 131.774 27.8399 129.371L26.9989 128.433C26.9989 128.344 26.9218 128.255 26.8832 128.166C26.7906 127.943 26.7058 127.719 26.6209 127.489C26.4357 127.028 26.266 126.559 26.0885 126.091C25.749 125.168 25.4404 124.239 25.1781 123.294C25.1781 123.22 25.0392 123.257 25.0624 123.294C25.3093 124.261 25.5639 125.22 25.8339 126.172C25.9805 126.634 26.1348 127.087 26.3046 127.541C26.3046 127.615 26.3586 127.69 26.3894 127.764C24.8463 126.128 23.2029 124.551 21.5595 122.989C21.5055 122.937 21.4207 122.989 21.4747 123.078C24.6266 126.258 27.5158 129.669 30.116 133.283C29.8201 133.193 29.5186 133.121 29.2133 133.067C28.272 132.889 27.3307 132.762 26.3817 132.643C24.3911 132.398 22.4082 132.16 20.4331 131.855C20.3482 131.855 20.3174 131.959 20.4331 131.974C22.3234 132.331 24.1905 132.718 26.0731 133.164C26.9604 133.357 27.8476 133.521 28.7349 133.692C29.4627 133.842 30.1793 134.038 30.8798 134.28C31.0727 134.555 31.281 134.823 31.4739 135.098C32.3689 136.347 33.2253 137.634 34.0663 138.921L32.8241 138.69C31.8828 138.512 30.9338 138.348 29.9925 138.199C28.1331 137.902 26.266 137.589 24.4297 137.188C24.3525 137.188 24.3217 137.292 24.4297 137.307C26.2968 137.731 28.1408 138.222 29.9925 138.698C30.8875 138.928 31.7902 139.137 32.693 139.33L34.0432 139.613C34.2251 139.659 34.4111 139.688 34.5987 139.702C36.3809 142.484 38.0475 145.34 39.5983 148.248C40.2773 149.527 40.9331 150.821 41.5657 152.116C42.1984 153.41 42.7771 154.816 43.3789 156.169C43.4637 156.452 43.9035 156.34 43.7878 156.043Z" fill="#263238"/>
<path d="M31.32 129.021C31.0886 127.898 30.8417 126.79 30.5485 125.659C30.5485 125.585 30.4096 125.622 30.425 125.659C30.6565 126.76 30.8802 127.891 31.0886 128.969C31.2588 130.078 31.488 131.178 31.7752 132.264C31.7025 131.174 31.5503 130.09 31.32 129.021V129.021Z" fill="#263238"/>
<path d="M24.2059 128.694C23.6426 128.419 23.0408 128.203 22.4545 127.95L21.5286 127.6L21.058 127.422C20.8777 127.366 20.7043 127.291 20.541 127.199C20.4484 127.139 20.3944 127.288 20.487 127.303C20.668 127.35 20.8417 127.42 21.0039 127.511L21.4669 127.712L22.3619 128.091C22.9465 128.356 23.5468 128.587 24.1596 128.783C24.229 128.835 24.2753 128.724 24.2059 128.694Z" fill="#263238"/>
<path d="M50.5703 135.195C50.5703 135.195 57.954 121.903 69.18 119.843C80.406 117.783 87.2882 128.924 87.2882 128.924C87.2882 128.924 79.0944 139.01 68.7711 140.773C58.4478 142.536 50.5703 135.195 50.5703 135.195Z" fill="#124B92"/>
<path d="M76.7096 125.801C73.7832 125.418 70.8144 125.453 67.8986 125.905L68.4001 125.644L70.8922 124.41C72.6044 123.497 74.3632 122.668 76.1618 121.925C76.2467 121.888 76.1618 121.777 76.1156 121.814C74.3564 122.602 72.5356 123.301 70.7765 124.045C69.8892 124.432 69.025 124.841 68.1686 125.28C67.6131 125.563 67.0036 125.83 66.4558 126.172C63.989 126.649 61.5921 127.416 59.319 128.456L60.7232 126.968C61.7648 125.86 62.7987 124.7 63.9483 123.696C64.01 123.644 63.9483 123.562 63.8557 123.614C62.6829 124.64 61.4407 125.592 60.2989 126.663C59.7511 127.184 59.2187 127.72 58.7018 128.277C58.4471 128.553 58.1848 128.835 57.9302 129.133C54.0733 131.123 50.7222 133.914 48.118 137.302C45.5138 140.691 43.7213 144.595 42.8696 148.731C42.8696 148.806 42.9699 148.843 42.9931 148.769C44.5748 143.701 47.4076 139.079 51.2486 135.299C55.3882 131.247 60.5949 128.359 66.3092 126.946C69.6988 126.113 73.2045 125.807 76.6942 126.039C76.727 126.041 76.7592 126.03 76.7838 126.009C76.8084 125.988 76.8233 125.959 76.8254 125.927C76.8274 125.895 76.8164 125.864 76.7947 125.841C76.773 125.817 76.7424 125.803 76.7096 125.801V125.801Z" fill="#263238"/>
<path opacity="0.1" d="M87.2877 128.924C87.2877 128.924 79.0938 139.01 68.7705 140.773C60.9085 142.112 54.4429 138.162 51.7965 136.213L51.2256 135.314C51.2256 135.314 56.5415 131 66.6025 128.508C76.6635 126.016 87.2877 128.924 87.2877 128.924Z" fill="#3A3A3A"/>
<path d="M70.183 121.063C69.3234 121.547 68.4915 122.076 67.6909 122.647C66.9106 123.221 66.1851 123.86 65.5228 124.558C65.5142 124.572 65.5107 124.587 65.5128 124.603C65.515 124.618 65.5226 124.633 65.5345 124.643C65.5465 124.654 65.5618 124.66 65.578 124.661C65.5942 124.662 65.6101 124.657 65.6231 124.648C66.3947 124.023 67.1122 123.398 67.8915 122.81C68.642 122.215 69.4305 121.666 70.2524 121.167C70.2595 121.162 70.2656 121.157 70.2704 121.15C70.2752 121.143 70.2786 121.136 70.2804 121.128C70.2822 121.12 70.2824 121.112 70.2809 121.104C70.2794 121.096 70.2762 121.088 70.2717 121.081C70.2671 121.074 70.2612 121.068 70.2543 121.064C70.2474 121.059 70.2396 121.056 70.2313 121.054C70.2231 121.052 70.2146 121.052 70.2063 121.054C70.198 121.055 70.1901 121.058 70.183 121.063V121.063Z" fill="#263238"/>
<path d="M76.3471 123.309C75.9305 123.48 75.5061 123.621 75.0895 123.792L73.8396 124.29C73.7547 124.29 73.7933 124.469 73.8859 124.432L75.1358 123.941C75.5601 123.777 75.969 123.591 76.3857 123.428C76.4628 123.398 76.4243 123.279 76.3471 123.309Z" fill="#263238"/>
<path d="M49.0962 151.922C49.0962 151.922 51.0713 165.11 61.3561 169.721C71.6408 174.333 84.1784 169.721 84.1784 169.721C84.1784 169.721 79.2791 141.197 49.0962 151.922Z" fill="#124B92"/>
<path d="M77.0875 161.16C76.1462 161.056 75.1972 160.9 74.2636 160.736L72.8748 160.483L72.1573 160.342C71.8796 160.096 71.6095 159.843 71.324 159.598C69.3707 157.948 67.2631 156.477 65.0282 155.202C63.813 154.508 62.5557 153.884 61.2631 153.335H61.456L64.8431 153.477C67.096 153.581 69.3566 153.625 71.6095 153.767C71.6944 153.767 71.6867 153.655 71.6095 153.648C69.3412 153.499 67.0883 153.261 64.8276 153.075L61.5408 152.792L59.8434 152.651L59.4114 152.606C58.825 152.391 58.2386 152.19 57.6368 152.011C54.8334 151.084 51.818 150.924 48.9261 151.55C46.3414 152.19 43.7567 153.826 43.0854 156.452C43.0854 156.541 43.2089 156.608 43.2475 156.519C44.2119 154.287 46.7426 153.209 49.0264 152.755C50.5534 152.476 52.1182 152.446 53.6556 152.666C53.7594 153.345 53.9325 154.013 54.1726 154.659C54.458 155.589 54.7358 156.519 55.029 157.441C55.6154 159.293 56.2557 161.16 56.8267 162.982C56.8267 162.998 56.8332 163.013 56.8448 163.024C56.8563 163.035 56.872 163.042 56.8884 163.042C56.9048 163.042 56.9205 163.035 56.9321 163.024C56.9436 163.013 56.9501 162.998 56.9501 162.982C56.4718 161.13 56.0629 159.263 55.5999 157.404C55.3762 156.496 55.137 155.589 54.9055 154.682C54.7711 154.048 54.5985 153.422 54.3886 152.807C55.2897 152.959 56.181 153.16 57.0582 153.41C58.636 153.865 60.1822 154.416 61.6874 155.061C61.834 155.998 62.0578 156.928 62.2815 157.857C62.5593 159.018 62.8756 160.171 63.2537 161.309C63.2581 161.32 63.2659 161.33 63.2763 161.337C63.2866 161.344 63.2989 161.347 63.3115 161.347C63.3241 161.347 63.3364 161.344 63.3468 161.337C63.3571 161.33 63.365 161.32 63.3694 161.309L63.3231 161.093C63.0916 160.014 62.8447 158.936 62.6056 157.857C62.4204 156.987 62.2429 156.117 62.0501 155.254C63.3311 155.803 64.5826 156.414 65.7998 157.084C65.7998 157.352 65.8924 157.627 65.9309 157.872C66.0081 158.319 66.093 158.772 66.1778 159.226C66.3707 160.238 66.579 161.257 66.8336 162.261C67.2991 164.206 67.8892 166.121 68.6005 167.995C68.5917 168.006 68.5869 168.019 68.5869 168.032C68.5869 168.046 68.5917 168.059 68.6005 168.07L68.6622 168.137C68.7085 168.189 68.7779 168.137 68.7625 168.077C68.2919 166.121 67.7441 164.18 67.2966 162.223C67.0805 161.242 66.8568 160.26 66.6485 159.248C66.5482 158.757 66.4556 158.267 66.3553 157.761L66.2858 157.322C67.6711 158.104 69.0082 158.964 70.2902 159.895C72.5103 161.498 74.5644 163.304 76.424 165.288C76.4934 165.37 76.64 165.288 76.5706 165.169C75.8071 164.17 74.9907 163.209 74.1248 162.29C73.6078 161.755 73.0677 161.234 72.5199 160.728H72.6897C73.1758 160.81 73.6541 160.877 74.1402 160.937C75.0892 161.063 76.0459 161.152 77.0026 161.257C77.1415 161.271 77.1724 161.16 77.0875 161.16Z" fill="#263238"/>
<path d="M69.8663 165.623C69.8663 165.511 69.8663 165.392 69.8046 165.281C69.7428 165.169 69.7043 164.998 69.6811 164.849C69.4728 163.964 69.2953 163.079 69.1256 162.187C69.1256 162.127 69.0176 162.142 69.0176 162.187C69.0802 163.367 69.3408 164.53 69.7891 165.63C69.7891 165.668 69.874 165.63 69.8663 165.63V165.623Z" fill="#263238"/>
<path d="M61.2562 165.407C61.2562 165.407 61.2562 165.348 61.1945 165.348C60.9013 164.18 60.6236 163.012 60.3767 161.837C60.2455 161.22 60.1143 160.602 59.9909 159.985C59.9214 159.65 59.8597 159.316 59.798 158.981C59.7711 158.686 59.6956 158.397 59.5743 158.125C59.5699 158.114 59.562 158.104 59.5516 158.097C59.5413 158.09 59.529 158.087 59.5164 158.087C59.5038 158.087 59.4915 158.09 59.4811 158.097C59.4708 158.104 59.4629 158.114 59.4585 158.125C59.4504 158.725 59.5389 159.322 59.7208 159.896C59.8443 160.535 59.9755 161.182 60.122 161.822C60.423 163.124 60.7547 164.418 61.1405 165.697C61.1452 165.71 61.1541 165.722 61.1658 165.73C61.1776 165.738 61.1917 165.742 61.2061 165.742C61.2205 165.742 61.2346 165.738 61.2463 165.73C61.2581 165.722 61.2669 165.71 61.2717 165.697L61.2562 165.407Z" fill="#263238"/>
<path d="M76.1928 157.345C74.3103 157.099 72.4354 156.839 70.5528 156.601C70.4757 156.601 70.4448 156.712 70.5528 156.72C72.4277 156.988 74.3103 157.211 76.1928 157.464C76.1928 157.478 76.2314 157.359 76.1928 157.345Z" fill="#263238"/>
<path d="M43.8266 120.996C43.8266 120.996 37.5308 94.3831 67.1967 83.6057C67.1967 83.6057 75.4214 118.645 43.8266 120.996Z" fill="#124B92"/>
<path d="M50.23 105.904L50.5464 105.718L52.2284 104.811L55.6695 102.959C57.9301 101.732 60.1676 100.467 62.4436 99.2401C62.5208 99.2401 62.4436 99.0988 62.3819 99.136C60.0673 100.333 57.7526 101.457 55.4766 102.624L52.074 104.357L50.6853 105.101C51.6728 103.294 52.7299 101.524 53.8949 99.8128C55.438 97.5294 57.1431 95.3501 58.9099 93.2378C58.9284 93.219 58.9383 93.194 58.9376 93.1682C58.9369 93.1424 58.9255 93.1179 58.9061 93.1002C58.8866 93.0824 58.8607 93.0728 58.8339 93.0735C58.8072 93.0742 58.7818 93.0851 58.7634 93.1039C56.1583 95.5405 53.8565 98.2612 51.9043 101.211C51.9043 101.114 51.9043 101.018 51.9043 100.928C51.9043 100.267 51.9583 99.6046 51.966 98.9426C51.966 97.641 51.9197 96.3393 51.966 95.0452C51.966 94.9633 51.8426 94.9708 51.8349 95.0452C51.7809 96.3245 51.6188 97.6038 51.5417 98.8831C51.5417 99.5153 51.48 100.155 51.4568 100.795C51.4568 101.137 51.4568 101.538 51.4568 101.91C50.8499 102.847 50.2661 103.797 49.7054 104.759C48.7111 106.494 47.8249 108.285 47.0513 110.122C47.0513 109.46 46.9818 108.798 46.9433 108.136C46.8507 106.648 46.6732 105.228 46.6038 103.77C46.6038 103.754 46.5973 103.739 46.5857 103.728C46.5741 103.717 46.5584 103.71 46.5421 103.71C46.5257 103.71 46.51 103.717 46.4984 103.728C46.4868 103.739 46.4803 103.754 46.4803 103.77C46.4803 105.257 46.4803 106.685 46.4803 108.143C46.4803 108.887 46.5266 109.631 46.5729 110.33C46.5729 110.598 46.5729 110.873 46.6269 111.141C45.6837 113.52 44.9356 115.967 44.3894 118.459C43.8749 121.119 43.5066 123.803 43.2861 126.5C43.2861 126.5 43.2861 126.5 43.2861 126.5C43.5852 124.074 44.1014 121.677 44.8292 119.337C45.1919 118.08 45.6008 116.831 46.002 115.618C47.2365 115.06 48.4169 114.361 49.6051 113.722L53.3317 111.758C55.8083 110.449 58.2773 109.118 60.8311 107.965C60.9005 107.965 60.8311 107.823 60.7617 107.861C58.177 108.984 55.5692 110.092 53.0462 111.289C51.7809 111.907 50.5387 112.561 49.3042 113.231C48.278 113.789 47.2133 114.346 46.218 114.993C46.5035 114.16 46.8044 113.335 47.1361 112.524C48.0465 110.267 49.0792 108.057 50.23 105.904V105.904Z" fill="#263238"/>
<path d="M47.7308 99.8128C47.726 99.7996 47.7172 99.7883 47.7054 99.7802C47.6937 99.7722 47.6796 99.7678 47.6652 99.7678C47.6508 99.7678 47.6367 99.7722 47.625 99.7802C47.6132 99.7883 47.6043 99.7996 47.5996 99.8128C47.7076 101.3 47.7616 102.847 47.9314 104.365C47.9314 104.382 47.9387 104.4 47.9517 104.412C47.9647 104.425 47.9824 104.432 48.0008 104.432C48.0192 104.432 48.0369 104.425 48.0499 104.412C48.0629 104.4 48.0703 104.382 48.0703 104.365C48.0162 102.847 47.8465 101.338 47.7308 99.8128Z" fill="#263238"/>
<path d="M61.9509 104.9C60.0992 105.644 58.2243 106.306 56.3726 107.05C56.3263 107.05 56.3726 107.154 56.3726 107.132C58.2475 106.455 60.0915 105.718 61.9586 105.019C62.0666 104.989 62.0281 104.87 61.9509 104.9Z" fill="#263238"/>
<path d="M64.7744 92.6203C62.9581 93.4237 61.1956 94.3354 59.497 95.35C59.4847 95.3631 59.4772 95.3797 59.4755 95.3973C59.4738 95.4148 59.478 95.4325 59.4876 95.4475C59.4971 95.4626 59.5114 95.4743 59.5284 95.4808C59.5454 95.4874 59.5642 95.4884 59.5818 95.4839C61.3024 94.5095 63.0538 93.5798 64.8361 92.7245C64.9132 92.7319 64.8438 92.5906 64.7744 92.6203Z" fill="#263238"/>
<path d="M64.3193 178.557H21.5371V222.031H64.3193V178.557Z" fill="#455A64"/>
<path d="M20.7888 193.946H18.5977V268.414H20.7888V193.946Z" fill="#263238"/>
<path d="M67.0423 193.946H64.8511V268.414H67.0423V193.946Z" fill="#263238"/>
<path d="M45.076 193.946H42.8848V268.414H45.076V193.946Z" fill="#263238"/>
<path d="M65.9471 219.25H19.6929V225.267H65.9471V219.25Z" fill="#263238"/>
<path d="M236.388 244.093C236.388 244.093 236.388 276.127 236.388 276.15C236.388 282.271 236.334 287.641 236.018 290.415C236.022 290.422 236.024 290.43 236.024 290.438C236.024 290.446 236.022 290.453 236.018 290.46C236.018 291.118 235.859 291.768 235.555 292.357L235.516 292.394C233.633 293.636 182.866 295.317 181.076 294.796C179.286 294.276 180.667 289.322 182.619 287.738C184.571 286.154 203.682 277.139 203.682 277.139L203.998 245.119L236.388 244.093Z" fill="#AD6359"/>
<path d="M236.38 269.567V276.15C236.38 282.271 236.326 287.641 236.01 290.415C236.014 290.422 236.016 290.43 236.016 290.438C236.016 290.446 236.014 290.453 236.01 290.46C235.93 291.107 235.775 291.743 235.547 292.357L235.508 292.394C233.626 293.636 182.858 295.317 181.068 294.796C179.278 294.276 180.659 289.322 182.611 287.738C184.563 286.154 203.674 277.139 203.674 277.139L203.582 270.445L236.38 269.567Z" fill="#C7C7C7"/>
<path d="M181.068 294.797C182.858 295.317 233.626 293.644 235.516 292.394C236.242 291.933 236.419 284.785 236.38 276.15V275.875L203.613 276.619L203.651 277.154C203.651 277.154 184.517 286.176 182.588 287.76C180.659 289.345 179.271 294.298 181.068 294.797Z" fill="#263238"/>
<path d="M181.57 292.885C190.126 292.394 224.661 291.219 233.148 291.397C233.217 291.397 233.217 291.442 233.148 291.449C224.661 292.104 190.142 293.019 181.577 293.048C181.4 293.019 181.392 292.892 181.57 292.885Z" fill="#455A64"/>
<path d="M200.889 277.325C204.237 276.581 208.373 276.968 211.027 279.199C211.135 279.288 211.027 279.422 210.896 279.393C207.641 278.499 204.297 277.943 200.92 277.734C200.869 277.729 200.822 277.707 200.787 277.672C200.751 277.637 200.73 277.591 200.726 277.542C200.723 277.493 200.737 277.445 200.767 277.405C200.796 277.365 200.84 277.337 200.889 277.325V277.325Z" fill="#455A64"/>
<path d="M198.513 278.82C201.854 278.076 205.997 278.463 208.651 280.694C208.751 280.776 208.651 280.917 208.512 280.888C205.258 279.993 201.913 279.437 198.536 279.229C198.486 279.223 198.44 279.2 198.405 279.164C198.371 279.129 198.35 279.082 198.348 279.034C198.345 278.985 198.36 278.937 198.39 278.898C198.42 278.859 198.464 278.831 198.513 278.82Z" fill="#455A64"/>
<path d="M196.129 280.307C199.477 279.564 203.613 279.958 206.267 282.182C206.375 282.271 206.267 282.412 206.136 282.383C202.881 281.487 199.537 280.928 196.16 280.716C196.109 280.711 196.062 280.689 196.027 280.654C195.991 280.619 195.97 280.573 195.966 280.524C195.963 280.476 195.977 280.427 196.007 280.387C196.036 280.348 196.08 280.319 196.129 280.307V280.307Z" fill="#455A64"/>
<path d="M239.297 125.332L239.266 127.452L238.024 221.065L238.016 221.422L237.283 277.496L201.746 276.812L208.605 125.444L208.697 123.421L209.045 105.86H239.058L239.297 125.332Z" fill="#455A64"/>
<path d="M203.235 271.1C208.782 271.047 207.185 270.988 212.733 271.003C215.448 271.003 233.294 271.07 235.825 271.501C235.879 271.501 235.879 271.605 235.825 271.613C233.279 271.985 215.441 271.613 212.725 271.568C207.177 271.457 208.775 271.427 203.227 271.256C203.21 271.25 203.195 271.239 203.185 271.224C203.175 271.21 203.17 271.192 203.171 271.175C203.172 271.157 203.179 271.141 203.19 271.127C203.202 271.114 203.217 271.104 203.235 271.1V271.1Z" fill="#263238"/>
<path d="M219.152 135.18C219.152 135.164 219.145 135.149 219.133 135.138C219.122 135.127 219.106 135.121 219.09 135.121C219.073 135.121 219.058 135.127 219.046 135.138C219.035 135.149 219.028 135.164 219.028 135.18C219.028 144.143 218.65 149.163 218.426 158.118C218.203 167.074 217.933 176.029 217.655 184.976C217.153 202.879 216.405 220.767 215.718 238.663C215.332 248.699 214.851 258.73 214.275 268.756C214.275 268.77 214.281 268.783 214.291 268.793C214.301 268.803 214.315 268.808 214.329 268.808C214.344 268.808 214.357 268.803 214.368 268.793C214.378 268.783 214.383 268.77 214.383 268.756C215.734 250.906 217.022 232.995 217.763 215.092C218.503 197.189 219.028 179.294 219.113 161.391C219.19 151.343 219.128 145.229 219.152 135.18Z" fill="#263238"/>
<path d="M239.289 125.332L238.024 221.065L214.206 105.86H239.05L239.289 125.332Z" fill="#263238"/>
<path d="M276.246 242.36C276.246 242.36 280.721 274.097 280.721 274.119C281.616 280.188 282.264 285.521 282.357 288.311C282.357 288.311 282.357 288.311 282.357 288.355C282.447 289.005 282.384 289.666 282.172 290.289C282.171 290.304 282.171 290.319 282.172 290.334C280.474 291.821 230.401 300.077 228.557 299.795C226.713 299.512 227.392 294.425 229.066 292.602C230.74 290.78 248.455 279.363 248.455 279.363L244.289 247.596L276.246 242.36Z" fill="#AD6359"/>
<path d="M279.803 267.604C279.803 267.604 280.721 274.097 280.721 274.119C281.616 280.189 282.264 285.522 282.357 288.311C282.357 288.311 282.357 288.311 282.357 288.355C282.371 289.005 282.309 289.653 282.172 290.289C282.171 290.304 282.171 290.319 282.172 290.334C280.474 291.821 230.401 300.077 228.557 299.795C226.713 299.512 227.392 294.425 229.066 292.602C230.74 290.78 248.455 279.363 248.455 279.363L247.398 272.728L279.803 267.604Z" fill="#C7C7C7"/>
<path d="M228.526 299.795C230.378 300.077 280.443 291.814 282.141 290.334C282.796 289.776 281.971 282.68 280.721 274.119L280.675 273.851L248.316 278.835L248.424 279.363C248.424 279.363 230.725 290.787 229.035 292.61C227.345 294.432 226.643 299.504 228.526 299.795Z" fill="#263238"/>
<path d="M228.758 297.831C237.167 296.239 271.193 290.579 279.68 289.649C279.749 289.649 279.757 289.687 279.68 289.701C271.385 291.457 237.291 296.849 228.804 297.995C228.603 298.017 228.58 297.868 228.758 297.831Z" fill="#455A64"/>
<path d="M245.724 279.906C248.941 278.76 253.092 278.582 256.031 280.441C256.147 280.516 256.031 280.672 255.923 280.657C252.575 280.191 249.183 280.074 245.808 280.307C245.758 280.309 245.708 280.292 245.669 280.262C245.629 280.232 245.602 280.189 245.592 280.141C245.582 280.093 245.59 280.043 245.614 280C245.638 279.957 245.677 279.924 245.724 279.906Z" fill="#455A64"/>
<path d="M243.571 281.691C246.789 280.545 250.94 280.367 253.879 282.234C253.995 282.301 253.879 282.457 253.771 282.442C250.422 281.98 247.031 281.863 243.656 282.093C243.606 282.094 243.556 282.078 243.517 282.047C243.477 282.017 243.45 281.974 243.44 281.926C243.43 281.878 243.437 281.828 243.461 281.785C243.485 281.742 243.524 281.709 243.571 281.691V281.691Z" fill="#455A64"/>
<path d="M241.427 283.483C244.644 282.338 248.787 282.16 251.734 284.019C251.85 284.093 251.734 284.25 251.626 284.235C248.278 283.765 244.886 283.648 241.511 283.885C241.461 283.886 241.411 283.87 241.372 283.84C241.332 283.809 241.305 283.766 241.295 283.718C241.285 283.671 241.292 283.621 241.316 283.578C241.341 283.535 241.379 283.502 241.427 283.483Z" fill="#455A64"/>
<path d="M212.1 105.831C212.231 106.426 214.33 115.812 216.506 123.875C218.087 129.766 219.715 134.942 220.649 135.478C221.706 136.08 226.86 138.282 228.588 138.974L236.481 211.738L247.151 279.11L282.041 273.904L257.212 126.456L253.17 105.831H212.1Z" fill="#455A64"/>
<path d="M247.36 272.349C252.838 271.501 251.217 271.665 256.742 270.861C259.427 270.475 277.08 267.953 279.649 268.02C279.703 268.02 279.718 268.109 279.649 268.124C277.195 268.868 259.496 271.099 256.803 271.427C251.302 272.111 252.876 271.858 247.367 272.49C247.354 272.484 247.343 272.474 247.335 272.462C247.327 272.45 247.322 272.436 247.321 272.422C247.321 272.407 247.324 272.393 247.33 272.38C247.337 272.368 247.347 272.357 247.36 272.349V272.349Z" fill="#263238"/>
<path d="M267.535 252.23C266.663 247.559 265.799 242.888 264.904 238.217C263.119 228.875 261.319 219.535 259.503 210.198C255.862 191.51 252.261 172.806 248.702 154.087C246.711 143.526 246.757 144.515 245.021 133.901C245.021 133.834 244.882 133.841 244.898 133.901C246.564 143.332 245.777 141.264 247.351 150.71C248.925 160.157 250.576 169.402 252.312 178.721C255.8 197.457 259.457 216.164 263.153 234.862C264.181 240.108 265.233 245.347 266.308 250.578C267.388 255.919 268.623 261.229 269.765 266.555C269.765 266.674 269.989 266.667 269.965 266.555C269.163 261.787 268.438 256.997 267.535 252.23Z" fill="#263238"/>
<path d="M257.945 134.6C257.019 134.37 256.024 134.295 255.083 134.154C254.311 134.035 253.54 133.901 252.768 133.745C251.316 133.494 249.94 132.935 248.741 132.108C247.429 131.127 246.758 129.632 246.125 128.196C245.744 127.348 245.359 126.5 244.968 125.652L244.389 124.425C244.12 123.943 243.88 123.447 243.672 122.938C243.672 122.863 243.525 122.938 243.556 122.938C243.687 123.285 243.795 123.64 243.88 124.001C244.011 124.41 244.127 124.819 244.258 125.228C244.497 125.972 244.729 126.716 244.975 127.46C245.351 128.802 245.892 130.095 246.588 131.313C247.992 133.455 250.492 134.325 252.992 134.63C253.709 134.712 254.435 134.764 255.16 134.801C256.068 134.879 256.982 134.879 257.891 134.801C257.912 134.796 257.932 134.785 257.947 134.77C257.962 134.755 257.974 134.736 257.979 134.716C257.985 134.695 257.984 134.674 257.978 134.654C257.972 134.633 257.961 134.615 257.945 134.6V134.6Z" fill="#263238"/>
<path d="M217.909 134.191C221.589 135.479 225.144 137.077 228.534 138.966C228.562 138.979 228.585 139.002 228.595 139.031C228.606 139.059 228.605 139.091 228.592 139.118C228.578 139.146 228.554 139.167 228.524 139.178C228.495 139.188 228.462 139.187 228.433 139.174C224.853 137.687 221.204 136.273 217.717 134.607C217.668 134.578 217.633 134.532 217.616 134.479C217.6 134.426 217.603 134.369 217.627 134.319C217.65 134.268 217.692 134.228 217.743 134.204C217.795 134.181 217.854 134.176 217.909 134.191V134.191Z" fill="#263238"/>
<path d="M216.829 110.583C216.829 110.464 217.061 110.434 217.061 110.583C217.058 114.433 217.259 118.281 217.662 122.112C217.824 123.889 219.306 133.707 222.508 132.993C223.04 132.874 223.279 132.361 223.395 131.588C223.384 130.57 223.241 129.559 222.971 128.575C222.616 126.515 222.33 124.455 222.153 122.38C221.776 118.513 221.82 114.619 222.284 110.762C222.284 110.736 222.295 110.711 222.313 110.693C222.332 110.675 222.358 110.665 222.384 110.665C222.411 110.665 222.436 110.675 222.455 110.693C222.474 110.711 222.485 110.736 222.485 110.762C222.395 116.125 222.72 121.488 223.457 126.805C223.858 129.356 225.193 133.202 222.423 133.596C219.653 133.99 217.794 127.556 217.431 125.794C216.547 120.77 216.345 115.657 216.829 110.583V110.583Z" fill="#263238"/>
<path d="M222.423 133.217C222.705 133.881 222.944 134.562 223.141 135.255C223.347 135.79 223.449 136.357 223.442 136.928C223.437 136.951 223.426 136.973 223.408 136.99C223.391 137.006 223.369 137.018 223.345 137.023C223.321 137.028 223.296 137.025 223.274 137.016C223.251 137.007 223.232 136.992 223.218 136.973C222.873 136.472 222.613 135.922 222.446 135.344C222.199 134.719 221.945 134.087 221.721 133.455C221.688 133.365 221.694 133.266 221.737 133.18C221.779 133.095 221.856 133.029 221.949 132.997C222.042 132.966 222.144 132.971 222.233 133.012C222.322 133.053 222.39 133.127 222.423 133.217V133.217Z" fill="#263238"/>
<path d="M257.574 128.62C253.346 128.353 208.697 123.414 208.697 123.414L209.044 105.853H212.13H253.2L257.243 126.478L257.574 128.62Z" fill="#263238"/>
<path d="M226.304 65.5249C221.196 80.9361 212.547 96.8456 210.047 99.977C203.342 108.397 183.197 116.69 177.048 117.761C174.386 118.222 168.006 101.673 169.657 99.3968C171.308 97.1209 196.345 87.8979 197.571 86.6707C198.42 85.8153 208.982 72.695 216.088 64.7811C224.969 54.9408 227.646 61.4936 226.304 65.5249Z" fill="#AD6359"/>
<path d="M175.004 96.1835L184.895 115.522C184.895 115.522 205.92 106.738 210.927 100.468C215.934 94.1976 225.008 72.9477 226.358 66.1792C227.708 59.4108 225.378 54.5762 215.973 64.4685C206.568 74.3609 198.775 84.216 197.093 85.8672C195.411 87.5184 175.004 96.1835 175.004 96.1835Z" fill="#EBEBEB"/>
<path d="M175.837 95.2018L187.688 115.239C187.688 115.239 206.205 106.708 210.927 101.107C215.649 95.5067 223.434 78.3104 225.872 69.028C228.31 59.7456 226.883 53.1631 215.981 64.5207C205.079 75.8783 198.914 84.1268 196.692 85.9789C195.635 86.7821 175.837 95.2018 175.837 95.2018Z" fill="#37474F"/>
<path d="M180.829 97.054C181.429 97.054 181.916 96.5845 181.916 96.0053C181.916 95.4261 181.429 94.9565 180.829 94.9565C180.228 94.9565 179.741 95.4261 179.741 96.0053C179.741 96.5845 180.228 97.054 180.829 97.054Z" fill="#263238"/>
<path d="M185.959 94.7779C186.56 94.7779 187.047 94.3084 187.047 93.7292C187.047 93.15 186.56 92.6804 185.959 92.6804C185.359 92.6804 184.872 93.15 184.872 93.7292C184.872 94.3084 185.359 94.7779 185.959 94.7779Z" fill="#263238"/>
<path d="M225.872 68.9983C223.434 78.2807 215.657 95.4473 210.927 101.078C208.906 103.48 204.384 106.411 199.855 108.984L223.719 58.6002C227.415 57.6333 227.531 62.691 225.872 68.9983Z" fill="#263238"/>
<path d="M259.905 121.249C259.781 121.383 206.406 121.539 205.897 121.011C205.21 120.267 217.269 64.4836 222.747 57.6334C223.912 56.1458 227.778 55.7516 231.064 56.1458C231.922 56.2391 232.769 56.4058 233.595 56.6442H233.688C234.354 56.8337 234.983 57.1304 235.547 57.5218C244.682 64.558 252.382 89.155 254.18 96.5407C257.189 108.731 260.345 120.766 259.905 121.249Z" fill="#EBEBEB"/>
<path d="M235.393 56.8672C235.393 56.8672 231.049 79.7014 230.293 85.6368C229.537 91.5722 230.648 122.923 230.648 122.923L264.164 125.31C264.164 125.31 256.919 104.559 256.834 103.242C256.834 103.242 250.816 78.3849 245.176 68.0016C242.713 63.7019 239.387 59.917 235.393 56.8672V56.8672Z" fill="#37474F"/>
<path d="M264.164 125.31L248.964 124.224L238.116 59.1655V59.2102L244.921 67.6149C244.998 67.7488 245.076 67.8827 245.145 68.0166C250.785 78.4296 256.803 103.257 256.803 103.257C256.919 104.559 264.164 125.31 264.164 125.31Z" fill="#263238"/>
<path d="M222.423 57.3655C222.423 57.3655 218.866 80.4897 218.481 82.4013C218.095 84.3128 212.709 122.023 212.709 122.023L204.323 122.276L208.697 105.035C208.697 105.035 218.427 62.2893 222.423 57.3655Z" fill="#37474F"/>
<path d="M227.322 70.0547L224.946 65.592L221.875 68.8201L222.631 72.0332L225.656 72.4125L227.322 70.0547Z" fill="#263238"/>
<path d="M225.656 72.4123L227.107 105.243L220.726 116.102L217.408 103.882L222.632 72.033L225.656 72.4123Z" fill="#263238"/>
<path d="M224.318 163.15L224.277 201.708L290.29 201.775L290.332 163.217L224.318 163.15Z" fill="#124B92"/>
<path opacity="0.1" d="M224.315 163.154L224.295 181.31L290.309 181.377L290.329 163.221L224.315 163.154Z" fill="#3A3A3A"/>
<path d="M222.743 175.466L291.881 175.536L291.901 157.544L222.762 157.474L222.743 175.466Z" fill="#124B92"/>
<path d="M242.784 147.237L242.769 157.494L247.776 157.501L247.784 151.663L266.88 151.685L266.872 157.524H271.879L271.887 147.259L242.784 147.237Z" fill="#263238"/>
<path d="M277.877 179.812L282.383 179.816L282.392 171.218L277.887 171.214L277.877 179.812Z" fill="#263238"/>
<path d="M232.225 179.776L236.731 179.781L236.74 171.182L232.234 171.178L232.225 179.776Z" fill="#263238"/>
<path d="M242.769 63.725C257.66 76.7486 267.111 95.3507 267.751 99.1068C269.295 108.188 271.247 124.105 270.915 131.09C270.791 133.678 250.446 130.539 250.484 127.772C250.615 119.115 249.42 100.074 249.366 99.739C249.003 97.411 244.574 86.9459 240.107 75.5958C235.64 64.2456 236.504 58.2582 242.769 63.725Z" fill="#AD6359"/>
<path d="M248.339 154.905C248.933 155.166 249.594 155.245 250.236 155.132C250.877 155.019 251.467 154.719 251.927 154.273C252.507 155.182 253.4 155.867 254.45 156.207C256.325 156.728 257.991 154.117 257.991 154.117C258.8 154.939 259.845 155.509 260.992 155.753C262.836 156.073 264.912 153.671 264.912 153.671C266.085 154.027 267.351 153.969 268.484 153.507C270.405 152.637 272.033 147.326 272.435 144.269C272.836 141.212 270.992 132.175 270.822 130.42L250.484 127.787C250.484 127.787 244.651 141.012 244.713 144.671C244.767 147.773 246.102 153.834 248.339 154.905Z" fill="#AD6359"/>
<path d="M251.618 154.095C250.747 150.83 250.924 147.49 250.909 144.158C250.909 144.142 250.915 144.127 250.927 144.116C250.938 144.105 250.954 144.098 250.97 144.098C250.987 144.098 251.002 144.105 251.014 144.116C251.026 144.127 251.032 144.142 251.032 144.158C251.032 147.475 251.665 150.755 251.804 154.073C251.807 154.096 251.8 154.12 251.785 154.139C251.769 154.158 251.747 154.17 251.723 154.173C251.698 154.176 251.673 154.169 251.654 154.155C251.634 154.14 251.621 154.119 251.618 154.095Z" fill="#263238"/>
<path d="M257.737 154.02C257.612 153.26 257.591 152.487 257.675 151.722C257.675 150.911 257.768 150.093 257.837 149.282C257.971 147.656 258.143 146.035 258.354 144.418C258.354 144.344 258.478 144.344 258.47 144.418C258.346 146.04 258.246 147.661 258.184 149.282C258.184 150.101 258.138 150.911 258.123 151.722C258.156 152.491 258.105 153.262 257.968 154.02C257.96 154.043 257.944 154.063 257.923 154.077C257.902 154.09 257.878 154.098 257.853 154.098C257.827 154.098 257.803 154.09 257.782 154.077C257.761 154.063 257.746 154.043 257.737 154.02V154.02Z" fill="#263238"/>
<path d="M264.912 153.604C264.813 152.913 264.834 152.212 264.974 151.528C265.051 150.785 265.12 150.041 265.19 149.297C265.329 147.809 265.46 146.322 265.537 144.834C265.537 144.76 265.661 144.76 265.661 144.834C265.583 146.322 265.529 147.854 265.445 149.364L265.306 151.595C265.322 152.275 265.215 152.952 264.989 153.596C264.986 153.603 264.981 153.608 264.974 153.613C264.968 153.617 264.96 153.619 264.953 153.62C264.945 153.621 264.937 153.62 264.93 153.617C264.923 153.614 264.917 153.609 264.912 153.604Z" fill="#263238"/>
<path d="M249.489 127.876L272.041 129.051C272.041 129.051 270.375 105.25 268.585 98.638C266.795 92.0258 251.518 69.9874 242.499 61.9992C234.012 54.4795 234.012 60.7348 237.229 69.5486C240.446 78.3624 248.409 99.6644 248.679 101.219C248.949 102.773 249.489 127.876 249.489 127.876Z" fill="#37474F"/>
<path d="M250.5 123.488C251.364 123.414 252.236 123.488 253.1 123.488C253.964 123.488 254.828 123.525 255.692 123.562C257.359 123.629 259.025 123.726 260.692 123.83L265.684 124.15C267.404 124.261 269.163 124.291 270.869 124.537C270.88 124.541 270.891 124.548 270.898 124.558C270.905 124.568 270.909 124.58 270.909 124.592C270.909 124.605 270.905 124.616 270.898 124.626C270.891 124.636 270.88 124.644 270.869 124.648C269.148 124.715 267.397 124.566 265.676 124.507L260.584 124.306C258.886 124.232 257.189 124.15 255.492 124.046C254.658 124.001 253.825 123.942 252.999 123.852C252.174 123.763 251.31 123.756 250.492 123.599C250.415 123.585 250.438 123.495 250.5 123.488Z" fill="#263238"/>
<path d="M225.748 64.9968C226.628 64.9596 232.468 60.5341 234.235 57.1275C234.359 56.8895 233.904 54.4648 233.502 51.4971C233.263 49.6971 233.039 47.6815 232.978 45.8295C232.978 45.4501 231.651 46.1939 231.651 46.1939L229.182 46.8484L221.034 49.0352C221.802 51.3285 222.273 53.7041 222.438 56.1086C222.447 56.3576 222.429 56.6069 222.384 56.8523C222.388 56.8944 222.388 56.9367 222.384 56.9788C222.207 58.444 224.329 65.0489 225.748 64.9968Z" fill="#AD6359"/>
<path d="M222.415 56.8674C222.419 56.9094 222.419 56.9517 222.415 56.9938C222.828 57.0315 223.244 57.0315 223.658 56.9938C231.759 56.5624 232.43 46.5808 232.43 46.5808L229.228 46.8188L221.081 49.0055C221.848 51.2988 222.32 53.6745 222.485 56.0789C222.492 56.3434 222.469 56.6078 222.415 56.8674Z" fill="#263238"/>
<path d="M232.677 30.1356C234.621 34.0107 234.297 46.1047 231.712 49.1765C227.978 53.6392 220.911 55.0598 216.744 50.5153C212.709 46.1195 213.427 30.3662 216.397 27.458C220.772 23.2333 229.807 24.4085 232.677 30.1356Z" fill="#AD6359"/>
<path d="M221.922 38.9568C221.922 38.9568 221.984 38.9568 221.984 39.0312C221.937 39.8419 222.03 40.7865 222.755 41.0691C222.755 41.0691 222.755 41.1212 222.755 41.1138C221.853 40.9724 221.745 39.7229 221.922 38.9568Z" fill="#263238"/>
<path d="M222.693 38.1239C224.051 38.0495 224.105 40.6825 222.84 40.7494C221.575 40.8164 221.551 38.1834 222.693 38.1239Z" fill="#263238"/>
<path d="M217.03 39.1799C217.03 39.1799 216.968 39.2171 216.968 39.2543C217.007 40.065 216.914 41.0096 216.15 41.2923V41.3369C217.092 41.1882 217.207 39.9237 217.03 39.1799Z" fill="#263238"/>
<path d="M216.258 38.3321C214.9 38.2577 214.839 40.8907 216.104 40.9577C217.369 41.0246 217.385 38.4362 216.258 38.3321Z" fill="#263238"/>
<path d="M223.75 36.9039C223.372 36.8146 223.041 36.6808 222.686 36.5618C222.292 36.4943 221.933 36.3003 221.667 36.0114C221.601 35.9069 221.573 35.7839 221.589 35.6624C221.604 35.5409 221.662 35.428 221.752 35.3419C221.954 35.1928 222.193 35.0983 222.446 35.0683C222.698 35.0382 222.954 35.0736 223.187 35.1709C223.692 35.2996 224.129 35.6044 224.414 36.0262C224.473 36.1259 224.501 36.2399 224.495 36.3545C224.488 36.4691 224.447 36.5795 224.377 36.6722C224.307 36.765 224.211 36.8362 224.099 36.8773C223.988 36.9184 223.867 36.9277 223.75 36.9039V36.9039Z" fill="#263238"/>
<path d="M215.178 37.0305C215.544 36.9531 215.904 36.8563 216.258 36.7405C216.652 36.6875 217.018 36.5126 217.3 36.2421C217.372 36.1405 217.406 36.0187 217.398 35.896C217.389 35.7733 217.339 35.6569 217.254 35.5653C217.06 35.4057 216.825 35.2995 216.574 35.2576C216.323 35.2157 216.065 35.2398 215.826 35.3273C215.316 35.4313 214.865 35.7151 214.561 36.1231C214.497 36.2198 214.464 36.3322 214.464 36.4468C214.465 36.5614 214.5 36.6733 214.565 36.7691C214.631 36.865 214.723 36.9406 214.832 36.987C214.941 37.0334 215.061 37.0485 215.178 37.0305Z" fill="#263238"/>
<path d="M219.353 45.0855C219.715 45.5283 220.191 45.872 220.734 46.0822C221.033 46.1898 221.359 46.2054 221.667 46.1268C222.346 45.9409 222.346 45.3831 222.215 44.8327C222.139 44.5739 222.033 44.3244 221.899 44.0889C221.181 44.6734 220.29 45.0225 219.353 45.0855Z" fill="#263238"/>
<path d="M220.734 46.0823C221.033 46.1899 221.359 46.2055 221.667 46.1269C222.346 45.941 222.346 45.3832 222.215 44.8328C221.859 44.8529 221.52 44.9866 221.252 45.2129C220.984 45.4391 220.802 45.745 220.734 46.0823V46.0823Z" fill="#FF9ABB"/>
<path d="M214.669 31.5041C215.109 30.4628 215.626 29.414 216.266 29.1909C216.906 28.9677 217.362 30.4851 218.835 30.552C220.818 30.6487 221.744 28.8785 224.514 28.6405C228.487 28.2983 230.3 31.4743 230.509 36.9188C230.686 41.7757 233.749 42.1774 233.749 42.1774C233.749 42.1774 235.385 31.4222 232.206 27.9265C229.027 24.4307 221.775 22.9952 217.007 26.4389C215.24 27.7405 214.669 31.5041 214.669 31.5041Z" fill="#263238"/>
<path d="M231.165 40.3106C231.165 40.3106 233.395 36.1379 235.323 36.852C237.252 37.566 235.948 43.3675 233.942 44.4014C233.695 44.5501 233.419 44.6491 233.131 44.6921C232.842 44.7352 232.548 44.7216 232.265 44.6521C231.983 44.5826 231.718 44.4587 231.486 44.2878C231.255 44.1168 231.061 43.9025 230.918 43.6576L231.165 40.3106Z" fill="#AD6359"/>
<path d="M234.907 38.5107C234.907 38.5107 234.953 38.5479 234.907 38.5628C233.51 39.3066 232.916 40.7495 232.592 42.1925C232.657 42.0378 232.756 41.8986 232.883 41.7848C233.01 41.6709 233.16 41.5851 233.325 41.5334C233.49 41.4817 233.664 41.4653 233.836 41.4854C234.008 41.5054 234.173 41.5614 234.32 41.6495C234.359 41.6495 234.32 41.7313 234.32 41.7313C234.049 41.6849 233.77 41.7208 233.521 41.8341C233.273 41.9473 233.066 42.1324 232.931 42.3635C232.706 42.75 232.525 43.159 232.391 43.5834C232.345 43.7247 232.091 43.6875 232.121 43.5313C231.797 41.6867 232.908 38.957 234.907 38.5107Z" fill="#263238"/>
<path d="M222.377 57.1498L225.286 64.0372L234.112 55.335L236.627 58.1167C236.627 58.1167 228.001 71.9065 227.947 71.304L225 65.3984L220.78 69.5189L221.096 59.1878L222.377 57.1498Z" fill="#EBEBEB"/>
<path d="M220.633 64.4092C220.749 62.706 220.811 60.9804 221.004 59.2845C221.004 59.225 221.112 59.2027 221.127 59.2845C221.482 60.9283 221.019 67.4662 221.027 69.0058C221.204 68.8273 224.939 65.3836 224.977 65.4356C225.618 66.3728 227.778 70.6421 227.925 71.0661C229.29 68.8719 234.514 60.8986 236.134 58.8234C236.144 58.8151 236.156 58.8101 236.169 58.809C236.182 58.808 236.195 58.811 236.207 58.8177C236.218 58.8243 236.227 58.8342 236.231 58.8459C236.236 58.8577 236.237 58.8706 236.234 58.8829C235.054 61.1589 228.141 71.9066 228.033 71.9066C226.895 69.8758 225.865 67.7905 224.946 65.6588C224.314 66.4026 220.541 70.3074 220.525 70.0545C220.46 68.1722 220.496 66.2879 220.633 64.4092V64.4092Z" fill="#263238"/>
<path d="M122.716 64.2457C132.423 82.7139 142.283 127.14 143.201 133.083C143.826 137.122 121.798 140.774 121.798 137.977C121.798 134.392 117.354 92.4575 117.779 75.8859C118.01 66.7448 120.71 60.4301 122.716 64.2457Z" fill="#EB9481"/>
<path d="M121.713 136.207C121.358 138.639 122.199 147.066 123.85 153.314C124.622 156.363 127.924 164.879 130.401 164.47C132.877 164.061 132.144 161.495 132.144 161.495C132.144 161.495 134.089 164.887 136.535 164.255C138.98 163.622 137.723 159.651 137.723 159.651C137.723 159.651 139.976 163.005 142.352 162.202C144.728 161.399 142.776 157.613 142.776 157.613C142.776 157.613 144.697 160.774 146.379 159.308C148.409 157.546 144.196 152.116 143.486 148.702C143.324 147.958 141.357 132.77 141.357 132.77L121.713 136.207Z" fill="#EB9481"/>
<path d="M142.807 157.561C139.721 153.559 139.089 151.291 138.703 146.404C138.697 146.387 138.687 146.373 138.672 146.362C138.658 146.352 138.64 146.346 138.622 146.346C138.604 146.346 138.586 146.352 138.572 146.362C138.557 146.373 138.546 146.387 138.541 146.404C138.471 151.231 138.842 154.184 142.615 157.732C142.8 157.888 142.954 157.747 142.807 157.561Z" fill="#263238"/>
<path d="M137.785 159.866C134.953 155.441 134.243 152.986 133.441 147.891C133.441 147.817 133.302 147.824 133.31 147.891C133.657 152.957 134.081 155.895 137.53 159.963C137.685 160.156 137.916 160.067 137.785 159.866Z" fill="#263238"/>
<path d="M131.921 161.161C129.506 156.698 128.611 154.028 128.496 148.985C128.49 148.965 128.477 148.947 128.46 148.935C128.442 148.922 128.421 148.915 128.399 148.915C128.378 148.915 128.356 148.922 128.339 148.935C128.322 148.947 128.309 148.965 128.303 148.985C127.902 154.14 128.997 157.464 131.775 161.228C131.968 161.444 132.076 161.414 131.921 161.161Z" fill="#263238"/>
<path d="M143.062 132.027C143.062 132.027 146.611 137.233 147.645 139.888C148.679 142.544 148.795 153.678 146.295 153.842C143.07 154.05 141.666 147.616 141.434 144.381C141.434 144.381 133.966 144.864 131.944 140.454C129.923 136.043 143.062 132.027 143.062 132.027Z" fill="#EB9481"/>
<path d="M145.392 153.611C142.306 151.759 142.259 147.49 141.773 144.366C141.768 144.319 141.752 144.275 141.725 144.236C141.698 144.197 141.662 144.165 141.62 144.142C141.577 144.119 141.53 144.107 141.481 144.106C141.433 144.105 141.385 144.115 141.341 144.135C138.201 144.135 133.765 143.258 131.867 140.64C131.863 140.63 131.856 140.62 131.848 140.613C131.84 140.605 131.831 140.6 131.82 140.596C131.809 140.592 131.798 140.591 131.787 140.592C131.776 140.593 131.765 140.597 131.755 140.602C131.746 140.608 131.737 140.615 131.731 140.624C131.725 140.633 131.72 140.643 131.718 140.654C131.716 140.664 131.717 140.675 131.72 140.686C131.723 140.696 131.728 140.706 131.735 140.714C133.371 143.793 137.661 144.998 141.102 144.782C141.549 147.988 141.789 152.272 145.369 153.641C145.392 153.648 145.407 153.626 145.392 153.611Z" fill="#263238"/>
<path d="M145.315 130.777L120.294 134.496C120.294 134.496 116.305 89.7127 116.158 74.6808C116.011 59.6489 121.613 55.9672 127.623 71.3412C133.634 86.7153 145.315 130.777 145.315 130.777Z" fill="#124B92"/>
<path d="M120.17 130.725C130.408 128.494 141.511 127.668 143.44 127.393C143.532 127.393 143.54 127.519 143.44 127.527C141.542 127.705 128.95 129.989 120.17 130.874C120.1 130.881 120.093 130.74 120.17 130.725Z" fill="#263238"/>
<path d="M175.628 294.759C173.892 295.302 123.009 294.566 121.142 293.383C120.918 293.249 120.887 288.816 120.949 282.74L118.472 246.644L150.669 246.733L153.215 277.972C153.215 277.972 160.437 281.185 166.393 283.997C168.999 285.138 171.532 286.43 173.977 287.864C175.898 289.411 177.364 294.224 175.628 294.759Z" fill="#EB9481"/>
<path d="M175.629 294.759C173.893 295.302 123.009 294.566 121.142 293.383C120.918 293.249 120.888 288.816 120.949 282.74C133.518 285.439 167.034 289.813 168.014 287.277C168.407 286.258 167.605 285.105 166.409 284.041C169.015 285.183 171.548 286.474 173.993 287.909C175.899 289.411 177.365 294.224 175.629 294.759Z" fill="#263238"/>
<path d="M104.878 115.269C104.878 115.269 113.998 208.554 114.199 209.685C114.199 209.834 114.299 211.559 114.384 214.363C114.893 229.752 116.143 277.741 116.143 277.741H154.396C154.396 277.741 151.904 220.901 150.469 207.647C148.641 190.726 137.399 115.269 137.399 115.269H104.878Z" fill="#37474F"/>
<path d="M118.758 212.839C117.58 193.471 115.808 174.132 113.442 154.824C112.1 143.964 110.479 133.142 108.875 122.313C108.875 122.216 108.705 122.223 108.72 122.313C111.683 141.584 113.774 160.989 115.579 180.41C117.385 199.83 118.665 219.205 119.437 238.648C119.908 249.656 120.263 260.679 120.625 271.694C120.635 271.742 120.661 271.785 120.7 271.816C120.738 271.847 120.787 271.863 120.837 271.863C120.888 271.863 120.936 271.847 120.975 271.816C121.014 271.785 121.04 271.742 121.05 271.694C120.54 252.088 119.954 232.452 118.758 212.839Z" fill="#263238"/>
<path d="M151.981 271.799C150.978 271.672 149.89 271.709 148.894 271.68C147.753 271.68 146.58 271.628 145.453 271.59C143.239 271.509 141.017 271.449 138.803 271.419C134.335 271.345 129.86 271.375 125.401 271.508L121.713 271.635C120.401 271.68 119.09 271.799 117.778 271.791C117.685 271.791 117.685 271.903 117.778 271.903C120.023 271.903 122.299 272.089 124.552 272.17C126.805 272.252 128.981 272.282 131.195 272.312C135.662 272.371 140.145 272.312 144.605 272.178C145.831 272.133 147.058 272.118 148.285 272.081L150.26 271.985C150.846 271.985 151.425 271.985 152.011 271.932C152.089 271.932 152.081 271.813 151.981 271.799Z" fill="#263238"/>
<path d="M132.515 115.269L115.04 236.774C114.793 227.714 114.546 219.339 114.384 214.363C114.299 211.559 114.23 209.834 114.199 209.685C113.983 208.554 104.878 115.269 104.878 115.269H132.515Z" fill="#263238"/>
<path d="M111.544 301.23C109.723 301.089 63.0448 281.542 61.7949 279.757C61.6406 279.556 63.338 275.451 65.8609 269.865L76.1534 234.907L105.935 246.428L97.5329 277.466C97.5329 277.466 102.934 283.112 107.301 287.879C109.251 289.903 111.075 292.036 112.763 294.268C113.928 296.388 113.357 301.379 111.544 301.23Z" fill="#EB9481"/>
<path d="M111.544 301.23C109.723 301.089 63.0448 281.542 61.7949 279.757C61.6406 279.556 63.338 275.451 65.8609 269.865C76.3925 277.02 105.58 293.472 107.524 291.494C108.296 290.706 108.01 289.337 107.332 287.909C109.282 289.933 111.106 292.066 112.794 294.298C113.928 296.388 113.357 301.379 111.544 301.23Z" fill="#263238"/>
<path d="M62.5122 266.265L99.8319 277.422C99.8319 277.422 118.056 215.799 119.452 201.325C120.833 186.978 122.168 157.665 122.762 136.4C122.762 136.4 128.996 132.845 130.578 130.904C132.16 128.962 133.579 121.978 136.696 115.284H91.0363C80.1266 135.716 88.3359 144.805 88.3359 149.26C88.3359 170.77 84.9642 199.324 83.8918 203.557C81.6543 212.378 62.5122 266.265 62.5122 266.265Z" fill="#37474F"/>
<path d="M99.7472 269.552C98.8137 269.18 97.7566 268.95 96.7845 268.66C95.6812 268.34 94.5701 268.042 93.4745 267.715C91.3605 267.083 89.231 266.48 87.1016 265.9C82.8066 264.72 78.4808 263.634 74.1242 262.642L70.5288 261.847C69.2557 261.564 67.9518 261.348 66.671 261.021C66.5707 261.021 66.5476 261.103 66.671 261.133C68.8468 261.683 70.9917 262.434 73.1443 263.074C75.2969 263.713 77.3955 264.286 79.525 264.874C83.8225 266.042 88.1586 267.105 92.5101 268.08C93.7137 268.34 94.9019 268.63 96.0978 268.905L98.019 269.314C98.5899 269.441 99.1454 269.619 99.7241 269.701C99.7445 269.704 99.7654 269.699 99.782 269.687C99.7987 269.675 99.8097 269.657 99.8128 269.638C99.8159 269.618 99.8107 269.598 99.7984 269.582C99.7861 269.566 99.7677 269.555 99.7472 269.552V269.552Z" fill="#263238"/>
<path d="M131.643 130.42C129.464 131.385 127.395 132.567 125.471 133.946C123.426 135.299 121.543 136.854 119.576 138.304C119.499 138.364 119.576 138.483 119.653 138.431C121.729 137.151 123.904 136.028 125.957 134.712C128.017 133.506 129.959 132.122 131.759 130.576C131.813 130.517 131.743 130.383 131.643 130.42Z" fill="#263238"/>
<path d="M131.929 118.021C131.666 119.39 131.319 120.751 131.01 122.112C130.702 123.473 130.509 124.693 130.162 125.957C129.875 127.18 129.229 128.298 128.302 129.178C127.785 129.646 127.207 130.055 126.651 130.487C126.358 130.717 126.034 130.933 125.725 131.171C125.764 130.985 125.795 130.807 125.826 130.613C125.926 130.1 126.019 129.579 126.103 129.059C126.304 127.906 126.497 126.746 126.682 125.593C127.045 123.317 127.376 121.019 127.87 118.765C127.875 118.745 127.872 118.724 127.861 118.707C127.85 118.689 127.833 118.677 127.812 118.672C127.792 118.667 127.77 118.67 127.752 118.681C127.734 118.691 127.721 118.708 127.716 118.728C127.13 120.959 126.481 123.19 125.972 125.422C125.718 126.523 124.823 131.967 124.784 132.354C124.745 132.741 124.707 133.15 124.691 133.551C124.641 133.959 124.641 134.371 124.691 134.779C124.691 134.875 124.846 134.86 124.884 134.779C125.057 134.401 125.179 134.003 125.247 133.596C125.347 133.209 125.44 132.815 125.509 132.421C125.509 132.279 125.556 132.131 125.579 131.982C126.134 131.655 126.651 131.238 127.176 130.866C127.7 130.494 128.302 130.122 128.835 129.661C129.816 128.863 130.523 127.797 130.864 126.604C131.207 125.319 131.431 124.008 131.535 122.685C131.713 121.138 131.844 119.583 132.067 118.043C132.091 118.021 131.944 117.947 131.929 118.021Z" fill="#263238"/>
<path d="M130.971 58.7117C130.238 67.4512 129.328 76.4361 127.214 84.9748C125.563 91.6242 121.813 96.7935 114.329 97.4852C107.385 98.1249 97.7793 96.7414 92.6871 91.6762C90.3107 89.3185 89.7938 86.3582 90.4187 83.2045C91.2906 78.8237 98.3657 55.1118 100.518 47.7037C101.83 43.1964 103.126 38.6221 105.256 34.3825C109.715 25.4571 114.514 26.2009 115.178 26.0893C115.803 25.8067 119.691 24.7208 124.691 27.0116C126.006 27.6036 127.177 28.457 128.127 29.5157C129.076 30.5745 129.782 31.8148 130.2 33.1553C132.854 41.1287 131.681 50.5301 130.971 58.7117Z" fill="#263238"/>
<path d="M113.527 27.1827C107.409 29.0124 105.171 34.8883 103.011 40.1246C100.002 47.4211 97.1164 54.7697 94.6011 62.2447C93.3975 65.8372 92.2865 69.4594 91.2603 73.104C90.2959 76.5997 89.0383 80.2963 88.7759 83.9186C88.3439 89.8689 93.5904 93.3498 98.9295 94.9192C98.9827 94.9359 99.0406 94.9316 99.0906 94.9072C99.1405 94.8828 99.1783 94.8403 99.1957 94.789C99.2131 94.7377 99.2086 94.6819 99.1833 94.6337C99.158 94.5856 99.1139 94.5492 99.0607 94.5324C96.0362 93.5283 92.9886 92.301 90.9903 89.7499C88.421 86.507 89.3006 82.8327 90.1724 79.1732C91.6692 72.9403 93.5287 66.8041 95.5733 60.7348C97.6179 54.6655 99.9788 48.6558 102.386 42.6981C104.701 37.023 106.838 29.4364 113.512 27.2794C113.612 27.2794 113.589 27.1604 113.527 27.1827Z" fill="#263238"/>
<path d="M131.905 39.8418C131.458 35.1634 129.637 30.4181 124.877 28.447C131.003 31.2585 131.604 38.2129 131.651 43.9549C131.702 50.0093 131.525 56.0538 131.118 62.0884C130.733 67.8973 130.208 73.7361 129.274 79.4855C128.264 85.6887 126.265 91.3861 121.729 95.9901C121.719 95.9989 121.71 96.0095 121.704 96.0214C121.699 96.0332 121.695 96.0461 121.694 96.0592C121.694 96.0723 121.696 96.0855 121.7 96.0978C121.705 96.1102 121.712 96.1216 121.721 96.1314C121.73 96.1412 121.741 96.1491 121.753 96.1548C121.766 96.1604 121.779 96.1637 121.793 96.1644C121.806 96.1651 121.82 96.1632 121.833 96.1588C121.846 96.1544 121.857 96.1476 121.868 96.1388C126.211 92.4869 128.271 86.9382 129.328 81.6276C130.604 74.5775 131.395 67.4539 131.697 60.3033C132.098 53.5721 132.553 46.6177 131.905 39.8418Z" fill="#263238"/>
<path d="M113.164 59.9018C113.457 60.6455 117.955 65.1826 121.597 64.5653C122.777 64.357 121.905 58.072 121.905 58.072L121.952 57.596L122.584 50.902L113.997 46.9897L112.77 46.4839C112.77 46.4839 112.716 48.3285 112.685 50.6193C112.685 50.7309 112.685 50.835 112.685 50.9466C112.678 51.0729 112.678 51.1996 112.685 51.3259C112.685 51.6681 112.685 52.0176 112.685 52.3672C112.685 52.7168 112.685 52.8879 112.685 53.1631C112.685 53.4383 112.685 53.7209 112.685 53.9961C112.706 55.9728 112.866 57.9459 113.164 59.9018V59.9018Z" fill="#EB9481"/>
<path d="M112.686 50.6193C113.612 52.36 114.92 53.8857 116.518 55.0904C118.117 56.2951 119.969 57.1501 121.945 57.596L122.577 50.902L113.998 46.9897L112.771 46.4839C112.771 46.4839 112.717 48.3285 112.686 50.6193Z" fill="#263238"/>
<path d="M131.411 41.047C132.384 52.7988 125.193 54.6881 122.562 54.8889C120.17 55.0674 112.015 55.3946 109.793 43.7916C107.571 32.1886 112.933 28.0234 118.372 27.354C123.812 26.6846 130.447 29.2878 131.411 41.047Z" fill="#EB9481"/>
<path d="M129.36 38.5478C129.081 38.5083 128.806 38.4536 128.534 38.3841C128.232 38.3666 127.945 38.2543 127.716 38.0643C127.658 37.9905 127.626 37.9004 127.626 37.8077C127.626 37.715 127.658 37.6249 127.716 37.5511C127.854 37.4231 128.024 37.3324 128.209 37.288C128.395 37.2436 128.589 37.2471 128.773 37.2982C129.166 37.3459 129.526 37.5377 129.776 37.8337C129.831 37.903 129.863 37.9863 129.87 38.0732C129.876 38.1601 129.856 38.2468 129.811 38.3227C129.767 38.3986 129.701 38.4604 129.62 38.5004C129.54 38.5404 129.449 38.5568 129.36 38.5478V38.5478Z" fill="#263238"/>
<path d="M121.243 38.7113C121.528 38.6741 121.783 38.5997 122.068 38.5402C122.355 38.5092 122.625 38.3922 122.84 38.2055C122.899 38.1323 122.932 38.0419 122.932 37.9489C122.932 37.8559 122.899 37.7656 122.84 37.6923C122.7 37.5649 122.528 37.4757 122.341 37.4339C122.154 37.3921 121.958 37.3991 121.775 37.4543C121.387 37.5143 121.035 37.7103 120.788 38.0047C120.732 38.0766 120.699 38.1631 120.695 38.2529C120.691 38.3428 120.715 38.4317 120.764 38.5081C120.814 38.5844 120.886 38.6447 120.971 38.681C121.056 38.7172 121.151 38.7278 121.243 38.7113V38.7113Z" fill="#263238"/>
<path d="M123.148 41.679C123.148 41.679 123.086 41.679 123.086 41.7459C123.14 42.5492 123.086 43.4789 122.314 43.769C122.314 43.769 122.314 43.8211 122.314 43.8136C123.256 43.6425 123.333 42.4302 123.148 41.679Z" fill="#263238"/>
<path d="M122.376 40.8611C121.034 40.8091 121.018 43.3974 122.261 43.4495C123.503 43.5016 123.503 40.9058 122.376 40.8611Z" fill="#263238"/>
<path d="M121.852 40.995C121.613 41.1438 121.381 41.3967 121.081 41.4264C120.78 41.4562 120.51 41.181 120.309 40.9207H120.263C120.263 41.4116 120.44 41.9248 121.034 41.9991C121.628 42.0735 121.906 41.6347 122.037 41.1364C122.03 41.0768 121.945 40.9355 121.852 40.995Z" fill="#263238"/>
<path d="M127.777 41.5005C127.777 41.5005 127.839 41.5005 127.839 41.5674C127.8 42.3707 127.893 43.3004 128.649 43.5756C128.649 43.5756 128.649 43.6277 128.649 43.6203C127.723 43.4864 127.607 42.2517 127.777 41.5005Z" fill="#263238"/>
<path d="M128.533 40.6676C129.868 40.5932 129.937 43.1816 128.695 43.256C127.453 43.3303 127.407 40.7345 128.533 40.6676Z" fill="#263238"/>
<path d="M129.097 40.8314C129.313 40.9578 129.529 41.2032 129.783 41.2181C130.038 41.233 130.285 40.9429 130.47 40.6677H130.509C130.509 41.1586 130.377 41.6793 129.891 41.7834C129.405 41.8875 129.12 41.4636 128.965 40.9801C128.942 40.9132 129.012 40.7719 129.097 40.8314Z" fill="#263238"/>
<path d="M126.559 45.1302C126.559 45.1302 126.736 46.3277 126.736 46.8929C126.736 46.9525 126.598 46.9748 126.397 46.9896C125.894 47.0814 125.374 47.0376 124.895 46.8631C124.416 46.6886 123.996 46.3901 123.681 46.0004C123.67 45.9886 123.664 45.9729 123.665 45.9569C123.665 45.9408 123.673 45.9257 123.685 45.9149C123.697 45.904 123.713 45.8983 123.73 45.899C123.747 45.8997 123.762 45.9068 123.774 45.9186C124.522 46.4097 125.416 46.6525 126.32 46.6103C126.358 46.4541 125.942 44.5649 126.034 44.5575C126.49 44.5927 126.94 44.6878 127.369 44.8401C127.076 42.3335 126.366 39.8939 126.104 37.4023C126.104 37.3825 126.112 37.3636 126.126 37.3497C126.141 37.3357 126.16 37.3279 126.181 37.3279C126.201 37.3279 126.221 37.3357 126.235 37.3497C126.25 37.3636 126.258 37.3825 126.258 37.4023C127.104 39.996 127.68 42.6645 127.979 45.3682C128.002 45.6211 126.79 45.2046 126.559 45.1302Z" fill="#263238"/>
<path d="M127.5 42.2817C127.315 40.3627 128.233 38.7115 129.544 38.5627C130.856 38.414 132.083 39.9016 132.268 41.8205C132.453 43.7395 131.496 45.3907 130.223 45.5395C128.95 45.6882 127.685 44.2006 127.5 42.2817ZM127.986 42.237C128.148 43.8957 129.128 45.1676 130.177 45.0783C131.226 44.989 131.952 43.5535 131.79 41.8949C131.628 40.2363 130.64 38.9644 129.591 39.0536C128.541 39.1429 127.824 40.5784 127.986 42.237Z" fill="#263238"/>
<path d="M118.434 43.1071C118.417 42.4714 118.594 41.8449 118.941 41.3044C119.289 40.764 119.793 40.3333 120.391 40.065C120.989 39.7968 121.655 39.7027 122.308 39.7944C122.961 39.886 123.572 40.1595 124.065 40.5811C124.559 41.0027 124.915 41.5542 125.088 42.1677C125.261 42.7813 125.245 43.4303 125.041 44.0351C124.837 44.6398 124.454 45.174 123.94 45.572C123.425 45.97 122.801 46.2146 122.145 46.2756C121.218 46.3265 120.307 46.022 119.612 45.4285C118.917 44.8349 118.493 44.0005 118.434 43.1071ZM118.92 43.0625C119.018 43.5973 119.276 44.0929 119.661 44.4889C120.047 44.8849 120.544 45.164 121.091 45.2923C121.639 45.4206 122.213 45.3924 122.744 45.2113C123.275 45.0301 123.74 44.7038 124.082 44.2721C124.424 43.8405 124.628 43.3222 124.669 42.7805C124.711 42.2389 124.588 41.6974 124.315 41.222C124.043 40.7467 123.633 40.3581 123.135 40.1038C122.637 39.8494 122.073 39.7403 121.512 39.7898C120.719 39.8934 120 40.2961 119.514 40.9095C119.028 41.523 118.814 42.2973 118.92 43.0625Z" fill="#263238"/>
<path d="M124.977 42.1924C126.721 41.4487 127.593 41.9172 127.6 41.9247L127.863 41.5305C127.824 41.5305 126.79 40.8759 124.776 41.7685L124.977 42.1924Z" fill="#263238"/>
<path d="M118.627 42.7799L118.673 42.3113C118.349 42.3113 110.865 41.6419 110.063 41.6716C109.261 41.7014 107.355 42.9435 107.146 43.0848L107.424 43.4716C108.217 42.8937 109.103 42.4464 110.048 42.1476H110.14C110.726 42.1551 115.965 42.5493 118.627 42.7799Z" fill="#263238"/>
<path d="M110.14 42.9511C111.46 42.8767 114.901 39.3586 115.009 33.2001C115.009 33.2001 114.515 38.7264 114.091 39.5371C113.666 40.3478 116.012 37.5586 116.166 32.5976C117.792 33.7154 119.574 34.6044 121.459 35.238C123.889 35.8926 125.378 35.8702 125.556 35.6992C125.733 35.5281 122.146 34.4422 121.174 33.3711C121.174 33.3711 127.655 36.2644 130.633 36.4876C130.98 36.4876 131.404 29.6671 126.775 26.7663C122.146 23.8656 114.855 27.0043 112.887 28.834C112.887 28.834 110.573 29.1464 108.08 32.4414C105.588 35.7364 108.721 43.0329 110.14 42.9511Z" fill="#263238"/>
<path d="M111.807 44.5501C111.807 44.5501 109.16 40.8312 107.424 41.7535C105.688 42.6757 107.648 48.0087 109.677 48.7525C109.931 48.8651 110.205 48.9273 110.484 48.9354C110.763 48.9434 111.041 48.8971 111.301 48.7991C111.561 48.7012 111.798 48.5538 111.998 48.3655C112.197 48.1773 112.355 47.9522 112.462 47.7037L111.807 44.5501Z" fill="#EB9481"/>
<path d="M108.026 43.271V43.3231C109.446 43.8958 110.187 45.1751 110.704 46.499C110.623 46.36 110.511 46.2398 110.377 46.1467C110.243 46.0537 110.089 45.99 109.926 45.9603C109.764 45.9305 109.597 45.9353 109.437 45.9744C109.276 46.0136 109.127 46.086 108.999 46.1866C108.999 46.1866 108.999 46.2684 109.037 46.261C109.288 46.185 109.558 46.1864 109.808 46.2651C110.058 46.3438 110.277 46.4957 110.434 46.6998C110.695 47.0405 110.917 47.407 111.097 47.7932C111.159 47.9196 111.39 47.8527 111.344 47.7114C111.375 45.9263 109.978 43.4644 108.026 43.271Z" fill="#263238"/>
<path d="M111.382 48.4845C111.384 48.6555 111.333 48.823 111.235 48.9659C111.138 49.1087 110.999 49.2205 110.835 49.2869C110.672 49.3533 110.492 49.3715 110.317 49.3391C110.143 49.3066 109.983 49.225 109.857 49.1047C109.731 48.9843 109.645 48.8306 109.61 48.663C109.575 48.4955 109.592 48.3216 109.66 48.1635C109.727 48.0054 109.842 47.8702 109.989 47.7751C110.137 47.68 110.31 47.6292 110.487 47.6292C110.723 47.6291 110.95 47.719 111.117 47.8792C111.285 48.0394 111.38 48.257 111.382 48.4845Z" fill="white"/>
<path d="M138.687 119.248C138.687 119.248 97.5949 119.836 87.395 119.144C87.395 119.144 95.7123 73.6989 106.684 62.2149C107.092 61.7834 107.525 61.3738 107.98 60.9876C108.651 60.4447 108.559 56.1084 108.875 55.7811C109.191 55.4539 122.524 57.1423 122.693 57.4547C122.863 57.767 123.55 61.8579 123.55 61.8579C126.574 65.5768 136.303 78.4294 137.438 83.7326C138.572 89.0357 134.999 94.8893 134.999 94.8893L138.687 119.248Z" fill="#124B92"/>
<path d="M103.544 70.3222C101.113 81.6129 102.556 106.024 108.173 110.487C117.432 117.791 139.683 119.925 145.894 120.632C148.571 120.937 153.903 104.045 152.066 101.866C150.23 99.6869 122.879 96.2952 121.575 95.1721C120.672 94.3688 116.421 79.6196 112.756 71.304C107.826 60.0506 104.431 66.1571 103.544 70.3222Z" fill="#EB9481"/>
<path d="M147.437 100.505C147.437 100.505 155.646 100.423 161.016 100.617C164.018 100.721 169.133 101.36 171.301 102.402C174.534 103.971 187.033 112.525 184.942 115.492C183.052 118.177 179.333 114.644 179.333 114.644C179.333 114.644 183.777 118.133 181.054 120.245C178.33 122.357 173.924 117.315 173.924 117.315C173.924 117.315 178.909 120.706 175.776 122.685C173.06 124.41 167.359 119.114 167.359 119.114C167.359 119.114 172.999 122.09 170.391 124.15C167.513 126.381 157.93 119.479 157.93 119.479C151.063 120.966 146.735 120.966 141.689 120.171C140.763 120.022 147.437 100.505 147.437 100.505Z" fill="#EB9481"/>
<path d="M175.297 118.49L174.178 117.352C173.486 116.598 172.749 115.882 171.971 115.21C171.2 114.57 170.428 113.96 169.579 113.38C168.731 112.8 167.774 112.22 166.925 111.588C166.856 111.535 166.779 111.632 166.856 111.677C167.699 112.303 168.507 112.971 169.279 113.678C170.05 114.347 170.822 115.031 171.593 115.708C172.365 116.385 173.136 116.987 173.908 117.634C174.286 117.954 174.679 118.289 175.027 118.624C175.356 118.967 175.714 119.283 176.099 119.568C176.138 119.568 176.184 119.568 176.161 119.509C175.911 119.14 175.622 118.799 175.297 118.49Z" fill="#263238"/>
<path d="M180.243 115.388C179.005 113.946 177.664 112.589 176.231 111.327C174.779 110.073 173.2 108.964 171.517 108.017C171.455 108.017 171.393 108.062 171.44 108.106C172.89 109.363 174.364 110.598 175.837 111.825C176.555 112.428 179.734 115.269 180.104 115.544C180.189 115.589 180.297 115.47 180.243 115.388Z" fill="#263238"/>
<path d="M170.722 121.524C169.521 120.194 168.232 118.939 166.864 117.768C165.358 116.699 163.772 115.739 162.119 114.897C162.057 114.897 161.996 114.957 162.05 114.994C163.546 116.065 165.059 117.099 166.501 118.237C167.211 118.795 169.881 121.16 170.606 121.628C170.683 121.673 170.768 121.584 170.722 121.524Z" fill="#263238"/>
<path d="M139.737 121.331L149.528 99.3224C149.528 99.3224 122.709 95.0456 121.883 94.525C121.058 94.0043 116.166 76.8378 113.026 70.0991C109.886 63.3604 104.493 59.4035 102.409 73.8701C100.326 88.3367 103.343 106.002 106.36 109.676C110.017 114.124 124.499 119.754 139.737 121.331Z" fill="#124B92"/>
<path d="M125.956 118.549C121.944 117.5 118.033 115.671 114.198 114.086C110.903 112.755 107.54 111.111 105.711 107.995C104.858 106.408 104.263 104.705 103.944 102.945C103.52 100.981 103.173 98.995 102.879 96.9943C102.524 94.7133 102.206 92.4274 101.923 90.1366C101.784 88.9614 101.645 87.7862 101.521 86.611C101.398 85.4359 101.174 84.2607 101.128 83.0781C101.128 83.0623 101.121 83.0471 101.11 83.036C101.098 83.0248 101.083 83.0186 101.066 83.0186C101.05 83.0186 101.034 83.0248 101.023 83.036C101.011 83.0471 101.005 83.0623 101.005 83.0781C101.089 84.164 101.005 85.2573 101.097 86.3507C101.097 87.0945 101.19 87.7788 101.244 88.4928L101.028 88.0391C100.79 87.518 100.609 86.9747 100.488 86.4176C100.488 86.3507 100.356 86.3805 100.372 86.4176C100.511 86.9755 100.65 87.5408 100.812 88.0912C100.889 88.3589 100.981 88.6267 101.089 88.8944C101.154 89.0743 101.229 89.2505 101.313 89.4225C101.498 91.5597 101.738 93.6869 102.031 95.8042C102.316 97.8571 102.648 99.895 103.026 101.933C103.306 103.735 103.803 105.5 104.507 107.192C105.208 108.786 106.28 110.203 107.64 111.334C109.049 112.45 110.606 113.38 112.269 114.101C116.03 115.776 119.917 117.173 123.896 118.281C128.657 119.724 130.107 119.628 125.956 118.549Z" fill="#263238"/>
<path d="M136.025 97.0315C135.038 96.905 123.364 94.5398 122.909 94.4133C122.681 94.3464 122.475 94.2234 122.311 94.0564C122.148 93.8895 122.032 93.6844 121.975 93.4613C121.613 92.5539 121.296 91.6241 120.957 90.7093C120.371 89.1325 119.774 87.5631 119.167 86.0011C119.167 85.6516 119.097 85.2574 119.059 84.9524C119.02 84.6474 118.943 84.1194 118.874 83.7028C118.719 82.8029 118.442 81.9178 118.326 81.0178C118.326 80.9285 118.179 80.9583 118.202 81.0178C118.438 81.904 118.577 82.8113 118.619 83.7252C118.658 84.0822 118.681 84.4689 118.704 84.8036C118.349 83.8888 117.986 82.9739 117.608 82.0665C117.169 81.0103 116.667 79.9467 116.312 78.8608C116.312 78.7864 116.173 78.8236 116.196 78.8608C116.598 79.8352 116.883 80.869 117.199 81.836C117.516 82.8029 117.855 83.8442 118.195 84.8483C118.858 86.8193 119.56 88.7755 120.27 90.7391C120.61 91.6837 120.941 92.6431 121.304 93.5803C121.404 93.9312 121.6 94.2498 121.871 94.5024C122.143 94.755 122.48 94.9324 122.847 95.0158C124.876 95.5439 134.798 97.1282 136.002 97.1728C136.125 97.2472 136.156 97.0463 136.025 97.0315Z" fill="#263238"/>
<path d="M144.566 99.6646C143.023 102.826 141.48 105.964 140.084 109.192C138.671 112.368 137.432 115.613 136.373 118.914C136.366 118.928 136.367 118.945 136.373 118.96C136.38 118.974 136.392 118.986 136.407 118.992C136.423 118.998 136.44 118.998 136.455 118.991C136.47 118.985 136.482 118.973 136.488 118.958C138.031 115.857 139.382 112.636 140.747 109.445C142.113 106.254 143.355 102.974 144.736 99.7761C144.806 99.6422 144.628 99.5381 144.566 99.6646Z" fill="#263238"/>
<path d="M173.407 97.1505C172.227 97.7901 165.468 95.9902 162.729 97.9686C160.916 99.2777 159.141 102.431 158.755 106.544C158.362 110.791 161.842 110.576 163.13 108.776C164.7 106.406 166.07 103.919 167.227 101.338C168.466 101.576 169.688 101.891 170.884 102.283L173.407 97.1505Z" fill="#AD6359"/>
<path d="M165.12 111.974C163.03 109.862 152.583 117.605 155.862 121.123C159.141 124.641 167.481 114.369 165.12 111.974Z" fill="#AD6359"/>
<path d="M168.608 115.001C166.517 112.889 156.07 120.632 159.349 124.15C162.628 127.668 170.969 117.396 168.608 115.001Z" fill="#AD6359"/>
<path d="M171.355 116.072C169.156 114.429 160.777 122.871 164.287 125.623C167.798 128.375 173.847 117.932 171.355 116.072Z" fill="#AD6359"/>
<path d="M174.34 116.534C171.817 115.604 166.501 125.719 170.567 127.319C174.633 128.918 177.203 117.553 174.34 116.534Z" fill="#AD6359"/>
<path d="M164.812 115.455C164.231 115.83 163.684 116.25 163.176 116.712C162.613 117.188 162.057 117.671 161.548 118.2C161.052 118.699 160.585 119.225 160.152 119.776C159.696 120.371 159.318 121.019 158.855 121.599C158.847 121.604 158.84 121.611 158.835 121.619C158.83 121.628 158.828 121.637 158.827 121.647C158.827 121.656 158.829 121.666 158.833 121.674C158.837 121.683 158.844 121.691 158.852 121.696C158.86 121.702 158.869 121.706 158.879 121.707C158.889 121.709 158.899 121.708 158.908 121.705C158.918 121.702 158.926 121.697 158.933 121.69C158.94 121.683 158.945 121.675 158.948 121.666C159.405 121.105 159.903 120.575 160.437 120.081C160.939 119.576 161.409 119.047 161.911 118.534C162.412 118.021 162.86 117.523 163.354 117.047C163.847 116.571 164.403 116.08 164.897 115.559C164.92 115.492 164.866 115.425 164.812 115.455Z" fill="#263238"/>
<path d="M168.963 116.399C168.515 117.061 166.949 119.627 166.471 120.275C165.992 120.922 165.491 121.569 164.982 122.201C164.473 122.833 163.979 123.525 163.4 124.12C163.354 124.172 163.439 124.254 163.493 124.202C164.071 123.607 164.704 123.064 165.252 122.439C165.8 121.814 166.301 121.182 166.795 120.52C167.652 119.208 168.425 117.847 169.109 116.444C169.109 116.377 169.001 116.34 168.963 116.399Z" fill="#263238"/>
<path d="M171.864 117.843C171.401 118.825 171 119.843 170.529 120.818C170.298 121.301 170.058 121.785 169.827 122.305L169.503 123.012C169.401 123.293 169.272 123.565 169.117 123.823C169.071 123.882 169.194 123.949 169.225 123.867C169.38 123.573 169.561 123.292 169.765 123.027C169.896 122.804 170.035 122.581 170.159 122.357C170.421 121.862 170.66 121.378 170.876 120.907C171.327 119.943 171.704 118.949 172.003 117.932C172.015 117.914 172.02 117.892 172.015 117.872C172.011 117.851 171.998 117.832 171.98 117.82C171.961 117.809 171.939 117.804 171.917 117.808C171.895 117.813 171.876 117.825 171.864 117.843V117.843Z" fill="#263238"/>
<path d="M178.677 33.3038C178.308 36.7014 176.967 39.9334 174.804 42.6392C172.64 45.345 169.74 47.4183 166.426 48.6278C163.112 49.8372 159.514 50.1353 156.034 49.4888C152.555 48.8423 149.33 47.2766 146.719 44.9663L137.145 46.32L141.936 38.3466C140.691 35.397 140.259 32.1868 140.684 29.0287C141.108 25.8706 142.374 22.8723 144.357 20.3258C146.341 17.7793 148.974 15.7714 152.002 14.4978C155.03 13.2241 158.348 12.7281 161.633 13.058C166.677 13.5662 171.306 15.9841 174.502 19.7804C177.698 23.5766 179.199 28.4407 178.677 33.3038V33.3038Z" fill="white"/>
<path d="M178.677 33.3035C178.305 36.7 176.97 39.9321 174.819 42.6455C174.287 43.3231 173.71 43.9666 173.091 44.5719C172.453 45.1597 171.778 45.7087 171.069 46.2156C169.657 47.2507 168.098 48.0849 166.44 48.6925C164.791 49.319 163.059 49.7171 161.294 49.8751C160.412 49.9555 159.524 49.9729 158.64 49.9271C157.752 49.9054 156.867 49.8159 155.993 49.6594C152.469 49.0477 149.191 47.5025 146.526 45.1967L146.758 45.2636L137.206 46.6173L136.512 46.7214L136.859 46.1338L141.619 38.1456V38.458C140.503 35.8226 140.027 32.9759 140.228 30.1359C140.428 27.2958 141.3 24.5376 142.777 22.0724C144.265 19.6128 146.312 17.5099 148.764 15.9213C151.811 13.9547 155.376 12.8661 159.042 12.7832C162.708 12.7003 166.323 13.6264 169.462 15.453C172.601 17.2796 175.136 19.9311 176.768 23.0966C178.4 26.2621 179.062 29.8105 178.677 33.3259V33.3035ZM178.677 33.3035C178.982 30.527 178.622 27.72 177.624 25.0987C176.627 22.4774 175.018 20.1118 172.923 18.1841C170.828 16.2563 168.302 14.8178 165.539 13.9793C162.777 13.1408 159.851 12.9248 156.989 13.3478C154.155 13.749 151.453 14.7664 149.088 16.3229C146.752 17.9049 144.801 19.9582 143.371 22.3402C141.958 24.7297 141.126 27.3977 140.94 30.1425C140.765 32.8805 141.224 35.6218 142.283 38.1679L142.352 38.3315L142.26 38.4877L137.445 46.4462L137.106 45.9553L146.681 44.6611H146.812L146.912 44.743C149.466 47.0483 152.634 48.6242 156.063 49.2949C156.92 49.4596 157.789 49.5615 158.663 49.5999C159.534 49.6593 160.408 49.6593 161.278 49.5999C163.025 49.4697 164.744 49.1042 166.386 48.5139C168.044 47.9425 169.605 47.1352 171.015 46.119C172.45 45.1394 173.718 43.9499 174.773 42.5934C176.932 39.8997 178.282 36.6863 178.677 33.3035Z" fill="#263238"/>
<path d="M157.413 41.9018L149.25 33.9284L151.989 31.3177L156.765 35.9738L166.68 20.9866L169.928 22.9874L157.413 41.9018Z" fill="#124B92"/>
</svg>
