<svg width="355" height="355" viewBox="0 0 355 355" fill="none" xmlns="http://www.w3.org/2000/svg">
<mask id="path-1-inside-1_267_1379" fill="white">
<path fill-rule="evenodd" clip-rule="evenodd" d="M165.757 254.045C163.284 260.906 159.516 265.29 153.714 268.128C150.822 269.529 147.774 270.225 144.602 270.225L144.601 270.221C141.671 270.217 138.724 269.626 135.605 268.409C132.841 267.336 130.638 265.702 128.913 263.964C127.769 264.435 126.565 264.763 125.312 264.947L108.97 267.355C108.23 267.461 107.483 267.515 106.735 267.516C105.264 267.516 103.833 267.304 102.473 266.906C100.078 269.104 97.5431 270.459 95.2978 271.513C90.7177 273.685 86.7518 273.723 83.8547 273.752L83.847 273.752L82.0786 273.787L81.0762 273.802L81.0728 273.801C70.9925 273.799 63.3959 269.41 58.6064 263.196C54.0243 265.975 48.7677 267.468 43.4045 267.468C42.268 267.468 41.134 267.405 40.006 267.27C39.7742 267.576 39.5314 267.873 39.2781 268.161C36.5499 271.261 32.7774 273.111 28.6607 273.364C28.3866 273.384 28.0374 273.395 27.6958 273.395V273.395C19.6359 273.395 12.8757 267.053 12.3061 258.96L12.2882 258.638C12.1567 256.04 11.9838 250.982 12.2967 245.281C12.5076 241.562 12.6011 235.306 12.6041 235.082C12.6046 235.065 12.6046 235.053 12.6046 235.036C12.6601 231.201 14.1266 227.689 16.5013 225C15.3255 220.881 14.9438 215.97 15.6773 210.187L15.7883 209.28C16.205 205.855 16.8258 200.778 19.3939 195.894C23.2765 188.518 30.392 184.285 38.9152 184.285C39.4213 184.285 39.9273 184.299 40.4325 184.329C41.2674 184.376 42.0987 184.474 42.922 184.621C45.646 182.207 49.2246 180.738 53.1321 180.738H53.2892C61.7419 180.843 68.5892 187.826 68.5465 196.309L68.5453 196.482C68.5444 196.548 68.4489 199.258 68.3154 202.814C71.2081 201.549 74.3579 200.91 77.7114 200.91C79.2467 200.91 80.7128 201.049 82.0739 201.266C84.3359 198.697 87.4322 196.884 90.9328 196.261C91.3754 195.307 91.9185 194.39 92.5589 193.525C95.0267 190.194 98.6344 188.034 102.729 187.441C106.141 186.936 113.031 186.073 120.364 186.073C121.321 186.073 122.258 186.088 123.174 186.117C118.237 178.417 113.475 167.541 118.694 161.95C126.937 153.118 132.236 157.239 136.358 161.95C139.655 165.718 143.62 163.52 145.19 161.95C145.386 159.791 143.895 153.471 136.358 145.463C128.146 136.738 137.383 122.643 141.448 116.44C142.046 115.527 142.533 114.785 142.835 114.257C143.936 112.33 143.37 107.336 142.752 101.891C142.049 95.689 141.28 88.903 142.835 85.4052C145.19 80.1061 158.732 80.6948 167.565 91.2933C174.31 89.0449 179.478 91.0016 182.878 92.289C185.711 93.3615 187.316 93.9694 187.584 91.2933L187.585 91.2785C188.173 85.3982 188.592 81.2095 198.182 79.5172C208.192 77.7509 212.902 84.2276 220.557 102.481C222.655 107.483 224.753 108.828 228.823 111.438C231.608 113.224 235.315 115.601 240.576 120.145C250.39 128.62 251.763 138.398 247.053 147.23C245.716 149.736 243.54 152.088 241.24 154.575C236.371 159.84 230.944 165.706 231.744 174.903C232.041 178.321 231.565 181.399 230.663 184.086C234.882 183.873 237.751 183.67 238.062 183.648L238.068 183.647C238.141 183.637 238.214 183.633 238.288 183.629C238.62 183.608 238.952 183.597 239.285 183.596C241.336 183.599 243.366 184.01 245.258 184.807C247.149 185.603 248.865 186.767 250.306 188.234C252.572 190.52 254.046 193.496 254.542 196.691C254.954 196.671 255.369 196.661 255.787 196.661C257.321 196.661 258.785 196.796 260.146 197.013C262.475 194.37 265.691 192.528 269.321 191.961C272.044 187.549 276.91 184.604 282.446 184.604H296.956C299.731 181.226 303.9 179.028 308.594 178.935L326.504 178.628C334.875 178.628 341.8 185.466 341.942 193.875C342.034 200.013 338.562 205.381 333.459 207.977L333.655 242.369C338.333 244.792 341.655 249.56 342.012 255.159C342.555 263.694 336.094 271.082 327.604 271.627C320.601 272.088 316.133 272.883 314.881 273.24C314.637 273.341 314.393 273.433 314.143 273.513L314.137 273.516C312.589 274.108 310.254 275 307.253 275L307.251 274.995C303.613 274.995 300.119 273.623 297.42 271.127C296.332 270.13 295.421 269.011 294.688 267.802L281.958 267.588C279.707 267.549 277.575 267.024 275.659 266.116C274.877 266.544 274.109 266.922 273.372 267.268C268.78 269.436 264.82 269.477 261.923 269.506L260.098 269.526L259.11 269.541L259.115 269.542C250.755 269.542 244.105 266.519 239.352 261.937L239.322 261.968C236.434 264.937 232.571 266.599 228.441 266.637C228.441 266.637 207.712 266.947 207.654 266.947L207.654 266.942C200.225 266.942 193.93 261.54 192.517 254.439C189.959 256.219 186.884 257.216 183.711 257.216H183.71C180.358 257.214 177.167 256.15 174.482 254.127C173.906 253.7 173.359 253.235 172.846 252.734C170.927 253.589 168.802 254.068 166.573 254.068C166.34 254.068 166.108 254.062 165.876 254.051L165.757 254.045Z"/>
</mask>
<path fill-rule="evenodd" clip-rule="evenodd" d="M165.757 254.045C163.284 260.906 159.516 265.29 153.714 268.128C150.822 269.529 147.774 270.225 144.602 270.225L144.601 270.221C141.671 270.217 138.724 269.626 135.605 268.409C132.841 267.336 130.638 265.702 128.913 263.964C127.769 264.435 126.565 264.763 125.312 264.947L108.97 267.355C108.23 267.461 107.483 267.515 106.735 267.516C105.264 267.516 103.833 267.304 102.473 266.906C100.078 269.104 97.5431 270.459 95.2978 271.513C90.7177 273.685 86.7518 273.723 83.8547 273.752L83.847 273.752L82.0786 273.787L81.0762 273.802L81.0728 273.801C70.9925 273.799 63.3959 269.41 58.6064 263.196C54.0243 265.975 48.7677 267.468 43.4045 267.468C42.268 267.468 41.134 267.405 40.006 267.27C39.7742 267.576 39.5314 267.873 39.2781 268.161C36.5499 271.261 32.7774 273.111 28.6607 273.364C28.3866 273.384 28.0374 273.395 27.6958 273.395V273.395C19.6359 273.395 12.8757 267.053 12.3061 258.96L12.2882 258.638C12.1567 256.04 11.9838 250.982 12.2967 245.281C12.5076 241.562 12.6011 235.306 12.6041 235.082C12.6046 235.065 12.6046 235.053 12.6046 235.036C12.6601 231.201 14.1266 227.689 16.5013 225C15.3255 220.881 14.9438 215.97 15.6773 210.187L15.7883 209.28C16.205 205.855 16.8258 200.778 19.3939 195.894C23.2765 188.518 30.392 184.285 38.9152 184.285C39.4213 184.285 39.9273 184.299 40.4325 184.329C41.2674 184.376 42.0987 184.474 42.922 184.621C45.646 182.207 49.2246 180.738 53.1321 180.738H53.2892C61.7419 180.843 68.5892 187.826 68.5465 196.309L68.5453 196.482C68.5444 196.548 68.4489 199.258 68.3154 202.814C71.2081 201.549 74.3579 200.91 77.7114 200.91C79.2467 200.91 80.7128 201.049 82.0739 201.266C84.3359 198.697 87.4322 196.884 90.9328 196.261C91.3754 195.307 91.9185 194.39 92.5589 193.525C95.0267 190.194 98.6344 188.034 102.729 187.441C106.141 186.936 113.031 186.073 120.364 186.073C121.321 186.073 122.258 186.088 123.174 186.117C118.237 178.417 113.475 167.541 118.694 161.95C126.937 153.118 132.236 157.239 136.358 161.95C139.655 165.718 143.62 163.52 145.19 161.95C145.386 159.791 143.895 153.471 136.358 145.463C128.146 136.738 137.383 122.643 141.448 116.44C142.046 115.527 142.533 114.785 142.835 114.257C143.936 112.33 143.37 107.336 142.752 101.891C142.049 95.689 141.28 88.903 142.835 85.4052C145.19 80.1061 158.732 80.6948 167.565 91.2933C174.31 89.0449 179.478 91.0016 182.878 92.289C185.711 93.3615 187.316 93.9694 187.584 91.2933L187.585 91.2785C188.173 85.3982 188.592 81.2095 198.182 79.5172C208.192 77.7509 212.902 84.2276 220.557 102.481C222.655 107.483 224.753 108.828 228.823 111.438C231.608 113.224 235.315 115.601 240.576 120.145C250.39 128.62 251.763 138.398 247.053 147.23C245.716 149.736 243.54 152.088 241.24 154.575C236.371 159.84 230.944 165.706 231.744 174.903C232.041 178.321 231.565 181.399 230.663 184.086C234.882 183.873 237.751 183.67 238.062 183.648L238.068 183.647C238.141 183.637 238.214 183.633 238.288 183.629C238.62 183.608 238.952 183.597 239.285 183.596C241.336 183.599 243.366 184.01 245.258 184.807C247.149 185.603 248.865 186.767 250.306 188.234C252.572 190.52 254.046 193.496 254.542 196.691C254.954 196.671 255.369 196.661 255.787 196.661C257.321 196.661 258.785 196.796 260.146 197.013C262.475 194.37 265.691 192.528 269.321 191.961C272.044 187.549 276.91 184.604 282.446 184.604H296.956C299.731 181.226 303.9 179.028 308.594 178.935L326.504 178.628C334.875 178.628 341.8 185.466 341.942 193.875C342.034 200.013 338.562 205.381 333.459 207.977L333.655 242.369C338.333 244.792 341.655 249.56 342.012 255.159C342.555 263.694 336.094 271.082 327.604 271.627C320.601 272.088 316.133 272.883 314.881 273.24C314.637 273.341 314.393 273.433 314.143 273.513L314.137 273.516C312.589 274.108 310.254 275 307.253 275L307.251 274.995C303.613 274.995 300.119 273.623 297.42 271.127C296.332 270.13 295.421 269.011 294.688 267.802L281.958 267.588C279.707 267.549 277.575 267.024 275.659 266.116C274.877 266.544 274.109 266.922 273.372 267.268C268.78 269.436 264.82 269.477 261.923 269.506L260.098 269.526L259.11 269.541L259.115 269.542C250.755 269.542 244.105 266.519 239.352 261.937L239.322 261.968C236.434 264.937 232.571 266.599 228.441 266.637C228.441 266.637 207.712 266.947 207.654 266.947L207.654 266.942C200.225 266.942 193.93 261.54 192.517 254.439C189.959 256.219 186.884 257.216 183.711 257.216H183.71C180.358 257.214 177.167 256.15 174.482 254.127C173.906 253.7 173.359 253.235 172.846 252.734C170.927 253.589 168.802 254.068 166.573 254.068C166.34 254.068 166.108 254.062 165.876 254.051L165.757 254.045Z" fill="white"/>
<path d="M153.714 268.128L154.586 269.928L154.593 269.924L153.714 268.128ZM165.757 254.045L165.853 252.048L164.377 251.977L163.876 253.367L165.757 254.045ZM144.602 270.225L142.648 270.65L142.99 272.225H144.602V270.225ZM144.601 270.221L146.556 269.796L146.214 268.223L144.604 268.221L144.601 270.221ZM135.605 268.409L136.331 266.546L136.328 266.545L135.605 268.409ZM128.913 263.964L130.334 262.555L129.39 261.604L128.151 262.115L128.913 263.964ZM125.312 264.947L125.022 262.968L125.021 262.968L125.312 264.947ZM108.97 267.355L109.256 269.334L109.262 269.333L108.97 267.355ZM106.735 267.516L106.735 269.516L106.738 269.516L106.735 267.516ZM102.473 266.906L103.034 264.986L101.951 264.67L101.12 265.433L102.473 266.906ZM95.2978 271.513L94.448 269.703L94.441 269.706L95.2978 271.513ZM83.8547 273.752L83.8352 271.752L83.8309 271.752L83.8547 273.752ZM83.847 273.752L83.8232 271.752L83.8153 271.752L83.8073 271.752L83.847 273.752ZM82.0786 273.787L82.1086 275.787L82.1184 275.787L82.0786 273.787ZM81.0762 273.802L80.5819 275.74L80.8399 275.806L81.1061 275.802L81.0762 273.802ZM81.0728 273.801L81.567 271.863L81.324 271.801L81.0732 271.801L81.0728 273.801ZM58.6064 263.196L60.1905 261.975L59.0986 260.559L57.5692 261.486L58.6064 263.196ZM40.006 267.27L40.2431 265.285L39.1053 265.149L38.4127 266.062L40.006 267.27ZM39.2781 268.161L37.7769 266.839L37.7766 266.839L39.2781 268.161ZM28.6607 273.364L28.5376 271.368L28.5289 271.369L28.5203 271.369L28.6607 273.364ZM27.6958 273.395H25.6958V275.395H27.6958V273.395ZM27.6958 273.395H29.6958V271.395H27.6958V273.395ZM12.3061 258.96L10.3092 259.071L10.31 259.086L10.3111 259.1L12.3061 258.96ZM12.2882 258.638L10.2907 258.739L10.2913 258.75L12.2882 258.638ZM12.2967 245.281L10.2999 245.167L10.2997 245.171L12.2967 245.281ZM12.6041 235.082L10.6048 235.032L10.6045 235.044L10.6043 235.055L12.6041 235.082ZM12.6046 235.036L10.6048 235.007L10.6046 235.022V235.036H12.6046ZM16.5013 225L18.0004 226.324L18.7249 225.503L18.4245 224.451L16.5013 225ZM15.6773 210.187L17.6614 210.438L17.6625 210.43L15.6773 210.187ZM15.7883 209.28L17.7735 209.523L17.7737 209.522L15.7883 209.28ZM19.3939 195.894L17.6241 194.962L17.6236 194.963L19.3939 195.894ZM38.9152 184.285L38.9152 186.285L38.9155 186.285L38.9152 184.285ZM40.4325 184.329L40.3158 186.325L40.3191 186.326L40.4325 184.329ZM42.922 184.621L42.5704 186.59L43.5238 186.76L44.2486 186.118L42.922 184.621ZM53.2892 180.738L53.3141 178.738L53.3016 178.738H53.2892V180.738ZM68.5465 196.309L70.5465 196.324L70.5465 196.319L68.5465 196.309ZM68.5453 196.482L70.5451 196.509L70.5452 196.497L68.5453 196.482ZM68.3154 202.814L66.3168 202.739L66.1972 205.924L69.117 204.647L68.3154 202.814ZM82.0739 201.266L81.7597 203.241L82.8473 203.414L83.575 202.587L82.0739 201.266ZM90.9328 196.261L91.2836 198.23L92.3085 198.047L92.7468 197.103L90.9328 196.261ZM92.5589 193.525L90.952 192.334L90.9512 192.335L92.5589 193.525ZM102.729 187.441L103.015 189.421L103.022 189.42L102.729 187.441ZM123.174 186.117L123.111 188.116L126.909 188.236L124.858 185.037L123.174 186.117ZM118.694 161.95L117.232 160.585L117.232 160.585L118.694 161.95ZM136.358 161.95L134.853 163.267L134.853 163.267L136.358 161.95ZM145.19 161.95L146.604 163.364L147.116 162.852L147.182 162.131L145.19 161.95ZM136.358 145.463L134.902 146.834L134.902 146.834L136.358 145.463ZM141.448 116.44L139.776 115.344L139.776 115.344L141.448 116.44ZM142.835 114.257L141.098 113.264L141.098 113.264L142.835 114.257ZM142.752 101.891L140.765 102.117L140.765 102.117L142.752 101.891ZM142.835 85.4052L144.662 86.2175L144.662 86.2175L142.835 85.4052ZM167.565 91.2933L166.028 92.5737L166.902 93.6223L168.197 93.1906L167.565 91.2933ZM182.878 92.289L183.586 90.4185L182.878 92.289ZM187.584 91.2933L185.594 91.0942L185.594 91.0943L187.584 91.2933ZM187.585 91.2785L189.575 91.4776L189.575 91.4775L187.585 91.2785ZM198.182 79.5172L197.835 77.5476L197.835 77.5476L198.182 79.5172ZM220.557 102.481L218.712 103.254L218.712 103.254L220.557 102.481ZM228.823 111.438L227.744 113.122L227.744 113.122L228.823 111.438ZM240.576 120.145L239.269 121.658L239.269 121.658L240.576 120.145ZM247.053 147.23L245.288 146.288L245.288 146.288L247.053 147.23ZM241.24 154.575L239.772 153.217L239.772 153.217L241.24 154.575ZM231.744 174.903L229.752 175.077L229.752 175.077L231.744 174.903ZM230.663 184.086L228.767 183.449L227.832 186.231L230.763 186.083L230.663 184.086ZM238.062 183.648L237.921 181.653L237.921 181.653L238.062 183.648ZM238.068 183.647L238.209 185.643L238.279 185.638L238.349 185.628L238.068 183.647ZM238.288 183.629L238.38 185.627L238.398 185.627L238.416 185.625L238.288 183.629ZM239.285 183.596L239.288 181.596L239.277 181.596L239.285 183.596ZM245.258 184.807L246.033 182.963L246.033 182.963L245.258 184.807ZM250.306 188.234L248.879 189.635L248.886 189.642L250.306 188.234ZM254.542 196.691L252.566 196.998L252.842 198.775L254.638 198.689L254.542 196.691ZM260.146 197.013L259.831 198.988L260.919 199.161L261.647 198.335L260.146 197.013ZM269.321 191.961L269.63 193.937L270.54 193.795L271.023 193.012L269.321 191.961ZM296.956 184.604V186.604H297.902L298.502 185.873L296.956 184.604ZM308.594 178.935L308.559 176.935L308.554 176.935L308.594 178.935ZM326.504 178.628V176.628H326.487L326.47 176.629L326.504 178.628ZM341.942 193.875L343.942 193.845L343.942 193.841L341.942 193.875ZM333.459 207.977L332.552 206.195L331.452 206.755L331.459 207.989L333.459 207.977ZM333.655 242.369L331.655 242.38L331.662 243.589L332.735 244.145L333.655 242.369ZM342.012 255.159L344.008 255.032L344.008 255.031L342.012 255.159ZM327.604 271.627L327.476 269.631L327.473 269.631L327.604 271.627ZM314.881 273.24L314.333 271.317L314.222 271.348L314.115 271.393L314.881 273.24ZM314.143 273.513L313.532 271.609L313.482 271.625L313.433 271.644L314.143 273.513ZM314.137 273.516L313.426 271.646L313.423 271.648L314.137 273.516ZM307.253 275L305.376 275.692L305.859 277H307.253V275ZM307.251 274.995L309.127 274.303L308.645 272.995H307.251V274.995ZM297.42 271.127L298.777 269.659L298.771 269.653L297.42 271.127ZM294.688 267.802L296.398 266.765L295.826 265.821L294.722 265.803L294.688 267.802ZM281.958 267.588L281.923 269.588L281.924 269.588L281.958 267.588ZM275.659 266.116L276.515 264.309L275.594 263.872L274.699 264.362L275.659 266.116ZM273.372 267.268L272.522 265.457L272.518 265.459L273.372 267.268ZM261.923 269.506L261.903 267.506L261.902 267.506L261.923 269.506ZM260.098 269.526L260.077 267.526L260.068 267.526L260.098 269.526ZM259.11 269.541L259.08 267.541L258.517 271.451L259.11 269.541ZM259.115 269.542V271.542L259.708 267.632L259.115 269.542ZM239.352 261.937L240.74 260.497L239.304 259.114L237.916 260.545L239.352 261.937ZM239.322 261.968L240.756 263.363L240.757 263.361L239.322 261.968ZM228.441 266.637L228.423 264.637L228.411 264.637L228.441 266.637ZM207.654 266.947L205.68 267.268L205.953 268.947H207.654V266.947ZM207.654 266.942L209.628 266.621L209.354 264.942H207.654V266.942ZM192.517 254.439L194.479 254.048L193.883 251.052L191.375 252.797L192.517 254.439ZM183.71 257.216L183.709 259.216H183.71V257.216ZM174.482 254.127L175.685 252.529L175.679 252.524L175.672 252.52L174.482 254.127ZM172.846 252.734L174.243 251.303L173.272 250.355L172.032 250.907L172.846 252.734ZM166.573 254.068L166.573 252.068L166.571 252.068L166.573 254.068ZM165.876 254.051L165.974 252.053L165.971 252.053L165.876 254.051ZM154.593 269.924C160.919 266.83 165.012 262.009 167.639 254.724L163.876 253.367C161.556 259.802 158.113 263.75 152.835 266.331L154.593 269.924ZM144.602 272.225C148.077 272.225 151.423 271.461 154.586 269.928L152.842 266.328C150.222 267.598 147.472 268.225 144.602 268.225V272.225ZM142.647 270.646L142.648 270.65L146.556 269.8L146.556 269.796L142.647 270.646ZM134.878 270.272C138.197 271.567 141.389 272.217 144.599 272.221L144.604 268.221C141.952 268.218 139.251 267.685 136.331 266.546L134.878 270.272ZM127.493 265.372C129.376 267.27 131.808 269.081 134.881 270.273L136.328 266.545C133.874 265.592 131.9 264.135 130.334 262.555L127.493 265.372ZM125.602 266.926C127.012 266.719 128.375 266.349 129.676 265.813L128.151 262.115C127.163 262.522 126.118 262.807 125.022 262.968L125.602 266.926ZM109.262 269.333L125.604 266.925L125.021 262.968L108.679 265.376L109.262 269.333ZM106.738 269.516C107.58 269.515 108.422 269.454 109.256 269.334L108.685 265.375C108.038 265.468 107.386 265.515 106.733 265.516L106.738 269.516ZM101.912 268.826C103.451 269.276 105.071 269.516 106.735 269.516V265.516C105.458 265.516 104.215 265.332 103.034 264.986L101.912 268.826ZM101.12 265.433C98.9446 267.43 96.6204 268.683 94.448 269.703L96.1475 273.324C98.4659 272.236 101.212 270.778 103.825 268.379L101.12 265.433ZM94.441 269.706C90.2833 271.677 86.6986 271.724 83.8352 271.752L83.8743 275.752C86.8049 275.723 91.1521 275.692 96.1545 273.321L94.441 269.706ZM83.8309 271.752L83.8232 271.752L83.8709 275.752L83.8785 275.752L83.8309 271.752ZM83.8073 271.752L82.0389 271.787L82.1184 275.787L83.8868 275.751L83.8073 271.752ZM82.0487 271.787L81.0462 271.802L81.1061 275.802L82.1086 275.787L82.0487 271.787ZM81.5704 271.864L81.567 271.863L80.5785 275.739L80.5819 275.74L81.5704 271.864ZM81.0732 271.801C71.6291 271.799 64.6113 267.711 60.1905 261.975L57.0223 264.417C62.1804 271.109 70.3558 275.798 81.0723 275.801L81.0732 271.801ZM57.5692 261.486C53.2951 264.079 48.3964 265.468 43.4045 265.468V269.468C49.139 269.468 54.7536 267.872 59.6436 264.906L57.5692 261.486ZM43.4045 265.468C42.3414 265.468 41.2868 265.409 40.2431 265.285L39.7689 269.256C40.9812 269.401 42.1946 269.468 43.4045 269.468V265.468ZM38.4127 266.062C38.2102 266.328 37.9981 266.588 37.7769 266.839L40.7793 269.482C41.0646 269.158 41.3382 268.824 41.5993 268.479L38.4127 266.062ZM37.7766 266.839C35.3991 269.541 32.1223 271.147 28.5376 271.368L28.7838 275.361C33.4324 275.074 37.7006 272.981 40.7795 269.482L37.7766 266.839ZM28.5203 271.369C28.3002 271.385 27.9984 271.395 27.6958 271.395V275.395C28.0764 275.395 28.4731 275.383 28.8012 275.359L28.5203 271.369ZM29.6958 273.395V273.395H25.6958V273.395H29.6958ZM27.6958 271.395C20.6975 271.395 14.7978 265.876 14.3012 258.82L10.3111 259.1C10.9535 268.229 18.5744 275.395 27.6958 275.395V271.395ZM14.303 258.849L14.2851 258.527L10.2913 258.75L10.3092 259.071L14.303 258.849ZM14.2856 258.537C14.156 255.976 13.9861 250.995 14.2937 245.39L10.2997 245.171C9.98148 250.969 10.1573 256.103 10.2907 258.739L14.2856 258.537ZM14.2935 245.394C14.5073 241.625 14.6011 235.327 14.604 235.109L10.6043 235.055C10.6012 235.286 10.508 241.499 10.2999 245.167L14.2935 245.394ZM14.6035 235.132C14.6046 235.087 14.6046 235.053 14.6046 235.036H10.6046C10.6046 235.041 10.6046 235.043 10.6046 235.044C10.6046 235.046 10.6046 235.046 10.6046 235.044C10.6046 235.043 10.6046 235.041 10.6046 235.038C10.6047 235.036 10.6047 235.034 10.6048 235.032L14.6035 235.132ZM14.6043 235.065C14.6526 231.73 15.9267 228.672 18.0004 226.324L15.0022 223.676C12.3265 226.706 10.6675 230.672 10.6048 235.007L14.6043 235.065ZM18.4245 224.451C17.3336 220.63 16.9566 215.995 17.6614 210.438L13.6932 209.935C12.931 215.945 13.3174 221.132 14.5781 225.549L18.4245 224.451ZM17.6625 210.43L17.7735 209.523L13.8031 209.037L13.6921 209.944L17.6625 210.43ZM17.7737 209.522C18.1918 206.085 18.786 201.348 21.1641 196.824L17.6236 194.963C14.8656 200.209 14.2182 205.625 13.8029 209.039L17.7737 209.522ZM21.1636 196.825C24.6909 190.125 31.1139 186.285 38.9152 186.285V182.285C29.6701 182.285 21.8621 186.911 17.6241 194.962L21.1636 196.825ZM38.9155 186.285C39.3826 186.285 39.8495 186.298 40.3158 186.325L40.5492 182.332C40.005 182.3 39.46 182.285 38.9148 182.285L38.9155 186.285ZM40.3191 186.326C41.074 186.369 41.8258 186.457 42.5704 186.59L43.2737 182.652C42.3717 182.491 41.4608 182.384 40.546 182.332L40.3191 186.326ZM44.2486 186.118C46.6231 184.013 49.735 182.738 53.1321 182.738V178.738C48.7143 178.738 44.6688 180.4 41.5955 183.124L44.2486 186.118ZM53.1321 182.738H53.2892V178.738H53.1321V182.738ZM53.2642 182.738C60.6133 182.83 66.5838 188.91 66.5466 196.299L70.5465 196.319C70.5947 186.743 62.8704 178.857 53.3141 178.738L53.2642 182.738ZM66.5466 196.294L66.5453 196.467L70.5452 196.497L70.5465 196.324L66.5466 196.294ZM66.5454 196.455C66.5456 196.443 66.5409 196.588 66.529 196.929C66.5178 197.247 66.5017 197.703 66.4814 198.267C66.4407 199.397 66.3835 200.962 66.3168 202.739L70.314 202.89C70.4466 199.356 70.5437 196.607 70.5451 196.509L66.5454 196.455ZM69.117 204.647C71.7419 203.498 74.6169 202.91 77.7114 202.91V198.91C74.099 198.91 70.6743 199.599 67.5138 200.982L69.117 204.647ZM77.7114 202.91C79.1263 202.91 80.4864 203.038 81.7597 203.241L82.3882 199.29C80.9393 199.06 79.3671 198.91 77.7114 198.91V202.91ZM83.575 202.587C85.5485 200.346 88.2443 198.771 91.2836 198.23L90.582 194.292C86.6202 194.997 83.1232 197.047 80.5728 199.944L83.575 202.587ZM90.9512 192.335C90.2305 193.309 89.6183 194.342 89.1188 195.418L92.7468 197.103C93.1326 196.272 93.6065 195.471 94.1666 194.714L90.9512 192.335ZM102.442 185.462C97.8181 186.132 93.7359 188.577 90.952 192.334L94.1658 194.715C96.3174 191.812 99.4507 189.937 103.015 189.421L102.442 185.462ZM120.364 184.073C112.892 184.073 105.895 184.951 102.436 185.463L103.022 189.42C106.388 188.921 113.17 188.073 120.364 188.073V184.073ZM123.238 184.118C122.299 184.088 121.341 184.073 120.364 184.073V188.073C121.301 188.073 122.217 188.088 123.111 188.116L123.238 184.118ZM117.232 160.585C113.904 164.151 113.981 169.163 115.192 173.753C116.422 178.419 118.969 183.264 121.491 187.197L124.858 185.037C122.442 181.271 120.139 176.827 119.059 172.733C117.959 168.562 118.265 165.34 120.156 163.314L117.232 160.585ZM137.863 160.633C135.795 158.27 133.04 155.551 129.425 154.903C125.602 154.216 121.577 155.929 117.232 160.585L120.156 163.314C124.054 159.138 126.8 158.496 128.718 158.84C130.844 159.221 132.799 160.919 134.853 163.267L137.863 160.633ZM143.776 160.535C143.196 161.115 142.168 161.794 141.083 161.98C140.152 162.14 139.041 161.979 137.863 160.633L134.853 163.267C136.972 165.689 139.492 166.312 141.76 165.923C143.874 165.56 145.614 164.354 146.604 163.364L143.776 160.535ZM134.902 146.834C138.536 150.696 140.662 154.096 141.852 156.724C143.068 159.411 143.253 161.167 143.198 161.769L147.182 162.131C147.323 160.573 146.861 158.09 145.496 155.075C144.105 152.002 141.717 148.239 137.814 144.092L134.902 146.834ZM139.776 115.344C137.76 118.419 134.286 123.701 132.401 129.375C130.522 135.031 130.042 141.671 134.902 146.834L137.814 144.092C134.461 140.53 134.494 135.76 136.197 130.636C137.894 125.53 141.071 120.664 143.121 117.536L139.776 115.344ZM141.098 113.264C140.834 113.727 140.39 114.406 139.776 115.344L143.121 117.536C143.703 116.648 144.231 115.844 144.571 115.249L141.098 113.264ZM140.765 102.117C141.076 104.863 141.362 107.389 141.439 109.468C141.478 110.504 141.462 111.369 141.386 112.055C141.305 112.773 141.175 113.13 141.098 113.264L144.571 115.249C145.045 114.42 145.257 113.43 145.361 112.499C145.468 111.537 145.479 110.453 145.436 109.318C145.352 107.057 145.046 104.364 144.74 101.666L140.765 102.117ZM141.007 84.593C140.032 86.787 139.861 89.7568 139.948 92.6931C140.037 95.7014 140.416 99.0356 140.765 102.117L144.74 101.666C144.386 98.5449 144.029 95.3849 143.946 92.5751C143.861 89.6933 144.083 87.5212 144.662 86.2175L141.007 84.593ZM169.101 90.0129C164.378 84.3454 158.357 81.3046 153.105 80.4157C150.485 79.9725 147.974 80.0509 145.873 80.6844C143.783 81.3149 141.908 82.5671 141.007 84.593L144.662 86.2175C144.94 85.5938 145.641 84.9324 147.028 84.5141C148.405 84.0988 150.272 83.9932 152.437 84.3596C156.753 85.0899 161.919 87.6427 166.028 92.5737L169.101 90.0129ZM183.586 90.4185C180.137 89.1126 174.386 86.9112 166.932 89.3959L168.197 93.1906C174.233 91.1787 178.819 92.8907 182.17 94.1594L183.586 90.4185ZM185.594 91.0943C185.542 91.6132 185.448 91.6401 185.548 91.5104C185.614 91.4249 185.717 91.3326 185.851 91.268C185.974 91.2079 186.063 91.2011 186.07 91.2006C186.072 91.2005 186.016 91.2033 185.882 91.18C185.749 91.1571 185.574 91.1153 185.346 91.0466C184.874 90.9051 184.315 90.6944 183.586 90.4185L182.17 94.1594C182.857 94.4198 183.561 94.6873 184.196 94.8778C184.807 95.0613 185.558 95.2396 186.315 95.1931C187.176 95.1402 188.073 94.7899 188.72 93.947C189.285 93.2121 189.492 92.3114 189.574 91.4923L185.594 91.0943ZM185.595 91.0794L185.594 91.0942L189.574 91.4924L189.575 91.4776L185.595 91.0794ZM197.835 77.5476C192.807 78.4348 189.679 80.0603 187.862 82.6908C186.136 85.1903 185.875 88.2777 185.595 91.0795L189.575 91.4775C189.883 88.399 190.126 86.4519 191.154 84.9639C192.091 83.6069 193.967 82.292 198.53 81.4868L197.835 77.5476ZM222.401 101.707C218.589 92.6171 215.381 86.1124 211.725 82.1375C209.854 80.1043 207.809 78.6652 205.447 77.8924C203.089 77.1212 200.572 77.0647 197.835 77.5476L198.53 81.4868C200.798 81.0866 202.623 81.1773 204.203 81.6941C205.778 82.2093 207.266 83.199 208.781 84.8458C211.895 88.231 214.87 94.0911 218.712 103.254L222.401 101.707ZM229.903 109.755C227.823 108.421 226.476 107.547 225.36 106.438C224.295 105.38 223.377 104.033 222.401 101.707L218.712 103.254C219.835 105.931 221.014 107.758 222.54 109.275C224.016 110.742 225.753 111.846 227.744 113.122L229.903 109.755ZM241.883 118.631C236.516 113.996 232.718 111.56 229.903 109.755L227.744 113.122C230.497 114.888 234.113 117.205 239.269 121.658L241.883 118.631ZM248.818 148.171C251.361 143.402 252.311 138.271 251.217 133.137C250.126 128.013 247.043 123.087 241.883 118.631L239.269 121.658C243.923 125.677 246.434 129.879 247.305 133.97C248.174 138.051 247.455 142.225 245.288 146.288L248.818 148.171ZM242.708 155.933C244.96 153.499 247.336 150.95 248.818 148.171L245.288 146.288C244.097 148.522 242.121 150.678 239.772 153.217L242.708 155.933ZM233.737 174.73C233.023 166.522 237.773 161.269 242.708 155.933L239.772 153.217C234.968 158.41 228.866 164.891 229.752 175.077L233.737 174.73ZM232.559 184.722C233.542 181.796 234.059 178.442 233.737 174.73L229.752 175.077C230.023 178.2 229.588 181.003 228.767 183.449L232.559 184.722ZM237.921 181.653C237.618 181.674 234.763 181.876 230.562 182.088L230.763 186.083C235.001 185.869 237.883 185.666 238.203 185.643L237.921 181.653ZM237.928 181.652L237.921 181.653L238.202 185.643L238.209 185.643L237.928 181.652ZM238.195 181.632C238.113 181.635 237.96 181.643 237.788 181.667L238.349 185.628C238.332 185.63 238.324 185.631 238.33 185.63C238.332 185.63 238.337 185.63 238.346 185.629C238.355 185.629 238.365 185.628 238.38 185.627L238.195 181.632ZM239.277 181.596C238.904 181.597 238.532 181.61 238.16 181.634L238.416 185.625C238.708 185.607 239 185.597 239.292 185.596L239.277 181.596ZM246.033 182.963C243.897 182.064 241.605 181.599 239.288 181.596L239.282 185.596C241.067 185.598 242.835 185.957 244.482 186.65L246.033 182.963ZM251.732 186.832C250.106 185.177 248.169 183.862 246.033 182.963L244.482 186.65C246.129 187.343 247.624 188.358 248.879 189.635L251.732 186.832ZM256.519 196.384C255.96 192.785 254.298 189.42 251.726 186.826L248.886 189.642C250.846 191.62 252.133 194.208 252.566 196.998L256.519 196.384ZM255.787 194.661C255.337 194.661 254.89 194.672 254.446 194.693L254.638 198.689C255.018 198.67 255.401 198.661 255.787 198.661V194.661ZM260.461 195.038C259.008 194.806 257.438 194.661 255.787 194.661V198.661C257.204 198.661 258.563 198.786 259.831 198.988L260.461 195.038ZM269.013 189.985C264.905 190.627 261.272 192.71 258.646 195.691L261.647 198.335C263.678 196.03 266.478 194.43 269.63 193.937L269.013 189.985ZM282.446 182.604C276.182 182.604 270.689 185.938 267.619 190.911L271.023 193.012C273.4 189.16 277.637 186.604 282.446 186.604V182.604ZM296.956 182.604H282.446V186.604H296.956V182.604ZM308.554 176.935C303.246 177.04 298.537 179.528 295.411 183.334L298.502 185.873C300.925 182.923 304.554 181.015 308.633 180.935L308.554 176.935ZM326.47 176.629L308.559 176.935L308.628 180.935L326.538 180.628L326.47 176.629ZM343.942 193.841C343.781 184.349 335.975 176.628 326.504 176.628V180.628C333.776 180.628 339.818 186.583 339.943 193.909L343.942 193.841ZM334.366 209.76C340.126 206.829 344.045 200.771 343.942 193.845L339.943 193.905C340.022 199.255 336.997 203.933 332.552 206.195L334.366 209.76ZM335.655 242.357L335.459 207.966L331.459 207.989L331.655 242.38L335.655 242.357ZM344.008 255.031C343.604 248.706 339.853 243.327 334.575 240.593L332.735 244.145C336.814 246.258 339.705 250.414 340.016 255.286L344.008 255.031ZM327.732 273.623C337.335 273.006 344.621 264.658 344.008 255.032L340.016 255.286C340.49 262.73 334.853 269.157 327.476 269.631L327.732 273.623ZM315.429 275.164C316.475 274.866 320.774 274.08 327.735 273.623L327.473 269.631C320.429 270.095 315.792 270.901 314.333 271.317L315.429 275.164ZM314.755 275.418C315.067 275.317 315.363 275.206 315.647 275.088L314.115 271.393C313.911 271.477 313.72 271.549 313.532 271.609L314.755 275.418ZM314.848 275.385L314.854 275.383L313.433 271.644L313.426 271.646L314.848 275.385ZM307.253 277C310.651 277 313.285 275.983 314.851 275.384L313.423 271.648C311.893 272.233 309.857 273 307.253 273V277ZM305.374 275.688L305.376 275.692L309.129 274.308L309.127 274.303L305.374 275.688ZM296.062 272.596C299.128 275.43 303.105 276.995 307.251 276.995V272.995C304.121 272.995 301.111 271.816 298.777 269.659L296.062 272.596ZM292.978 268.84C293.809 270.209 294.84 271.475 296.068 272.601L298.771 269.653C297.824 268.785 297.034 267.813 296.398 266.765L292.978 268.84ZM281.924 269.588L294.655 269.802L294.722 265.803L281.991 265.588L281.924 269.588ZM274.802 267.923C276.97 268.951 279.381 269.543 281.923 269.588L281.992 265.588C280.033 265.554 278.181 265.098 276.515 264.309L274.802 267.923ZM274.221 269.079C274.981 268.722 275.789 268.325 276.619 267.871L274.699 264.362C273.965 264.763 273.236 265.122 272.522 265.457L274.221 269.079ZM261.943 271.506C264.875 271.477 269.214 271.443 274.226 269.076L272.518 265.459C268.346 267.43 264.765 267.478 261.903 267.506L261.943 271.506ZM260.119 271.526L261.944 271.506L261.902 267.506L260.077 267.526L260.119 271.526ZM259.14 271.54L260.129 271.525L260.068 267.526L259.08 267.541L259.14 271.54ZM259.708 267.632L259.703 267.631L258.517 271.451L258.523 271.452L259.708 267.632ZM237.964 263.377C243.092 268.32 250.24 271.542 259.115 271.542V267.542C251.27 267.542 245.119 264.718 240.74 260.497L237.964 263.377ZM240.757 263.361L240.787 263.33L237.916 260.545L237.886 260.575L240.757 263.361ZM228.459 268.637C233.127 268.594 237.499 266.711 240.756 263.363L237.888 260.574C235.37 263.163 232.015 264.604 228.423 264.637L228.459 268.637ZM207.654 268.947C207.703 268.947 212.929 268.869 218.099 268.792C220.694 268.753 223.287 268.714 225.231 268.685C226.203 268.67 227.013 268.658 227.58 268.65C227.864 268.646 228.086 268.642 228.238 268.64C228.314 268.639 228.372 268.638 228.412 268.637C228.431 268.637 228.446 268.637 228.456 268.637C228.461 268.637 228.465 268.637 228.467 268.637C228.469 268.637 228.469 268.636 228.47 268.636C228.47 268.636 228.471 268.636 228.471 268.636C228.471 268.636 228.471 268.636 228.441 266.637C228.411 264.637 228.411 264.637 228.411 264.637C228.411 264.637 228.411 264.637 228.41 264.637C228.41 264.637 228.409 264.637 228.407 264.637C228.405 264.637 228.401 264.637 228.396 264.637C228.386 264.637 228.371 264.638 228.352 264.638C228.312 264.638 228.254 264.639 228.178 264.64C228.027 264.643 227.804 264.646 227.52 264.65C226.953 264.659 226.143 264.671 225.171 264.685C223.227 264.715 220.634 264.753 218.039 264.792C215.445 264.831 212.848 264.87 210.897 264.899C208.926 264.928 207.649 264.947 207.654 264.947V268.947ZM205.679 267.263L205.68 267.268L209.628 266.626L209.628 266.621L205.679 267.263ZM190.556 254.829C192.149 262.836 199.24 268.942 207.654 268.942V264.942C201.209 264.942 195.711 260.244 194.479 254.048L190.556 254.829ZM183.711 259.216C187.302 259.216 190.774 258.089 193.66 256.08L191.375 252.797C189.144 254.35 186.466 255.216 183.711 255.216V259.216ZM183.71 259.216H183.711V255.216H183.71V259.216ZM173.278 255.724C176.31 258.009 179.924 259.214 183.709 259.216L183.711 255.216C180.792 255.214 178.023 254.29 175.685 252.529L173.278 255.724ZM171.449 254.165C172.027 254.729 172.643 255.254 173.292 255.734L175.672 252.52C175.169 252.147 174.692 251.74 174.243 251.303L171.449 254.165ZM166.573 256.068C169.09 256.068 171.492 255.527 173.66 254.561L172.032 250.907C170.362 251.651 168.513 252.068 166.573 252.068V256.068ZM165.779 256.049C166.044 256.062 166.309 256.068 166.574 256.068L166.571 252.068C166.372 252.068 166.173 252.063 165.974 252.053L165.779 256.049ZM165.662 256.043L165.781 256.049L165.971 252.053L165.853 252.048L165.662 256.043Z" fill="#124B92" mask="url(#path-1-inside-1_267_1379)"/>
<path fill-rule="evenodd" clip-rule="evenodd" d="M150.217 182.186C147.214 181.562 143.585 180.564 140.583 177.82C133.701 171.706 131.574 161.601 126.819 164.221C121.94 166.841 122.065 183.184 137.329 188.174C142.585 189.921 147.339 189.921 151.218 189.796C152.219 189.796 160.852 188.923 163.855 184.681C166.858 180.439 164.731 179.317 163.73 178.818C162.604 178.194 154.471 182.935 150.217 182.186Z" fill="#FFAB19" stroke="#001026" stroke-width="1.2" stroke-linecap="round" stroke-linejoin="round"/>
<path fill-rule="evenodd" clip-rule="evenodd" d="M127.57 164.47C125.068 165.219 123.816 170.459 125.068 174.825C126.319 179.192 128.321 181.437 129.947 183.059C129.697 182.186 129.197 179.441 131.324 177.819C133.951 175.699 138.581 176.821 138.581 176.821C138.581 176.821 134.702 172.081 132.7 168.712C130.698 165.843 130.072 163.971 127.57 164.47Z" fill="white"/>
<path fill-rule="evenodd" clip-rule="evenodd" d="M189.88 165.843C190.506 166.342 198.138 175.324 200.641 173.079C203.643 170.459 207.772 165.344 212.277 169.461C216.781 173.578 208.273 180.564 204.644 182.436C196.011 186.303 189.004 178.942 187.503 176.946C186.001 174.95 183.374 171.582 183.374 168.338C183.499 164.845 187.753 163.972 189.88 165.843Z" fill="#FFAB19" stroke="#001026" stroke-width="1.2" stroke-linecap="round" stroke-linejoin="round"/>
<path fill-rule="evenodd" clip-rule="evenodd" d="M180.621 185.804C182.123 184.681 183.624 182.81 185.626 179.94C187.253 177.57 189.004 172.954 189.004 172.954C190.13 169.835 190.881 163.847 186.752 163.972C183.999 164.096 181.497 163.722 177.243 163.098C169.736 161.601 168.359 160.603 165.231 165.718C161.853 171.706 153.22 176.073 163.855 186.428C163.855 186.428 169.986 191.168 177.368 198.404C182.373 203.27 190.256 210.256 193.008 212.627C193.634 213.126 194.384 213.375 195.135 213.5C207.272 214.623 216.281 213.375 216.281 208.011C216.281 199.028 198.388 202.147 198.388 202.147C198.388 202.147 192.633 197.282 190.005 194.911L180.621 185.804Z" fill="#FFAB19" stroke="#001026" stroke-width="1.2" stroke-linecap="round" stroke-linejoin="round"/>
<path fill-rule="evenodd" clip-rule="evenodd" d="M186.127 177.445C186.127 177.445 188.504 174.326 183.124 170.958C177.493 167.34 175.366 171.332 173.114 174.326C170.612 178.194 173.114 180.065 175.616 182.311C177.618 184.182 179.495 185.679 179.495 185.679C179.495 185.679 183.374 183.059 186.127 177.445Z" fill="white"/>
<path fill-rule="evenodd" clip-rule="evenodd" d="M169.986 191.792C167.734 193.289 159.976 198.778 150.092 201.897L149.591 202.022C149.091 202.147 148.841 202.771 149.091 203.27C151.218 206.264 155.097 212.252 148.215 214.373C141.584 216.494 129.197 198.903 134.452 194.287C136.829 192.541 138.956 193.414 140.082 193.913C140.708 194.162 141.333 194.162 141.959 194.038C143.46 193.539 146.213 192.541 148.34 191.418C153.72 188.673 154.971 187.55 157.474 185.679C159.976 183.808 165.732 179.192 170.361 183.184C174.365 186.552 172.113 190.295 169.986 191.792Z" fill="#FFAB19" stroke="#001026" stroke-width="1.2" stroke-linecap="round" stroke-linejoin="round"/>
<path fill-rule="evenodd" clip-rule="evenodd" d="M189.255 101.344C186.377 100.845 183.374 100.595 179.871 100.845C173.99 101.094 168.359 103.215 168.359 103.215L153.22 93.3595C152.719 93.11 152.094 93.4843 152.219 93.9833L154.846 116.315C155.597 115.317 141.584 132.283 150.467 146.506C159.351 160.728 178.244 167.09 201.767 162.475C225.289 157.859 230.795 144.385 229.293 137.274C227.792 130.163 218.908 127.543 218.908 127.543C218.908 127.543 218.783 121.929 214.779 115.067C212.402 110.95 204.394 105.087 204.394 105.087L201.141 91.7377C201.016 91.2386 200.39 91.1139 200.015 91.3634L189.255 101.344Z" fill="#FFAB19" stroke="#001026" stroke-width="1.2"/>
<path fill-rule="evenodd" clip-rule="evenodd" d="M218.533 128.042C218.533 128.042 227.166 130.287 228.668 137.398C230.169 144.51 224.163 157.359 200.891 161.851C170.612 168.088 156.223 150.124 164.606 136.899C172.989 123.55 187.378 134.903 197.888 134.155C206.897 133.531 207.898 125.671 218.533 128.042Z" fill="white"/>
<path fill-rule="evenodd" clip-rule="evenodd" d="M179.12 141.391C179.12 140.892 179.62 140.517 180.121 140.642C182.498 141.515 189.255 143.511 196.762 144.011C203.518 144.385 207.522 144.011 209.399 143.636C210.025 143.511 210.525 144.135 210.275 144.759C209.149 148.127 204.394 157.484 191.256 156.736C179.87 155.488 178.744 147.504 179.12 141.391Z" fill="white" stroke="#001026" stroke-width="1.2" stroke-linecap="round" stroke-linejoin="round"/>
<path d="M226.666 134.28C226.666 134.28 235.674 134.155 241.555 129.414" stroke="#001026" stroke-width="1.2" stroke-linecap="round" stroke-linejoin="round"/>
<path d="M227.166 141.64C227.166 141.64 232.046 144.01 239.928 143.387" stroke="#001026" stroke-width="1.2" stroke-linecap="round" stroke-linejoin="round"/>
<path fill-rule="evenodd" clip-rule="evenodd" d="M197.387 130.911C200.015 130.911 202.768 131.161 202.893 132.034C203.018 133.781 201.141 137.274 199.139 137.398C196.887 137.648 191.632 134.529 191.632 132.533C191.507 131.036 194.885 130.911 197.387 130.911Z" fill="#001026" stroke="#001026" stroke-width="1.2" stroke-linecap="round" stroke-linejoin="round"/>
<path d="M141.083 129.04C141.083 129.04 151.844 132.533 156.223 136.4" stroke="#001026" stroke-width="1.2" stroke-linecap="round" stroke-linejoin="round"/>
<path d="M141.959 141.515C141.959 141.515 151.218 142.888 156.598 140.767" stroke="#001026" stroke-width="1.2" stroke-linecap="round" stroke-linejoin="round"/>
<path fill-rule="evenodd" clip-rule="evenodd" d="M212.152 116.315C215.78 121.929 215.905 128.291 212.402 130.537C208.898 132.782 203.143 130.162 199.389 124.548C195.761 118.934 195.636 112.572 199.139 110.326C202.642 107.956 208.523 110.7 212.152 116.315Z" fill="white" stroke="#001026" stroke-width="1.2" stroke-linecap="round" stroke-linejoin="round"/>
<path fill-rule="evenodd" clip-rule="evenodd" d="M211.651 123.426C211.651 124.798 210.65 125.921 209.399 125.921C208.148 125.921 207.147 124.798 207.147 123.426C207.147 122.053 208.148 120.931 209.399 120.931C210.65 120.931 211.651 122.053 211.651 123.426Z" fill="#001026"/>
<path fill-rule="evenodd" clip-rule="evenodd" d="M181.122 119.808C184.875 125.297 184.625 132.034 181.247 134.404C177.118 136.775 171.613 135.028 167.859 129.539C163.98 124.049 163.73 116.938 167.609 114.194C171.487 111.324 177.368 114.318 181.122 119.808Z" fill="white" stroke="#001026" stroke-width="1.2" stroke-linecap="round" stroke-linejoin="round"/>
<path fill-rule="evenodd" clip-rule="evenodd" d="M180.371 127.043C180.371 128.416 179.37 129.539 178.119 129.539C176.868 129.539 175.867 128.416 175.867 127.043C175.867 125.671 176.868 124.548 178.119 124.548C179.37 124.673 180.371 125.671 180.371 127.043Z" fill="#001026"/>
<path d="M39.2606 223.851C35.3745 223.241 33.3175 220.642 34.3391 212.564L34.463 211.588C35.3254 204.561 36.0657 203.024 39.4019 203.197C40.3997 203.26 41.5332 203.881 42.6736 204.816C43.7017 206.033 46.055 207.613 47.3512 210.754C48.3012 213.043 48.6248 214.534 48.7448 216.142C48.7559 216.194 48.971 218.114 48.971 218.114L48.9732 218.113C49.2293 219.457 50.2805 220.566 51.7005 220.823C53.5347 221.153 55.2997 219.927 55.631 218.079C55.6592 217.868 56.496 196.606 56.5011 196.253C56.5118 194.382 55.0081 192.858 53.1432 192.837C51.2633 192.834 49.7404 194.346 49.7319 196.229L49.6635 202.147C47.0096 199.232 43.5838 196.622 39.7755 196.407C29.5232 195.845 28.4106 205.301 27.7445 210.758L27.625 211.716C26.2622 222.465 29.8297 229.26 38.2218 230.577C47.3512 232.022 53.4476 234.13 53.5052 239.771C53.5287 241.95 52.3896 244.199 50.3731 245.935C47.9707 248.005 44.7212 248.929 41.6959 248.418C40.7853 248.27 39.89 248.038 39.0215 247.726C37.8089 247.064 34.8032 245.23 33.276 243.102C31.985 241.308 31.5461 238.486 31.403 236.703L31.4329 235.305C31.4543 233.435 29.9634 231.897 28.0925 231.861C26.2216 231.826 24.6752 233.327 24.6513 235.214C24.6513 235.278 24.5497 241.932 24.3277 245.945C23.9733 252.402 24.3183 257.88 24.3277 258.113C24.4575 259.99 26.0602 261.415 27.9277 261.286C29.8028 261.169 31.2088 259.548 31.0943 257.679C31.0943 257.628 30.9227 254.997 30.947 251.315C33.4212 252.914 36.666 254.466 40.5811 255.13C45.6306 255.978 50.8039 254.514 54.7728 251.098C58.3165 248.053 60.3282 243.894 60.2847 239.697C60.1481 227.132 46.0516 224.92 39.2601 223.847L39.2606 223.851Z" fill="#F7F8F9"/>
<path d="M155.533 245.557C153.042 245.555 150.537 245.166 147.884 244.366C145.535 243.66 143.661 242.585 142.195 241.442C141.222 241.752 140.199 241.968 139.133 242.088L125.239 243.672C124.609 243.742 123.974 243.778 123.339 243.778C116.853 243.778 111.269 240.017 110.349 235.027C109.845 232.368 110.715 229.681 112.808 227.495C113.837 226.418 115.129 225.509 116.611 224.821L116.602 223.261C113.932 221.393 112.247 218.687 112.247 215.681C112.245 213.554 113.102 211.48 114.699 209.751C111.604 208.191 109.373 205.641 108.825 202.643C108.318 200.004 109.187 197.307 111.285 195.113C113.384 192.923 116.451 191.502 119.932 191.112C122.834 190.78 128.691 190.212 134.926 190.212C148.756 190.212 157.567 192.965 161.844 198.628C164.078 201.59 166.624 207.545 159.954 215.221C160.583 216.792 161.054 218.538 161.374 220.495H161.509C162.816 220.495 164.111 220.644 165.357 220.944C172.296 222.612 176.18 228.334 174.044 233.706C171.961 238.922 168.643 242.152 163.281 244.181C160.823 245.102 158.231 245.56 155.534 245.56L155.533 245.557Z" fill="white"/>
<path d="M152.631 244.361C150.838 243.807 148.932 244.821 148.391 246.607C147.153 250.647 146.166 250.798 145.478 251.126C144.799 251.457 143.88 251.359 142.408 250.783C142.182 250.649 141.569 249.849 141.218 249.102C140.69 247.962 140.069 243.223 140.01 240.518C139.75 230.529 138.021 225.039 135.228 222.011C137.114 220.767 138.486 219.15 138.638 218.945C138.663 218.919 138.684 218.902 138.708 218.864C142.862 213.455 143.845 208.782 141.637 204.992C136.099 195.52 111.772 198.33 104.448 199.417C102.59 199.686 101.317 201.423 101.597 203.278C101.857 205.145 103.582 206.422 105.433 206.141C107.193 205.883 108.96 205.672 110.731 205.507L110.798 221.348C110.234 221.382 109.675 221.4 109.123 221.4C108.678 221.399 108.238 221.486 107.827 221.657C107.416 221.827 107.042 222.077 106.728 222.393C106.413 222.708 106.164 223.083 105.994 223.496C105.824 223.908 105.736 224.35 105.736 224.797C105.736 226.668 107.255 228.2 109.123 228.2C109.686 228.2 110.252 228.184 110.831 228.159L110.903 247.963L106.24 248.649C104.39 248.92 103.11 250.654 103.385 252.508C103.648 254.373 105.371 255.659 107.219 255.393L123.565 252.983C125.409 252.711 126.694 250.987 126.421 249.134C126.153 247.267 124.425 245.982 122.582 246.242L117.675 246.973L117.587 227.454C120.819 226.928 123.897 226.226 126.469 225.439H126.474C126.493 225.434 127.217 225.342 127.665 225.42C129.027 225.652 129.777 225.901 130.564 227.02C131.666 228.565 133.026 232.198 133.235 240.702C133.277 242.341 133.708 249.045 135.079 251.992C135.505 252.924 137.145 256.041 139.97 257.139C142.051 257.955 145.188 258.828 148.441 257.257C151.447 255.785 153.317 253.646 154.868 248.631C155.421 246.833 154.415 244.925 152.63 244.37L152.631 244.361ZM133.374 213.985C133.072 214.339 132.208 215.255 131.309 215.793C130.476 216.285 129.339 216.625 128.241 216.964L126.519 217.515C124.131 218.373 120.97 219.261 117.57 219.887L117.508 204.413C126.465 204.165 134.281 205.174 135.792 207.773C135.932 207.996 135.991 208.281 135.991 208.619C135.99 209.861 135.07 211.78 133.374 213.985V213.985Z" fill="#F7F8F9"/>
<path d="M274.443 233.66C272.599 233.683 271.123 235.205 271.123 237.06C271.123 237.079 271.214 238.16 271.214 238.297C271.214 238.435 271.141 241.121 271.129 241.502C270.914 242.909 270.423 245.149 269.964 245.945C269.456 246.837 268.924 247.508 267.981 248.587C267.451 249.192 266.162 249.795 265.394 250.165C264.524 250.568 263.686 250.584 261.716 250.605L259.656 250.632C250.847 250.917 249.735 243.719 249.593 242.144L249.486 236.307L249.593 227.192C250.018 221.348 251.389 217.418 253.458 216.148C255.052 215.149 257.599 215.42 261.251 216.948C265.743 218.83 268.799 223.751 268.832 223.791C269.624 225.086 271.182 225.688 272.634 225.283C274.094 224.868 275.102 223.542 275.102 222.017V207.274C275.102 205.404 273.59 203.876 271.711 203.876C269.852 203.876 268.321 205.404 268.321 207.274V213.331C267.01 212.306 265.511 211.366 263.855 210.669C261.717 209.771 255.216 207.051 249.905 210.347C245.744 212.918 243.434 218.295 242.833 226.776C242.828 226.838 242.701 236.273 242.701 236.273L242.833 242.551C243.183 247.873 247.195 257.84 259.866 257.431L261.767 257.409C264.057 257.389 266.026 257.374 268.275 256.313C269.878 255.557 271.711 254.613 273.06 253.091C274.035 251.983 274.978 250.852 275.854 249.317C277.155 247.025 277.756 243.068 277.862 242.304C277.876 242.181 277.99 238.425 277.99 238.425C278 238.372 277.894 237.002 277.894 237.002C277.866 235.132 276.327 233.627 274.448 233.659L274.443 233.66Z" fill="#F7F8F9"/>
<path d="M329.993 255.933C329.873 254.062 328.261 252.634 326.396 252.76C325.136 252.845 323.48 252.971 321.636 253.169L321.35 197.62L326.566 197.546C328.43 197.515 329.926 195.956 329.898 194.08C329.871 192.204 328.327 190.703 326.459 190.73L308.828 191.03C306.952 191.071 305.469 192.612 305.501 194.492C305.524 196.369 307.072 197.874 308.935 197.837L314.566 197.734L314.707 221.31L294.783 224.655L294.819 203.517H300.234C302.11 203.517 303.631 201.991 303.631 200.106C303.631 198.231 302.11 196.704 300.234 196.704H282.445C280.575 196.704 279.062 198.231 279.062 200.106C279.062 201.991 280.575 203.517 282.445 203.517H288.044L287.964 248.791L282.265 248.691C280.4 248.659 278.858 250.159 278.824 252.054C278.802 253.917 280.287 255.461 282.157 255.493L300.456 255.802C301.354 255.814 302.22 255.468 302.865 254.84C303.51 254.212 303.88 253.353 303.895 252.451C303.924 250.566 302.433 249.02 300.568 248.999L294.733 248.905L294.769 231.546L314.749 228.197L314.867 254.141C310.256 255.018 307.159 255.383 305.281 257.499C304.06 258.885 304.204 260.972 305.57 262.219C306.931 263.479 308.448 262.726 310.362 262.014L310.336 262.031C312.292 261.14 318.74 260.078 326.828 259.552C328.695 259.429 330.112 257.813 329.988 255.934L329.993 255.933Z" fill="#F7F8F9"/>
<path d="M185.568 251.448C182.191 251.446 178.977 250.458 176.273 248.579C175.692 248.182 175.142 247.75 174.625 247.285C172.692 248.079 170.551 248.524 168.306 248.524C168.072 248.524 167.838 248.519 167.605 248.508L150.592 247.762C142.042 247.394 135.398 240.649 135.785 232.73C136.159 225.028 142.981 218.986 151.322 218.986L151.535 218.988L154.313 206.087C148.68 204.443 144.348 199.898 143.536 194.25C142.423 186.387 148.396 179.141 156.854 178.074L171.458 176.214C172.152 176.126 172.864 176.081 173.561 176.081C177.841 176.081 181.975 177.741 184.91 180.64C185.978 181.688 187.513 183.746 188.335 185.566L201.153 214.263L201.359 214.72L201.481 214.719C204.683 214.724 207.805 215.642 210.423 217.348C213.042 219.054 215.03 221.466 216.118 224.255C218.991 231.712 214.804 239.961 206.787 242.661C201.665 244.355 198.385 245.909 197.201 246.603C194.272 249.656 190.016 251.448 185.569 251.448H185.568Z" fill="white"/>
<path d="M198.37 229.974C197.366 230.332 195.426 231.31 192.416 232.639L188.061 221.839L175.326 190.916C175.2 190.585 174.49 189.497 174.27 189.263C173.517 188.456 172.424 188.06 171.343 188.211L156.825 190.215C154.971 190.473 153.683 192.184 153.923 194.04C154.172 195.907 155.873 197.203 157.73 196.964L167.512 195.59L159.688 234.848L149.862 234.369C147.997 234.288 146.404 235.733 146.319 237.616C146.238 239.488 147.685 241.073 149.556 241.16L166.416 241.963C168.282 242.045 169.868 240.596 169.961 238.727C170.045 236.84 168.954 235.142 166.539 235.142L167.314 229.956L182.978 227.349L186.331 235.676C183.778 237.144 182.183 238.071 180.989 239.681C179.873 241.197 180.193 243.323 181.699 244.439C183.19 245.564 185.319 245.247 186.439 243.737C187.944 241.698 194.342 238.654 200.656 236.383C202.413 235.739 203.325 233.793 202.696 232.027C202.391 231.179 201.764 230.488 200.952 230.103C200.141 229.719 199.211 229.672 198.366 229.974H198.37ZM168.758 224.492L172.912 204.072L180.362 222.559L168.759 224.492H168.758Z" fill="#F7F8F9"/>
<path d="M211.685 256.154C204.88 256.154 199.245 250.546 199.128 243.657C199.043 238.015 202.613 233.17 207.614 231.432L207.607 227.68C207.235 227.77 206.856 227.845 206.473 227.903C205.855 227.999 205.224 228.047 204.605 228.047C198.342 228.047 193.121 223.497 192.189 217.234L190.087 203.56C189.529 199.936 190.563 196.239 192.924 193.422C195.251 190.618 198.703 188.974 202.363 188.932L219.902 188.635C228.424 188.472 236.029 187.929 236.439 187.9C236.498 187.891 236.557 187.888 236.617 187.885C236.887 187.867 237.158 187.858 237.429 187.857C239.098 187.86 240.75 188.197 242.29 188.849C243.829 189.502 245.226 190.456 246.398 191.658C248.921 194.22 250.238 197.841 249.961 201.53C249.724 204.691 249.649 209.688 249.638 210.9C249.778 216.044 246.997 220.698 242.469 222.833C240.794 223.631 238.897 224.068 237.022 224.068C235.531 224.068 234.076 223.793 232.723 223.286L232.738 231.263C237.503 233.026 240.957 237.635 241.031 243.029C241.083 246.423 239.813 249.642 237.459 252.078C235.109 254.511 231.965 255.873 228.603 255.904C228.603 255.904 211.733 256.158 211.686 256.158L211.685 256.154Z" fill="white"/>
<path d="M239.064 195.7C238.959 195.714 229.041 196.429 217.95 196.643L196.335 197.006C195.353 197.013 194.426 197.445 193.794 198.208C193.161 198.949 192.871 199.934 193.017 200.903L195.607 217.644C195.889 219.503 197.609 220.779 199.458 220.504C201.141 220.251 202.343 218.798 202.343 217.141C202.343 216.985 200.982 208.412 200.294 203.748L214.632 203.501L214.72 247.94L207.602 248.032C205.734 248.065 204.239 249.612 204.267 251.481C204.303 253.367 205.833 254.867 207.696 254.844L228.328 254.534C230.195 254.517 231.693 252.957 231.668 251.086C231.639 249.201 230.1 247.713 228.233 247.727L221.496 247.83L221.408 203.37C227.241 203.207 232.233 202.928 235.654 202.739C235.482 205.567 235.398 207.699 235.398 209.249C235.398 212.887 235.785 213.577 236.081 214.094C236.942 215.667 238.77 216.084 240.386 215.317C241.644 214.73 242.319 213.312 242.239 211.92C242.236 211.863 242.303 204.242 242.672 199.37C242.744 198.376 242.398 197.409 241.701 196.705C241.014 196.001 240.041 195.642 239.064 195.703L239.064 195.7Z" fill="#F7F8F9"/>
<path d="M96.3711 237.227C94.5147 237.261 93.0396 238.785 93.0396 240.634C93.0396 240.652 93.1323 242.403 93.1323 242.546C93.105 243.612 93.0763 244.678 93.046 245.744C92.8325 247.149 92.3458 249.39 91.8864 250.186C91.3805 251.081 90.8139 251.786 89.8934 252.825C89.3683 253.434 88.0832 254.044 87.3104 254.397C86.4429 254.809 85.6112 254.829 83.6421 254.848L81.574 254.881C72.7648 255.152 71.656 247.976 71.5138 246.389L71.3913 240.555C71.4007 240.442 71.5138 231.683 71.5138 231.433C71.9408 225.59 73.3061 221.66 75.3777 220.391C76.9651 219.391 79.5161 219.663 83.1652 221.19C87.6575 223.079 90.7221 227.986 90.7418 228.038C91.5393 229.327 93.0977 229.945 94.5527 229.525C96.0129 229.114 97.0222 227.784 97.0222 226.256V211.526C97.0222 209.645 95.5022 208.12 93.6373 208.12C93.192 208.12 92.7509 208.207 92.3393 208.378C91.9278 208.549 91.5539 208.8 91.239 209.117C90.9241 209.433 90.6745 209.809 90.5044 210.222C90.3343 210.635 90.2471 211.078 90.2478 211.526V217.572C88.9315 216.547 87.4385 215.6 85.7734 214.911C83.6387 214.016 77.138 211.302 71.8293 214.588C67.6696 217.157 65.3555 222.534 64.7488 231.02C64.7446 231.087 64.7446 231.151 64.7446 231.206L64.6208 240.633L64.7446 246.643C64.7436 246.692 64.7452 246.741 64.7493 246.79C65.1036 252.123 69.1118 262.073 81.7853 261.691L83.6873 261.648C85.9745 261.627 87.9466 261.616 90.1957 260.552C91.8066 259.796 93.6241 258.858 94.9839 257.328C95.9582 256.218 96.906 255.089 97.7736 253.559C99.0784 251.265 99.6692 247.308 99.7777 246.545C99.7965 246.417 99.9088 242.562 99.9088 242.516L99.8076 240.574C99.7777 238.694 98.2351 237.186 96.3724 237.221L96.3711 237.227Z" fill="#F7F8F9"/>
<path fill-rule="evenodd" clip-rule="evenodd" d="M160.602 175.449C163.355 178.942 167.609 183.309 162.229 186.927C154.846 191.044 148.715 178.568 147.464 174.202C146.338 170.334 149.591 167.839 152.344 165.718C157.724 161.851 162.229 158.357 167.233 160.229C173.489 162.474 168.985 167.465 165.857 169.71C163.98 171.083 162.103 172.58 160.727 173.453C160.352 174.077 160.227 174.825 160.602 175.449Z" fill="#FFAB19" stroke="#001026" stroke-width="1.2" stroke-linecap="round" stroke-linejoin="round"/>
<path d="M39.8386 224.448L39.183 224.345C37.1346 224.023 35.4789 223.155 34.5127 221.233C33.5716 219.36 33.3289 216.566 33.8431 212.501L33.8431 212.5L33.9667 211.527C33.9667 211.527 33.9667 211.526 33.9668 211.526C34.1827 209.767 34.3928 208.335 34.6405 207.183C34.8873 206.035 35.178 205.131 35.5708 204.444C35.9717 203.744 36.4826 203.264 37.152 202.986C37.8043 202.714 38.5628 202.653 39.4277 202.698L39.4334 202.698L39.4334 202.698C40.5925 202.771 41.8284 203.476 42.9906 204.429L43.026 204.458L43.0555 204.493C43.292 204.773 43.6109 205.081 44.0013 205.454L44.0498 205.5C44.422 205.856 44.8452 206.26 45.277 206.722C46.1814 207.689 47.1348 208.919 47.8132 210.563C48.7771 212.885 49.1165 214.426 49.242 216.087C49.2461 216.116 49.2499 216.148 49.2528 216.171L49.254 216.182C49.2611 216.24 49.2706 216.321 49.2815 216.414C49.3033 216.602 49.3313 216.848 49.3589 217.091C49.3865 217.335 49.4137 217.576 49.4341 217.757L49.4586 217.976L49.4624 218.009L49.4643 218.019C49.6832 219.168 50.5807 220.112 51.7891 220.331C53.3431 220.611 54.8423 219.577 55.1349 218.012C55.135 218.005 55.1359 217.987 55.1376 217.953C55.1394 217.916 55.1422 217.859 55.1459 217.78C55.1535 217.613 55.1639 217.374 55.1767 217.073C55.2023 216.472 55.2373 215.623 55.2785 214.609C55.361 212.58 55.4684 209.892 55.5751 207.199C55.6818 204.506 55.7877 201.809 55.8673 199.763C55.9071 198.74 55.9403 197.88 55.9638 197.265C55.9755 196.957 55.9847 196.711 55.9911 196.536L55.9985 196.329L56.0005 196.27L56.001 196.252C56.0011 196.25 56.0011 196.248 56.0011 196.247C56.0086 194.653 54.7281 193.356 53.1399 193.337C51.5369 193.335 50.2391 194.625 50.2319 196.231L50.2318 196.235L50.1635 202.152L50.1489 203.422L49.2939 202.483C46.6642 199.596 43.3538 197.11 39.7476 196.906C37.2643 196.77 35.3719 197.241 33.9129 198.078C32.4525 198.916 31.3905 200.14 30.6029 201.567C29.0201 204.434 28.5791 208.047 28.2441 210.792L28.2408 210.819L28.2407 210.82L28.1211 211.778L28.121 211.779C27.4468 217.097 28.0031 221.363 29.703 224.442C31.39 227.498 34.2367 229.446 38.2993 230.083L38.3 230.083C42.868 230.806 46.7471 231.703 49.4991 233.158C50.8815 233.889 52.0035 234.772 52.7839 235.867C53.5687 236.969 53.9897 238.259 54.0052 239.765C54.0306 242.124 52.8012 244.504 50.6994 246.314C48.1883 248.477 44.7905 249.447 41.6143 248.911C40.6739 248.758 39.7494 248.519 38.8524 248.197L38.8158 248.183L38.7817 248.165C38.1607 247.826 37.0861 247.189 35.9699 246.366C34.859 245.546 33.6779 244.519 32.87 243.394C32.1725 242.424 31.7204 241.202 31.424 240.02C31.1262 238.832 30.9775 237.652 30.9046 236.743L30.9026 236.718L30.9031 236.693L30.9329 235.299C30.933 235.298 30.933 235.297 30.933 235.296C30.9499 233.702 29.6784 232.391 28.083 232.361C26.4915 232.331 25.1717 233.608 25.1512 235.22C25.1486 235.462 25.0466 242.001 24.8269 245.972L39.8386 224.448ZM39.8386 224.448L39.8383 224.445M39.8386 224.448L39.8383 224.445M39.8383 224.445C43.2264 224.986 47.9999 225.83 52.0393 227.907C56.3197 230.108 59.719 233.66 59.7847 239.702C59.8265 243.734 57.893 247.758 54.447 250.719L54.4466 250.719C50.5881 254.04 45.5643 255.459 40.6647 254.637C36.8316 253.987 33.6501 252.467 31.2185 250.895L30.4531 250.4L30.4471 251.312C30.4348 253.161 30.4718 254.746 30.5119 255.876C30.5319 256.441 30.5527 256.893 30.5685 257.206C30.5854 257.541 30.5943 257.682 30.5943 257.679V257.694L30.5953 257.709C30.6931 259.308 29.4916 260.687 27.8965 260.787L27.8933 260.787C26.31 260.896 24.9409 259.689 24.8269 258.084C24.826 258.065 24.8241 258.031 24.8215 257.982C24.7763 257.147 24.4968 251.987 24.8269 245.972L39.8383 224.445Z" fill="#F9A737" stroke="black"/>
<path d="M148.869 246.753L148.87 246.751C149.309 245.302 150.807 244.447 152.272 244.781L152.482 244.847C154.002 245.32 154.863 246.948 154.39 248.483C153.624 250.959 152.791 252.686 151.804 253.967C150.823 255.24 149.67 256.098 148.222 256.808C145.164 258.283 142.198 257.476 140.153 256.673L140.151 256.672C138.853 256.168 137.804 255.189 137.017 254.193C136.233 253.201 135.736 252.226 135.533 251.783L135.532 251.781C134.883 250.386 134.439 248.044 134.154 245.794C133.872 243.562 133.756 241.492 133.735 240.689C133.525 232.163 132.164 228.403 130.972 226.731C130.542 226.12 130.1 225.717 129.556 225.441C129.028 225.173 128.435 225.044 127.75 224.927C127.466 224.877 127.125 224.885 126.879 224.899C126.751 224.907 126.636 224.917 126.553 224.926C126.511 224.93 126.475 224.934 126.449 224.938C126.445 224.938 126.441 224.939 126.437 224.939H126.394L126.322 224.961C123.776 225.74 120.721 226.437 117.506 226.96L117.085 227.028L117.087 227.456L117.175 246.975L117.178 247.552L117.749 247.467L122.652 246.737C122.652 246.737 122.653 246.737 122.654 246.737C124.223 246.517 125.697 247.612 125.926 249.205L125.926 249.207C126.159 250.787 125.063 252.257 123.492 252.488L123.492 252.488L107.148 254.898C107.148 254.898 107.148 254.898 107.147 254.898C105.573 255.124 104.104 254.029 103.881 252.438L103.88 252.434C103.645 250.852 104.738 249.374 106.313 249.143L106.313 249.143L110.975 248.457L111.404 248.394L111.403 247.961L111.331 228.157L111.329 227.636L110.81 227.659C110.236 227.684 109.677 227.7 109.123 227.7C107.534 227.7 106.236 226.394 106.236 224.797V224.797C106.236 224.415 106.311 224.038 106.456 223.686C106.601 223.334 106.814 223.015 107.082 222.746C107.35 222.477 107.668 222.263 108.018 222.118C108.368 221.973 108.743 221.899 109.122 221.899H109.123C109.686 221.899 110.255 221.882 110.828 221.847L111.3 221.818L111.298 221.346L111.231 205.505L111.229 204.959L110.685 205.009C108.905 205.175 107.129 205.387 105.361 205.646L105.361 205.646L105.358 205.646C103.782 205.886 102.314 204.799 102.092 203.209L102.092 203.209L102.091 203.203C101.852 201.619 102.94 200.14 104.52 199.912L104.52 199.912L104.521 199.911C108.172 199.369 116.048 198.401 123.69 198.744C127.512 198.916 131.25 199.415 134.363 200.446C137.482 201.48 139.908 203.025 141.206 205.244C143.258 208.77 142.419 213.211 138.311 218.559L138.296 218.579L138.294 218.582L138.289 218.587L138.273 218.604L138.254 218.624L138.237 218.646C138.112 218.815 136.78 220.388 134.953 221.594L134.462 221.918L134.861 222.35C137.523 225.236 139.25 230.563 139.51 240.53C139.54 241.907 139.713 243.788 139.943 245.465C140.058 246.305 140.189 247.1 140.325 247.761C140.459 248.407 140.606 248.969 140.765 249.312L140.766 249.315C140.957 249.723 141.216 250.137 141.455 250.466C141.576 250.631 141.695 250.781 141.804 250.903C141.901 251.011 142.025 251.137 142.153 251.213L142.188 251.234L142.226 251.249C143.708 251.829 144.81 252.006 145.695 251.577C145.738 251.556 145.786 251.535 145.837 251.512C146.155 251.373 146.62 251.168 147.112 250.579C147.663 249.919 148.243 248.796 148.869 246.753ZM131.566 216.222C132.037 215.94 132.493 215.567 132.874 215.216V215.455L133.77 214.29C134.633 213.168 135.307 212.108 135.768 211.159C136.224 210.219 136.491 209.349 136.491 208.619V208.618C136.491 208.231 136.424 207.844 136.22 207.514C135.76 206.728 134.869 206.125 133.751 205.655C132.617 205.179 131.177 204.808 129.525 204.532C126.219 203.979 121.991 203.789 117.494 203.913L117.006 203.927L117.008 204.415L117.07 219.889L117.073 220.487L117.661 220.379C121.083 219.749 124.267 218.855 126.68 217.989L128.388 217.441C128.389 217.441 128.39 217.441 128.39 217.441C128.443 217.424 128.495 217.408 128.548 217.392C129.582 217.074 130.712 216.726 131.563 216.223L131.566 216.222Z" fill="#F9A737" stroke="black"/>
<path d="M274.469 234.159L274.449 234.16C272.891 234.179 271.632 235.463 271.623 237.043C271.623 237.048 271.624 237.058 271.625 237.074L271.636 237.202L271.637 237.226C271.646 237.329 271.656 237.46 271.667 237.595C271.688 237.869 271.713 238.203 271.713 238.297C271.713 238.445 271.641 241.141 271.629 241.517L271.628 241.547L271.624 241.577C271.514 242.295 271.334 243.221 271.123 244.072C270.918 244.902 270.667 245.726 270.398 246.193C270.397 246.193 270.397 246.194 270.397 246.194L269.964 245.944C269.456 246.837 268.924 247.507 267.981 248.587L274.469 234.159ZM274.469 234.159L274.474 234.159M274.469 234.159L274.474 234.159M274.474 234.159C276.066 234.141 277.37 235.42 277.394 237.009L277.395 237.025L277.396 237.04L277.396 237.04L277.396 237.04L277.396 237.041L277.396 237.044L277.397 237.055L277.4 237.099L277.412 237.254C277.422 237.383 277.435 237.555 277.447 237.729C277.46 237.903 277.472 238.078 277.48 238.211C277.484 238.278 277.487 238.333 277.489 238.371C277.489 238.384 277.49 238.394 277.49 238.4L277.49 238.409L277.49 238.409C277.49 238.409 277.49 238.409 277.49 238.409L277.49 238.409L277.49 238.41L277.49 238.41L277.49 238.412L277.489 238.42L277.488 238.452L277.485 238.571L277.472 238.998C277.461 239.352 277.446 239.825 277.431 240.302C277.416 240.779 277.4 241.26 277.388 241.629C277.381 241.813 277.376 241.969 277.371 242.083C277.369 242.15 277.367 242.195 277.366 242.22C277.365 242.237 277.364 242.246 277.365 242.248C277.311 242.633 277.137 243.786 276.82 245.121C276.496 246.481 276.034 247.986 275.42 249.069C274.569 250.559 273.653 251.659 272.685 252.759C271.41 254.197 269.663 255.106 268.062 255.86L268.061 255.861C265.923 256.869 264.059 256.889 261.762 256.909L261.761 256.909L259.86 256.931L259.86 256.931L259.85 256.931C253.667 257.131 249.643 254.806 247.111 251.817C244.565 248.812 243.504 245.103 243.332 242.529L243.201 236.271L243.201 236.252L243.202 236.174L243.207 235.874L243.221 234.804L243.265 231.554C243.281 230.371 243.298 229.186 243.31 228.293C243.318 227.714 243.325 227.271 243.328 227.026C243.33 226.885 243.332 226.81 243.331 226.811C243.93 218.374 246.219 213.212 250.167 210.772L250.168 210.771C252.688 209.208 255.507 209.059 257.996 209.43C260.485 209.8 262.595 210.682 263.661 211.13C265.269 211.806 266.73 212.722 268.013 213.725L268.82 214.357V213.331V207.274C268.82 205.68 270.128 204.376 271.71 204.376C273.312 204.376 274.602 205.678 274.602 207.274V222.016C274.602 223.317 273.744 224.447 272.499 224.801C271.26 225.146 269.932 224.632 269.258 223.529L269.24 223.5L269.234 223.492L269.209 223.454C269.183 223.414 269.145 223.357 269.096 223.283C268.997 223.137 268.854 222.929 268.669 222.675C268.3 222.168 267.763 221.476 267.084 220.725C265.733 219.23 263.787 217.468 261.444 216.487L261.444 216.487C259.595 215.713 257.994 215.244 256.634 215.103C255.273 214.962 254.115 215.146 253.194 215.723C252.015 216.447 251.105 217.877 250.437 219.789C249.763 221.717 249.309 224.207 249.094 227.155L249.093 227.171L249.093 227.186L248.986 236.301L248.986 236.308L248.986 236.316L249.093 242.153L249.093 242.171L249.095 242.189C249.169 243.012 249.495 245.309 250.967 247.376C252.462 249.474 255.102 251.278 259.667 251.132L261.722 251.105L274.474 234.159ZM269.244 223.508L269.243 223.507C269.247 223.512 269.248 223.514 269.244 223.508Z" fill="#F9A737" stroke="black"/>
<path d="M310.189 261.549C311.26 261.079 313.399 260.594 316.206 260.16C319.091 259.715 322.74 259.317 326.796 259.053M310.189 261.549L329.993 255.933M310.189 261.549L310.188 261.545C310.004 261.613 309.829 261.68 309.659 261.745C308.904 262.032 308.273 262.272 307.683 262.362C307.014 262.464 306.457 262.359 305.91 261.852L305.907 261.85C304.736 260.781 304.621 259.005 305.656 257.83C306.507 256.871 307.65 256.287 309.19 255.835C310.414 255.476 311.845 255.211 313.536 254.899C313.992 254.814 314.466 254.727 314.961 254.633L315.369 254.555L315.367 254.139L315.249 228.195L315.247 227.607L314.667 227.704L294.687 231.053L294.27 231.123L294.269 231.545L294.233 248.904L294.232 249.397L294.725 249.405L300.56 249.499L300.563 249.499C302.145 249.517 303.419 250.83 303.396 252.443C303.382 253.213 303.066 253.946 302.516 254.482C301.967 255.017 301.229 255.312 300.464 255.302C300.464 255.302 300.463 255.302 300.463 255.302L282.166 254.993C280.573 254.966 279.306 253.651 279.324 252.061C279.354 250.438 280.673 249.164 282.257 249.191C282.257 249.191 282.257 249.191 282.257 249.191L287.955 249.29L288.463 249.299L288.464 248.791L288.544 203.518L288.545 203.017H288.044H282.445C280.855 203.017 279.562 201.718 279.562 200.106C279.562 198.504 280.854 197.204 282.445 197.204H300.234C301.832 197.204 303.131 198.506 303.131 200.106C303.131 201.716 301.831 203.017 300.234 203.017H294.819H294.32L294.319 203.516L294.283 224.654L294.282 225.246L294.866 225.148L314.79 221.803L315.21 221.732L315.207 221.307L315.066 197.731L315.063 197.225L314.557 197.234L308.926 197.337L308.925 197.337C307.342 197.368 306.021 196.088 306.001 194.486L306.001 194.484C305.973 192.879 307.238 191.566 308.838 191.53C308.838 191.53 308.839 191.53 308.839 191.53L326.466 191.23L310.189 261.549ZM326.796 259.053L326.828 259.552L326.795 259.053C326.796 259.053 326.796 259.053 326.796 259.053ZM326.796 259.053C328.386 258.948 329.595 257.571 329.489 255.967L329.477 255.784M329.477 255.784C329.484 255.844 329.49 255.904 329.494 255.965L329.988 255.933L329.993 255.933M329.477 255.784L329.462 255.551L329.866 255.449L329.871 255.448L329.993 255.933M329.477 255.784C329.287 254.276 327.955 253.156 326.429 253.259M329.993 255.933C329.873 254.062 328.261 252.634 326.396 252.76M326.429 253.259C326.429 253.259 326.429 253.259 326.43 253.259L326.396 252.76M326.429 253.259C325.173 253.344 323.524 253.469 321.69 253.666L321.139 253.726L321.136 253.172L320.85 197.623L320.848 197.127L321.343 197.12L326.558 197.046L326.396 252.76M326.429 253.259L326.396 252.76M329.398 194.087C329.422 195.692 328.142 197.019 326.558 197.046L326.467 191.23L326.467 191.23C328.058 191.207 329.375 192.487 329.398 194.087Z" fill="#F9A737" stroke="black"/>
<path d="M198.537 230.444L198.537 230.445C198.062 230.615 197.349 230.938 196.355 231.396C196.225 231.456 196.091 231.518 195.953 231.582C195.038 232.005 193.929 232.517 192.618 233.096L192.145 233.305L191.952 232.826L187.599 222.029L187.597 222.026L174.864 191.106L174.859 191.095L174.86 191.095C174.818 190.987 174.64 190.676 174.413 190.324C174.187 189.974 173.979 189.683 173.905 189.605L173.904 189.604C173.259 188.913 172.328 188.578 171.412 188.706L171.411 188.706L156.894 190.71L198.537 230.444ZM198.537 230.444C199.257 230.188 200.048 230.228 200.738 230.555C201.43 230.882 201.964 231.472 202.225 232.195C202.761 233.703 201.983 235.364 200.486 235.913C200.485 235.913 200.485 235.913 200.484 235.913L200.656 236.383M198.537 230.444L186.331 235.676C183.778 237.144 182.183 238.071 180.989 239.681C179.873 241.197 180.193 243.323 181.699 244.439C183.19 245.564 185.319 245.247 186.439 243.737C187.944 241.698 194.342 238.654 200.656 236.383M200.656 236.383C202.413 235.739 203.325 233.793 202.696 232.027L200.656 236.383ZM181.391 239.978C182.512 238.468 184.006 237.589 186.58 236.11L186.957 235.893L186.795 235.49L183.442 227.162L183.292 226.79L182.896 226.855L167.232 229.463L166.873 229.522L166.819 229.882L166.044 235.068L165.959 235.642H166.539C167.621 235.642 168.35 236.017 168.807 236.552C169.272 237.096 169.499 237.859 169.462 238.703C169.381 240.298 168.028 241.533 166.438 241.464C166.438 241.464 166.438 241.464 166.438 241.464L149.58 240.661L149.579 240.661C147.984 240.586 146.749 239.235 146.818 237.638C146.891 236.032 148.249 234.8 149.84 234.869C149.84 234.869 149.84 234.869 149.841 234.869L159.664 235.348L160.094 235.369L160.179 234.946L168.002 195.688L168.14 194.997L167.442 195.095L157.664 196.468C156.079 196.671 154.631 195.567 154.419 193.975C154.214 192.387 155.316 190.93 156.893 190.71L181.391 239.978ZM168.268 224.392L168.146 224.992H168.758H168.759H168.8L168.841 224.985L180.444 223.052L181.058 222.95L180.826 222.372L173.376 203.885L172.754 202.341L172.422 203.972L168.268 224.392Z" fill="#F9A737" stroke="black"/>
<path d="M238.819 196.219L239.095 196.202C239.932 196.15 240.762 196.458 241.343 197.054L241.346 197.056C241.938 197.655 242.235 198.479 242.173 199.334C241.988 201.783 241.879 204.916 241.816 207.438C241.785 208.701 241.765 209.813 241.754 210.613C241.748 211.013 241.744 211.335 241.742 211.559C241.74 211.761 241.738 211.915 241.74 211.949L238.819 196.219ZM238.819 196.219C237.039 196.349 227.965 196.95 217.959 197.143L217.958 197.143L196.343 197.505L196.338 197.506L196.338 197.505C195.502 197.512 194.716 197.879 194.179 198.526L194.175 198.532L194.175 198.532C193.634 199.166 193.387 200.005 193.512 200.827C193.512 200.828 193.512 200.828 193.512 200.828L196.101 217.568L196.102 217.569C196.342 219.157 197.81 220.243 199.384 220.01C200.809 219.795 201.832 218.57 201.843 217.164C201.843 217.163 201.843 217.163 201.843 217.163C201.841 217.146 201.837 217.12 201.833 217.085C201.823 217.015 201.808 216.914 201.789 216.785C201.75 216.528 201.695 216.163 201.626 215.714C201.515 214.995 201.37 214.062 201.207 213.014C201.167 212.753 201.125 212.485 201.083 212.211C200.656 209.466 200.144 206.155 199.799 203.82L199.716 203.257L200.285 203.247L214.623 203.001L215.131 202.993L215.132 203.5L215.22 247.939L215.22 248.433L214.726 248.44L207.611 248.532C207.611 248.532 207.61 248.532 207.61 248.532C206.019 248.56 204.743 249.879 204.767 251.472C204.799 253.088 206.107 254.363 207.689 254.344L207.69 254.344M238.819 196.219L207.696 254.844L207.69 254.344M207.69 254.344L228.32 254.034L228.323 254.034C229.908 254.019 231.189 252.693 231.169 251.093M207.69 254.344L231.169 251.093M231.169 251.093C231.144 249.485 229.832 248.215 228.239 248.227C228.238 248.227 228.238 248.227 228.237 248.227L221.504 248.33L220.997 248.338L220.996 247.831L220.908 203.371L220.908 202.883L221.395 202.87C227.102 202.71 232.005 202.44 235.418 202.251L235.627 202.24L236.188 202.209L236.154 202.77C235.982 205.594 235.898 207.714 235.898 209.249C235.898 211.055 235.995 212.101 236.12 212.747C236.239 213.362 236.382 213.613 236.511 213.839L236.515 213.847L236.519 213.854L236.519 213.854C237.231 215.154 238.751 215.54 240.172 214.865L240.175 214.863C241.208 214.381 241.81 213.183 241.74 211.95L231.169 251.093Z" fill="#F9A737" stroke="black"/>
<path d="M89.7478 217.193C88.557 216.315 87.2311 215.515 85.7734 214.911C83.6387 214.016 77.138 211.302 71.8293 214.588L89.7478 217.193ZM89.7478 217.193V217.572H90.2478L90.555 217.178C90.4537 217.099 90.3513 217.02 90.2478 216.942V211.526C90.2471 211.078 90.3343 210.635 90.5044 210.222C90.6745 209.809 90.9241 209.433 91.239 209.117C91.5539 208.8 91.9278 208.549 92.3393 208.378C92.7509 208.207 93.192 208.12 93.6373 208.12C95.5022 208.12 97.0222 209.645 97.0222 211.526V226.256C97.0222 227.784 96.0129 229.114 94.5527 229.525L89.7478 217.193ZM96.3803 237.727L96.5541 237.723C98.0575 237.786 99.283 239.032 99.3076 240.582L99.3078 240.591L99.3083 240.6L99.4085 242.524C99.4083 242.531 99.4081 242.54 99.4077 242.554C99.407 242.581 99.4058 242.624 99.4041 242.683L99.3911 243.132C99.3803 243.502 99.3657 243.992 99.3505 244.484C99.3353 244.977 99.3195 245.471 99.3064 245.851C99.2998 246.04 99.2939 246.2 99.2891 246.316C99.2867 246.376 99.2847 246.417 99.2835 246.442C99.2818 246.476 99.2815 246.483 99.2829 246.473L99.2827 246.475C99.2294 246.85 99.057 248.013 98.7377 249.363C98.416 250.723 97.955 252.229 97.339 253.311L97.3386 253.312C96.4975 254.796 95.578 255.893 94.6092 256.997C93.3235 258.443 91.5906 259.345 89.9834 260.099L89.9818 260.1C87.8496 261.109 85.9864 261.127 83.6998 261.148L83.6827 261.148L83.6761 261.148L81.774 261.191L81.7703 261.191C75.5854 261.378 71.5611 259.05 69.0292 256.061C66.4801 253.05 65.4196 249.337 65.2482 246.757L65.2483 246.757L65.2475 246.748C65.2449 246.716 65.2438 246.685 65.2445 246.653L65.2447 246.643L65.2445 246.633L65.1208 240.631L65.2445 231.212H65.2446V231.206C65.2446 231.15 65.2447 231.102 65.2477 231.054C65.8515 222.613 68.1451 217.451 72.092 215.013L72.0925 215.013C74.6107 213.455 77.4298 213.307 79.9181 213.676C82.4068 214.046 84.5159 214.926 85.58 215.372L85.5822 215.373C87.196 216.041 88.6504 216.962 89.9406 217.967L90.7478 218.595V217.572L90.7478 211.526L90.7478 211.525C90.7472 211.143 90.8217 210.765 90.9668 210.412C91.112 210.059 91.3249 209.739 91.5934 209.469C91.8619 209.2 92.1806 208.986 92.5312 208.84C92.8818 208.694 93.2575 208.62 93.6368 208.62H93.6373C95.2236 208.62 96.5222 209.919 96.5222 211.526V226.256C96.5222 227.56 95.6612 228.694 94.4174 229.043L94.4139 229.044C93.1836 229.4 91.859 228.881 91.1746 227.787C91.1744 227.787 91.1742 227.787 91.174 227.786C91.1693 227.778 91.1645 227.77 91.1602 227.763C91.1513 227.748 91.1399 227.729 91.1265 227.708C91.0994 227.665 91.0611 227.605 91.012 227.531C90.9137 227.382 90.7707 227.173 90.5862 226.918C90.2174 226.41 89.6808 225.718 89.0014 224.967C87.6489 223.473 85.7015 221.714 83.359 220.729L83.3582 220.729C81.5102 219.956 79.9097 219.487 78.5499 219.346C77.1896 219.205 76.0323 219.388 75.1138 219.966C73.9336 220.69 73.0245 222.121 72.357 224.032C71.684 225.959 71.2305 228.449 71.0151 231.396L71.0138 231.415V231.433C71.0138 231.553 70.9856 233.8 70.9561 236.039C70.9414 237.156 70.9264 238.269 70.9144 239.11C70.9085 239.53 70.9033 239.883 70.8993 240.133C70.8971 240.27 70.8954 240.368 70.8942 240.431C70.8932 240.491 70.8927 240.518 70.893 240.514L70.8908 240.54L70.8914 240.566L71.0139 246.4L71.0143 246.417L71.0158 246.434C71.09 247.262 71.4148 249.558 72.8866 251.622C74.3813 253.719 77.0198 255.521 81.5857 255.381C81.5869 255.381 81.5881 255.381 81.5894 255.381L83.6469 255.348C83.6475 255.348 83.648 255.348 83.6486 255.348C85.5806 255.329 86.5356 255.317 87.5215 254.851C87.9094 254.673 88.4387 254.426 88.9404 254.143C89.4291 253.867 89.9465 253.528 90.2698 253.154C91.1945 252.11 91.7888 251.374 92.3206 250.434C92.5899 249.966 92.8397 249.142 93.0439 248.313C93.2536 247.462 93.4315 246.535 93.5404 245.819L93.545 245.789L93.5458 245.758C93.5761 244.692 93.6048 243.625 93.6321 242.559L93.6323 242.559V242.546C93.6323 242.458 93.6078 241.964 93.5853 241.518C93.5612 241.042 93.5396 240.626 93.5396 240.634C93.5396 239.055 94.7998 237.756 96.3803 237.727Z" fill="#F9A737" stroke="black"/>
</svg>
