<svg width="276" height="205" viewBox="0 0 276 205" fill="none" xmlns="http://www.w3.org/2000/svg">
<path d="M275.123 180.151H0V180.288H275.123V180.151Z" fill="#EBEBEB"/>
<path d="M247.556 189.004H229.332V189.142H247.556V189.004Z" fill="#EBEBEB"/>
<path d="M182.253 190.501H177.471V190.639H182.253V190.501Z" fill="#EBEBEB"/>
<path d="M228.782 183.898H218.223V184.036H228.782V183.898Z" fill="#EBEBEB"/>
<path d="M52.6309 184.822H28.8657V184.96H52.6309V184.822Z" fill="#EBEBEB"/>
<path d="M61.0168 184.822H57.5337V184.96H61.0168V184.822Z" fill="#EBEBEB"/>
<path d="M123.888 187.145H72.3408V187.282H123.888V187.145Z" fill="#EBEBEB"/>
<path d="M130.408 155.61H24.1613C23.329 155.608 22.5312 155.277 21.9432 154.688C21.3552 154.099 21.0249 153.3 21.0249 152.468V3.1144C21.0321 2.28684 21.3656 1.49556 21.9529 0.91243C22.5401 0.3293 23.3337 0.00141765 24.1613 0H130.408C131.242 0 132.041 0.331022 132.63 0.920244C133.219 1.50947 133.55 2.30862 133.55 3.14191V152.468C133.55 153.301 133.219 154.1 132.63 154.69C132.041 155.279 131.242 155.61 130.408 155.61V155.61ZM24.1613 0.11005C23.3655 0.111507 22.6027 0.428678 22.0405 0.991945C21.4782 1.55521 21.1625 2.31855 21.1625 3.1144V152.468C21.1625 153.264 21.4782 154.027 22.0405 154.59C22.6027 155.154 23.3655 155.471 24.1613 155.472H130.408C131.205 155.471 131.968 155.154 132.531 154.591C133.094 154.028 133.411 153.264 133.413 152.468V3.1144C133.411 2.31804 133.094 1.55472 132.531 0.991609C131.968 0.428499 131.205 0.111504 130.408 0.11005H24.1613Z" fill="#EBEBEB"/>
<path d="M249.433 155.61H143.18C142.347 155.608 141.549 155.277 140.96 154.688C140.371 154.099 140.04 153.301 140.038 152.468V3.1144C140.047 2.28634 140.381 1.49506 140.97 0.912085C141.558 0.329107 142.352 0.00140219 143.18 0H249.433C250.259 0.00286376 251.052 0.331386 251.638 0.914361C252.224 1.49734 252.556 2.28779 252.564 3.1144V152.468C252.564 153.299 252.234 154.097 251.647 154.686C251.06 155.275 250.264 155.607 249.433 155.61V155.61ZM143.18 0.11005C142.384 0.111504 141.62 0.428499 141.057 0.991609C140.494 1.55472 140.177 2.31804 140.176 3.1144V152.468C140.177 153.264 140.494 154.028 141.057 154.591C141.62 155.154 142.384 155.471 143.18 155.472H249.433C250.229 155.471 250.992 155.154 251.555 154.591C252.119 154.028 252.436 153.264 252.437 152.468V3.1144C252.436 2.31804 252.119 1.55472 251.555 0.991609C250.992 0.428499 250.229 0.111504 249.433 0.11005H143.18Z" fill="#EBEBEB"/>
<path d="M130.409 69.3916V79.054L135.361 79.5217C136.025 82.7059 137.285 85.7359 139.075 88.4522L135.878 92.3039L142.712 99.138L146.564 95.941C149.279 97.7289 152.307 98.9872 155.489 99.6497L155.957 104.602H165.68L166.147 99.6497C169.331 98.9872 172.361 97.7289 175.078 95.941L178.929 99.138L185.764 92.3039L182.567 88.4522C184.354 85.7356 185.613 82.7056 186.275 79.5217L191.255 79.054V69.3916L186.275 68.9184C185.617 65.7316 184.363 62.6978 182.578 59.9769L185.775 56.1252L178.94 49.2966L175.089 52.4935C172.376 50.7081 169.352 49.4482 166.175 48.7794L165.707 43.8271H156.012L155.544 48.7794C152.362 49.4462 149.334 50.7062 146.619 52.4935L142.767 49.2966L135.911 56.1252L139.108 59.9769C137.32 62.692 136.06 65.7199 135.394 68.9019L130.409 69.3916ZM160.826 61.1379C163.414 61.1379 165.944 61.9053 168.096 63.3431C170.248 64.7809 171.925 66.8245 172.915 69.2154C173.906 71.6064 174.165 74.2373 173.66 76.7755C173.155 79.3137 171.909 81.6452 170.079 83.4752C168.249 85.3051 165.917 86.5514 163.379 87.0562C160.841 87.5611 158.21 87.302 155.819 86.3116C153.428 85.3213 151.384 83.6442 149.947 81.4924C148.509 79.3406 147.741 76.8107 147.741 74.2228C147.741 72.5026 148.081 70.7993 148.74 69.2103C149.399 67.6214 150.364 66.1779 151.582 64.9626C152.799 63.7473 154.244 62.7839 155.834 62.1276C157.424 61.4713 159.128 61.135 160.848 61.1379H160.826Z" fill="#F0F0F0"/>
<path d="M114.099 112.641L116.851 114.941L121.764 110.027L119.464 107.276C120.761 105.32 121.675 103.136 122.155 100.838L125.732 100.503V93.542L122.155 93.2064C121.679 90.9184 120.773 88.7414 119.486 86.7905L121.786 84.0393L116.873 79.1256L114.121 81.4256C112.169 80.141 109.993 79.2356 107.706 78.7569L107.37 75.1803H100.404L100.068 78.7569C97.7801 79.239 95.6034 80.1481 93.6522 81.4366L90.901 79.1366L85.9873 84.0503L88.2873 86.8015C87.0004 88.7524 86.0949 90.9294 85.6186 93.2174L82.042 93.553V100.497L85.6186 100.833C86.0949 103.121 87.0004 105.298 88.2873 107.249L85.9873 110L90.901 114.914L93.6522 112.614C95.6042 113.898 97.7808 114.804 100.068 115.282L100.404 118.859H107.348L107.683 115.282C109.969 114.812 112.145 113.916 114.099 112.641V112.641ZM94.4776 97.0306C94.4776 95.1705 95.0292 93.3522 96.0628 91.8056C97.0963 90.2591 98.5653 89.0538 100.284 88.3422C102.003 87.6306 103.894 87.4447 105.718 87.808C107.542 88.1713 109.218 89.0674 110.533 90.3831C111.848 91.6988 112.743 93.3749 113.105 95.1994C113.467 97.0239 113.28 98.9149 112.568 100.633C111.855 102.351 110.649 103.82 109.102 104.852C107.555 105.885 105.736 106.435 103.876 106.434C102.641 106.434 101.419 106.191 100.278 105.718C99.1374 105.246 98.1011 104.553 97.2283 103.68C96.3555 102.806 95.6634 101.77 95.1914 100.629C94.7194 99.488 94.4768 98.2653 94.4776 97.0306Z" fill="#F5F5F5"/>
<path d="M144.963 159.682C147.686 159.115 150.278 158.038 152.6 156.507L155.902 159.258L161.773 153.398L159.021 150.096C160.553 147.774 161.63 145.182 162.196 142.459L166.455 142.063V133.809L162.196 133.407C161.633 130.676 160.555 128.077 159.021 125.748L161.773 122.446L155.907 116.597L152.606 119.348C150.282 117.82 147.691 116.743 144.968 116.174L144.566 111.92H136.313L135.911 116.157C133.188 116.726 130.597 117.803 128.274 119.332L124.972 116.581L119.123 122.43L121.874 125.731C120.345 128.055 119.268 130.646 118.699 133.369L114.44 133.77V142.024L118.699 142.42C119.267 145.143 120.344 147.735 121.874 150.058L119.123 153.359L124.972 159.203L128.274 156.452C130.592 158.002 133.184 159.099 135.911 159.682L136.313 163.941H144.566L144.963 159.682ZM129.237 137.919C129.238 135.706 129.895 133.543 131.125 131.703C132.356 129.863 134.104 128.429 136.149 127.583C138.195 126.737 140.445 126.516 142.615 126.949C144.786 127.381 146.78 128.447 148.344 130.013C149.909 131.578 150.975 133.573 151.406 135.743C151.837 137.914 151.615 140.164 150.768 142.209C149.921 144.254 148.486 146.001 146.646 147.231C144.806 148.461 142.642 149.117 140.429 149.117C138.958 149.117 137.503 148.827 136.144 148.264C134.786 147.702 133.552 146.877 132.513 145.837C131.473 144.797 130.649 143.563 130.087 142.204C129.525 140.846 129.236 139.39 129.237 137.919V137.919Z" fill="#FAFAFA"/>
<path d="M77.8397 59.6294L52.5269 56.171L49.0684 81.4838L74.3812 84.9422L77.8397 59.6294Z" fill="#F5F5F5"/>
<path d="M56.2503 63.1116L56.0269 64.7472L72.5077 66.9989L72.7312 65.3634L56.2503 63.1116Z" fill="#E0E0E0"/>
<path d="M55.5462 68.246L55.3228 69.8816L71.8036 72.1333L72.0271 70.4978L55.5462 68.246Z" fill="#E0E0E0"/>
<path d="M54.8255 73.5529L54.6021 75.1885L64.3063 76.5143L64.5298 74.8788L54.8255 73.5529Z" fill="#E0E0E0"/>
<path d="M219.56 31.5106L194.012 31.5997L194.101 57.1475L219.649 57.0584L219.56 31.5106Z" fill="#F0F0F0"/>
<path d="M215.313 37.8597L198.679 37.9207L198.685 39.5714L215.319 39.5104L215.313 37.8597Z" fill="#E0E0E0"/>
<path d="M215.337 43.0429L198.703 43.1039L198.709 44.7546L215.343 44.6936L215.337 43.0429Z" fill="#E0E0E0"/>
<path d="M208.512 48.4274L198.717 48.4633L198.723 50.114L208.518 50.0781L208.512 48.4274Z" fill="#E0E0E0"/>
<path d="M234.891 93.8169L209.546 97.0277L212.757 122.373L238.102 119.162L234.891 93.8169Z" fill="#F5F5F5"/>
<path d="M231.459 100.664L214.957 102.755L215.164 104.392L231.667 102.302L231.459 100.664Z" fill="#E0E0E0"/>
<path d="M232.111 105.802L215.609 107.893L215.817 109.53L232.319 107.44L232.111 105.802Z" fill="#E0E0E0"/>
<path d="M225.998 111.976L216.281 113.207L216.489 114.844L226.205 113.613L225.998 111.976Z" fill="#E0E0E0"/>
<path d="M98.9936 134.953L73.4458 135.043L73.535 160.59L99.0828 160.501L98.9936 134.953Z" fill="#F0F0F0"/>
<path d="M94.7759 141.324L78.1421 141.385L78.1481 143.035L94.782 142.974L94.7759 141.324Z" fill="#E0E0E0"/>
<path d="M94.7945 146.507L78.1606 146.568L78.1667 148.219L94.8005 148.158L94.7945 146.507Z" fill="#E0E0E0"/>
<path d="M87.975 151.891L78.1807 151.927L78.1867 153.578L87.981 153.542L87.975 151.891Z" fill="#E0E0E0"/>
<path d="M211.831 147.463L186.284 147.552L186.373 173.1L211.921 173.011L211.831 147.463Z" fill="#F0F0F0"/>
<path d="M207.61 153.813L190.977 153.874L190.983 155.525L207.616 155.464L207.61 153.813Z" fill="#E0E0E0"/>
<path d="M207.635 158.996L191.001 159.057L191.007 160.708L207.641 160.647L207.635 158.996Z" fill="#E0E0E0"/>
<path d="M200.809 164.381L191.015 164.417L191.021 166.067L200.816 166.032L200.809 164.381Z" fill="#E0E0E0"/>
<path d="M104.176 29.8417L79.2354 35.38L84.7736 60.3204L109.714 54.7822L104.176 29.8417Z" fill="#F0F0F0"/>
<path d="M101.383 36.9905L85.1445 40.5964L85.5024 42.2079L101.741 38.602L101.383 36.9905Z" fill="#E0E0E0"/>
<path d="M102.508 42.0522L86.27 45.6581L86.6279 47.2696L102.866 43.6637L102.508 42.0522Z" fill="#E0E0E0"/>
<path d="M96.9917 48.7634L87.4302 50.8866L87.788 52.4981L97.3495 50.3748L96.9917 48.7634Z" fill="#E0E0E0"/>
<path d="M54.6066 58.9314H54.1499L53.5171 56.0151H55.2339L54.6066 58.9314Z" fill="#E0E0E0"/>
<path d="M54.3753 58.2107C55.6577 58.2107 56.6973 57.3903 56.6973 56.3783C56.6973 55.3664 55.6577 54.546 54.3753 54.546C53.0928 54.546 52.0532 55.3664 52.0532 56.3783C52.0532 57.3903 53.0928 58.2107 54.3753 58.2107Z" fill="#E6E6E6"/>
<path d="M101.284 33.4715H100.827L100.2 30.5607H101.917L101.284 33.4715Z" fill="#E0E0E0"/>
<path d="M101.058 32.7562C102.343 32.7562 103.386 31.9358 103.386 30.9239C103.386 29.9119 102.343 29.0916 101.058 29.0916C99.7726 29.0916 98.7305 29.9119 98.7305 30.9239C98.7305 31.9358 99.7726 32.7562 101.058 32.7562Z" fill="#E6E6E6"/>
<path d="M206.42 34.2034H205.963L205.33 31.2926H207.047L206.42 34.2034Z" fill="#E0E0E0"/>
<path d="M206.188 33.488C207.471 33.488 208.51 32.6677 208.51 31.6557C208.51 30.6437 207.471 29.8234 206.188 29.8234C204.906 29.8234 203.866 30.6437 203.866 31.6557C203.866 32.6677 204.906 33.488 206.188 33.488Z" fill="#E6E6E6"/>
<path d="M232.534 97.4762H232.077L231.45 94.5654H233.167L232.534 97.4762Z" fill="#E0E0E0"/>
<path d="M232.309 96.761C233.591 96.761 234.631 95.9406 234.631 94.9286C234.631 93.9167 233.591 93.0963 232.309 93.0963C231.026 93.0963 229.987 93.9167 229.987 94.9286C229.987 95.9406 231.026 96.761 232.309 96.761Z" fill="#E6E6E6"/>
<path d="M199.514 150.366H199.052L198.424 147.45H200.141L199.514 150.366Z" fill="#E0E0E0"/>
<path d="M199.283 149.645C200.565 149.645 201.605 148.825 201.605 147.813C201.605 146.801 200.565 145.98 199.283 145.98C198.001 145.98 196.961 146.801 196.961 147.813C196.961 148.825 198.001 149.645 199.283 149.645Z" fill="#E6E6E6"/>
<path d="M85.5522 137.27H85.0955L84.4683 134.354H86.185L85.5522 137.27Z" fill="#E0E0E0"/>
<path d="M85.3269 136.549C86.6094 136.549 87.649 135.729 87.649 134.717C87.649 133.705 86.6094 132.885 85.3269 132.885C84.0445 132.885 83.0049 133.705 83.0049 134.717C83.0049 135.729 84.0445 136.549 85.3269 136.549Z" fill="#E6E6E6"/>
<path d="M137.561 205C196.483 205 244.249 202.211 244.249 198.771C244.249 195.331 196.483 192.542 137.561 192.542C78.6396 192.542 30.874 195.331 30.874 198.771C30.874 202.211 78.6396 205 137.561 205Z" fill="#F5F5F5"/>
<path d="M79.0537 106.66C79.0537 103.034 81.4363 100.057 84.3691 100.057C87.3019 100.057 89.6845 103.006 89.6845 106.66C89.6845 110.313 87.3019 113.23 84.3691 113.23C81.4363 113.23 79.0537 110.286 79.0537 106.66ZM80.1542 106.66C80.1542 109.675 82.0471 112.129 84.3691 112.129C86.6911 112.129 88.584 109.675 88.584 106.66C88.584 103.644 86.6966 101.157 84.3691 101.157C82.0416 101.157 80.1542 103.644 80.1542 106.66Z" fill="#263238"/>
<path d="M68.5938 106.66C68.5938 103.034 70.9763 100.057 73.9091 100.057C76.842 100.057 79.2245 103.006 79.2245 106.66C79.2245 110.313 76.842 113.23 73.9091 113.23C70.9763 113.23 68.5938 110.286 68.5938 106.66ZM69.6942 106.66C69.6942 109.675 71.5816 112.129 73.9091 112.129C76.2367 112.129 78.124 109.675 78.124 106.66C78.124 103.644 76.2312 101.157 73.9091 101.157C71.5871 101.157 69.6942 103.644 69.6942 106.66Z" fill="#263238"/>
<path d="M58.1279 106.66C58.1279 103.034 60.516 100.057 63.4488 100.057C66.3816 100.057 68.7642 103.006 68.7642 106.66C68.7642 110.313 66.3761 113.23 63.4488 113.23C60.5215 113.23 58.1279 110.286 58.1279 106.66ZM59.2284 106.66C59.2284 109.675 61.1213 112.129 63.4488 112.129C65.7764 112.129 67.6637 109.675 67.6637 106.66C67.6637 103.644 65.7709 101.157 63.4488 101.157C61.1268 101.157 59.2284 103.644 59.2284 106.66Z" fill="#263238"/>
<path d="M47.668 106.66C47.668 103.034 50.056 100.057 52.9889 100.057C55.9217 100.057 58.3042 103.006 58.3042 106.66C58.3042 110.313 55.9162 113.23 52.9889 113.23C50.0615 113.23 47.668 110.286 47.668 106.66ZM48.7685 106.66C48.7685 109.675 50.6613 112.129 52.9889 112.129C55.3164 112.129 57.2037 109.675 57.2037 106.66C57.2037 103.644 55.3109 101.157 52.9889 101.157C50.6668 101.157 48.7685 103.644 48.7685 106.66Z" fill="#263238"/>
<path d="M89.5142 106.66C89.5142 103.034 91.8967 100.057 94.8295 100.057C97.7624 100.057 100.15 103.006 100.15 106.66C100.15 110.313 97.7624 113.23 94.8295 113.23C91.8967 113.23 89.5142 110.286 89.5142 106.66ZM90.6147 106.66C90.6147 109.675 92.5075 112.129 94.8295 112.129C97.1516 112.129 99.0499 109.675 99.0499 106.66C99.0499 103.644 97.1571 101.157 94.8295 101.157C92.502 101.157 90.6147 103.644 90.6147 106.66Z" fill="#263238"/>
<path d="M40.751 197.423H106.274L106.274 106.786L40.751 106.786L40.751 197.423Z" fill="#263238"/>
<path opacity="0.7" d="M40.751 197.423H106.274L106.274 106.786L40.751 106.786L40.751 197.423Z" fill="white"/>
<path opacity="0.6" d="M46.6552 197.423H106.274L106.274 106.786L46.6552 106.786L46.6552 197.423Z" fill="white"/>
<path opacity="0.2" d="M42.7153 197.423L42.4402 112.718L42.165 197.423H42.7153Z" fill="#3A3A3A"/>
<path opacity="0.2" d="M45.456 197.423L45.1809 117.995L44.9058 197.423H45.456Z" fill="#3A3A3A"/>
<path opacity="0.2" d="M43.5352 106.852L43.8103 170.533L44.0854 106.852H43.5352Z" fill="#3A3A3A"/>
<path d="M96.414 111.095C96.4704 111.388 96.6091 111.659 96.814 111.877C97.0188 112.094 97.2813 112.249 97.5708 112.323C97.8603 112.396 98.1648 112.386 98.4487 112.293C98.7326 112.201 98.9843 112.029 99.1742 111.798C99.3641 111.568 99.4844 111.288 99.5211 110.991C99.5579 110.695 99.5094 110.394 99.3816 110.124C99.2537 109.854 99.0516 109.626 98.7989 109.467C98.5462 109.307 98.2534 109.223 97.9547 109.224C97.5038 109.271 97.0895 109.494 96.8013 109.844C96.5131 110.194 96.374 110.643 96.414 111.095V111.095Z" fill="#263238"/>
<path d="M98.0537 111.651C98.1323 111.65 98.2097 111.632 98.2809 111.599C98.3521 111.566 98.4154 111.518 98.4664 111.458C99.5751 110.107 100.171 108.408 100.15 106.66C100.15 103.034 97.7621 100.057 94.8293 100.057C92.6723 100.057 90.7409 101.653 89.9156 104.112C89.8925 104.181 89.8831 104.253 89.888 104.326C89.8929 104.398 89.912 104.469 89.9442 104.533C89.9764 104.598 90.021 104.656 90.0756 104.704C90.1302 104.751 90.1936 104.788 90.2622 104.811C90.3309 104.834 90.4034 104.844 90.4757 104.839C90.5479 104.834 90.6185 104.815 90.6834 104.782C90.7483 104.75 90.8062 104.706 90.8539 104.651C90.9015 104.596 90.9379 104.533 90.961 104.464C91.6323 102.456 93.162 101.163 94.8128 101.163C97.1403 101.163 99.0332 103.622 99.0332 106.665C99.0565 108.149 98.5557 109.592 97.619 110.743C97.5489 110.822 97.5034 110.921 97.488 111.026C97.4726 111.131 97.4879 111.238 97.5321 111.335C97.5763 111.431 97.6475 111.513 97.7372 111.57C97.8268 111.627 97.931 111.657 98.0372 111.656L98.0537 111.651Z" fill="#263238"/>
<g opacity="0.4">
<path opacity="0.4" d="M98.0537 111.651C98.1323 111.65 98.2097 111.632 98.2809 111.599C98.3521 111.566 98.4154 111.518 98.4664 111.458C99.5751 110.107 100.171 108.408 100.15 106.66C100.15 103.034 97.7621 100.057 94.8293 100.057C92.6723 100.057 90.7409 101.653 89.9156 104.112C89.8925 104.181 89.8831 104.253 89.888 104.326C89.8929 104.398 89.912 104.469 89.9442 104.533C89.9764 104.598 90.021 104.656 90.0756 104.704C90.1302 104.751 90.1936 104.788 90.2622 104.811C90.3309 104.834 90.4034 104.844 90.4757 104.839C90.5479 104.834 90.6185 104.815 90.6834 104.782C90.7483 104.75 90.8062 104.706 90.8539 104.651C90.9015 104.596 90.9379 104.533 90.961 104.464C91.6323 102.456 93.162 101.163 94.8128 101.163C97.1403 101.163 99.0332 103.622 99.0332 106.665C99.0565 108.149 98.5557 109.592 97.619 110.743C97.5489 110.822 97.5034 110.921 97.488 111.026C97.4726 111.131 97.4879 111.238 97.5321 111.335C97.5763 111.431 97.6475 111.513 97.7372 111.57C97.8268 111.627 97.931 111.657 98.0372 111.656L98.0537 111.651Z" fill="white"/>
</g>
<path d="M85.954 111.095C86.0114 111.386 86.1503 111.656 86.3548 111.871C86.5592 112.087 86.8207 112.24 87.1088 112.313C87.3968 112.385 87.6997 112.375 87.9819 112.282C88.2642 112.189 88.5144 112.018 88.7033 111.789C88.8922 111.56 89.012 111.281 89.0488 110.987C89.0857 110.692 89.038 110.393 88.9114 110.124C88.7847 109.855 88.5843 109.628 88.3335 109.468C88.0827 109.309 87.7918 109.224 87.4947 109.224C87.0438 109.271 86.6295 109.494 86.3413 109.844C86.0531 110.194 85.914 110.643 85.954 111.095V111.095Z" fill="#263238"/>
<path d="M87.5883 111.651C87.6677 111.651 87.7463 111.633 87.8185 111.6C87.8907 111.567 87.9548 111.518 88.0065 111.458C89.1136 110.106 89.7079 108.407 89.6847 106.66C89.6847 103.034 87.3021 100.057 84.3693 100.057C82.2069 100.057 80.281 101.653 79.4556 104.112C79.4089 104.251 79.4192 104.402 79.4842 104.533C79.5492 104.664 79.6636 104.764 79.8023 104.811C79.9409 104.858 80.0924 104.847 80.2235 104.782C80.3545 104.717 80.4544 104.603 80.5011 104.464C81.1724 102.456 82.7021 101.163 84.3528 101.163C86.6804 101.163 88.5677 103.622 88.5677 106.665C88.5931 108.148 88.0942 109.592 87.1591 110.743C87.0893 110.822 87.0439 110.92 87.0282 111.025C87.0126 111.129 87.0275 111.236 87.071 111.332C87.1146 111.429 87.1849 111.511 87.2737 111.568C87.3626 111.625 87.466 111.656 87.5718 111.656L87.5883 111.651Z" fill="#263238"/>
<g opacity="0.4">
<path opacity="0.4" d="M87.5883 111.651C87.6677 111.651 87.7463 111.633 87.8185 111.6C87.8907 111.567 87.9548 111.518 88.0065 111.458C89.1136 110.106 89.7079 108.407 89.6847 106.66C89.6847 103.034 87.3021 100.057 84.3693 100.057C82.2069 100.057 80.281 101.653 79.4556 104.112C79.4089 104.251 79.4192 104.402 79.4842 104.533C79.5492 104.664 79.6636 104.764 79.8023 104.811C79.9409 104.858 80.0924 104.847 80.2235 104.782C80.3545 104.717 80.4544 104.603 80.5011 104.464C81.1724 102.456 82.7021 101.163 84.3528 101.163C86.6804 101.163 88.5677 103.622 88.5677 106.665C88.5931 108.148 88.0942 109.592 87.1591 110.743C87.0893 110.822 87.0439 110.92 87.0282 111.025C87.0126 111.129 87.0275 111.236 87.071 111.332C87.1146 111.429 87.1849 111.511 87.2737 111.568C87.3626 111.625 87.466 111.656 87.5718 111.656L87.5883 111.651Z" fill="white"/>
</g>
<path d="M75.4882 111.095C75.5445 111.388 75.6831 111.659 75.8877 111.876C76.0923 112.094 76.3545 112.248 76.6437 112.322C76.9329 112.396 77.2371 112.386 77.521 112.294C77.8048 112.202 78.0565 112.03 78.2466 111.8C78.4368 111.57 78.5576 111.291 78.5949 110.995C78.6323 110.698 78.5846 110.398 78.4575 110.128C78.3304 109.858 78.1291 109.629 77.8772 109.469C77.6252 109.309 77.3329 109.224 77.0344 109.224C76.583 109.271 76.1683 109.494 75.8792 109.844C75.5901 110.193 75.4497 110.643 75.4882 111.095Z" fill="#263238"/>
<path d="M77.1279 111.651C77.2073 111.651 77.2859 111.633 77.3581 111.6C77.4303 111.567 77.4944 111.518 77.546 111.458C78.6433 110.102 79.2277 108.404 79.1968 106.66C79.1968 103.034 76.8142 100.057 73.8814 100.057C71.7189 100.057 69.7931 101.653 68.9677 104.112C68.9444 104.181 68.9349 104.253 68.9397 104.326C68.9445 104.398 68.9636 104.469 68.9958 104.534C69.028 104.599 69.0727 104.657 69.1274 104.704C69.1821 104.752 69.2456 104.788 69.3144 104.811C69.383 104.834 69.4556 104.844 69.5279 104.839C69.6002 104.834 69.6709 104.815 69.7358 104.783C69.8007 104.751 69.8587 104.706 69.9063 104.651C69.9539 104.597 69.9902 104.533 70.0132 104.464C70.6845 102.456 72.2142 101.163 73.8649 101.163C76.1869 101.163 78.0798 103.622 78.0798 106.665C78.106 108.149 77.6049 109.594 76.6657 110.743C76.5955 110.822 76.55 110.921 76.5346 111.026C76.5192 111.131 76.5345 111.238 76.5787 111.335C76.6229 111.431 76.6941 111.513 76.7838 111.57C76.8734 111.627 76.9776 111.657 77.0838 111.656L77.1279 111.651Z" fill="#263238"/>
<g opacity="0.4">
<path opacity="0.4" d="M77.1279 111.651C77.2073 111.651 77.2859 111.633 77.3581 111.6C77.4303 111.567 77.4944 111.518 77.546 111.458C78.6433 110.102 79.2277 108.404 79.1968 106.66C79.1968 103.034 76.8142 100.057 73.8814 100.057C71.7189 100.057 69.7931 101.653 68.9677 104.112C68.9444 104.181 68.9349 104.253 68.9397 104.326C68.9445 104.398 68.9636 104.469 68.9958 104.534C69.028 104.599 69.0727 104.657 69.1274 104.704C69.1821 104.752 69.2456 104.788 69.3144 104.811C69.383 104.834 69.4556 104.844 69.5279 104.839C69.6002 104.834 69.6709 104.815 69.7358 104.783C69.8007 104.751 69.8587 104.706 69.9063 104.651C69.9539 104.597 69.9902 104.533 70.0132 104.464C70.6845 102.456 72.2142 101.163 73.8649 101.163C76.1869 101.163 78.0798 103.622 78.0798 106.665C78.106 108.149 77.6049 109.594 76.6657 110.743C76.5955 110.822 76.55 110.921 76.5346 111.026C76.5192 111.131 76.5345 111.238 76.5787 111.335C76.6229 111.431 76.6941 111.513 76.7838 111.57C76.8734 111.627 76.9776 111.657 77.0838 111.656L77.1279 111.651Z" fill="white"/>
</g>
<path d="M65.0277 111.095C65.0841 111.388 65.2227 111.659 65.4273 111.876C65.6319 112.094 65.8941 112.248 66.1832 112.322C66.4724 112.396 66.7767 112.386 67.0605 112.294C67.3443 112.202 67.596 112.03 67.7862 111.8C67.9763 111.57 68.0971 111.291 68.1345 110.995C68.1718 110.698 68.1242 110.398 67.9971 110.128C67.87 109.858 67.6687 109.629 67.4167 109.469C67.1647 109.309 66.8724 109.224 66.5739 109.224C66.1226 109.271 65.7078 109.494 65.4187 109.844C65.1296 110.193 64.9892 110.643 65.0277 111.095V111.095Z" fill="#263238"/>
<path d="M66.6677 111.651C66.7472 111.651 66.8257 111.633 66.8979 111.6C66.9701 111.567 67.0342 111.518 67.0859 111.458C68.1831 110.102 68.7676 108.404 68.7366 106.66C68.7366 103.034 66.3486 100.057 63.4212 100.057C61.2588 100.057 59.3329 101.653 58.5075 104.112C58.4786 104.182 58.4642 104.257 58.4654 104.332C58.4666 104.407 58.4832 104.482 58.5143 104.55C58.5454 104.619 58.5903 104.681 58.6461 104.731C58.702 104.782 58.7677 104.821 58.8391 104.845C58.9105 104.869 58.9861 104.878 59.0613 104.872C59.1364 104.866 59.2094 104.844 59.2759 104.808C59.3423 104.773 59.4007 104.724 59.4474 104.665C59.4941 104.605 59.5282 104.537 59.5475 104.464C60.2188 102.456 61.7485 101.163 63.3992 101.163C65.7213 101.163 67.6141 103.622 67.6141 106.665C67.6374 108.149 67.1367 109.592 66.2 110.743C66.1299 110.822 66.0844 110.921 66.0689 111.026C66.0535 111.131 66.0688 111.238 66.113 111.335C66.1573 111.431 66.2285 111.513 66.3181 111.57C66.4077 111.627 66.512 111.657 66.6182 111.656L66.6677 111.651Z" fill="#263238"/>
<g opacity="0.4">
<path opacity="0.4" d="M66.6677 111.651C66.7472 111.651 66.8257 111.633 66.8979 111.6C66.9701 111.567 67.0342 111.518 67.0859 111.458C68.1831 110.102 68.7676 108.404 68.7366 106.66C68.7366 103.034 66.3486 100.057 63.4212 100.057C61.2588 100.057 59.3329 101.653 58.5075 104.112C58.4786 104.182 58.4642 104.257 58.4654 104.332C58.4666 104.407 58.4832 104.482 58.5143 104.55C58.5454 104.619 58.5903 104.681 58.6461 104.731C58.702 104.782 58.7677 104.821 58.8391 104.845C58.9105 104.869 58.9861 104.878 59.0613 104.872C59.1364 104.866 59.2094 104.844 59.2759 104.808C59.3423 104.773 59.4007 104.724 59.4474 104.665C59.4941 104.605 59.5282 104.537 59.5475 104.464C60.2188 102.456 61.7485 101.163 63.3992 101.163C65.7213 101.163 67.6141 103.622 67.6141 106.665C67.6374 108.149 67.1367 109.592 66.2 110.743C66.1299 110.822 66.0844 110.921 66.0689 111.026C66.0535 111.131 66.0688 111.238 66.113 111.335C66.1573 111.431 66.2285 111.513 66.3181 111.57C66.4077 111.627 66.512 111.657 66.6182 111.656L66.6677 111.651Z" fill="white"/>
</g>
<path d="M54.5679 111.095C54.5679 112.129 55.2612 112.966 56.1086 112.966C56.5446 112.883 56.9381 112.651 57.2213 112.31C57.5044 111.968 57.6594 111.539 57.6594 111.095C57.6594 110.651 57.5044 110.221 57.2213 109.88C56.9381 109.538 56.5446 109.306 56.1086 109.224C55.2612 109.224 54.5679 110.049 54.5679 111.095Z" fill="#263238"/>
<path d="M56.2072 111.651C56.2867 111.651 56.3653 111.633 56.4375 111.6C56.5096 111.567 56.5738 111.518 56.6254 111.458C57.7206 110.101 58.3048 108.403 58.2762 106.66C58.2762 103.034 55.8881 100.057 52.9608 100.057C50.7983 100.057 48.867 101.653 48.0471 104.112C48.0181 104.182 48.0038 104.257 48.0049 104.332C48.0061 104.407 48.0228 104.482 48.0538 104.55C48.0849 104.619 48.1298 104.681 48.1857 104.731C48.2416 104.782 48.3072 104.821 48.3786 104.845C48.4501 104.869 48.5257 104.878 48.6008 104.872C48.6759 104.866 48.749 104.844 48.8154 104.808C48.8818 104.773 48.9402 104.724 48.987 104.665C49.0337 104.605 49.0678 104.537 49.0871 104.464C49.7584 102.456 51.288 101.163 52.9388 101.163C55.2608 101.163 57.1537 103.622 57.1537 106.665C57.177 108.149 56.6762 109.592 55.7395 110.743C55.6914 110.797 55.6546 110.861 55.6313 110.93C55.608 110.999 55.5986 111.072 55.6037 111.145C55.6088 111.218 55.6283 111.288 55.6611 111.354C55.6939 111.419 55.7392 111.477 55.7946 111.524C55.8513 111.572 55.9171 111.608 55.988 111.629C56.0589 111.651 56.1335 111.658 56.2072 111.651Z" fill="#263238"/>
<g opacity="0.4">
<path opacity="0.4" d="M56.2072 111.651C56.2867 111.651 56.3653 111.633 56.4375 111.6C56.5096 111.567 56.5738 111.518 56.6254 111.458C57.7206 110.101 58.3048 108.403 58.2762 106.66C58.2762 103.034 55.8881 100.057 52.9608 100.057C50.7983 100.057 48.867 101.653 48.0471 104.112C48.0181 104.182 48.0038 104.257 48.0049 104.332C48.0061 104.407 48.0228 104.482 48.0538 104.55C48.0849 104.619 48.1298 104.681 48.1857 104.731C48.2416 104.782 48.3072 104.821 48.3786 104.845C48.4501 104.869 48.5257 104.878 48.6008 104.872C48.6759 104.866 48.749 104.844 48.8154 104.808C48.8818 104.773 48.9402 104.724 48.987 104.665C49.0337 104.605 49.0678 104.537 49.0871 104.464C49.7584 102.456 51.288 101.163 52.9388 101.163C55.2608 101.163 57.1537 103.622 57.1537 106.665C57.177 108.149 56.6762 109.592 55.7395 110.743C55.6914 110.797 55.6546 110.861 55.6313 110.93C55.608 110.999 55.5986 111.072 55.6037 111.145C55.6088 111.218 55.6283 111.288 55.6611 111.354C55.6939 111.419 55.7392 111.477 55.7946 111.524C55.8513 111.572 55.9171 111.608 55.988 111.629C56.0589 111.651 56.1335 111.658 56.2072 111.651Z" fill="white"/>
</g>
<path d="M63.8723 148.484H59.2612V156.347H63.8723V148.484Z" fill="#124B92"/>
<path d="M71.3396 142.762H66.7285V156.347H71.3396V142.762Z" fill="#124B92"/>
<path d="M78.8117 144.907H74.2007V156.347H78.8117V144.907Z" fill="#124B92"/>
<path d="M86.2839 139.185H81.6729V156.347H86.2839V139.185Z" fill="#124B92"/>
<path d="M93.7507 133.462H89.1396V156.347H93.7507V133.462Z" fill="#124B92"/>
<path opacity="0.5" d="M63.8723 148.484H59.2612V156.347H63.8723V148.484Z" fill="white"/>
<path opacity="0.5" d="M71.3396 142.762H66.7285V156.347H71.3396V142.762Z" fill="white"/>
<path opacity="0.5" d="M78.8117 144.907H74.2007V156.347H78.8117V144.907Z" fill="white"/>
<path opacity="0.5" d="M86.2839 139.185H81.6729V156.347H86.2839V139.185Z" fill="white"/>
<path opacity="0.5" d="M93.7507 133.462H89.1396V156.347H93.7507V133.462Z" fill="white"/>
<path d="M99.9028 155.258H52.9282V157.437H99.9028V155.258Z" fill="#263238"/>
<path d="M54.9089 150.102L53.8965 148.825L68.9622 136.835L76.4181 141.16L96.5461 124.004L97.6026 125.242L76.5997 143.152L69.1108 138.805L54.9089 150.102Z" fill="#124B92"/>
<path d="M98.2737 123.613L95.2144 124.086L97.3713 126.386L98.2737 123.613Z" fill="#124B92"/>
<g opacity="0.3">
<path opacity="0.3" d="M79.5653 164.524H52.9829C52.8369 164.524 52.697 164.466 52.5938 164.363C52.4906 164.259 52.4326 164.12 52.4326 163.974C52.4326 163.828 52.4906 163.688 52.5938 163.585C52.697 163.481 52.8369 163.423 52.9829 163.423H79.5653C79.7112 163.423 79.8512 163.481 79.9544 163.585C80.0576 163.688 80.1155 163.828 80.1155 163.974C80.1155 164.12 80.0576 164.259 79.9544 164.363C79.8512 164.466 79.7112 164.524 79.5653 164.524Z" fill="#3A3A3A"/>
</g>
<g opacity="0.3">
<path opacity="0.3" d="M100.101 169.427H56.7797C56.6338 169.427 56.4938 169.369 56.3907 169.265C56.2875 169.162 56.2295 169.022 56.2295 168.876C56.2295 168.73 56.2875 168.59 56.3907 168.487C56.4938 168.384 56.6338 168.326 56.7797 168.326H100.101C100.247 168.326 100.387 168.384 100.49 168.487C100.593 168.59 100.651 168.73 100.651 168.876C100.651 169.022 100.593 169.162 100.49 169.265C100.387 169.369 100.247 169.427 100.101 169.427V169.427Z" fill="#3A3A3A"/>
<path opacity="0.3" d="M100.145 172.183H52.9829C52.8369 172.183 52.697 172.125 52.5938 172.022C52.4906 171.919 52.4326 171.779 52.4326 171.633C52.4326 171.487 52.4906 171.347 52.5938 171.244C52.697 171.141 52.8369 171.083 52.9829 171.083H100.145C100.29 171.083 100.43 171.141 100.534 171.244C100.637 171.347 100.695 171.487 100.695 171.633C100.695 171.779 100.637 171.919 100.534 172.022C100.43 172.125 100.29 172.183 100.145 172.183Z" fill="#3A3A3A"/>
<path opacity="0.3" d="M100.222 174.94H53.0434C52.8975 174.94 52.7575 174.882 52.6543 174.779C52.5511 174.676 52.4932 174.536 52.4932 174.39C52.4932 174.244 52.5511 174.104 52.6543 174.001C52.7575 173.897 52.8975 173.839 53.0434 173.839H100.222C100.368 173.839 100.507 173.897 100.611 174.001C100.714 174.104 100.772 174.244 100.772 174.39C100.772 174.536 100.714 174.676 100.611 174.779C100.507 174.882 100.368 174.94 100.222 174.94Z" fill="#3A3A3A"/>
<path opacity="0.3" d="M92.5732 177.697H53.104C52.958 177.697 52.8181 177.639 52.7149 177.536C52.6117 177.432 52.5537 177.292 52.5537 177.147C52.5537 177.001 52.6117 176.861 52.7149 176.757C52.8181 176.654 52.958 176.596 53.104 176.596H92.5732C92.7191 176.596 92.8591 176.654 92.9623 176.757C93.0654 176.861 93.1234 177.001 93.1234 177.147C93.1234 177.292 93.0654 177.432 92.9623 177.536C92.8591 177.639 92.7191 177.697 92.5732 177.697Z" fill="#3A3A3A"/>
</g>
<g opacity="0.3">
<path opacity="0.3" d="M100.101 182.643H56.7797C56.6338 182.643 56.4938 182.585 56.3907 182.482C56.2875 182.379 56.2295 182.239 56.2295 182.093C56.2295 181.947 56.2875 181.807 56.3907 181.704C56.4938 181.601 56.6338 181.543 56.7797 181.543H100.101C100.247 181.543 100.387 181.601 100.49 181.704C100.593 181.807 100.651 181.947 100.651 182.093C100.651 182.239 100.593 182.379 100.49 182.482C100.387 182.585 100.247 182.643 100.101 182.643V182.643Z" fill="#3A3A3A"/>
<path opacity="0.3" d="M100.145 185.4H52.9829C52.8369 185.4 52.697 185.342 52.5938 185.239C52.4906 185.136 52.4326 184.996 52.4326 184.85C52.4326 184.704 52.4906 184.564 52.5938 184.461C52.697 184.358 52.8369 184.3 52.9829 184.3H100.145C100.29 184.3 100.43 184.358 100.534 184.461C100.637 184.564 100.695 184.704 100.695 184.85C100.695 184.996 100.637 185.136 100.534 185.239C100.43 185.342 100.29 185.4 100.145 185.4Z" fill="#3A3A3A"/>
<path opacity="0.3" d="M100.222 188.184H53.0434C52.8975 188.184 52.7575 188.126 52.6543 188.023C52.5511 187.92 52.4932 187.78 52.4932 187.634C52.4932 187.488 52.5511 187.348 52.6543 187.245C52.7575 187.142 52.8975 187.084 53.0434 187.084H100.222C100.368 187.084 100.507 187.142 100.611 187.245C100.714 187.348 100.772 187.488 100.772 187.634C100.772 187.78 100.714 187.92 100.611 188.023C100.507 188.126 100.368 188.184 100.222 188.184Z" fill="#3A3A3A"/>
<path opacity="0.3" d="M92.5732 190.936H53.104C52.958 190.936 52.8181 190.878 52.7149 190.775C52.6117 190.671 52.5537 190.531 52.5537 190.385C52.5537 190.24 52.6117 190.1 52.7149 189.996C52.8181 189.893 52.958 189.835 53.104 189.835H92.5732C92.7191 189.835 92.8591 189.893 92.9623 189.996C93.0654 190.1 93.1234 190.24 93.1234 190.385C93.1234 190.531 93.0654 190.671 92.9623 190.775C92.8591 190.878 92.7191 190.936 92.5732 190.936Z" fill="#3A3A3A"/>
</g>
<g opacity="0.3">
<path opacity="0.3" d="M79.5653 118.809H52.9829C52.8369 118.809 52.697 118.751 52.5938 118.648C52.4906 118.545 52.4326 118.405 52.4326 118.259C52.4326 118.113 52.4906 117.973 52.5938 117.87C52.697 117.767 52.8369 117.709 52.9829 117.709H79.5653C79.7112 117.709 79.8512 117.767 79.9544 117.87C80.0576 117.973 80.1155 118.113 80.1155 118.259C80.1155 118.405 80.0576 118.545 79.9544 118.648C79.8512 118.751 79.7112 118.809 79.5653 118.809Z" fill="#3A3A3A"/>
</g>
<path d="M225.844 63.9607H162.659C161.607 63.9607 160.755 64.8131 160.755 65.8645V170.246C160.755 171.298 161.607 172.15 162.659 172.15H225.844C226.895 172.15 227.747 171.298 227.747 170.246V65.8645C227.747 64.8131 226.895 63.9607 225.844 63.9607Z" fill="#124B92"/>
<path d="M176.542 63.4435H211.967C212.06 63.4435 212.15 63.4806 212.216 63.5467C212.282 63.6127 212.319 63.7023 212.319 63.7957V67.3393H176.184V63.7957C176.184 63.749 176.193 63.7027 176.211 63.6596C176.229 63.6165 176.256 63.5775 176.289 63.5447C176.322 63.5119 176.362 63.4861 176.405 63.4687C176.449 63.4514 176.495 63.4428 176.542 63.4435V63.4435Z" fill="#263238"/>
<path opacity="0.9" d="M225.101 67.3392H163.407V168.755H225.101V67.3392Z" fill="white"/>
<path d="M206.343 72.0054H195.498L195.371 71.6257C195.294 71.3906 195.145 71.1858 194.945 71.0406C194.745 70.8954 194.504 70.8172 194.257 70.8172C194.009 70.8172 193.769 70.8954 193.568 71.0406C193.368 71.1858 193.219 71.3906 193.142 71.6257L193.016 72.0054H182.16C181.739 72.0054 181.335 71.8386 181.037 71.5416C180.739 71.2446 180.571 70.8415 180.569 70.4207V66.4259C180.572 66.0056 180.741 65.6033 181.039 65.3066C181.336 65.0099 181.739 64.8426 182.16 64.8412H206.37C206.79 64.8426 207.192 65.0101 207.489 65.3069C207.786 65.6038 207.954 66.0061 207.955 66.4259V70.4317C207.954 70.6412 207.911 70.8484 207.829 71.0412C207.747 71.234 207.627 71.4086 207.477 71.555C207.327 71.7013 207.15 71.8165 206.955 71.8938C206.761 71.9711 206.552 72.009 206.343 72.0054V72.0054ZM196.251 70.9049H206.343C206.407 70.9056 206.47 70.8936 206.529 70.8696C206.588 70.8455 206.642 70.8098 206.687 70.7647C206.732 70.7196 206.768 70.6659 206.792 70.6069C206.816 70.5478 206.828 70.4845 206.827 70.4207V66.4259C206.827 66.2975 206.776 66.1743 206.685 66.0835C206.594 65.9927 206.471 65.9417 206.343 65.9417H182.132C182.068 65.941 182.004 65.9529 181.945 65.977C181.886 66.001 181.832 66.0365 181.786 66.0815C181.741 66.1266 181.704 66.1802 181.68 66.2393C181.655 66.2984 181.642 66.3618 181.642 66.4259V70.4317C181.642 70.4958 181.655 70.5592 181.68 70.6183C181.704 70.6774 181.741 70.731 181.786 70.7761C181.832 70.8211 181.886 70.8566 181.945 70.8806C182.004 70.9047 182.068 70.9166 182.132 70.9159H192.257C192.451 70.555 192.74 70.2535 193.092 70.0433C193.444 69.8331 193.847 69.7222 194.257 69.7222C194.667 69.7222 195.069 69.8331 195.421 70.0433C195.774 70.2535 196.062 70.555 196.257 70.9159L196.251 70.9049Z" fill="#263238"/>
<g opacity="0.5">
<path opacity="0.5" d="M206.343 72.0054H195.498L195.371 71.6257C195.294 71.3906 195.145 71.1858 194.945 71.0406C194.745 70.8954 194.504 70.8172 194.257 70.8172C194.009 70.8172 193.769 70.8954 193.568 71.0406C193.368 71.1858 193.219 71.3906 193.142 71.6257L193.016 72.0054H182.16C181.739 72.0054 181.335 71.8386 181.037 71.5416C180.739 71.2446 180.571 70.8415 180.569 70.4207V66.4259C180.572 66.0056 180.741 65.6033 181.039 65.3066C181.336 65.0099 181.739 64.8426 182.16 64.8412H206.37C206.79 64.8426 207.192 65.0101 207.489 65.3069C207.786 65.6038 207.954 66.0061 207.955 66.4259V70.4317C207.954 70.6412 207.911 70.8484 207.829 71.0412C207.747 71.234 207.627 71.4086 207.477 71.555C207.327 71.7013 207.15 71.8165 206.955 71.8938C206.761 71.9711 206.552 72.009 206.343 72.0054V72.0054ZM196.251 70.9049H206.343C206.407 70.9056 206.47 70.8936 206.529 70.8696C206.588 70.8455 206.642 70.8098 206.687 70.7647C206.732 70.7196 206.768 70.6659 206.792 70.6069C206.816 70.5478 206.828 70.4845 206.827 70.4207V66.4259C206.827 66.2975 206.776 66.1743 206.685 66.0835C206.594 65.9927 206.471 65.9417 206.343 65.9417H182.132C182.068 65.941 182.004 65.9529 181.945 65.977C181.886 66.001 181.832 66.0365 181.786 66.0815C181.741 66.1266 181.704 66.1802 181.68 66.2393C181.655 66.2984 181.642 66.3618 181.642 66.4259V70.4317C181.642 70.4958 181.655 70.5592 181.68 70.6183C181.704 70.6774 181.741 70.731 181.786 70.7761C181.832 70.8211 181.886 70.8566 181.945 70.8806C182.004 70.9047 182.068 70.9166 182.132 70.9159H192.257C192.451 70.555 192.74 70.2535 193.092 70.0433C193.444 69.8331 193.847 69.7222 194.257 69.7222C194.667 69.7222 195.069 69.8331 195.421 70.0433C195.774 70.2535 196.062 70.555 196.257 70.9159L196.251 70.9049Z" fill="white"/>
</g>
<path d="M204.648 64.2029H183.86C183.559 64.2029 183.315 64.4468 183.315 64.7476V66.0517C183.315 66.3526 183.559 66.5965 183.86 66.5965H204.648C204.949 66.5965 205.193 66.3526 205.193 66.0517V64.7476C205.193 64.4468 204.949 64.2029 204.648 64.2029Z" fill="#263238"/>
<path opacity="0.2" d="M204.648 64.2029H183.86C183.559 64.2029 183.315 64.4468 183.315 64.7476V66.0517C183.315 66.3526 183.559 66.5965 183.86 66.5965H204.648C204.949 66.5965 205.193 66.3526 205.193 66.0517V64.7476C205.193 64.4468 204.949 64.2029 204.648 64.2029Z" fill="white"/>
<path d="M220.276 152.301C221.761 146.007 217.863 139.701 211.57 138.215C205.276 136.73 198.969 140.628 197.484 146.921C195.998 153.215 199.896 159.522 206.19 161.007C212.484 162.493 218.79 158.595 220.276 152.301Z" fill="#124B92"/>
<path opacity="0.3" d="M208.885 149.623H220.594C220.594 151.939 219.908 154.203 218.621 156.128C217.334 158.054 215.506 159.555 213.366 160.441C211.226 161.327 208.872 161.559 206.601 161.107C204.329 160.656 202.243 159.54 200.605 157.903C198.968 156.265 197.853 154.179 197.401 151.908C196.949 149.636 197.181 147.282 198.067 145.142C198.953 143.003 200.454 141.174 202.38 139.887C204.305 138.601 206.569 137.914 208.885 137.914H208.929L208.885 149.623Z" fill="white"/>
<path opacity="0.3" d="M208.885 149.623L215.202 159.478C213.67 160.461 211.931 161.073 210.122 161.266C208.313 161.459 206.483 161.228 204.779 160.591C203.074 159.954 201.542 158.929 200.303 157.596C199.064 156.264 198.153 154.661 197.641 152.915C197.13 151.169 197.032 149.327 197.356 147.537C197.68 145.747 198.417 144.056 199.509 142.6C200.6 141.144 202.016 139.963 203.643 139.149C205.271 138.336 207.065 137.913 208.885 137.914H208.923L208.885 149.623Z" fill="white"/>
<path opacity="0.3" d="M208.885 149.623L199.014 155.918C197.885 154.148 197.253 152.108 197.184 150.01C197.115 147.912 197.611 145.834 198.62 143.994C199.629 142.153 201.114 140.618 202.92 139.548C204.726 138.479 206.786 137.914 208.885 137.914H208.924L208.885 149.623Z" fill="white"/>
<g opacity="0.5">
<path opacity="0.5" d="M167.853 85.5029V113.136H220.677V85.5029H167.853ZM220.242 89.8169H211.102V85.9156H220.242V89.8169ZM191.051 89.8169H181.642V85.9156H191.051V89.8169ZM191.464 85.9156H200.868V89.8169H191.486L191.464 85.9156ZM191.051 90.2295V112.724H181.642V90.2406L191.051 90.2295ZM191.464 90.2295H200.868V112.724H191.486L191.464 90.2295ZM201.281 90.2295H210.69V112.724H201.281V90.2295ZM201.281 89.8169V85.9156H210.69V89.8169H201.281ZM181.23 85.9156V89.8169H168.266V85.9156H181.23ZM168.266 90.2406H181.23V112.735H168.266V90.2406ZM211.102 112.735V90.2406H220.242V112.735H211.102Z" fill="#3A3A3A"/>
<path opacity="0.5" d="M184.641 94.0923H188.449C188.595 94.0923 188.735 94.0343 188.838 93.9312C188.941 93.828 188.999 93.688 188.999 93.5421C188.999 93.3961 188.941 93.2562 188.838 93.153C188.735 93.0498 188.595 92.9918 188.449 92.9918H184.641C184.495 92.9918 184.355 93.0498 184.252 93.153C184.149 93.2562 184.091 93.3961 184.091 93.5421C184.091 93.688 184.149 93.828 184.252 93.9312C184.355 94.0343 184.495 94.0923 184.641 94.0923Z" fill="#3A3A3A"/>
<path opacity="0.5" d="M194.238 99.083H198.37C198.516 99.083 198.656 99.0251 198.759 98.9219C198.862 98.8187 198.92 98.6787 198.92 98.5328C198.92 98.3869 198.862 98.2469 198.759 98.1437C198.656 98.0405 198.516 97.9825 198.37 97.9825H194.238C194.092 97.9825 193.952 98.0405 193.849 98.1437C193.745 98.2469 193.688 98.3869 193.688 98.5328C193.688 98.6787 193.745 98.8187 193.849 98.9219C193.952 99.0251 194.092 99.083 194.238 99.083Z" fill="#3A3A3A"/>
<path opacity="0.5" d="M198.568 107.969H194.238C194.092 107.969 193.952 108.027 193.849 108.131C193.745 108.234 193.688 108.374 193.688 108.52C193.688 108.666 193.745 108.806 193.849 108.909C193.952 109.012 194.092 109.07 194.238 109.07H198.552C198.698 109.07 198.838 109.012 198.941 108.909C199.044 108.806 199.102 108.666 199.102 108.52C199.102 108.374 199.044 108.234 198.941 108.131C198.838 108.027 198.698 107.969 198.552 107.969H198.568Z" fill="#3A3A3A"/>
<path opacity="0.5" d="M208.142 102.973H203.592C203.446 102.973 203.306 103.031 203.203 103.134C203.099 103.238 203.042 103.378 203.042 103.524C203.042 103.669 203.099 103.809 203.203 103.913C203.306 104.016 203.446 104.074 203.592 104.074H208.153C208.299 104.074 208.439 104.016 208.542 103.913C208.646 103.809 208.704 103.669 208.704 103.524C208.704 103.378 208.646 103.238 208.542 103.134C208.439 103.031 208.299 102.973 208.153 102.973H208.142Z" fill="#3A3A3A"/>
<path opacity="0.5" d="M217.986 92.9918H213.364C213.218 92.9918 213.078 93.0498 212.975 93.153C212.872 93.2562 212.814 93.3961 212.814 93.5421C212.814 93.688 212.872 93.828 212.975 93.9312C213.078 94.0343 213.218 94.0923 213.364 94.0923H217.986C218.132 94.0923 218.272 94.0343 218.375 93.9312C218.479 93.828 218.537 93.688 218.537 93.5421C218.537 93.3961 218.479 93.2562 218.375 93.153C218.272 93.0498 218.132 92.9918 217.986 92.9918Z" fill="#3A3A3A"/>
<path opacity="0.5" d="M217.392 107.969H213.364C213.218 107.969 213.078 108.027 212.975 108.131C212.872 108.234 212.814 108.374 212.814 108.52C212.814 108.666 212.872 108.806 212.975 108.909C213.078 109.012 213.218 109.07 213.364 109.07H217.392C217.538 109.07 217.678 109.012 217.781 108.909C217.884 108.806 217.942 108.666 217.942 108.52C217.942 108.374 217.884 108.234 217.781 108.131C217.678 108.027 217.538 107.969 217.392 107.969Z" fill="#3A3A3A"/>
<path opacity="0.5" d="M184.641 104.074H187.904C188.05 104.074 188.19 104.016 188.293 103.913C188.396 103.809 188.454 103.669 188.454 103.524C188.454 103.378 188.396 103.238 188.293 103.134C188.19 103.031 188.05 102.973 187.904 102.973H184.641C184.495 102.973 184.355 103.031 184.252 103.134C184.149 103.238 184.091 103.378 184.091 103.524C184.091 103.669 184.149 103.809 184.252 103.913C184.355 104.016 184.495 104.074 184.641 104.074Z" fill="#3A3A3A"/>
<path opacity="0.5" d="M188.449 107.969H184.641C184.495 107.969 184.355 108.027 184.252 108.131C184.149 108.234 184.091 108.374 184.091 108.52C184.091 108.666 184.149 108.806 184.252 108.909C184.355 109.012 184.495 109.07 184.641 109.07H188.449C188.595 109.07 188.735 109.012 188.838 108.909C188.941 108.806 188.999 108.666 188.999 108.52C188.999 108.374 188.941 108.234 188.838 108.131C188.735 108.027 188.595 107.969 188.449 107.969Z" fill="#3A3A3A"/>
<path opacity="0.5" d="M170.252 94.0923H178.957C179.103 94.0923 179.243 94.0343 179.346 93.9312C179.449 93.828 179.507 93.688 179.507 93.5421C179.507 93.3961 179.449 93.2562 179.346 93.153C179.243 93.0498 179.103 92.9918 178.957 92.9918H170.252C170.106 92.9918 169.966 93.0498 169.863 93.153C169.76 93.2562 169.702 93.3961 169.702 93.5421C169.702 93.688 169.76 93.828 169.863 93.9312C169.966 94.0343 170.106 94.0923 170.252 94.0923Z" fill="#3A3A3A"/>
<path opacity="0.5" d="M170.252 99.083H176.046C176.192 99.083 176.332 99.0251 176.435 98.9219C176.538 98.8187 176.596 98.6787 176.596 98.5328C176.596 98.3869 176.538 98.2469 176.435 98.1437C176.332 98.0405 176.192 97.9825 176.046 97.9825H170.252C170.106 97.9825 169.966 98.0405 169.863 98.1437C169.76 98.2469 169.702 98.3869 169.702 98.5328C169.702 98.6787 169.76 98.8187 169.863 98.9219C169.966 99.0251 170.106 99.083 170.252 99.083Z" fill="#3A3A3A"/>
<path opacity="0.5" d="M178.957 102.973H170.252C170.106 102.973 169.966 103.031 169.863 103.134C169.76 103.238 169.702 103.378 169.702 103.524C169.702 103.669 169.76 103.809 169.863 103.913C169.966 104.016 170.106 104.074 170.252 104.074H178.957C179.103 104.074 179.243 104.016 179.346 103.913C179.449 103.809 179.507 103.669 179.507 103.524C179.507 103.378 179.449 103.238 179.346 103.134C179.243 103.031 179.103 102.973 178.957 102.973Z" fill="#3A3A3A"/>
<path opacity="0.5" d="M174.604 107.969H170.252C170.106 107.969 169.966 108.027 169.863 108.131C169.76 108.234 169.702 108.374 169.702 108.52C169.702 108.666 169.76 108.806 169.863 108.909C169.966 109.012 170.106 109.07 170.252 109.07H174.604C174.75 109.07 174.89 109.012 174.993 108.909C175.097 108.806 175.155 108.666 175.155 108.52C175.155 108.374 175.097 108.234 174.993 108.131C174.89 108.027 174.75 107.969 174.604 107.969Z" fill="#3A3A3A"/>
</g>
<g opacity="0.5">
<path opacity="0.5" d="M189.005 79.7088H168.403C168.257 79.7088 168.117 79.6508 168.014 79.5476C167.911 79.4444 167.853 79.3045 167.853 79.1585C167.853 79.0126 167.911 78.8726 168.014 78.7694C168.117 78.6662 168.257 78.6083 168.403 78.6083H189.005C189.15 78.6083 189.29 78.6662 189.394 78.7694C189.497 78.8726 189.555 79.0126 189.555 79.1585C189.555 79.3045 189.497 79.4444 189.394 79.5476C189.29 79.6508 189.15 79.7088 189.005 79.7088Z" fill="#3A3A3A"/>
</g>
<g opacity="0.5">
<path opacity="0.5" d="M181.78 82.7957H168.403C168.257 82.7957 168.117 82.7377 168.014 82.6345C167.911 82.5313 167.853 82.3914 167.853 82.2454C167.853 82.0995 167.911 81.9595 168.014 81.8564C168.117 81.7532 168.257 81.6952 168.403 81.6952H181.78C181.926 81.6952 182.066 81.7532 182.169 81.8564C182.272 81.9595 182.33 82.0995 182.33 82.2454C182.33 82.3914 182.272 82.5313 182.169 82.6345C182.066 82.7377 181.926 82.7957 181.78 82.7957Z" fill="#3A3A3A"/>
</g>
<g opacity="0.5">
<path opacity="0.5" d="M194.986 117.907H168.403C168.257 117.907 168.117 117.849 168.014 117.746C167.911 117.643 167.853 117.503 167.853 117.357C167.853 117.211 167.911 117.071 168.014 116.968C168.117 116.864 168.257 116.806 168.403 116.806H194.986C195.132 116.806 195.272 116.864 195.375 116.968C195.478 117.071 195.536 117.211 195.536 117.357C195.536 117.503 195.478 117.643 195.375 117.746C195.272 117.849 195.132 117.907 194.986 117.907Z" fill="#3A3A3A"/>
</g>
<path d="M171.138 139.719H167.853V143.004H171.138V139.719Z" fill="#124B92"/>
<g opacity="0.5">
<path opacity="0.5" d="M189.836 141.914H173.526C173.38 141.914 173.24 141.856 173.137 141.753C173.034 141.65 172.976 141.51 172.976 141.364C172.976 141.218 173.034 141.078 173.137 140.975C173.24 140.872 173.38 140.814 173.526 140.814H189.836C189.982 140.814 190.122 140.872 190.225 140.975C190.328 141.078 190.386 141.218 190.386 141.364C190.386 141.51 190.328 141.65 190.225 141.753C190.122 141.856 189.982 141.914 189.836 141.914Z" fill="#3A3A3A"/>
</g>
<path d="M171.138 145.227H167.853V148.512H171.138V145.227Z" fill="#124B92"/>
<g opacity="0.5">
<path opacity="0.5" d="M189.836 147.417H173.526C173.38 147.417 173.24 147.359 173.137 147.255C173.034 147.152 172.976 147.012 172.976 146.866C172.976 146.72 173.034 146.581 173.137 146.477C173.24 146.374 173.38 146.316 173.526 146.316H189.836C189.982 146.316 190.122 146.374 190.225 146.477C190.328 146.581 190.386 146.72 190.386 146.866C190.386 147.012 190.328 147.152 190.225 147.255C190.122 147.359 189.982 147.417 189.836 147.417Z" fill="#3A3A3A"/>
</g>
<path d="M171.138 150.729H167.853V154.014H171.138V150.729Z" fill="#124B92"/>
<g opacity="0.5">
<path opacity="0.5" d="M189.836 152.925H173.526C173.38 152.925 173.24 152.867 173.137 152.764C173.034 152.66 172.976 152.52 172.976 152.374C172.976 152.229 173.034 152.089 173.137 151.985C173.24 151.882 173.38 151.824 173.526 151.824H189.836C189.982 151.824 190.122 151.882 190.225 151.985C190.328 152.089 190.386 152.229 190.386 152.374C190.386 152.52 190.328 152.66 190.225 152.764C190.122 152.867 189.982 152.925 189.836 152.925Z" fill="#3A3A3A"/>
</g>
<path d="M171.138 156.237H167.853V159.522H171.138V156.237Z" fill="#124B92"/>
<g opacity="0.5">
<path opacity="0.5" d="M189.836 158.433H173.526C173.38 158.433 173.24 158.375 173.137 158.271C173.034 158.168 172.976 158.028 172.976 157.882C172.976 157.736 173.034 157.597 173.137 157.493C173.24 157.39 173.38 157.332 173.526 157.332H189.836C189.982 157.332 190.122 157.39 190.225 157.493C190.328 157.597 190.386 157.736 190.386 157.882C190.386 158.028 190.328 158.168 190.225 158.271C190.122 158.375 189.982 158.433 189.836 158.433Z" fill="#3A3A3A"/>
</g>
<g opacity="0.5">
<path opacity="0.5" d="M219.923 122.826H172.195C172.049 122.826 171.909 122.768 171.806 122.665C171.702 122.562 171.645 122.422 171.645 122.276C171.645 122.13 171.702 121.99 171.806 121.887C171.909 121.784 172.049 121.726 172.195 121.726H219.923C220.069 121.726 220.209 121.784 220.312 121.887C220.415 121.99 220.473 122.13 220.473 122.276C220.473 122.422 220.415 122.562 220.312 122.665C220.209 122.768 220.069 122.826 219.923 122.826Z" fill="#3A3A3A"/>
<path opacity="0.5" d="M219.983 125.583H168.403C168.257 125.583 168.117 125.525 168.014 125.422C167.911 125.319 167.853 125.179 167.853 125.033C167.853 124.887 167.911 124.747 168.014 124.644C168.117 124.54 168.257 124.482 168.403 124.482H219.983C220.129 124.482 220.269 124.54 220.373 124.644C220.476 124.747 220.534 124.887 220.534 125.033C220.534 125.179 220.476 125.319 220.373 125.422C220.269 125.525 220.129 125.583 219.983 125.583Z" fill="#3A3A3A"/>
<path opacity="0.5" d="M220.044 128.34H168.464C168.318 128.34 168.178 128.282 168.075 128.178C167.972 128.075 167.914 127.935 167.914 127.789C167.914 127.643 167.972 127.503 168.075 127.4C168.178 127.297 168.318 127.239 168.464 127.239H220.044C220.19 127.239 220.33 127.297 220.433 127.4C220.536 127.503 220.594 127.643 220.594 127.789C220.594 127.935 220.536 128.075 220.433 128.178C220.33 128.282 220.19 128.34 220.044 128.34Z" fill="#3A3A3A"/>
<path opacity="0.5" d="M212.396 131.096H168.524C168.378 131.096 168.238 131.038 168.135 130.935C168.032 130.832 167.974 130.692 167.974 130.546C167.974 130.4 168.032 130.26 168.135 130.157C168.238 130.054 168.378 129.996 168.524 129.996H212.396C212.541 129.996 212.681 130.054 212.785 130.157C212.888 130.26 212.946 130.4 212.946 130.546C212.946 130.692 212.888 130.832 212.785 130.935C212.681 131.038 212.541 131.096 212.396 131.096Z" fill="#3A3A3A"/>
</g>
<path opacity="0.3" d="M171.138 145.227H167.853V148.512H171.138V145.227Z" fill="white"/>
<path opacity="0.5" d="M171.138 150.729H167.853V154.014H171.138V150.729Z" fill="white"/>
<path opacity="0.7" d="M171.138 156.237H167.853V159.522H171.138V156.237Z" fill="white"/>
<path d="M224.176 186.121C224.176 186.121 221.563 180.42 224.55 174.797C227.538 169.173 228.402 167.853 226.498 166.703C224.594 165.553 223.72 171.198 223.72 171.198C222.778 168.644 222.681 165.855 223.444 163.242C224.765 159.175 225.596 152.55 223.791 151.841C221.986 151.131 223.444 160.094 221.871 163.165C221.073 161.016 220.557 158.772 220.336 156.49C220.121 153.227 220.457 148.011 219.031 146.674C217.606 145.337 216.687 146.261 218.091 153.469C218.934 157.777 219.4 162.149 219.483 166.538C219.483 166.538 216.385 157.079 214.299 156.804C212.214 156.529 212.219 159.594 214.002 162.251C215.785 164.909 219.224 169.663 219.785 172.112C219.785 172.112 216.379 164.997 213.32 167.159C210.26 169.322 215.983 173.641 218.536 175.193C221.089 176.745 222.85 186.501 222.85 186.501L224.176 186.121Z" fill="#124B92"/>
<path opacity="0.2" d="M224.176 186.121C224.176 186.121 221.563 180.42 224.55 174.797C227.538 169.173 228.402 167.853 226.498 166.703C224.594 165.553 223.72 171.198 223.72 171.198C222.778 168.644 222.681 165.855 223.444 163.242C224.765 159.175 225.596 152.55 223.791 151.841C221.986 151.131 223.444 160.094 221.871 163.165C221.073 161.016 220.557 158.772 220.336 156.49C220.121 153.227 220.457 148.011 219.031 146.674C217.606 145.337 216.687 146.261 218.091 153.469C218.934 157.777 219.4 162.149 219.483 166.538C219.483 166.538 216.385 157.079 214.299 156.804C212.214 156.529 212.219 159.594 214.002 162.251C215.785 164.909 219.224 169.663 219.785 172.112C219.785 172.112 216.379 164.997 213.32 167.159C210.26 169.322 215.983 173.641 218.536 175.193C221.089 176.745 222.85 186.501 222.85 186.501L224.176 186.121Z" fill="#3A3A3A"/>
<path d="M222.113 188.46C222.113 188.46 224.66 182.72 221.606 177.146C218.553 171.572 217.672 170.257 219.56 169.074C221.447 167.891 222.393 173.531 222.393 173.531C223.305 170.967 223.369 168.178 222.575 165.575C221.205 161.525 220.291 154.916 222.091 154.179C223.89 153.442 222.536 162.433 224.143 165.47C224.917 163.312 225.407 161.063 225.601 158.779C225.777 155.505 225.376 150.294 226.79 148.935C228.204 147.576 229.128 148.49 227.808 155.72C227.017 160.039 226.605 164.419 226.575 168.81C226.575 168.81 229.563 159.307 231.654 159.021C233.745 158.735 233.767 161.773 232.017 164.458C230.267 167.143 226.889 171.952 226.355 174.406C226.355 174.406 229.657 167.253 232.76 169.377C235.863 171.501 230.174 175.897 227.643 177.488C225.112 179.078 223.45 188.839 223.45 188.839L222.113 188.46Z" fill="#124B92"/>
<path d="M233.855 184.371H212.83L214.53 199.415H232.149L233.855 184.371Z" fill="#263238"/>
<path d="M106.891 55.3384H122.705C123.995 55.3384 125.233 55.8509 126.145 56.7631C127.057 57.6753 127.569 58.9125 127.569 60.2026V73.9587C127.569 75.2488 127.057 76.486 126.145 77.3982C125.233 78.3104 123.995 78.8229 122.705 78.8229H118.083L119.734 84.8206L114.782 78.8229H106.891C106.252 78.8236 105.619 78.6984 105.028 78.4542C104.437 78.2101 103.9 77.8519 103.448 77.4002C102.996 76.9484 102.637 76.412 102.392 75.8214C102.147 75.2309 102.021 74.598 102.021 73.9587V60.2026C102.021 59.5633 102.147 58.9304 102.392 58.3398C102.637 57.7493 102.996 57.2129 103.448 56.7611C103.9 56.3094 104.437 55.9512 105.028 55.7071C105.619 55.4629 106.252 55.3377 106.891 55.3384V55.3384Z" fill="#124B92"/>
<path opacity="0.7" d="M106.891 55.3384H122.705C123.995 55.3384 125.233 55.8509 126.145 56.7631C127.057 57.6753 127.569 58.9125 127.569 60.2026V73.9587C127.569 75.2488 127.057 76.486 126.145 77.3982C125.233 78.3104 123.995 78.8229 122.705 78.8229H118.083L119.734 84.8206L114.782 78.8229H106.891C106.252 78.8236 105.619 78.6984 105.028 78.4542C104.437 78.2101 103.9 77.8519 103.448 77.4002C102.996 76.9484 102.637 76.412 102.392 75.8214C102.147 75.2309 102.021 74.598 102.021 73.9587V60.2026C102.021 59.5633 102.147 58.9304 102.392 58.3398C102.637 57.7493 102.996 57.2129 103.448 56.7611C103.9 56.3094 104.437 55.9512 105.028 55.7071C105.619 55.4629 106.252 55.3377 106.891 55.3384V55.3384Z" fill="white"/>
<path opacity="0.7" d="M112.405 70.0795C115.125 70.0795 117.329 67.8747 117.329 65.1548C117.329 62.435 115.125 60.2301 112.405 60.2301C109.685 60.2301 107.48 62.435 107.48 65.1548C107.48 67.8747 109.685 70.0795 112.405 70.0795Z" fill="white"/>
<path d="M112.405 70.7893C111.101 70.7882 109.839 70.3354 108.832 69.5078C107.825 68.6803 107.136 67.5292 106.883 66.2508C106.629 64.9723 106.827 63.6455 107.441 62.4963C108.056 61.3472 109.051 60.4467 110.255 59.9484C111.459 59.4501 112.799 59.3846 114.046 59.7633C115.293 60.1419 116.371 60.9412 117.095 62.025C117.819 63.1088 118.145 64.41 118.017 65.7071C117.889 67.0042 117.316 68.2169 116.394 69.1386C115.871 69.663 115.249 70.0787 114.564 70.362C113.88 70.6453 113.146 70.7905 112.405 70.7893V70.7893ZM112.405 60.9454C111.431 60.9456 110.487 61.2834 109.735 61.9013C108.982 62.5192 108.467 63.379 108.277 64.3342C108.087 65.2894 108.234 66.2808 108.693 67.1396C109.153 67.9984 109.895 68.6714 110.795 69.044C111.695 69.4165 112.696 69.4656 113.628 69.1828C114.56 68.8999 115.365 68.3028 115.906 67.493C116.447 66.6831 116.69 65.7108 116.595 64.7417C116.499 63.7725 116.07 62.8665 115.382 62.178C114.992 61.7856 114.528 61.4746 114.017 61.2631C113.506 61.0515 112.958 60.9435 112.405 60.9454V60.9454Z" fill="#124B92"/>
<path d="M116.395 68.1316L115.384 69.1432L120.998 74.7577L122.01 73.746L116.395 68.1316Z" fill="#124B92"/>
<path d="M122.105 75.9341C121.821 75.9315 121.549 75.8191 121.346 75.6205L117.06 71.334C116.952 71.2364 116.866 71.1181 116.806 70.9863C116.746 70.8544 116.713 70.7117 116.71 70.5669C116.706 70.422 116.732 70.2779 116.786 70.1433C116.84 70.0087 116.92 69.8864 117.022 69.7838C117.125 69.6811 117.247 69.6003 117.381 69.5461C117.515 69.4918 117.659 69.4654 117.804 69.4684C117.949 69.4713 118.092 69.5036 118.224 69.5632C118.356 69.6229 118.475 69.7086 118.573 69.8154L122.865 74.1073C123.013 74.2576 123.114 74.4484 123.154 74.6558C123.195 74.8632 123.173 75.0779 123.092 75.273C123.011 75.4681 122.874 75.6349 122.698 75.7525C122.523 75.8701 122.317 75.9333 122.105 75.9341V75.9341Z" fill="#124B92"/>
<path d="M113.17 62.9263C113.17 63.144 113.105 63.3567 112.984 63.5377C112.863 63.7187 112.691 63.8597 112.49 63.943C112.289 64.0263 112.068 64.0481 111.855 64.0056C111.641 63.9632 111.445 63.8584 111.291 63.7045C111.137 63.5506 111.032 63.3545 110.99 63.141C110.947 62.9275 110.969 62.7062 111.053 62.5052C111.136 62.3041 111.277 62.1322 111.458 62.0113C111.639 61.8904 111.852 61.8258 112.069 61.8258C112.361 61.8258 112.641 61.9417 112.847 62.1481C113.054 62.3545 113.17 62.6344 113.17 62.9263Z" fill="white"/>
<path d="M114.804 63.7297C114.804 63.8385 114.771 63.9449 114.711 64.0354C114.65 64.1259 114.564 64.1964 114.464 64.238C114.363 64.2797 114.253 64.2906 114.146 64.2694C114.039 64.2481 113.941 64.1957 113.864 64.1188C113.787 64.0418 113.735 63.9438 113.714 63.837C113.692 63.7303 113.703 63.6197 113.745 63.5191C113.787 63.4186 113.857 63.3326 113.948 63.2722C114.038 63.2117 114.145 63.1794 114.253 63.1794C114.399 63.1794 114.539 63.2374 114.642 63.3406C114.746 63.4438 114.804 63.5838 114.804 63.7297Z" fill="white"/>
<path d="M158.901 156.523H76.9468V169.713H158.901V156.523Z" fill="#124B92"/>
<path opacity="0.8" d="M158.901 156.523H76.9468V169.713H158.901V156.523Z" fill="white"/>
<path opacity="0.2" d="M158.901 160.012V158.939L102.792 159.385L158.901 160.012Z" fill="#3A3A3A"/>
<path opacity="0.2" d="M158.901 164.634V163.803L133.71 164.705L158.901 164.634Z" fill="#3A3A3A"/>
<path opacity="0.2" d="M158.9 167.726V166.653L118.287 167.275L158.9 167.726Z" fill="#3A3A3A"/>
<path opacity="0.2" d="M95.2703 156.523L94.0928 166.356L95.4959 164.859C95.9675 166.655 96.8489 168.316 98.0711 169.713C98.9476 168.564 99.6452 167.29 100.14 165.932L138.415 165.492L100.503 164.661C100.621 164.119 100.682 163.566 100.685 163.011C100.683 162.551 100.639 162.092 100.553 161.641L156.711 161.497L100.421 161.057C100.223 160.316 99.9458 159.599 99.5952 158.917C100.405 158.203 101.449 157.811 102.528 157.816H158.901V156.523H95.2703Z" fill="#3A3A3A"/>
<path d="M96.5354 163.044C96.5397 164.625 97.1705 166.14 98.2895 167.257C99.4085 168.373 100.925 169.001 102.506 169.003H159.847C159.905 169.003 159.962 169.014 160.015 169.036C160.069 169.059 160.117 169.091 160.158 169.132C160.199 169.173 160.231 169.221 160.253 169.275C160.276 169.328 160.287 169.385 160.287 169.443V169.916C160.287 170.033 160.241 170.145 160.158 170.228C160.075 170.31 159.964 170.356 159.847 170.356H75.1418C74.1756 170.357 73.219 170.165 72.3271 169.794C71.4353 169.422 70.6258 168.878 69.9454 168.192C69.2651 167.506 68.7273 166.692 68.3631 165.797C67.9989 164.902 67.8155 163.944 67.8235 162.978C67.8711 161.025 68.6849 159.169 70.0892 157.811C71.4934 156.453 73.3755 155.702 75.3289 155.72H159.847C159.964 155.72 160.075 155.766 160.158 155.849C160.241 155.931 160.287 156.043 160.287 156.16V156.628C160.287 156.745 160.241 156.857 160.158 156.939C160.075 157.022 159.964 157.068 159.847 157.068H102.682C101.08 157.065 99.5402 157.688 98.3917 158.804C97.2433 159.921 96.577 161.442 96.5354 163.044V163.044Z" fill="#124B92"/>
<path opacity="0.4" d="M96.5354 163.044C96.5397 164.625 97.1705 166.14 98.2895 167.257C99.4085 168.373 100.925 169.001 102.506 169.003H159.847C159.905 169.003 159.962 169.014 160.015 169.036C160.069 169.059 160.117 169.091 160.158 169.132C160.199 169.173 160.231 169.221 160.253 169.275C160.276 169.328 160.287 169.385 160.287 169.443V169.916C160.287 170.033 160.241 170.145 160.158 170.228C160.075 170.31 159.964 170.356 159.847 170.356H75.1418C74.1756 170.357 73.219 170.165 72.3271 169.794C71.4353 169.422 70.6258 168.878 69.9454 168.192C69.2651 167.506 68.7273 166.692 68.3631 165.797C67.9989 164.902 67.8155 163.944 67.8235 162.978C67.8711 161.025 68.6849 159.169 70.0892 157.811C71.4934 156.453 73.3755 155.702 75.3289 155.72H159.847C159.964 155.72 160.075 155.766 160.158 155.849C160.241 155.931 160.287 156.043 160.287 156.16V156.628C160.287 156.745 160.241 156.857 160.158 156.939C160.075 157.022 159.964 157.068 159.847 157.068H102.682C101.08 157.065 99.5402 157.688 98.3917 158.804C97.2433 159.921 96.577 161.442 96.5354 163.044V163.044Z" fill="white"/>
<path d="M96.536 163.044C96.5403 164.625 97.1711 166.14 98.2901 167.257C99.4091 168.373 100.925 169.001 102.506 169.003H159.847C159.905 169.003 159.962 169.014 160.016 169.036C160.069 169.058 160.118 169.091 160.159 169.132C160.2 169.173 160.232 169.221 160.254 169.275C160.276 169.328 160.288 169.385 160.288 169.443V169.916C160.288 170.033 160.241 170.145 160.159 170.228C160.076 170.31 159.964 170.356 159.847 170.356H102.176C101.21 170.356 100.253 170.164 99.3614 169.792C98.4696 169.42 97.66 168.876 96.9794 168.19C96.2987 167.505 95.7604 166.691 95.3953 165.796C95.0303 164.902 94.8457 163.944 94.8522 162.978C94.9026 161.028 95.7158 159.175 97.1171 157.818C98.5183 156.461 100.396 155.708 102.347 155.72H159.847C159.964 155.72 160.076 155.766 160.159 155.849C160.241 155.931 160.288 156.043 160.288 156.16V156.628C160.288 156.745 160.241 156.857 160.159 156.939C160.076 157.022 159.964 157.068 159.847 157.068H102.682C101.08 157.065 99.5408 157.688 98.3923 158.804C97.2439 159.921 96.5776 161.442 96.536 163.044V163.044Z" fill="#124B92"/>
<path d="M107.332 159.489V164.777L109.246 162.862L111.101 164.716V159.489H107.332Z" fill="#263238"/>
<path opacity="0.6" d="M96.536 163.044C96.5403 164.625 97.1711 166.14 98.2901 167.257C99.4091 168.373 100.925 169.001 102.506 169.003H159.847C159.905 169.003 159.962 169.014 160.016 169.036C160.069 169.058 160.118 169.091 160.159 169.132C160.2 169.173 160.232 169.221 160.254 169.275C160.276 169.328 160.288 169.385 160.288 169.443V169.916C160.288 170.033 160.241 170.145 160.159 170.228C160.076 170.31 159.964 170.356 159.847 170.356H102.176C101.21 170.356 100.253 170.164 99.3614 169.792C98.4696 169.42 97.66 168.876 96.9794 168.19C96.2987 167.505 95.7604 166.691 95.3953 165.796C95.0303 164.902 94.8457 163.944 94.8522 162.978C94.9026 161.028 95.7158 159.175 97.1171 157.818C98.5183 156.461 100.396 155.708 102.347 155.72H159.847C159.964 155.72 160.076 155.766 160.159 155.849C160.241 155.931 160.288 156.043 160.288 156.16V156.628C160.288 156.745 160.241 156.857 160.159 156.939C160.076 157.022 159.964 157.068 159.847 157.068H102.682C101.08 157.065 99.5408 157.688 98.3923 158.804C97.2439 159.921 96.5776 161.442 96.536 163.044V163.044Z" fill="white"/>
<path d="M162.857 185.587H80.9033V198.777H162.857V185.587Z" fill="#124B92"/>
<path opacity="0.7" d="M162.857 185.587H80.9033V198.777H162.857V185.587Z" fill="white"/>
<path opacity="0.2" d="M162.857 189.07V187.997L106.748 188.449L162.857 189.07Z" fill="#3A3A3A"/>
<path opacity="0.2" d="M162.857 193.692V192.867L137.667 193.764L162.857 193.692Z" fill="#3A3A3A"/>
<path opacity="0.2" d="M162.857 196.785V195.717L122.243 196.334L162.857 196.785Z" fill="#3A3A3A"/>
<path opacity="0.2" d="M99.2266 185.587L98.0381 195.42L99.4412 193.924C99.9179 195.718 100.801 197.378 102.022 198.777C102.895 197.625 103.59 196.349 104.085 194.991L142.36 194.551L104.448 193.725C104.567 193.183 104.63 192.63 104.636 192.075C104.632 191.615 104.586 191.156 104.498 190.705L160.673 190.578L104.377 190.138C104.179 189.399 103.902 188.683 103.552 188.003C104.357 187.279 105.401 186.877 106.484 186.875H162.874V185.587H99.2266Z" fill="#3A3A3A"/>
<path d="M100.492 192.102C100.489 192.888 100.641 193.666 100.94 194.393C101.239 195.119 101.678 195.78 102.233 196.336C102.788 196.892 103.447 197.334 104.173 197.634C104.899 197.935 105.677 198.09 106.462 198.089H163.803C163.92 198.089 164.032 198.135 164.115 198.218C164.197 198.3 164.244 198.412 164.244 198.529V199.002C164.244 199.119 164.197 199.231 164.115 199.314C164.032 199.396 163.92 199.443 163.803 199.443H74.5919C73.6266 199.441 72.6711 199.249 71.7802 198.877C70.8894 198.506 70.0808 197.962 69.4008 197.276C68.7208 196.591 68.1828 195.779 67.8178 194.885C67.4527 193.991 67.2678 193.035 67.2736 192.069C67.3197 190.114 68.1335 188.255 69.539 186.895C70.9444 185.535 72.8287 184.783 74.7844 184.8H163.803C163.92 184.8 164.032 184.847 164.115 184.929C164.197 185.012 164.244 185.124 164.244 185.241V185.714C164.244 185.831 164.197 185.943 164.115 186.025C164.032 186.108 163.92 186.154 163.803 186.154H106.638C105.041 186.15 103.505 186.77 102.358 187.881C101.21 188.991 100.541 190.506 100.492 192.102Z" fill="#263238"/>
<path opacity="0.2" d="M100.492 192.102C100.489 192.888 100.641 193.666 100.94 194.393C101.239 195.119 101.678 195.78 102.233 196.336C102.788 196.892 103.447 197.334 104.173 197.634C104.899 197.935 105.677 198.09 106.462 198.089H163.803C163.92 198.089 164.032 198.135 164.115 198.218C164.197 198.3 164.244 198.412 164.244 198.529V199.002C164.244 199.119 164.197 199.231 164.115 199.314C164.032 199.396 163.92 199.443 163.803 199.443H74.5919C73.6266 199.441 72.6711 199.249 71.7802 198.877C70.8894 198.506 70.0808 197.962 69.4008 197.276C68.7208 196.591 68.1828 195.779 67.8178 194.885C67.4527 193.991 67.2678 193.035 67.2736 192.069C67.3197 190.114 68.1335 188.255 69.539 186.895C70.9444 185.535 72.8287 184.783 74.7844 184.8H163.803C163.92 184.8 164.032 184.847 164.115 184.929C164.197 185.012 164.244 185.124 164.244 185.241V185.714C164.244 185.831 164.197 185.943 164.115 186.025C164.032 186.108 163.92 186.154 163.803 186.154H106.638C105.041 186.15 103.505 186.77 102.358 187.881C101.21 188.991 100.541 190.506 100.492 192.102Z" fill="white"/>
<path d="M100.492 192.102C100.489 192.888 100.641 193.666 100.94 194.393C101.239 195.119 101.678 195.78 102.233 196.336C102.788 196.892 103.447 197.334 104.173 197.634C104.898 197.935 105.677 198.09 106.462 198.089H163.803C163.92 198.089 164.032 198.135 164.115 198.218C164.197 198.3 164.244 198.412 164.244 198.529V199.002C164.244 199.119 164.197 199.231 164.115 199.314C164.032 199.396 163.92 199.443 163.803 199.443H106.132C105.166 199.443 104.21 199.251 103.319 198.88C102.427 198.509 101.618 197.965 100.938 197.28C100.257 196.594 99.7194 195.781 99.3549 194.887C98.9904 193.992 98.8064 193.035 98.8137 192.069C98.8584 190.114 99.671 188.256 101.076 186.896C102.48 185.535 104.364 184.783 106.319 184.8H163.803C163.92 184.8 164.032 184.847 164.115 184.929C164.197 185.012 164.244 185.124 164.244 185.241V185.714C164.244 185.831 164.197 185.943 164.115 186.025C164.032 186.108 163.92 186.154 163.803 186.154H106.638C105.041 186.15 103.505 186.77 102.358 187.881C101.21 188.991 100.541 190.506 100.492 192.102Z" fill="#263238"/>
<path d="M106.748 190.429V195.717L108.657 193.802L110.512 195.657V190.429H106.748Z" fill="#124B92"/>
<path opacity="0.4" d="M100.492 192.102C100.489 192.888 100.641 193.666 100.94 194.393C101.239 195.119 101.678 195.78 102.233 196.336C102.788 196.892 103.447 197.334 104.173 197.634C104.898 197.935 105.677 198.09 106.462 198.089H163.803C163.92 198.089 164.032 198.135 164.115 198.218C164.197 198.3 164.244 198.412 164.244 198.529V199.002C164.244 199.119 164.197 199.231 164.115 199.314C164.032 199.396 163.92 199.443 163.803 199.443H106.132C105.166 199.443 104.21 199.251 103.319 198.88C102.427 198.509 101.618 197.965 100.938 197.28C100.257 196.594 99.7194 195.781 99.3549 194.887C98.9904 193.992 98.8064 193.035 98.8137 192.069C98.8584 190.114 99.671 188.256 101.076 186.896C102.48 185.535 104.364 184.783 106.319 184.8H163.803C163.92 184.8 164.032 184.847 164.115 184.929C164.197 185.012 164.244 185.124 164.244 185.241V185.714C164.244 185.831 164.197 185.943 164.115 186.025C164.032 186.108 163.92 186.154 163.803 186.154H106.638C105.041 186.15 103.505 186.77 102.358 187.881C101.21 188.991 100.541 190.506 100.492 192.102Z" fill="white"/>
<path d="M73.53 184.223H103.893V171.05H73.53V184.223Z" fill="#124B92"/>
<path opacity="0.8" d="M73.53 184.223H103.893V171.05H73.53V184.223Z" fill="white"/>
<path opacity="0.2" d="M101.46 172.343H73.5298V171.055H101.427L101.46 172.343Z" fill="#3A3A3A"/>
<path opacity="0.2" d="M101.46 173.465L76.2646 174.005L101.46 174.538V173.465Z" fill="#3A3A3A"/>
<path opacity="0.2" d="M101.46 178.335L74.7788 178.786L101.46 179.166V178.335Z" fill="#3A3A3A"/>
<path opacity="0.2" d="M101.46 181.185L75.0156 181.719L101.46 182.253V181.185Z" fill="#3A3A3A"/>
<path opacity="0.2" d="M73.5298 175.342L99.1108 176.112L73.5298 176.651V175.342Z" fill="#3A3A3A"/>
<path d="M141.298 177.57C141.295 179.152 140.665 180.668 139.546 181.787C138.427 182.905 136.91 183.533 135.328 183.535H72.1267C72.01 183.535 71.898 183.581 71.8155 183.664C71.7329 183.746 71.6865 183.858 71.6865 183.975V184.443C71.6865 184.56 71.7329 184.671 71.8155 184.754C71.898 184.837 72.01 184.883 72.1267 184.883H135.658C136.624 184.884 137.581 184.694 138.473 184.324C139.366 183.953 140.175 183.409 140.856 182.723C141.536 182.038 142.074 181.224 142.438 180.329C142.802 179.434 142.985 178.476 142.977 177.51C142.932 175.555 142.119 173.696 140.715 172.336C139.31 170.976 137.426 170.223 135.471 170.241H72.1267C72.01 170.241 71.898 170.287 71.8155 170.37C71.7329 170.452 71.6865 170.564 71.6865 170.681V171.154C71.6865 171.271 71.7329 171.383 71.8155 171.466C71.898 171.548 72.01 171.595 72.1267 171.595H135.152C136.754 171.591 138.293 172.214 139.442 173.331C140.59 174.447 141.257 175.969 141.298 177.57Z" fill="#263238"/>
<path opacity="0.4" d="M141.298 177.57C141.295 179.152 140.665 180.668 139.546 181.787C138.427 182.905 136.91 183.533 135.328 183.535H72.1267C72.01 183.535 71.898 183.581 71.8155 183.664C71.7329 183.746 71.6865 183.858 71.6865 183.975V184.443C71.6865 184.56 71.7329 184.671 71.8155 184.754C71.898 184.837 72.01 184.883 72.1267 184.883H135.658C136.624 184.884 137.581 184.694 138.473 184.324C139.366 183.953 140.175 183.409 140.856 182.723C141.536 182.038 142.074 181.224 142.438 180.329C142.802 179.434 142.985 178.476 142.977 177.51C142.932 175.555 142.119 173.696 140.715 172.336C139.31 170.976 137.426 170.223 135.471 170.241H72.1267C72.01 170.241 71.898 170.287 71.8155 170.37C71.7329 170.452 71.6865 170.564 71.6865 170.681V171.154C71.6865 171.271 71.7329 171.383 71.8155 171.466C71.898 171.548 72.01 171.595 72.1267 171.595H135.152C136.754 171.591 138.293 172.214 139.442 173.331C140.59 174.447 141.257 175.969 141.298 177.57Z" fill="white"/>
<path d="M164.348 177.647C164.348 179.398 163.653 181.078 162.414 182.316C161.176 183.555 159.496 184.25 157.745 184.25H101.46V171.044H157.751C159.501 171.046 161.179 171.742 162.416 172.98C163.653 174.218 164.348 175.897 164.348 177.647Z" fill="#124B92"/>
<path opacity="0.7" d="M101.46 171.055V184.261H157.756C159.507 184.261 161.187 183.566 162.425 182.327C163.664 181.089 164.359 179.409 164.359 177.658C164.359 175.907 163.664 174.228 162.425 172.989C161.187 171.751 159.507 171.055 157.756 171.055H101.46Z" fill="white"/>
<path opacity="0.2" d="M101.46 174.538V173.465L157.569 173.917L101.46 174.538Z" fill="#3A3A3A"/>
<path opacity="0.2" d="M101.46 179.166V178.335L126.651 179.237L101.46 179.166Z" fill="#3A3A3A"/>
<path opacity="0.2" d="M101.46 182.253V181.185L142.074 181.802L101.46 182.253Z" fill="#3A3A3A"/>
<path opacity="0.2" d="M157.844 172.343C158.927 172.345 159.972 172.747 160.777 173.471C160.426 174.153 160.148 174.871 159.946 175.611L103.656 176.052L159.82 176.189C159.732 176.642 159.686 177.103 159.682 177.565C159.683 178.12 159.748 178.674 159.875 179.215L121.957 180.041L160.227 180.486C160.558 181.4 160.984 182.276 161.498 183.1C162.65 182.299 163.516 181.151 163.972 179.823C164.428 178.496 164.448 177.058 164.031 175.718C163.614 174.378 162.781 173.206 161.653 172.371C160.524 171.537 159.16 171.084 157.756 171.077H101.46V172.365L157.844 172.343Z" fill="#3A3A3A"/>
<path d="M163.825 177.57C163.822 179.152 163.192 180.668 162.073 181.787C160.954 182.905 159.437 183.533 157.855 183.535H100.514C100.397 183.535 100.285 183.581 100.203 183.664C100.12 183.746 100.074 183.858 100.074 183.975V184.443C100.074 184.56 100.12 184.671 100.203 184.754C100.285 184.837 100.397 184.883 100.514 184.883H158.185C159.151 184.884 160.108 184.694 161 184.324C161.893 183.953 162.702 183.409 163.383 182.723C164.064 182.038 164.601 181.224 164.965 180.329C165.329 179.434 165.512 178.476 165.504 177.51C165.459 175.555 164.646 173.696 163.242 172.336C161.837 170.976 159.953 170.223 157.998 170.241H100.514C100.397 170.241 100.285 170.287 100.203 170.37C100.12 170.452 100.074 170.564 100.074 170.681V171.154C100.074 171.271 100.12 171.383 100.203 171.466C100.285 171.548 100.397 171.595 100.514 171.595H157.679C159.281 171.591 160.821 172.214 161.969 173.331C163.117 174.447 163.784 175.969 163.825 177.57V177.57Z" fill="#263238"/>
<path d="M157.569 175.897V181.185L155.654 179.27L153.8 181.125V175.897H157.569Z" fill="#124B92"/>
<path d="M172.442 101.57H171.067C170.811 101.575 170.56 101.641 170.336 101.763C170.111 101.885 169.918 102.058 169.774 102.269L168.409 104.261C168.138 104.654 167.966 105.107 167.906 105.581C167.847 106.055 167.902 106.536 168.068 106.985L168.277 107.535C170.56 107.645 173.114 106.082 173.114 106.082L173.895 105.719C174.056 105.649 174.202 105.547 174.324 105.42C174.446 105.293 174.541 105.143 174.605 104.978C174.668 104.814 174.698 104.639 174.694 104.463C174.689 104.287 174.649 104.113 174.577 103.953L173.878 102.44C173.748 102.172 173.543 101.947 173.289 101.793C173.034 101.639 172.74 101.561 172.442 101.57V101.57Z" fill="#EEC1BB"/>
<path d="M146.366 103.997C149.899 106.852 153.712 109.604 157.921 111.287L157.399 111.177C157.784 111.271 158.796 110.886 159.324 110.627C162.263 109.196 165.047 107.051 167.688 105.092C167.959 104.896 168.29 104.803 168.623 104.831C168.955 104.858 169.267 105.004 169.502 105.241C169.736 105.478 169.878 105.792 169.902 106.125C169.926 106.458 169.829 106.788 169.631 107.056C166.995 110.358 161.063 117.065 156.364 116.086C151.214 114.55 146.663 111.684 142.608 108.179C139.978 105.647 143.505 101.691 146.366 103.997Z" fill="#EBC0BB"/>
<path d="M138.954 100.106C137.667 103.694 139.741 107.26 144.732 111.458C147.213 111.089 150.564 106 150.564 106C150.564 106 143.543 98.9785 138.954 100.106Z" fill="#124B92"/>
<path d="M143.246 77.8214C143.246 77.8214 138.333 72.7922 131.928 79.1035C125.523 85.4148 124.274 106.324 124.274 106.324L140.99 109.571C140.99 109.571 143.153 107.089 144.264 99.9303C145.376 92.7716 145.965 85.9266 147.373 84.3308C148.782 82.7351 143.246 77.8214 143.246 77.8214Z" fill="#263238"/>
<path d="M157.602 183.711L153.981 182.269L155.396 176.992L156.7 172.15L161.278 173.163L159.335 178.748L157.602 183.711Z" fill="#EEC1BB"/>
<path opacity="0.2" d="M159.291 178.863L155.357 177.092L156.683 172.2L161.267 173.19L159.291 178.863Z" fill="#3A3A3A"/>
<path d="M130.205 136.164C130.205 136.164 160.469 132.081 168.877 137.452C177.284 142.822 161.002 175.529 161.002 175.529L155.907 174.428C155.907 174.428 159.726 148.501 159.44 147.417C159.154 146.333 144.902 153.403 125.396 154.075L130.205 136.164Z" fill="#263238"/>
<path opacity="0.2" d="M130.205 136.164C130.205 136.164 160.469 132.081 168.877 137.452C177.284 142.822 161.002 175.529 161.002 175.529L155.907 174.428C155.907 174.428 159.726 148.501 159.44 147.417C159.154 146.333 144.902 153.403 125.396 154.075L130.205 136.164Z" fill="#3A3A3A"/>
<path d="M155.627 172.778L162.037 174.858L160.887 177.779L155 175.776L155.627 172.778Z" fill="#263238"/>
<path d="M160.953 184.525C160.26 184.525 159.038 183.425 158.785 183.161C158.77 183.147 158.759 183.13 158.752 183.111V183.078C158.751 183.043 158.76 183.009 158.78 182.979C158.813 182.941 159.616 181.879 160.386 181.846C160.503 181.834 160.62 181.848 160.731 181.887C160.841 181.926 160.941 181.989 161.025 182.071C161.217 182.253 161.283 182.429 161.217 182.594C161.113 182.858 160.667 183.001 160.166 183.089C160.571 183.147 160.953 183.317 161.267 183.579C161.322 183.634 161.365 183.701 161.392 183.774C161.42 183.847 161.431 183.925 161.426 184.003C161.426 184.322 161.256 184.448 161.135 184.492C161.077 184.515 161.015 184.526 160.953 184.525V184.525ZM159.247 183.221C159.886 183.772 160.733 184.366 161.036 184.245C161.036 184.245 161.146 184.206 161.157 183.986C161.159 183.944 161.152 183.903 161.137 183.864C161.122 183.825 161.099 183.79 161.069 183.76C160.771 183.43 159.853 183.276 159.247 183.232V183.221ZM160.447 182.121H160.397C159.911 182.249 159.48 182.533 159.17 182.93C160.012 182.891 160.87 182.732 160.959 182.506C160.986 182.434 160.893 182.33 160.832 182.275C160.727 182.179 160.589 182.128 160.447 182.132V182.121Z" fill="#577AFA"/>
<path d="M153.305 180.019C153.448 179.612 158.361 181.565 158.361 181.565C158.361 181.565 160.43 185.708 163.204 187.392C165.977 189.076 163.71 190.33 160.359 189.235L152.061 186.534C149.667 185.763 151.824 184.223 153.305 180.019Z" fill="#2E353A"/>
<path opacity="0.4" d="M155.627 172.778L162.037 174.858L160.887 177.779L155 175.776L155.627 172.778Z" fill="white"/>
<path d="M173.394 194.182L169.642 195.239L167.551 190.187L165.647 185.554L169.895 183.573L171.749 189.191L173.394 194.182Z" fill="#EEC1BB"/>
<path d="M167.974 192.586C167.974 192.157 173.268 192.625 173.268 192.625C173.268 192.625 176.432 196.009 179.568 196.829C182.704 197.649 180.894 199.498 177.367 199.415L168.646 199.195C166.142 199.134 167.76 197.038 167.974 192.586Z" fill="#2E353A"/>
<path d="M176.047 194.039C175.275 193.934 174.53 193.69 173.846 193.318L173.807 193.291C173.805 193.276 173.805 193.261 173.807 193.247C173.805 193.234 173.805 193.221 173.807 193.208V193.208C173.801 193.19 173.801 193.171 173.807 193.153C173.807 193.093 174.297 191.882 175.018 191.601C175.126 191.557 175.243 191.537 175.36 191.544C175.478 191.551 175.592 191.584 175.694 191.64C175.931 191.756 176.041 191.904 176.03 192.086C176.003 192.366 175.606 192.636 175.166 192.856C175.575 192.795 175.993 192.85 176.371 193.016C176.439 193.053 176.498 193.104 176.544 193.166C176.591 193.227 176.624 193.298 176.641 193.373C176.676 193.468 176.682 193.572 176.658 193.67C176.633 193.768 176.579 193.856 176.503 193.924C176.37 194.015 176.208 194.056 176.047 194.039V194.039ZM174.302 193.247C175.078 193.593 176.052 193.918 176.311 193.714C176.311 193.714 176.404 193.643 176.355 193.434C176.346 193.393 176.328 193.354 176.302 193.321C176.276 193.288 176.244 193.26 176.206 193.241C175.821 193.01 174.897 193.137 174.302 193.247ZM175.293 191.811C175.223 191.81 175.154 191.823 175.089 191.849C174.665 192.106 174.333 192.491 174.143 192.95C174.941 192.674 175.717 192.273 175.739 192.036C175.739 191.959 175.623 191.882 175.551 191.849C175.469 191.817 175.381 191.804 175.293 191.811V191.811Z" fill="#577AFA"/>
<path opacity="0.2" d="M171.782 189.307L167.584 190.292L165.658 185.604L169.9 183.601L171.782 189.307Z" fill="#3A3A3A"/>
<path d="M138.789 140.076C138.789 140.076 138.355 134.09 138.151 132.868C137.983 131.657 137.735 130.459 137.408 129.281C136.082 125.291 118.292 129.985 118.292 129.985L117.786 132.736C117.786 132.736 109.758 147.873 115.123 153.326C116.774 154.977 119.949 155.725 123.212 155.703C123.212 155.703 133.188 156.182 151.742 155.318C151.742 155.318 150.366 166.125 165.658 187.299L170.775 185.648C170.775 185.648 160.673 147.208 159.814 146.525C152.419 140.55 138.789 140.076 138.789 140.076Z" fill="#263238"/>
<path d="M164.733 187.04L171.089 184.789L171.953 187.81L166.059 189.802L164.733 187.04Z" fill="#263238"/>
<path d="M144.77 102.973C144.77 102.973 144.132 104.536 143.241 107.265C143.026 107.903 142.806 108.608 142.575 109.367C142.272 110.363 141.947 111.458 141.623 112.669C141.386 113.527 141.15 114.424 140.919 115.37C140.687 116.317 140.44 117.34 140.203 118.38C140.203 118.501 140.148 118.628 140.126 118.749C139.12 123.006 138.385 127.324 137.925 131.674L118.38 129.968C118.378 125.679 118.6 121.392 119.046 117.126C119.399 113.429 120.082 109.772 121.088 106.198C121.863 103.623 122.865 101.411 124.152 99.9634C124.152 99.9854 134.75 96.5079 144.77 102.973Z" fill="#124B92"/>
<path d="M134.811 97.1791C128.929 95.2972 126.646 99.9303 126.646 99.9303L129.776 99.6222L136.132 107.601L139.857 102.775L142.201 104.035C142.201 104.035 139.906 98.8078 134.811 97.1791Z" fill="#124B92"/>
<path opacity="0.6" d="M134.811 97.1791C128.929 95.2972 126.646 99.9303 126.646 99.9303L129.776 99.6222L136.132 107.601L139.857 102.775L142.201 104.035C142.201 104.035 139.906 98.8078 134.811 97.1791Z" fill="white"/>
<path d="M135.967 107.166L130.574 99.094C133.116 97.944 134.8 93.0798 135.169 90.3396L138.976 96.0952C137.733 97.944 136.902 100.057 139.752 101.653C139.763 101.653 135.961 107.15 135.967 107.166Z" fill="#EEC1BB"/>
<path opacity="0.2" d="M136.72 92.6891L138.976 96.0951C138.68 96.5177 138.424 96.9673 138.211 97.4377C137.083 96.9315 135.884 95.2367 136.164 94.0647C136.26 93.5749 136.449 93.1079 136.72 92.6891V92.6891Z" fill="#3A3A3A"/>
<path d="M118.078 130.59L124.191 130.992L123.971 132.72L117.478 132.252L118.078 130.59Z" fill="#3A3A3A"/>
<path d="M138.415 133.748L124.708 132.769L124.928 131.041L138.195 131.916L138.415 133.748Z" fill="#3A3A3A"/>
<path d="M133.391 133.743H133.336L131.686 133.633C131.489 133.62 131.304 133.531 131.173 133.383C131.041 133.236 130.972 133.043 130.981 132.846L131.025 131.746C131.025 131.641 131.047 131.538 131.089 131.444C131.132 131.349 131.195 131.264 131.273 131.195C131.346 131.126 131.432 131.072 131.527 131.038C131.622 131.004 131.723 130.99 131.823 130.997L133.54 131.096C133.64 131.102 133.738 131.127 133.828 131.171C133.918 131.215 133.999 131.276 134.065 131.352C134.131 131.427 134.181 131.515 134.213 131.61C134.245 131.705 134.257 131.805 134.25 131.905L134.167 133.05C134.149 133.242 134.059 133.42 133.915 133.549C133.771 133.677 133.584 133.747 133.391 133.743V133.743ZM131.554 131.74L131.504 132.841C131.502 132.894 131.522 132.946 131.557 132.986C131.593 133.026 131.643 133.051 131.697 133.055L133.347 133.171C133.402 133.174 133.456 133.155 133.497 133.119C133.538 133.083 133.563 133.033 133.567 132.978L133.65 131.839C133.653 131.811 133.65 131.783 133.641 131.757C133.633 131.73 133.619 131.706 133.6 131.685C133.582 131.665 133.56 131.649 133.536 131.638C133.511 131.626 133.484 131.62 133.457 131.619L131.741 131.52C131.686 131.518 131.632 131.538 131.592 131.575C131.571 131.593 131.555 131.615 131.543 131.639C131.532 131.664 131.526 131.691 131.526 131.718L131.554 131.74Z" fill="white"/>
<path opacity="0.5" d="M164.733 187.04L171.089 184.789L171.953 187.81L166.059 189.802L164.733 187.04Z" fill="white"/>
<path d="M148.529 88.8593C148.5 88.8602 148.472 88.8529 148.448 88.8382C148.424 88.8236 148.404 88.8023 148.391 88.7768C148.239 88.48 148.021 88.2218 147.754 88.0216C147.487 87.8214 147.178 87.6845 146.851 87.6213C146.83 87.6206 146.81 87.6158 146.791 87.6069C146.773 87.5981 146.756 87.5856 146.743 87.5701C146.729 87.5546 146.719 87.5364 146.713 87.5168C146.707 87.4972 146.705 87.4766 146.707 87.4562C146.713 87.4168 146.733 87.3809 146.763 87.3555C146.794 87.33 146.833 87.3169 146.873 87.3186C147.253 87.3837 147.613 87.5371 147.924 87.7664C148.234 87.9958 148.487 88.2947 148.661 88.6392C148.67 88.6568 148.676 88.6762 148.678 88.6961C148.68 88.716 148.677 88.7361 148.671 88.7551C148.665 88.7741 148.655 88.7916 148.642 88.8067C148.629 88.8218 148.613 88.8341 148.595 88.8428L148.529 88.8593Z" fill="#263238"/>
<path d="M146.691 91.2419C146.751 92.0057 146.902 92.7594 147.142 93.4869C146.948 93.6061 146.724 93.6692 146.496 93.6692C146.267 93.6692 146.044 93.6061 145.849 93.4869L146.691 91.2419Z" fill="#D4827D"/>
<path d="M147.907 90.4221C147.764 90.7633 147.467 90.9724 147.236 90.8733C147.005 90.7743 146.933 90.4221 147.076 90.081C147.219 89.7398 147.516 89.5307 147.747 89.6298C147.979 89.7288 148.045 90.0755 147.907 90.4221Z" fill="#263238"/>
<path d="M147.643 89.6077H148.506C148.506 89.6077 147.879 90.0974 147.643 89.6077Z" fill="#263238"/>
<path d="M135.24 93.3824C135.261 93.4388 135.289 93.4924 135.323 93.542C135.378 93.652 135.438 93.7511 135.499 93.8611C135.852 94.5386 136.332 95.1419 136.913 95.6384C138.789 97.1956 140.407 97.6908 141.865 97.2891C141.937 97.2891 142.003 97.2451 142.074 97.2231C144.231 96.4087 145.926 93.9216 147.362 90.5651C147.984 89.2656 148.391 87.8737 148.567 86.4438C148.567 86.4438 148.567 86.3943 148.567 86.3832C148.567 86.3722 148.567 86.2677 148.567 86.2182C148.637 85.3958 148.501 84.5689 148.171 83.8126C147.84 83.0563 147.326 82.3946 146.674 81.8877C146.118 81.4298 145.513 81.0349 144.869 80.7102C138.619 77.4637 132.219 87.3407 135.24 93.3824Z" fill="#EEC1BB"/>
<path d="M148.567 86.3887C148.567 86.3887 146.685 90.9888 141.535 90.7907C141.535 90.7907 137.419 94.4829 134.739 93.2118C131.08 91.4785 130.486 84.7325 134.376 80.1269C139.433 74.1512 149.998 78.7843 148.567 86.3887Z" fill="#263238"/>
<path d="M144.314 90.5927C144.66 89.8994 144.688 88.4633 143.538 88.0781C142.388 87.6929 140.347 90.1085 142.768 92.0949C143.114 92.381 143.615 92.0343 144.314 90.5927Z" fill="#EEC1BB"/>
<path d="M143.246 77.8214C143.246 77.8214 148.006 78.8779 149.481 81.7502C151.208 85.1067 151.208 87.6763 146.377 89.2335C146.377 89.2335 140.451 83.3679 137.848 82.6691C136.331 82.2522 134.781 81.9632 133.215 81.8052C135.081 76.875 141.37 75.6755 143.246 77.8214Z" fill="#263238"/>
<path d="M141.546 90.7907C138.553 96.7719 131.972 106.935 124.956 99.7653C124.956 99.7653 127.476 91.6546 132.566 88.3091C137.656 84.9636 141.546 90.7907 141.546 90.7907Z" fill="#263238"/>
<path d="M140.462 100.767C143.021 102.66 139.747 108.888 142.977 110.275C142.673 109.855 142.482 109.365 142.423 108.85C142.363 108.336 142.436 107.815 142.635 107.337C143.312 105.642 146.058 101.163 144.963 95.0992L140.462 100.767Z" fill="#263238"/>
<path opacity="0.2" d="M127.207 113.901C127.207 113.901 123.025 116.735 119.068 117.087C119.416 113.404 120.092 109.76 121.088 106.198C121.594 105.913 122.159 105.747 122.739 105.714C125.677 105.769 126.75 108.525 126.75 108.525C127.068 110.299 127.221 112.099 127.207 113.901V113.901Z" fill="#3A3A3A"/>
<path d="M142.47 133.528L141.59 132.472C141.425 132.279 141.215 132.128 140.98 132.033C140.744 131.937 140.49 131.899 140.236 131.922L137.826 132.098C137.35 132.132 136.889 132.281 136.482 132.531C136.075 132.781 135.734 133.125 135.488 133.534L135.18 134.046C136.522 135.9 139.334 136.918 139.334 136.918L140.104 137.298C140.259 137.381 140.429 137.433 140.604 137.451C140.779 137.468 140.956 137.451 141.124 137.4C141.293 137.349 141.449 137.265 141.585 137.153C141.72 137.041 141.833 136.903 141.915 136.747L142.685 135.229C142.823 134.956 142.876 134.649 142.838 134.346C142.8 134.043 142.672 133.758 142.47 133.528V133.528Z" fill="#EEC1BB"/>
<path d="M125.528 108.234C125.461 111.699 125.71 115.163 126.271 118.584C126.477 119.678 126.743 120.76 127.069 121.825L126.827 121.346C128.098 123.288 129.958 125.088 131.581 126.848L134.299 129.655L137.05 132.477C137.293 132.722 137.436 133.047 137.453 133.39C137.47 133.734 137.359 134.071 137.141 134.338C136.924 134.605 136.615 134.781 136.276 134.834C135.936 134.887 135.588 134.812 135.3 134.623C134.161 133.903 133.099 133.143 131.999 132.373C128.642 129.847 125.258 127.487 122.645 124.119C120.367 119.073 119.811 113.466 120.004 107.986C120.328 104.327 125.633 104.596 125.589 108.267L125.528 108.234Z" fill="#EBC0BB"/>
<path d="M123.965 100.018C120.361 101.256 118.87 105.108 118.71 111.623C120.554 113.334 126.617 112.768 126.617 112.768C126.617 112.768 127.712 102.896 123.965 100.018Z" fill="#124B92"/>
<path d="M162.802 138.591V140.313C162.802 140.759 162.252 140.94 161.834 140.94H127.107C126.662 140.94 126.123 140.759 126.123 140.313V138.574L162.802 138.591Z" fill="#263238"/>
<path opacity="0.4" d="M162.802 138.591V140.313C162.802 140.759 162.252 140.94 161.834 140.94H127.107C126.662 140.94 126.123 140.759 126.123 140.313V138.574L162.802 138.591Z" fill="white"/>
<path opacity="0.2" d="M162.802 138.591V140.313C162.802 140.759 162.251 140.94 161.833 140.94H138.932C138.486 140.94 137.958 140.759 137.958 140.313V138.574L162.802 138.591Z" fill="#3A3A3A"/>
<path d="M168.613 120.554L164.475 139.301C164.401 139.602 164.23 139.871 163.987 140.064C163.743 140.258 163.443 140.365 163.132 140.368H140.572C140.432 140.364 140.294 140.328 140.171 140.262C140.047 140.196 139.94 140.102 139.858 139.989C139.776 139.875 139.721 139.743 139.698 139.605C139.675 139.467 139.684 139.325 139.725 139.191L143.857 120.581C143.941 120.298 144.119 120.052 144.363 119.885C144.606 119.717 144.9 119.639 145.194 119.662H167.782C168.376 119.662 168.745 119.954 168.613 120.554Z" fill="#263238"/>
<path opacity="0.4" d="M168.612 120.554L164.475 139.301C164.401 139.602 164.229 139.871 163.986 140.064C163.743 140.258 163.443 140.365 163.132 140.368H141.32C141.179 140.365 141.041 140.329 140.917 140.263C140.792 140.198 140.684 140.105 140.602 139.991C140.519 139.877 140.464 139.745 140.441 139.606C140.418 139.468 140.427 139.325 140.467 139.19L144.6 120.581C144.684 120.297 144.863 120.05 145.107 119.883C145.352 119.715 145.647 119.637 145.942 119.662H167.76C168.376 119.662 168.745 119.954 168.612 120.554Z" fill="white"/>
<path opacity="0.2" d="M157.475 130.084C157.475 131.685 155.753 132.989 154.493 132.989C153.233 132.989 152.485 131.685 152.842 130.084C153.2 128.483 154.46 127.223 155.693 127.179C155.335 128.78 156.105 130.084 157.343 130.084H157.475Z" fill="#3A3A3A"/>
</svg>
