<svg width="43" height="39" viewBox="0 0 43 39" fill="none" xmlns="http://www.w3.org/2000/svg">
<path fill-rule="evenodd" clip-rule="evenodd" d="M20.4554 3.05751C14.7206 -0.39218 7.70698 -0.955606 1.49748 1.53457C0.593056 1.89727 0 2.77548 0 3.75208V27.6863C0 29.2895 1.61508 30.3858 3.09983 29.7904C8.18476 27.7512 13.9282 28.2125 18.6244 31.0375L20.949 32.4358C21.1263 32.5425 21.3159 32.5891 21.5 32.5858C21.6841 32.5891 21.8737 32.5425 22.051 32.4358L24.3756 31.0375C29.0718 28.2125 34.8152 27.7512 39.9002 29.7904C41.3849 30.3858 43 29.2895 43 27.6863V3.75208C43 2.77548 42.4069 1.89727 41.5025 1.53457C35.293 -0.955606 28.2794 -0.39218 22.5446 3.05751L21.5 3.68588L20.4554 3.05751ZM23.0357 7.96221C23.0357 7.11189 22.3482 6.42256 21.5 6.42256C20.6518 6.42256 19.9643 7.11189 19.9643 7.96221V27.4645C19.9643 28.3148 20.6518 29.0042 21.5 29.0042C22.3482 29.0042 23.0357 28.3148 23.0357 27.4645V7.96221Z" fill="white"/>
<path d="M2.508 33.7098C6.65209 31.2863 11.7765 31.2863 15.9206 33.7098L18.1469 35.0118C20.2189 36.2236 22.7811 36.2236 24.8531 35.0118L27.0794 33.7098C31.2235 31.2863 36.3479 31.2863 40.492 33.7098L40.7024 33.8329C41.435 34.2613 41.6824 35.2041 41.2551 35.9386C40.8277 36.6731 39.8874 36.9212 39.1548 36.4927L38.9444 36.3697C35.7566 34.5054 31.8148 34.5054 28.627 36.3697L26.4007 37.6717C23.3724 39.4428 19.6276 39.4428 16.5993 37.6717L14.373 36.3697C11.1852 34.5054 7.24337 34.5054 4.05561 36.3697L3.84523 36.4927C3.11262 36.9212 2.17227 36.6731 1.74491 35.9386C1.31755 35.2041 1.56501 34.2613 2.29763 33.8329L2.508 33.7098Z" fill="white"/>
</svg>
