<svg width="48" height="50" viewBox="0 0 48 50" fill="none" xmlns="http://www.w3.org/2000/svg">
<path d="M24 0C17.5864 0 12.3871 5.09414 12.3871 11.3781C12.3871 17.662 17.5864 22.7562 24 22.7562C30.4136 22.7562 35.6129 17.662 35.6129 11.3781C35.6129 5.09414 30.4136 0 24 0Z" fill="white"/>
<path d="M11.6129 28.8245C5.19927 28.8245 0 33.9186 0 40.2025V43.808C0 46.0934 1.69048 48.042 3.99258 48.4103C17.2431 50.5299 30.7569 50.5299 44.0074 48.4103C46.3095 48.042 48 46.0934 48 43.808V40.2025C48 33.9186 42.8007 28.8245 36.3871 28.8245H35.3315C34.7602 28.8245 34.1924 28.913 33.6493 29.0867L30.969 29.9442C26.4407 31.393 21.5593 31.393 17.031 29.9442L14.3507 29.0867C13.8076 28.913 13.2398 28.8245 12.6685 28.8245H11.6129Z" fill="white"/>
</svg>
