<svg width="400" height="400" viewBox="0 0 400 400" fill="none" xmlns="http://www.w3.org/2000/svg">
<path fill-rule="evenodd" clip-rule="evenodd" d="M200.004 268.753C133.732 268.753 80.0083 232.651 80.0083 188.117C80.0083 143.583 133.732 107.481 200.004 107.481C266.276 107.481 320 143.583 320 188.117C320 232.651 266.276 268.753 200.004 268.753ZM218.371 139.007C167.999 139.007 127.164 163.688 127.164 194.133C127.164 224.578 167.999 249.259 218.371 249.259C268.743 249.259 305.917 232.385 305.917 194.133C305.917 155.893 268.743 139.007 218.371 139.007Z" fill="#DDDDDD"/>
<path fill-rule="evenodd" clip-rule="evenodd" d="M262.755 232.375C262.755 232.375 270.018 234.574 274.237 236.716C275.701 237.459 278.235 238.942 280.062 240.89C281.852 242.797 282.724 244.73 282.724 244.73L311.346 293.151L265.085 293.172L243.452 252.411C243.452 252.411 239.022 244.774 236.296 242.56C234.023 240.713 233.053 240.055 230.805 240.055C229.24 240.055 219.813 240.055 219.813 240.055L219.822 293.143L178.886 293.16V157.552H261.091C261.091 157.552 298.533 158.229 298.533 193.972C298.533 229.714 262.755 232.375 262.755 232.375ZM244.95 186.967L220.167 186.951L220.155 210.009L244.95 210.001C244.95 210.001 256.432 209.965 256.432 198.272C256.432 186.343 244.95 186.967 244.95 186.967Z" fill="#124B92"/>
</svg>
