<svg width="43" height="38" viewBox="0 0 43 38" fill="none" xmlns="http://www.w3.org/2000/svg">
<path d="M42.3856 20.0381C42.7648 19.8286 43 19.4313 43 19C43 18.5687 42.7648 18.1714 42.3856 17.9619L36.9334 14.9505C26.1917 9.01761 14.8682 4.19159 3.1395 0.547674L1.55072 0.0540646C1.18804 -0.0586135 0.793072 0.00698735 0.486933 0.230752C0.180791 0.454516 0 0.809743 0 1.18751V14.8437C0 15.4753 0.497267 15.9964 1.13167 16.0296L3.54359 16.1558C9.4241 16.4635 15.2687 17.2565 21.0172 18.5265L21.5865 18.6522C21.7131 18.6802 21.768 18.7317 21.7985 18.7726C21.837 18.8241 21.867 18.9035 21.867 19C21.867 19.0965 21.837 19.1759 21.7985 19.2274C21.768 19.2683 21.7131 19.3198 21.5865 19.3478L21.0172 19.4735C15.2687 20.7435 9.42408 21.5365 3.54353 21.8442L1.13166 21.9704C0.497267 22.0036 0 22.5247 0 23.1562V36.8125C0 37.1903 0.180789 37.5455 0.486932 37.7692C0.79307 37.993 1.18804 38.0586 1.55072 37.9459L3.13953 37.4523C14.8682 33.8084 26.1917 28.9824 36.9334 23.0495L42.3856 20.0381Z" fill="white"/>
</svg>
