<svg width="21" height="20" viewBox="0 0 21 20" fill="none" xmlns="http://www.w3.org/2000/svg">
<path d="M11.2764 0.498114C10.891 -0.166037 9.93188 -0.166039 9.5465 0.498114L6.83245 5.17542C6.64208 5.50351 6.31303 5.7274 5.93796 5.78405L0.85165 6.55227C-0.0026322 6.6813 -0.302292 7.75991 0.363014 8.31111L4.1521 11.4503C4.50285 11.7409 4.66777 12.1993 4.58256 12.6467L3.5914 17.8519C3.43471 18.6747 4.2985 19.314 5.03965 18.9238L9.82906 16.4019C10.1936 16.21 10.6293 16.21 10.9938 16.4019L15.7832 18.9238C16.5244 19.314 17.3882 18.6747 17.2315 17.8519L16.2403 12.6467C16.1551 12.1993 16.32 11.7409 16.6708 11.4503L20.4599 8.31111C21.1252 7.75991 20.8255 6.6813 19.9712 6.55227L14.8849 5.78405C14.5098 5.7274 14.1808 5.50351 13.9904 5.17542L11.2764 0.498114Z" fill="#124B92"/>
<mask id="mask0_164_1352" style="mask-type:alpha" maskUnits="userSpaceOnUse" x="10" y="0" width="11" height="19">
<rect x="10" width="11" height="19" fill="#C4C4C4"/>
</mask>
<g mask="url(#mask0_164_1352)">
<path d="M11.2764 0.498114C10.891 -0.166037 9.93188 -0.166039 9.5465 0.498114L6.83245 5.17542C6.64208 5.50351 6.31303 5.7274 5.93796 5.78405L0.85165 6.55227C-0.0026322 6.6813 -0.302292 7.75991 0.363014 8.31111L4.1521 11.4503C4.50285 11.7409 4.66777 12.1993 4.58256 12.6467L3.5914 17.8519C3.43471 18.6747 4.2985 19.314 5.03965 18.9238L9.82906 16.4019C10.1936 16.21 10.6293 16.21 10.9938 16.4019L15.7832 18.9238C16.5244 19.314 17.3882 18.6747 17.2315 17.8519L16.2403 12.6467C16.1551 12.1993 16.32 11.7409 16.6708 11.4503L20.4599 8.31111C21.1252 7.75991 20.8255 6.6813 19.9712 6.55227L14.8849 5.78405C14.5098 5.7274 14.1808 5.50351 13.9904 5.17542L11.2764 0.498114Z" fill="#BDC7D4"/>
</g>
</svg>
