<svg width="22" height="20" viewBox="0 0 22 20" fill="none" xmlns="http://www.w3.org/2000/svg">
<path d="M11.8647 0.498114C11.4794 -0.166037 10.5203 -0.166039 10.1349 0.498114L7.42083 5.17542C7.23045 5.50351 6.90141 5.7274 6.52634 5.78405L1.44003 6.55227C0.585747 6.6813 0.286087 7.75991 0.951392 8.31111L4.74048 11.4503C5.09123 11.7409 5.25615 12.1993 5.17094 12.6467L4.17978 17.8519C4.02309 18.6747 4.88688 19.314 5.62803 18.9238L10.4174 16.4019C10.782 16.21 11.2177 16.21 11.5822 16.4019L16.3716 18.9238C17.1128 19.314 17.9765 18.6747 17.8199 17.8519L16.8287 12.6467C16.7435 12.1993 16.9084 11.7409 17.2591 11.4503L21.0482 8.31111C21.7135 7.75991 21.4139 6.6813 20.5596 6.55227L15.4733 5.78405C15.0982 5.7274 14.7692 5.50351 14.5788 5.17542L11.8647 0.498114Z" fill="#7B90AA" fill-opacity="0.5"/>
</svg>
