<svg width="400" height="400" viewBox="0 0 400 400" fill="none" xmlns="http://www.w3.org/2000/svg">
<path d="M382.004 152.74H387.986C389.149 152.74 390.052 152.97 390.655 153.47C391.301 153.932 391.645 154.547 391.645 155.316C391.645 155.777 391.516 156.161 391.258 156.507C390.999 156.892 390.655 157.161 390.138 157.392C389.665 157.584 388.933 157.738 387.9 157.853C388.675 158.007 389.149 158.199 389.45 158.353C389.751 158.545 389.966 158.776 390.138 159.045C390.311 159.314 390.483 159.89 390.698 160.736C390.87 161.351 391.042 161.774 391.214 162.005C391.344 162.159 391.473 162.236 391.645 162.236C391.817 162.236 391.946 162.159 392.118 161.928C392.247 161.736 392.334 161.351 392.334 160.813H392.893C392.807 162.389 392.118 163.197 390.913 163.197C390.526 163.197 390.225 163.12 389.923 162.928C389.665 162.774 389.45 162.505 389.321 162.159C389.192 161.928 389.062 161.274 388.933 160.198C388.847 159.583 388.718 159.122 388.546 158.852C388.374 158.622 388.116 158.391 387.771 158.237C387.427 158.084 386.997 158.007 386.48 158.007H385.533V162.082C385.533 162.236 385.576 162.351 385.662 162.428C385.791 162.505 386.007 162.543 386.265 162.543H387.384V163.081H382.004V162.543H383.123C383.381 162.543 383.553 162.505 383.682 162.428C383.812 162.351 383.855 162.236 383.855 162.082V153.816C383.855 153.624 383.812 153.509 383.682 153.393C383.553 153.316 383.381 153.278 383.123 153.278H382.004V152.74ZM385.533 157.507H386.91C387.814 157.507 388.546 157.353 389.062 157.046C389.579 156.738 389.837 156.161 389.837 155.392C389.837 154.854 389.751 154.393 389.536 154.085C389.364 153.778 389.106 153.547 388.761 153.432C388.46 153.316 387.814 153.278 386.91 153.278C386.265 153.278 385.878 153.316 385.748 153.393C385.619 153.47 385.533 153.586 385.533 153.778V157.507Z" fill="#124B92"/>
<path d="M396 157.977C396 160.329 395.066 162.585 393.403 164.248C391.74 165.911 389.484 166.845 387.132 166.845C384.78 166.845 382.525 165.911 380.862 164.248C379.198 162.585 378.264 160.329 378.264 157.977C378.264 155.625 379.198 153.37 380.862 151.707C382.525 150.044 384.78 149.109 387.132 149.109C389.484 149.109 391.74 150.044 393.403 151.707C395.066 153.37 396 155.625 396 157.977Z" stroke="#124B92" stroke-width="2.3182"/>
<path d="M90.9513 163.389L83.2656 183.656H32.2767C21.4693 183.656 21.3482 197.869 32.2767 197.869H62.1036C100.111 197.816 100.111 251.774 62.1036 251.774H3.77637L11.7885 231.981H62.8932C73.8954 231.981 74.1586 217.61 62.8932 217.61H33.419C-5.09379 217.61 -5.21487 163.389 33.419 163.389H90.9513Z" fill="#124B92"/>
<path d="M93.11 163.389L85.4243 183.656H109.692V251.774H129.644V183.656H148.805L156.491 163.389H93.11Z" fill="#124B92"/>
<path d="M158.069 163.389L150.384 183.656H207.5C211.343 183.656 214.607 185.972 214.607 190.289V197.869H169.387C134.486 197.869 134.328 251.774 169.387 251.774H234.505V189.973C234.505 177.181 223.766 163.389 206.447 163.389H158.069ZM170.44 217.61H214.607V231.981H170.44C160.122 231.981 160.438 217.61 170.44 217.61Z" fill="#124B92"/>
<path d="M307.731 163.389L300.045 183.656H357.162C361.057 183.656 364.321 185.972 364.321 190.289V197.869H319.102C284.2 197.869 284.042 251.774 319.102 251.774H384.167V189.973C384.167 177.181 373.428 163.389 356.162 163.389H307.731ZM320.102 217.61H364.321V231.981H320.102C309.837 231.981 310.1 217.61 320.102 217.61Z" fill="#124B92"/>
<path d="M242.402 163.389L234.716 183.656H258.984V251.774H278.882V183.656H298.044L305.782 163.389H242.402Z" fill="#124B92"/>
</svg>
